<svg xmlns="http://www.w3.org/2000/svg" xmlns:xlink="http://www.w3.org/1999/xlink" width="113" height="113" viewBox="0 0 113 113">
  <defs>
    <filter id="Trazado_982547" x="0" y="0" width="113" height="113" filterUnits="userSpaceOnUse">
      <feOffset dy="3" input="SourceAlpha"/>
      <feGaussianBlur stdDeviation="3" result="blur"/>
      <feFlood flood-opacity="0.161"/>
      <feComposite operator="in" in2="blur"/>
      <feComposite in="SourceGraphic"/>
    </filter>
  </defs>
  <g id="Grupo_1222131" data-name="Grupo 1222131" transform="translate(-1163 -1629.718)">
    <g id="Grupo_1221204" data-name="Grupo 1221204" transform="translate(0 188.666)">
      <g id="Grupo_1212634" data-name="Grupo 1212634" transform="translate(0 -6098.948)">
        <g id="Grupo_1209994" data-name="Grupo 1209994" transform="translate(0.5 11.192)">
          <g id="Grupo_1208707" data-name="Grupo 1208707" transform="translate(-1.454 3213.429)">
            <g id="Grupo_1148635" data-name="Grupo 1148635" transform="translate(908.908 600.047)">
              <g id="Grupo_1148525" data-name="Grupo 1148525" transform="translate(264.046 3721.333)">
                <g transform="matrix(1, 0, 0, 1, -9, -6)" filter="url(#Trazado_982547)">
                  <g id="Trazado_982547-2" data-name="Trazado 982547" transform="translate(9 6)" fill="#e4f1d4">
                    <path d="M 47.5 93.5 C 41.28937149047852 93.5 35.26533508300781 92.28397369384766 29.59518623352051 89.88570404052734 C 24.11771965026855 87.56893157958984 19.19813346862793 84.25196075439453 14.97309303283691 80.02691650390625 C 10.74804019927979 75.80186462402344 7.431066513061523 70.88229370117188 5.114293098449707 65.40481567382812 C 2.716026782989502 59.73468017578125 1.5 53.71062850952148 1.5 47.5 C 1.5 41.28937149047852 2.716026782989502 35.26533508300781 5.114293098449707 29.59518623352051 C 7.431066513061523 24.11771965026855 10.74804019927979 19.19813346862793 14.97309303283691 14.97309303283691 C 19.19813346862793 10.74804019927979 24.11771965026855 7.431066513061523 29.59518623352051 5.114293098449707 C 35.26533508300781 2.716026782989502 41.28937149047852 1.5 47.5 1.5 C 53.71062850952148 1.5 59.73468017578125 2.716026782989502 65.40481567382812 5.114293098449707 C 70.88229370117188 7.431066513061523 75.80186462402344 10.74804019927979 80.02691650390625 14.97309303283691 C 84.25196075439453 19.19813346862793 87.56893157958984 24.11771965026855 89.88570404052734 29.59518623352051 C 92.28397369384766 35.26533508300781 93.5 41.28937149047852 93.5 47.5 C 93.5 53.71062850952148 92.28397369384766 59.73468017578125 89.88570404052734 65.40481567382812 C 87.56893157958984 70.88229370117188 84.25196075439453 75.80186462402344 80.02691650390625 80.02691650390625 C 75.80186462402344 84.25196075439453 70.88229370117188 87.56893157958984 65.40481567382812 89.88570404052734 C 59.73468017578125 92.28397369384766 53.71062850952148 93.5 47.5 93.5 Z" stroke="none"/>
                    <path d="M 47.5 3 C 41.49121475219727 3 35.66376876831055 4.176155090332031 30.17950439453125 6.495796203613281 C 24.88084411621094 8.736953735351562 20.12152099609375 11.94598388671875 16.03375244140625 16.03375244140625 C 11.94598388671875 20.12152099609375 8.736953735351562 24.88084411621094 6.495796203613281 30.17950439453125 C 4.176155090332031 35.66376876831055 3 41.49121475219727 3 47.5 C 3 53.50878524780273 4.176155090332031 59.33623123168945 6.495796203613281 64.82049560546875 C 8.736953735351562 70.11915588378906 11.94598388671875 74.87847900390625 16.03375244140625 78.96624755859375 C 20.12152099609375 83.05401611328125 24.88084411621094 86.26304626464844 30.17950439453125 88.50419616699219 C 35.66376876831055 90.82384490966797 41.49121475219727 92 47.5 92 C 53.50878524780273 92 59.33623123168945 90.82384490966797 64.82049560546875 88.50419616699219 C 70.11915588378906 86.26304626464844 74.87847900390625 83.05401611328125 78.96624755859375 78.96624755859375 C 83.05401611328125 74.87847900390625 86.26304626464844 70.11915588378906 88.50419616699219 64.82049560546875 C 90.82384490966797 59.33623123168945 92 53.50878524780273 92 47.5 C 92 41.49121475219727 90.82384490966797 35.66376876831055 88.50419616699219 30.17950439453125 C 86.26304626464844 24.88084411621094 83.05401611328125 20.12152099609375 78.96624755859375 16.03375244140625 C 74.87847900390625 11.94598388671875 70.11915588378906 8.736953735351562 64.82049560546875 6.495796203613281 C 59.33623123168945 4.176155090332031 53.50878524780273 3 47.5 3 M 47.5 0 C 73.7335205078125 0 95 21.2664794921875 95 47.5 C 95 73.7335205078125 73.7335205078125 95 47.5 95 C 21.2664794921875 95 0 73.7335205078125 0 47.5 C 0 21.2664794921875 21.2664794921875 0 47.5 0 Z" stroke="none" fill="#a9d373"/>
                  </g>
                </g>
              </g>
            </g>
          </g>
        </g>
      </g>
    </g>
    <g id="aprendizaje_1_" data-name="aprendizaje (1)" transform="translate(1160.23 1652.632)">
      <g id="Grupo_1222129" data-name="Grupo 1222129" transform="translate(25.204 1.14)">
        <path id="Trazado_1172785" data-name="Trazado 1172785" d="M98.276,194.154a1.42,1.42,0,0,1,1.42,1.42v39.78a5.872,5.872,0,0,1-5.872,5.872H37.436a5.872,5.872,0,0,1-5.872-5.872v-39.78a1.42,1.42,0,0,1,1.42-1.42Z" transform="translate(-31.564 -165.777)" fill="#b3e5ee"/>
        <path id="Trazado_1172786" data-name="Trazado 1172786" d="M59.879,194.154v40.137a4.822,4.822,0,0,0,4.816,4.818h50.042a4.822,4.822,0,0,0,4.816-4.818V194.154Z" transform="translate(-55.574 -165.777)" fill="#86d7e5"/>
        <path id="Trazado_1172787" data-name="Trazado 1172787" d="M132.265,175.283H81.086a1.207,1.207,0,0,0-1.207,1.209v36.315l16.493,6.024,10.3,1.185,24.7-4.458,2.1-2.751V176.492A1.207,1.207,0,0,0,132.265,175.283Z" transform="translate(-72.534 -149.775)" fill="#f9f7f7"/>
        <path id="Trazado_1172788" data-name="Trazado 1172788" d="M248.639,175.283h2.28v44.783h-2.28Z" transform="translate(-215.637 -149.775)" fill="#f8f3f2"/>
        <path id="Trazado_1172789" data-name="Trazado 1172789" d="M163.57,175.283l6.688,10.411v.808a3.961,3.961,0,0,0,1.684,3.24v1.27a4.825,4.825,0,0,0,4.82,4.82h1.764a4.825,4.825,0,0,0,4.82-4.82v-1.27a3.961,3.961,0,0,0,1.684-3.24v-.808l6.688-10.411Z" transform="translate(-143.501 -149.775)" fill="#f8f3f2"/>
        <g id="Grupo_1222127" data-name="Grupo 1222127" transform="translate(7.345)">
          <g id="Grupo_1222126" data-name="Grupo 1222126" transform="translate(0 25.508)">
            <g id="XMLID_248_">
              <g id="Grupo_1222125" data-name="Grupo 1222125">
                <g id="Grupo_1222123" data-name="Grupo 1222123">
                  <path id="Trazado_1172790" data-name="Trazado 1172790" d="M86.208,214.088v-38.8H81.086a1.207,1.207,0,0,0-1.207,1.209v36.315l6.535,2.387A3.1,3.1,0,0,1,86.208,214.088Z" transform="translate(-79.879 -175.283)" fill="#f8f3f2"/>
                </g>
                <g id="Grupo_1222124" data-name="Grupo 1222124" transform="translate(0 37.524)">
                  <path id="Trazado_1172791" data-name="Trazado 1172791" d="M106.676,429.312v.05H81.655a1.776,1.776,0,0,1-1.776-1.777V422.1H99.466A7.209,7.209,0,0,1,106.676,429.312Z" transform="translate(-79.879 -422.103)" fill="#f2eae7"/>
                  <path id="Trazado_1172792" data-name="Trazado 1172792" d="M282.936,422.1v5.482a1.776,1.776,0,0,1-1.776,1.777H256.139v-.05a7.209,7.209,0,0,1,7.209-7.209Z" transform="translate(-229.342 -422.103)" fill="#f2eae7"/>
                </g>
              </g>
            </g>
          </g>
          <path id="Trazado_1172793" data-name="Trazado 1172793" d="M240.478,248.154h-6.843v4.65a2.539,2.539,0,0,0,2.539,2.539h1.764a2.539,2.539,0,0,0,2.539-2.539Z" transform="translate(-210.26 -211.567)" fill="#a59ca6"/>
          <path id="Trazado_1172794" data-name="Trazado 1172794" d="M240.478,248.154h-6.843v4.65a2.539,2.539,0,0,0,2.539,2.539h1.764a2.537,2.537,0,0,0,2.255-1.376,2.568,2.568,0,0,1-.3.019h-1.764a2.538,2.538,0,0,1-2.4-1.72.58.58,0,0,1,.548-.767h4.2v-3.344Z" transform="translate(-210.26 -211.567)" fill="#8f8390"/>
          <path id="Trazado_1172795" data-name="Trazado 1172795" d="M186.723,22.663a15.164,15.164,0,1,0-27.566,8.727l7.3,11.359v1.477a1.684,1.684,0,0,0,1.684,1.684h6.843a1.684,1.684,0,0,0,1.684-1.684V42.749l7.3-11.359a15.093,15.093,0,0,0,2.762-8.727Z" transform="translate(-144.762 -7.499)" fill="#fbe88c"/>
          <path id="Trazado_1172796" data-name="Trazado 1172796" d="M165.553,33.325a16.7,16.7,0,0,1-2.888-9.434A16.285,16.285,0,0,1,175.028,7.9a15.166,15.166,0,0,0-15.87,23.492l7.3,11.359v1.477a1.684,1.684,0,0,0,1.684,1.684h4.334Z" transform="translate(-144.763 -7.5)" fill="#fbe372"/>
        </g>
        <g id="Grupo_1222128" data-name="Grupo 1222128" transform="translate(7.345 63.032)">
          <path id="Trazado_1172797" data-name="Trazado 1172797" d="M256.706,451.046a7.188,7.188,0,0,0-.568,2.809v.05h25.021a1.776,1.776,0,0,0,1.776-1.777v-1.082H256.706Z" transform="translate(-229.342 -446.646)" fill="#ede2dd"/>
          <path id="Trazado_1172798" data-name="Trazado 1172798" d="M89.327,426.5a3.119,3.119,0,0,1-3.119-3.119V422.1H79.879v5.482a1.776,1.776,0,0,0,1.776,1.777h25.021v-.05a7.186,7.186,0,0,0-.568-2.809Z" transform="translate(-79.879 -422.103)" fill="#ede2dd"/>
        </g>
      </g>
      <g id="Grupo_1222130" data-name="Grupo 1222130" transform="translate(24.064 0)">
        <path id="Trazado_1172799" data-name="Trazado 1172799" d="M91.916,170.654H87.284v-.52a2.351,2.351,0,0,0-2.349-2.348H75.8a1.14,1.14,0,0,0,0,2.28h9.136a.068.068,0,0,1,.068.068v13.9a1.14,1.14,0,1,0,2.28,0v-11.1h4.632a.28.28,0,0,1,.28.28v39.78a4.737,4.737,0,0,1-4.732,4.732H31.076a4.737,4.737,0,0,1-4.732-4.732v-39.78a.28.28,0,0,1,.28-.28h4.785v39a2.919,2.919,0,0,0,2.916,2.916H84.367a2.919,2.919,0,0,0,2.916-2.916V188.9a1.14,1.14,0,1,0-2.28,0v16.409H66.555a8.325,8.325,0,0,0-6.069,2.624V193.183a1.14,1.14,0,1,0-2.28,0v14.749a8.325,8.325,0,0,0-6.069-2.624H46.956a1.14,1.14,0,1,0,0,2.28h5.181a6.078,6.078,0,0,1,5.969,4.979H34.325a.636.636,0,0,1-.636-.636v-4.343h8.4a1.14,1.14,0,1,0,0-2.28h-8.4V170.133a.068.068,0,0,1,.068-.068h9.136a1.14,1.14,0,1,0,0-2.28H33.757a2.351,2.351,0,0,0-2.349,2.348v.52H26.624a2.563,2.563,0,0,0-2.56,2.56v39.78a7.02,7.02,0,0,0,7.012,7.012H87.463a7.02,7.02,0,0,0,7.012-7.012v-39.78a2.563,2.563,0,0,0-2.56-2.56ZM66.555,207.588H85v4.343a.636.636,0,0,1-.636.636H60.586A6.078,6.078,0,0,1,66.555,207.588Z" transform="translate(-24.064 -142.277)"/>
        <path id="Trazado_1172800" data-name="Trazado 1172800" d="M150.38,16a1.142,1.142,0,0,0,1.242-1.028,14.024,14.024,0,1,1,25.43,9.4l-.028.041-7.3,11.359a1.14,1.14,0,0,0-.181.616v1.477a.544.544,0,0,1-.544.544h-.074l.726-12.326h1.3a3.375,3.375,0,0,0,3.371-3.371v-.138a3.371,3.371,0,0,0-6.736-.2l-.084,1.427h-4l-.084-1.427a3.371,3.371,0,0,0-6.736.2v.138a3.374,3.374,0,0,0,3.371,3.371h1.3l.726,12.318a.543.543,0,0,1-.466-.536V36.39a1.141,1.141,0,0,0-.181-.616l-7.3-11.359-.027-.041a13.893,13.893,0,0,1-2.2-4.916,1.14,1.14,0,0,0-2.223.511,16.164,16.164,0,0,0,2.54,5.7l7.1,11.057v1.142a2.827,2.827,0,0,0,1.684,2.582v1.928a3.684,3.684,0,0,0,3.68,3.68h1.764a3.684,3.684,0,0,0,3.68-3.68V40.449a2.827,2.827,0,0,0,1.684-2.582V36.724l7.1-11.057a16.3,16.3,0,1,0-29.579-10.911A1.14,1.14,0,0,0,150.38,16Zm19.486,6.514a1.09,1.09,0,0,1,2.179.064v.138a1.091,1.091,0,0,1-1.09,1.09H169.79ZM160.058,23.8a1.091,1.091,0,0,1-1.09-1.09v-.138a1.09,1.09,0,0,1,2.179-.064l.076,1.293Zm7.313,2.28-.726,12.326h-2.277l-.726-12.326Zm.492,16.292a1.4,1.4,0,0,1-1.4,1.4H164.7a1.4,1.4,0,0,1-1.4-1.4V40.691h4.562v1.686Z" transform="translate(-130.301 0)"/>
        <path id="Trazado_1172801" data-name="Trazado 1172801" d="M381.151,32.048a1.136,1.136,0,0,0,.752-.283l2.488-2.184a1.14,1.14,0,0,0-1.5-1.714L380.4,30.051a1.14,1.14,0,0,0,.753,2Z" transform="translate(-325.896 -23.39)"/>
        <path id="Trazado_1172802" data-name="Trazado 1172802" d="M380.4,91.045l2.488,2.185a1.14,1.14,0,0,0,1.5-1.714L381.9,89.331a1.14,1.14,0,0,0-1.5,1.714Z" transform="translate(-325.896 -75.51)"/>
        <path id="Trazado_1172803" data-name="Trazado 1172803" d="M101.291,29.58l2.488,2.184a1.14,1.14,0,1,0,1.5-1.714L102.8,27.866a1.14,1.14,0,1,0-1.5,1.714Z" transform="translate(-89.221 -23.389)"/>
        <path id="Trazado_1172804" data-name="Trazado 1172804" d="M102.044,93.513a1.137,1.137,0,0,0,.752-.283l2.488-2.185a1.14,1.14,0,0,0-1.5-1.714l-2.488,2.185a1.14,1.14,0,0,0,.753,2Z" transform="translate(-89.222 -75.511)"/>
        <path id="Trazado_1172805" data-name="Trazado 1172805" d="M114.415,253.794a1.14,1.14,0,0,0-1.14-1.14H102.043a1.14,1.14,0,0,0,0,2.28h11.232A1.14,1.14,0,0,0,114.415,253.794Z" transform="translate(-89.221 -214.243)"/>
        <path id="Trazado_1172806" data-name="Trazado 1172806" d="M128.237,290.8H115.591a1.14,1.14,0,1,0,0,2.28h12.646a1.14,1.14,0,1,0,0-2.28Z" transform="translate(-100.71 -246.594)"/>
        <path id="Trazado_1172807" data-name="Trazado 1172807" d="M128.237,327.346H115.591a1.14,1.14,0,1,0,0,2.28h12.646a1.14,1.14,0,1,0,0-2.28Z" transform="translate(-100.71 -277.58)"/>
        <path id="Trazado_1172808" data-name="Trazado 1172808" d="M128.237,363.887H115.591a1.14,1.14,0,1,0,0,2.28h12.646a1.14,1.14,0,1,0,0-2.28Z" transform="translate(-100.71 -308.566)"/>
        <path id="Trazado_1172809" data-name="Trazado 1172809" d="M336.008,253.794a1.14,1.14,0,0,0-1.14-1.14H323.636a1.14,1.14,0,1,0,0,2.28h11.232A1.14,1.14,0,0,0,336.008,253.794Z" transform="translate(-277.126 -214.243)"/>
        <path id="Trazado_1172810" data-name="Trazado 1172810" d="M313.433,290.8H300.787a1.14,1.14,0,1,0,0,2.28h12.646a1.14,1.14,0,1,0,0-2.28Z" transform="translate(-257.75 -246.594)"/>
        <path id="Trazado_1172811" data-name="Trazado 1172811" d="M313.433,327.346H300.787a1.14,1.14,0,1,0,0,2.28h12.646a1.14,1.14,0,1,0,0-2.28Z" transform="translate(-257.75 -277.58)"/>
        <path id="Trazado_1172812" data-name="Trazado 1172812" d="M313.433,363.887H300.787a1.14,1.14,0,1,0,0,2.28h12.646a1.14,1.14,0,1,0,0-2.28Z" transform="translate(-257.75 -308.566)"/>
      </g>
    </g>
  </g>
</svg>
