<svg xmlns="http://www.w3.org/2000/svg" xmlns:xlink="http://www.w3.org/1999/xlink" width="93.934" height="93.934" viewBox="0 0 93.934 93.934">
  <defs>
    <filter id="Trazado_978624" x="0" y="0" width="93.934" height="93.934" filterUnits="userSpaceOnUse">
      <feOffset dy="3" input="SourceAlpha"/>
      <feGaussianBlur stdDeviation="3" result="blur"/>
      <feFlood flood-opacity="0.161"/>
      <feComposite operator="in" in2="blur"/>
      <feComposite in="SourceGraphic"/>
    </filter>
  </defs>
  <g id="Grupo_1222156" data-name="Grupo 1222156" transform="translate(-609 -2694.533)">
    <g id="Grupo_1221205" data-name="Grupo 1221205" transform="translate(0 1171)">
      <g id="Grupo_1210963" data-name="Grupo 1210963" transform="translate(0 -377.186)">
        <g id="Grupo_1208068" data-name="Grupo 1208068" transform="translate(412 470.719)">
          <g id="Grupo_1144123" data-name="Grupo 1144123" transform="translate(206 1436)">
            <g transform="matrix(1, 0, 0, 1, -9, -6)" filter="url(#Trazado_978624)">
              <g id="Trazado_978624-2" data-name="Trazado 978624" transform="translate(9 6)" fill="#fbf3fb">
                <path d="M 37.966796875 74.43359375 C 33.04315185546875 74.43359375 28.26757431030273 73.46962738037109 23.77274131774902 71.56847381591797 C 19.43047523498535 69.73184967041016 15.53040790557861 67.10224914550781 12.18087482452393 63.75271987915039 C 8.831341743469238 60.4031867980957 6.201741218566895 56.50312042236328 4.365118980407715 52.16086196899414 C 2.463963508605957 47.66601943969727 1.499996900558472 42.89044189453125 1.499996900558472 37.966796875 C 1.499996900558472 33.04315185546875 2.463963508605957 28.26757431030273 4.365118980407715 23.77274131774902 C 6.201741218566895 19.43047523498535 8.831341743469238 15.53040790557861 12.18087482452393 12.18087482452393 C 15.53040790557861 8.831341743469238 19.43047523498535 6.201741218566895 23.77274131774902 4.365118980407715 C 28.26757431030273 2.463963508605957 33.04315185546875 1.499996900558472 37.966796875 1.499996900558472 C 42.89044189453125 1.499996900558472 47.66601943969727 2.463963508605957 52.16086196899414 4.365118980407715 C 56.50312042236328 6.201741218566895 60.4031867980957 8.831341743469238 63.75271987915039 12.18087482452393 C 67.10224914550781 15.53040790557861 69.73184967041016 19.43047523498535 71.56847381591797 23.77274131774902 C 73.46962738037109 28.26757431030273 74.43359375 33.04315185546875 74.43359375 37.966796875 C 74.43359375 42.89044189453125 73.46962738037109 47.66601943969727 71.56847381591797 52.16086196899414 C 69.73184967041016 56.50313186645508 67.10224914550781 60.4031867980957 63.75271987915039 63.75271987915039 C 60.4031867980957 67.10224914550781 56.50313186645508 69.73184967041016 52.16086196899414 71.56847381591797 C 47.66601943969727 73.46962738037109 42.89044189453125 74.43359375 37.966796875 74.43359375 Z" stroke="none"/>
                <path d="M 37.966796875 3 C 33.2449836730957 3 28.66600799560547 3.924095153808594 24.35705947875977 5.746635437011719 C 20.19359588623047 7.507621765136719 16.45379638671875 10.02927398681641 13.24153518676758 13.24153518676758 C 10.02927398681641 16.45379638671875 7.507621765136719 20.19359588623047 5.746635437011719 24.35705947875977 C 3.924095153808594 28.66600799560547 3 33.2449836730957 3 37.966796875 C 3 42.6886100769043 3.924095153808594 47.26758575439453 5.746635437011719 51.57653427124023 C 7.507621765136719 55.73999786376953 10.02927398681641 59.47979736328125 13.24153518676758 62.69205856323242 C 16.45379638671875 65.90431976318359 20.19359588623047 68.42597198486328 24.35705947875977 70.18695831298828 C 28.66600799560547 72.00949859619141 33.2449836730957 72.93359375 37.966796875 72.93359375 C 42.6886100769043 72.93359375 47.26758575439453 72.00949859619141 51.57653427124023 70.18695831298828 C 55.73999786376953 68.42597198486328 59.47979736328125 65.90431976318359 62.69205856323242 62.69205856323242 C 65.90431976318359 59.47979736328125 68.42597198486328 55.73999786376953 70.18695831298828 51.57653427124023 C 72.00949859619141 47.26758575439453 72.93359375 42.6886100769043 72.93359375 37.966796875 C 72.93359375 33.2449836730957 72.00949859619141 28.66600799560547 70.18695831298828 24.35705947875977 C 68.42597198486328 20.19359588623047 65.90431976318359 16.45379638671875 62.69205856323242 13.24153518676758 C 59.47979736328125 10.02927398681641 55.73999786376953 7.507621765136719 51.57653427124023 5.746635437011719 C 47.26758575439453 3.924095153808594 42.6886100769043 3 37.966796875 3 M 37.966796875 0 C 58.93528366088867 0 75.93359375 16.99831008911133 75.93359375 37.966796875 C 75.93359375 58.93528366088867 58.93528366088867 75.93359375 37.966796875 75.93359375 C 16.99831008911133 75.93359375 0 58.93528366088867 0 37.966796875 C 0 16.99831008911133 16.99831008911133 0 37.966796875 0 Z" stroke="none" fill="#df93dd"/>
              </g>
            </g>
          </g>
        </g>
      </g>
    </g>
    <g id="Layer_2" transform="translate(622.209 2712.255)">
      <g id="Grupo_1222155" data-name="Grupo 1222155" transform="translate(2.524 1.636)">
        <path id="Trazado_1172855" data-name="Trazado 1172855" d="M7.524,21.333H49.232V45.872H7.524Z" transform="translate(-6.908 -18.906)" fill="#fff"/>
        <path id="Trazado_1172856" data-name="Trazado 1172856" d="M7.524,21.333H10.3V45.872H7.524Z" transform="translate(-6.908 -18.906)" fill="#cdcdc6"/>
        <g id="Grupo_1222153" data-name="Grupo 1222153" transform="translate(38.344 0.616)">
          <path id="Trazado_1172857" data-name="Trazado 1172857" d="M330.107,19.024H313.712V14.833a8.2,8.2,0,1,1,16.395,0Z" transform="translate(-313.712 -6.636)" fill="#494a47"/>
          <path id="Trazado_1172858" data-name="Trazado 1172858" d="M323.345,6.763a8.191,8.191,0,0,0-9.633,8.069v4.191h2.872V14.832A8.2,8.2,0,0,1,323.345,6.763Z" transform="translate(-313.712 -6.635)" fill="#333331"/>
          <path id="Trazado_1172859" data-name="Trazado 1172859" d="M330.107,185.333H313.712v-5.16a4.647,4.647,0,0,1,4.647-4.647h7.1a4.647,4.647,0,0,1,4.647,4.647v5.16Z" transform="translate(-313.712 -154.715)" fill="#cdcdc6"/>
          <path id="Trazado_1172860" data-name="Trazado 1172860" d="M321.23,175.526h-2.872a4.647,4.647,0,0,0-4.647,4.647v5.16h2.872v-5.16A4.647,4.647,0,0,1,321.23,175.526Z" transform="translate(-313.711 -154.715)" fill="#989898"/>
          <path id="Trazado_1172861" data-name="Trazado 1172861" d="M361.275,172.494a2.665,2.665,0,0,1-2.665-2.665v-1.135h5.33v1.135A2.665,2.665,0,0,1,361.275,172.494Z" transform="translate(-353.078 -148.725)" fill="#ffb09e"/>
          <g id="Grupo_1222152" data-name="Grupo 1222152" transform="translate(0 7.59)">
            <path id="Trazado_1172862" data-name="Trazado 1172862" d="M431.086,98.113h-.514V95.15h.514a1.481,1.481,0,1,1,0,2.963Z" transform="translate(-416.173 -91.833)" fill="#ffb09e"/>
            <path id="Trazado_1172863" data-name="Trazado 1172863" d="M315.193,98.113h.514V95.15h-.514a1.481,1.481,0,0,0,0,2.963Z" transform="translate(-313.712 -91.833)" fill="#ffb09e"/>
            <path id="Trazado_1172864" data-name="Trazado 1172864" d="M336.027,69.157a25.86,25.86,0,0,1-5.67-.732,6.182,6.182,0,0,0-.454,2.329v4.58a6.2,6.2,0,0,0,12.4,0v-4.58a6.189,6.189,0,0,0-.329-1.993C341.054,67.367,338.347,69.157,336.027,69.157Z" transform="translate(-327.908 -68.23)" fill="#ffcebf"/>
            <g id="Grupo_1222151" data-name="Grupo 1222151" transform="translate(1.995 0.196)">
              <path id="Trazado_1172865" data-name="Trazado 1172865" d="M332.775,76.726v-4.58a6.183,6.183,0,0,1,.273-1.819,26.255,26.255,0,0,1-2.692-.509,6.182,6.182,0,0,0-.454,2.329v4.58a6.2,6.2,0,0,0,7.638,6.033A6.2,6.2,0,0,1,332.775,76.726Z" transform="translate(-329.903 -69.817)" fill="#ffb09e"/>
            </g>
          </g>
        </g>
        <path id="Trazado_1172866" data-name="Trazado 1172866" d="M256,255.112h30.617v5.64H256Z" transform="translate(-224.767 -223.879)" fill="#f8ae46"/>
        <path id="Trazado_1172867" data-name="Trazado 1172867" d="M256,255.112h2.854v5.64H256Z" transform="translate(-224.767 -223.879)" fill="#e89531"/>
        <path id="Trazado_1172868" data-name="Trazado 1172868" d="M282.468,300.885h24.094v25.087H282.468Z" transform="translate(-247.973 -264.012)" fill="#f8ae46"/>
        <path id="Trazado_1172869" data-name="Trazado 1172869" d="M27.939,454.738H7.524v-2.883a4.107,4.107,0,0,1,4.107-4.107h12.2a4.107,4.107,0,0,1,4.107,4.107v2.883Z" transform="translate(-6.908 -392.778)" fill="#68c0e0"/>
        <path id="Trazado_1172870" data-name="Trazado 1172870" d="M14.5,447.748H11.63a4.107,4.107,0,0,0-4.107,4.107v2.883H10.4v-2.883A4.107,4.107,0,0,1,14.5,447.748Z" transform="translate(-6.907 -392.778)" fill="#3282a1"/>
        <path id="Trazado_1172871" data-name="Trazado 1172871" d="M67.365,417.977h5.668v3.668H67.365Z" transform="translate(-59.375 -366.676)" fill="#ffcebf"/>
        <path id="Trazado_1172872" data-name="Trazado 1172872" d="M40,313.548H35.009c-2.725,0-4.933-4.91-4.933-7.634v-1.4a7.428,7.428,0,0,1,14.857,0v1.4C44.933,308.638,42.724,313.548,40,313.548Z" transform="translate(-26.681 -260.676)" fill="#494a47"/>
        <path id="Trazado_1172873" data-name="Trazado 1172873" d="M32.949,305.914v-1.4a7.43,7.43,0,0,1,5.992-7.288,7.429,7.429,0,0,0-8.864,7.288v1.4c0,2.725,2.209,7.634,4.933,7.634h2.872C35.158,313.548,32.949,308.638,32.949,305.914Z" transform="translate(-26.682 -260.676)" fill="#333331"/>
        <path id="Trazado_1172874" data-name="Trazado 1172874" d="M193.431,454.738H173.016v-2.883a4.107,4.107,0,0,1,4.107-4.107h12.2a4.107,4.107,0,0,1,4.107,4.107v2.883Z" transform="translate(-152.008 -392.778)" fill="#68c0e0"/>
        <path id="Trazado_1172875" data-name="Trazado 1172875" d="M179.958,447.748h-2.834a4.107,4.107,0,0,0-4.107,4.107v2.883h2.834v-2.883A4.107,4.107,0,0,1,179.958,447.748Z" transform="translate(-152.009 -392.778)" fill="#3282a1"/>
        <path id="Trazado_1172876" data-name="Trazado 1172876" d="M232.857,417.977h5.668v3.668h-5.668Z" transform="translate(-204.475 -366.676)" fill="#ffcebf"/>
        <path id="Trazado_1172877" data-name="Trazado 1172877" d="M205.492,313.548H200.5c-2.725,0-4.933-4.91-4.933-7.634v-1.4a7.428,7.428,0,0,1,14.857,0v1.4C210.425,308.638,208.216,313.548,205.492,313.548Z" transform="translate(-171.781 -260.676)" fill="#494a47"/>
        <path id="Trazado_1172878" data-name="Trazado 1172878" d="M198.441,305.914v-1.4a7.43,7.43,0,0,1,5.992-7.288,7.429,7.429,0,0,0-8.864,7.288v1.4c0,2.725,2.209,7.634,4.933,7.634h2.872C200.65,313.548,198.441,308.638,198.441,305.914Z" transform="translate(-171.782 -260.676)" fill="#333331"/>
        <path id="Trazado_1172879" data-name="Trazado 1172879" d="M359.108,454.738H338.693v-2.883a4.107,4.107,0,0,1,4.107-4.107H355a4.107,4.107,0,0,1,4.107,4.107Z" transform="translate(-297.27 -392.778)" fill="#68c0e0"/>
        <path id="Trazado_1172880" data-name="Trazado 1172880" d="M345.635,447.748H342.8a4.107,4.107,0,0,0-4.107,4.107v2.883h2.834v-2.883A4.107,4.107,0,0,1,345.635,447.748Z" transform="translate(-297.271 -392.778)" fill="#3282a1"/>
        <path id="Trazado_1172881" data-name="Trazado 1172881" d="M398.534,417.977H404.2v3.668h-5.668Z" transform="translate(-349.738 -366.676)" fill="#ffcebf"/>
        <path id="Trazado_1172882" data-name="Trazado 1172882" d="M371.17,313.548h-4.991c-2.725,0-4.933-4.91-4.933-7.634v-1.4a7.428,7.428,0,0,1,14.857,0v1.4C376.1,308.638,373.894,313.548,371.17,313.548Z" transform="translate(-317.044 -260.676)" fill="#494a47"/>
        <path id="Trazado_1172883" data-name="Trazado 1172883" d="M364.08,305.913v-1.4a7.43,7.43,0,0,1,6.012-7.292,7.427,7.427,0,0,0-8.845,7.292v1.4c0,2.725,2.209,7.634,4.933,7.634h2.834C366.288,313.547,364.08,308.637,364.08,305.913Z" transform="translate(-317.044 -260.675)" fill="#333331"/>
        <path id="Trazado_1172884" data-name="Trazado 1172884" d="M33.288,115.991h4.2V124.5h-4.2Z" transform="translate(-29.497 -101.9)" fill="#e15f4f"/>
        <path id="Trazado_1172885" data-name="Trazado 1172885" d="M85.288,99.9h4.2v10.491h-4.2Z" transform="translate(-75.09 -87.793)" fill="#f8d250"/>
        <path id="Trazado_1172886" data-name="Trazado 1172886" d="M137.288,74.594h4.2V88.2h-4.2Z" transform="translate(-120.682 -65.604)" fill="#4eb7a2"/>
        <path id="Trazado_1172887" data-name="Trazado 1172887" d="M189.288,56.777h4.2v15.8h-4.2Z" transform="translate(-166.275 -49.983)" fill="#68c0e0"/>
        <g id="Grupo_1222154" data-name="Grupo 1222154" transform="translate(0 0)">
          <circle id="Elipse_14462" data-name="Elipse 14462" cx="0.636" cy="0.636" r="0.636" transform="translate(45.906 25.694)"/>
          <circle id="Elipse_14463" data-name="Elipse 14463" cx="0.636" cy="0.636" r="0.636" transform="translate(45.906 28.275)"/>
          <path id="Trazado_1172888" data-name="Trazado 1172888" d="M64.375,39.126a.616.616,0,0,0,.616-.616v-5.64a.616.616,0,0,0-.616-.616h-6.5V27.709a5.269,5.269,0,0,0-4.819-5.243,6.812,6.812,0,0,0,2.824-5.521v-.214a2.1,2.1,0,0,0,2-2.092V10.449a8.807,8.807,0,0,0-14.157-7H3.14a.616.616,0,0,0-.616.616V28.6a.616.616,0,0,0,.616.616H40.252v3.035h-6.5a.616.616,0,0,0-.616.616v4.58a8.054,8.054,0,0,0-7.446,8.02v1.4a11.4,11.4,0,0,0,1.526,5.144,6.054,6.054,0,0,0,3.069,2.945V55.99h-2.65a4.725,4.725,0,0,0-4.1,2.376,4.725,4.725,0,0,0-4.1-2.376H16.8V54.962a6.055,6.055,0,0,0,3.069-2.945,11.4,11.4,0,0,0,1.526-5.144v-1.4a8.045,8.045,0,0,0-16.089,0v1.4a11.4,11.4,0,0,0,1.526,5.144A6.054,6.054,0,0,0,9.9,54.962V55.99H7.247a4.729,4.729,0,0,0-4.723,4.724V63.6a.616.616,0,0,0,.616.616H64.362a.616.616,0,0,0,.616-.616V60.713a4.731,4.731,0,0,0-3.248-4.486V49.57a9.375,9.375,0,0,0,.47-2.7v-1.4a8,8,0,0,0-.47-2.706V39.125h2.645ZM49.066,23.765a6.8,6.8,0,0,0,2.044-.313,2.046,2.046,0,0,1-4.088,0A6.8,6.8,0,0,0,49.066,23.765Zm5.586-6.818a5.586,5.586,0,1,1-11.172,0v-4.58a5.56,5.56,0,0,1,.234-1.6,25.886,25.886,0,0,0,5.273.621,11.111,11.111,0,0,0,2.894-.535c1.287-.359,2.17-.569,2.5-.189a5.575,5.575,0,0,1,.267,1.705ZM55.884,15.5V13.781a.865.865,0,0,1,0,1.719ZM49.066,2.868a7.59,7.59,0,0,1,7.581,7.581v2.282a2.081,2.081,0,0,0-.763-.184v-.182a6.809,6.809,0,0,0-.362-2.191.618.618,0,0,0-.07-.143c-.816-1.231-2.385-.793-3.9-.37a10.054,10.054,0,0,1-2.562.49,25.427,25.427,0,0,1-5.515-.712.616.616,0,0,0-.726.365,6.781,6.781,0,0,0-.5,2.56v.182a2.078,2.078,0,0,0-.763.184V10.449a7.59,7.59,0,0,1,7.581-7.581ZM42.248,13.781V15.5a.865.865,0,0,1,0-1.719ZM3.756,27.986V4.679H42.413a8.774,8.774,0,0,0-2.16,5.77V14.64a2.1,2.1,0,0,0,2,2.092v.214a6.812,6.812,0,0,0,2.824,5.521,5.269,5.269,0,0,0-4.819,5.243v.277Zm37.728-.277a4.035,4.035,0,0,1,4.031-4.031H45.8a3.281,3.281,0,0,0,6.53,0h.286a4.035,4.035,0,0,1,4.031,4.031v4.544H53.625V30.547a.616.616,0,1,0-1.232,0v1.706H45.739V30.547a.616.616,0,1,0-1.232,0v1.706H41.485Zm22.274,5.776v4.408h-6.9a8.03,8.03,0,0,0-5.408,0H36.444a7.987,7.987,0,0,0-2.07-.442V33.485ZM60.5,49.378c-.748,2.239-2.284,4.514-3.848,4.514H51.659c-2.184,0-4.317-4.441-4.317-7.018v-1.4A6.811,6.811,0,0,1,60.5,42.989ZM37.189,54.962a6.055,6.055,0,0,0,3.069-2.945,11.4,11.4,0,0,0,1.526-5.144v-1.4a8.033,8.033,0,0,0-3.106-6.343H49.216a8.034,8.034,0,0,0-3.106,6.343v1.4a11.4,11.4,0,0,0,1.526,5.144A6.054,6.054,0,0,0,50.7,54.962V55.99h-2.65a4.725,4.725,0,0,0-4.107,2.4,4.725,4.725,0,0,0-4.107-2.4H37.19V54.962ZM51.936,55.99v-.866h4.435v.866ZM26.927,46.873v-1.4a6.812,6.812,0,1,1,13.625,0v1.4c0,2.578-2.133,7.018-4.317,7.018H31.244C29.06,53.892,26.927,49.451,26.927,46.873Zm4.595,8.251h4.435v.866H31.522Zm-3.882,2.1h12.2a3.5,3.5,0,0,1,3.491,3.491V62.98H24.171V60.713c0-.1,0-.194-.01-.291a3.5,3.5,0,0,1,3.478-3.2ZM6.535,46.873v-1.4a6.812,6.812,0,0,1,13.625,0v1.4c0,2.578-2.133,7.018-4.317,7.018H10.852c-2.184,0-4.317-4.441-4.317-7.018Zm4.595,8.251h4.435v.866H11.13Zm-7.374,5.59a3.5,3.5,0,0,1,3.491-3.491h12.2a3.5,3.5,0,0,1,3.478,3.2c-.006.1-.01.193-.01.291V62.98H3.756Zm59.989,0V62.98H44.563V60.713a3.5,3.5,0,0,1,3.491-3.491h12.2a3.5,3.5,0,0,1,3.491,3.491ZM60.254,55.99H57.6V54.962A5.8,5.8,0,0,0,60.5,52.313V56C60.417,55.992,60.336,55.99,60.254,55.99ZM60.5,40.53a8.114,8.114,0,0,0-1.4-1.4h1.4Z" transform="translate(-2.524 -1.636)"/>
          <path id="Trazado_1172889" data-name="Trazado 1172889" d="M33.1,110.991h-4.2a.616.616,0,0,0-.616.616v8.508a.616.616,0,0,0,.616.616h4.2a.616.616,0,0,0,.616-.616v-8.508A.616.616,0,0,0,33.1,110.991Zm-.616,8.508H29.521v-7.276h2.967Z" transform="translate(-25.114 -97.516)"/>
          <path id="Trazado_1172890" data-name="Trazado 1172890" d="M85.1,94.9h-4.2a.616.616,0,0,0-.616.616v10.491a.616.616,0,0,0,.616.616h4.2a.616.616,0,0,0,.616-.616V95.517A.616.616,0,0,0,85.1,94.9Zm-.616,10.491H81.521V96.133h2.967Z" transform="translate(-70.707 -83.409)"/>
          <path id="Trazado_1172891" data-name="Trazado 1172891" d="M137.1,69.594h-4.2a.616.616,0,0,0-.616.616V83.819a.616.616,0,0,0,.616.616h4.2a.616.616,0,0,0,.616-.616V70.21A.616.616,0,0,0,137.1,69.594ZM136.488,83.2h-2.967V70.826h2.967Z" transform="translate(-116.299 -61.22)"/>
          <path id="Trazado_1172892" data-name="Trazado 1172892" d="M189.1,51.776h-4.2a.616.616,0,0,0-.616.616V68.2a.616.616,0,0,0,.616.616h4.2a.616.616,0,0,0,.616-.616v-15.8A.616.616,0,0,0,189.1,51.776Zm-.616,15.8h-2.967V53.008h2.967Z" transform="translate(-161.892 -45.598)"/>
          <path id="Trazado_1172893" data-name="Trazado 1172893" d="M260.829,177.375a.616.616,0,0,0-.616-.616h-5.845a.616.616,0,1,0,0,1.232h5.845A.616.616,0,0,0,260.829,177.375Z" transform="translate(-222.796 -155.18)"/>
          <path id="Trazado_1172894" data-name="Trazado 1172894" d="M254.368,161.991h5.845a.616.616,0,0,0,0-1.232h-5.845a.616.616,0,1,0,0,1.232Z" transform="translate(-222.796 -141.152)"/>
          <path id="Trazado_1172895" data-name="Trazado 1172895" d="M268.009,145.991h4.164a.616.616,0,1,0,0-1.232h-4.164a.616.616,0,1,0,0,1.232Z" transform="translate(-234.756 -127.123)"/>
          <path id="Trazado_1172896" data-name="Trazado 1172896" d="M28.905,39.642h2.47a.616.616,0,0,0,0-1.232h-2.47a.616.616,0,0,0,0,1.232Z" transform="translate(-25.114 -33.879)"/>
          <path id="Trazado_1172897" data-name="Trazado 1172897" d="M28.905,55.642h4.409a.616.616,0,1,0,0-1.232H28.905a.616.616,0,1,0,0,1.232Z" transform="translate(-25.114 -47.907)"/>
          <path id="Trazado_1172898" data-name="Trazado 1172898" d="M28.905,71.642h6.407a.616.616,0,1,0,0-1.232H28.905a.616.616,0,1,0,0,1.232Z" transform="translate(-25.114 -61.936)"/>
        </g>
      </g>
    </g>
  </g>
</svg>
