<svg xmlns="http://www.w3.org/2000/svg" xmlns:xlink="http://www.w3.org/1999/xlink" width="93.934" height="93.934" viewBox="0 0 93.934 93.934">
  <defs>
    <filter id="Trazado_978624" x="0" y="0" width="93.934" height="93.934" filterUnits="userSpaceOnUse">
      <feOffset dy="3" input="SourceAlpha"/>
      <feGaussianBlur stdDeviation="3" result="blur"/>
      <feFlood flood-opacity="0.161"/>
      <feComposite operator="in" in2="blur"/>
      <feComposite in="SourceGraphic"/>
    </filter>
  </defs>
  <g id="Grupo_1222176" data-name="Grupo 1222176" transform="translate(-609 -2835.533)">
    <g id="Grupo_1221206" data-name="Grupo 1221206" transform="translate(0 1312)">
      <g id="Grupo_1210963" data-name="Grupo 1210963" transform="translate(0 -377.186)">
        <g id="Grupo_1208068" data-name="Grupo 1208068" transform="translate(412 470.719)">
          <g id="Grupo_1144123" data-name="Grupo 1144123" transform="translate(206 1436)">
            <g transform="matrix(1, 0, 0, 1, -9, -6)" filter="url(#Trazado_978624)">
              <g id="Trazado_978624-2" data-name="Trazado 978624" transform="translate(9 6)" fill="#fbf3fb">
                <path d="M 37.966796875 74.43359375 C 33.04315185546875 74.43359375 28.26757431030273 73.46962738037109 23.77274131774902 71.56847381591797 C 19.43047523498535 69.73184967041016 15.53040790557861 67.10224914550781 12.18087482452393 63.75271987915039 C 8.831341743469238 60.4031867980957 6.201741218566895 56.50312042236328 4.365118980407715 52.16086196899414 C 2.463963508605957 47.66601943969727 1.499996900558472 42.89044189453125 1.499996900558472 37.966796875 C 1.499996900558472 33.04315185546875 2.463963508605957 28.26757431030273 4.365118980407715 23.77274131774902 C 6.201741218566895 19.43047523498535 8.831341743469238 15.53040790557861 12.18087482452393 12.18087482452393 C 15.53040790557861 8.831341743469238 19.43047523498535 6.201741218566895 23.77274131774902 4.365118980407715 C 28.26757431030273 2.463963508605957 33.04315185546875 1.499996900558472 37.966796875 1.499996900558472 C 42.89044189453125 1.499996900558472 47.66601943969727 2.463963508605957 52.16086196899414 4.365118980407715 C 56.50312042236328 6.201741218566895 60.4031867980957 8.831341743469238 63.75271987915039 12.18087482452393 C 67.10224914550781 15.53040790557861 69.73184967041016 19.43047523498535 71.56847381591797 23.77274131774902 C 73.46962738037109 28.26757431030273 74.43359375 33.04315185546875 74.43359375 37.966796875 C 74.43359375 42.89044189453125 73.46962738037109 47.66601943969727 71.56847381591797 52.16086196899414 C 69.73184967041016 56.50313186645508 67.10224914550781 60.4031867980957 63.75271987915039 63.75271987915039 C 60.4031867980957 67.10224914550781 56.50313186645508 69.73184967041016 52.16086196899414 71.56847381591797 C 47.66601943969727 73.46962738037109 42.89044189453125 74.43359375 37.966796875 74.43359375 Z" stroke="none"/>
                <path d="M 37.966796875 3 C 33.2449836730957 3 28.66600799560547 3.924095153808594 24.35705947875977 5.746635437011719 C 20.19359588623047 7.507621765136719 16.45379638671875 10.02927398681641 13.24153518676758 13.24153518676758 C 10.02927398681641 16.45379638671875 7.507621765136719 20.19359588623047 5.746635437011719 24.35705947875977 C 3.924095153808594 28.66600799560547 3 33.2449836730957 3 37.966796875 C 3 42.6886100769043 3.924095153808594 47.26758575439453 5.746635437011719 51.57653427124023 C 7.507621765136719 55.73999786376953 10.02927398681641 59.47979736328125 13.24153518676758 62.69205856323242 C 16.45379638671875 65.90431976318359 20.19359588623047 68.42597198486328 24.35705947875977 70.18695831298828 C 28.66600799560547 72.00949859619141 33.2449836730957 72.93359375 37.966796875 72.93359375 C 42.6886100769043 72.93359375 47.26758575439453 72.00949859619141 51.57653427124023 70.18695831298828 C 55.73999786376953 68.42597198486328 59.47979736328125 65.90431976318359 62.69205856323242 62.69205856323242 C 65.90431976318359 59.47979736328125 68.42597198486328 55.73999786376953 70.18695831298828 51.57653427124023 C 72.00949859619141 47.26758575439453 72.93359375 42.6886100769043 72.93359375 37.966796875 C 72.93359375 33.2449836730957 72.00949859619141 28.66600799560547 70.18695831298828 24.35705947875977 C 68.42597198486328 20.19359588623047 65.90431976318359 16.45379638671875 62.69205856323242 13.24153518676758 C 59.47979736328125 10.02927398681641 55.73999786376953 7.507621765136719 51.57653427124023 5.746635437011719 C 47.26758575439453 3.924095153808594 42.6886100769043 3 37.966796875 3 M 37.966796875 0 C 58.93528366088867 0 75.93359375 16.99831008911133 75.93359375 37.966796875 C 75.93359375 58.93528366088867 58.93528366088867 75.93359375 37.966796875 75.93359375 C 16.99831008911133 75.93359375 0 58.93528366088867 0 37.966796875 C 0 16.99831008911133 16.99831008911133 0 37.966796875 0 Z" stroke="none" fill="#df93dd"/>
              </g>
            </g>
          </g>
        </g>
      </g>
    </g>
    <g id="profesor" transform="translate(620.457 2836.348)">
      <path id="Trazado_1172899" data-name="Trazado 1172899" d="M154.176,331.654a.694.694,0,0,1-.694-.694V312.308a6.27,6.27,0,0,1-3.7,1.2h-.7v5.439a.694.694,0,0,1-1.042.6l-6.239-3.621a.694.694,0,0,0-.7,0l-6.239,3.621a.694.694,0,0,1-1.042-.6V313.51h-.7a6.27,6.27,0,0,1-3.7-1.2v18.653a.694.694,0,0,1-.694.694H123v4.681a.694.694,0,0,0,.694.694H159.2a.694.694,0,0,0,.694-.694v-4.681Z" transform="translate(-105.939 -256.951)" fill="#ffd15b"/>
      <path id="Trazado_1172900" data-name="Trazado 1172900" d="M128.548,456.461V451.78H123v4.681a.694.694,0,0,0,.694.694h5.548A.694.694,0,0,1,128.548,456.461Z" transform="translate(-105.939 -377.076)" fill="#fdb441"/>
      <path id="Trazado_1172901" data-name="Trazado 1172901" d="M237.328,337.827a.694.694,0,0,0-.7,0l-2.715,1.575,2.412,6.576a.693.693,0,0,0,1.3,0l2.412-6.576Z" transform="translate(-201.47 -278.849)" fill="#fff"/>
      <path id="Trazado_1172902" data-name="Trazado 1172902" d="M169.1,23.163a7.991,7.991,0,0,0-4.92-1.687h-3.021A10.663,10.663,0,0,0,150.5,32.139V54.525h1.906a.694.694,0,0,1,.694.694v6.6a6.27,6.27,0,0,0,3.7,1.2h.7V58.4a.694.694,0,0,1,.306-.575l3.039-2.051a9.728,9.728,0,0,0,3.438.625h1.693a9.731,9.731,0,0,0,3.438-.625l3.039,2.051a.694.694,0,0,1,.306.575V63.02h.7a6.27,6.27,0,0,0,3.7-1.2v-6.6a.694.694,0,0,1,.694-.694h1.906v-20.7A10.663,10.663,0,0,0,169.1,23.163Z" transform="translate(-129.624 -6.46)" fill="#fe7701"/>
      <g id="Grupo_1222157" data-name="Grupo 1222157" transform="translate(20.876 15.016)">
        <path id="Trazado_1172903" data-name="Trazado 1172903" d="M151.794,40.271h2.741c0,.007,0,.013,0,.02a2.994,2.994,0,0,1,2.694-2.979V32.139a10.665,10.665,0,0,1,8.681-10.477,8.035,8.035,0,0,0-1.724-.187h-3.021A10.663,10.663,0,0,0,150.5,32.139v8.348A3.977,3.977,0,0,1,151.794,40.271Z" transform="translate(-150.5 -21.476)" fill="#f46700"/>
        <path id="Trazado_1172904" data-name="Trazado 1172904" d="M157.5,231.511a6.3,6.3,0,0,1-.277-1.853V226.3a9.743,9.743,0,0,1-2.255-3.823h-3.179a3.975,3.975,0,0,1-1.294-.216v5.2h1.906a.694.694,0,0,1,.694.694v6.6a6.27,6.27,0,0,0,3.7,1.2h.7Z" transform="translate(-150.5 -194.414)" fill="#f46700"/>
      </g>
      <path id="Trazado_1172905" data-name="Trazado 1172905" d="M215.953,270.754l-3.039-2.051a9.728,9.728,0,0,1-3.438.625h-1.693a9.732,9.732,0,0,1-3.438-.625l-3.039,2.051a.694.694,0,0,0-.306.575v10.064a.694.694,0,0,0,1.042.6l6.239-3.621a.694.694,0,0,1,.7,0l6.239,3.621a.694.694,0,0,0,1.042-.6V271.329A.694.694,0,0,0,215.953,270.754Z" transform="translate(-173.119 -219.394)" fill="#eaf6ff"/>
      <path id="Trazado_1172906" data-name="Trazado 1172906" d="M204.345,268.7l-3.039,2.051a.694.694,0,0,0-.306.575v10.064a.694.694,0,0,0,1.042.6l2.426-1.408v-9.256a.694.694,0,0,1,.306-.575l2.17-1.464A9.7,9.7,0,0,1,204.345,268.7Z" transform="translate(-173.119 -219.394)" fill="#d8ecfe"/>
      <path id="Trazado_1172907" data-name="Trazado 1172907" d="M231.892,269.914H230.2a9.737,9.737,0,0,1-3.172-.53v5.076l4.019,4.3,4.019-4.3v-5.076A9.737,9.737,0,0,1,231.892,269.914Z" transform="translate(-195.536 -219.981)" fill="#fed2a4"/>
      <path id="Trazado_1172908" data-name="Trazado 1172908" d="M230.5,269.914h-.3a9.737,9.737,0,0,1-3.172-.53v5.076l4.019,4.3,2.26-2.417-2.808-3Z" transform="translate(-195.536 -219.981)" fill="#ffbd86"/>
      <g id="Grupo_1222158" data-name="Grupo 1222158" transform="translate(18.187 33.811)">
        <path id="Trazado_1172909" data-name="Trazado 1172909" d="M137.837,163.343v-6.349c0-.007,0-.013,0-.02H135.1a3.982,3.982,0,0,0-3.982,3.982v1.307a3.982,3.982,0,0,0,3.982,3.982h3.179A9.746,9.746,0,0,1,137.837,163.343Z" transform="translate(-131.115 -156.975)" fill="#ffe5c2"/>
        <path id="Trazado_1172910" data-name="Trazado 1172910" d="M332.434,156.976h-2.74v6.368a9.748,9.748,0,0,1-.44,2.9h3.179a3.982,3.982,0,0,0,3.982-3.982v-1.307A3.982,3.982,0,0,0,332.434,156.976Z" transform="translate(-301.771 -156.976)" fill="#ffe5c2"/>
      </g>
      <g id="Grupo_1222159" data-name="Grupo 1222159" transform="translate(24.909 27.076)">
        <path id="Trazado_1172911" data-name="Trazado 1172911" d="M195.682,109a2.957,2.957,0,0,1,3.491-.015,3.981,3.981,0,0,1,1.606,3.2v9.342a9.754,9.754,0,0,1-9.754,9.754h-1.693a9.754,9.754,0,0,1-9.754-9.754v-6.349a2.994,2.994,0,0,1,2.994-2.994h7.747a2.993,2.993,0,0,0,1.756-.569Z" transform="translate(-179.577 -108.425)" fill="#ffe5c2"/>
      </g>
      <g id="Grupo_1222161" data-name="Grupo 1222161" transform="translate(24.909 30.837)">
        <g id="Grupo_1222160" data-name="Grupo 1222160">
          <path id="Trazado_1172912" data-name="Trazado 1172912" d="M184.233,144.878V138.53a2.994,2.994,0,0,1,2.994-2.994H182.57a2.994,2.994,0,0,0-2.994,2.994v6.349a9.754,9.754,0,0,0,9.754,9.754h1.693a9.837,9.837,0,0,0,1.482-.112A9.757,9.757,0,0,1,184.233,144.878Z" transform="translate(-179.576 -135.536)" fill="#fed2a4"/>
        </g>
      </g>
      <path id="Trazado_1172913" data-name="Trazado 1172913" d="M225.3,216.388a.638.638,0,0,0-.629.75,4.056,4.056,0,0,0,3.985,3.3h.7a4.056,4.056,0,0,0,3.985-3.3.638.638,0,0,0-.629-.75Z" transform="translate(-193.494 -174.336)" fill="#fff"/>
      <g id="Grupo_1222165" data-name="Grupo 1222165" transform="translate(1.04 48.065)">
        <g id="Grupo_1222162" data-name="Grupo 1222162" transform="translate(1.768 0)">
          <path id="Trazado_1172914" data-name="Trazado 1172914" d="M40.217,259.736H20.937a.694.694,0,0,0-.694.694v19.785h3.016a1.6,1.6,0,0,1,1.595,1.595v4.566H40.217a.694.694,0,0,0,.694-.694V260.43a.693.693,0,0,0-.693-.694Z" transform="translate(-20.243 -259.736)" fill="#d8ecfe"/>
          <path id="Trazado_1172915" data-name="Trazado 1172915" d="M25.9,285.681V260.43a.694.694,0,0,1,.694-.694H20.937a.694.694,0,0,0-.694.694v19.785h3.016a1.6,1.6,0,0,1,1.595,1.595v4.566H26.59A.694.694,0,0,1,25.9,285.681Z" transform="translate(-20.243 -259.736)" fill="#c4e2ff"/>
        </g>
        <g id="Grupo_1222163" data-name="Grupo 1222163" transform="translate(0 20.479)">
          <path id="Trazado_1172916" data-name="Trazado 1172916" d="M12.284,415.5H9.095A1.6,1.6,0,0,1,7.5,413.908v-4.943a1.6,1.6,0,0,1,1.595-1.595h3.189a1.6,1.6,0,0,1,1.595,1.595v4.943A1.6,1.6,0,0,1,12.284,415.5Z" transform="translate(-7.5 -407.37)" fill="#ffe5c2"/>
        </g>
        <g id="Grupo_1222164" data-name="Grupo 1222164" transform="translate(0 20.479)">
          <path id="Trazado_1172917" data-name="Trazado 1172917" d="M10.76,413.908v-4.943a1.594,1.594,0,0,1,1.56-1.593l-.035,0H9.095A1.6,1.6,0,0,0,7.5,408.965v4.943A1.6,1.6,0,0,0,9.095,415.5h3.189l.035,0A1.594,1.594,0,0,1,10.76,413.908Z" transform="translate(-7.5 -407.37)" fill="#fed2a4"/>
        </g>
      </g>
      <g id="Grupo_1222174" data-name="Grupo 1222174" transform="translate(47.544 48.065)">
        <g id="Grupo_1222171" data-name="Grupo 1222171" transform="translate(0 0)">
          <path id="Trazado_1172918" data-name="Trazado 1172918" d="M358.814,281.809a1.6,1.6,0,0,1,1.595-1.595h3.016V260.43a.694.694,0,0,0-.694-.694H343.451a.694.694,0,0,0-.694.694v25.252a.694.694,0,0,0,.694.694h15.363v-4.566Z" transform="translate(-342.757 -259.736)" fill="#0593fc"/>
          <g id="Grupo_1222166" data-name="Grupo 1222166">
            <path id="Trazado_1172919" data-name="Trazado 1172919" d="M348.894,285.681V260.43a.694.694,0,0,1,.694-.694h-6.137a.694.694,0,0,0-.694.694v25.252a.694.694,0,0,0,.694.694h6.137A.694.694,0,0,1,348.894,285.681Z" transform="translate(-342.757 -259.736)" fill="#0182fc"/>
          </g>
          <g id="Grupo_1222170" data-name="Grupo 1222170" transform="translate(3.819 7.066)">
            <path id="Trazado_1172920" data-name="Trazado 1172920" d="M380.435,327.12a2.233,2.233,0,1,1-3.628,1.727l0,0a3.773,3.773,0,0,0-3.252-1.781c-2.081.144-3.524,2.453-3.224,5.159s2.23,4.782,4.311,4.639h4.33c2.081.144,4.01-1.933,4.311-4.639C383.561,329.689,382.309,327.5,380.435,327.12Z" transform="translate(-370.289 -324.789)" fill="#fb2b3a"/>
            <g id="Grupo_1222168" data-name="Grupo 1222168" transform="translate(0 2.272)">
              <g id="Grupo_1222167" data-name="Grupo 1222167">
                <path id="Trazado_1172921" data-name="Trazado 1172921" d="M375.014,332.226a5.268,5.268,0,0,1,1.155-4.115,3.468,3.468,0,0,0-2.616-1.044c-2.081.144-3.524,2.453-3.224,5.159s2.23,4.782,4.311,4.639h4.283C377,336.737,375.294,334.757,375.014,332.226Z" transform="translate(-370.289 -327.061)" fill="#e41f2d"/>
              </g>
            </g>
            <g id="Grupo_1222169" data-name="Grupo 1222169" transform="translate(5.598 0)">
              <ellipse id="Elipse_14464" data-name="Elipse 14464" cx="2.554" cy="1.365" rx="2.554" ry="1.365" transform="translate(0 3.611) rotate(-45)" fill="#97d729"/>
            </g>
          </g>
        </g>
        <g id="Grupo_1222172" data-name="Grupo 1222172" transform="translate(16.057 20.479)">
          <path id="Trazado_1172922" data-name="Trazado 1172922" d="M463.3,415.5H460.11a1.6,1.6,0,0,1-1.595-1.595v-4.943a1.6,1.6,0,0,1,1.595-1.595H463.3a1.6,1.6,0,0,1,1.595,1.595v4.943A1.6,1.6,0,0,1,463.3,415.5Z" transform="translate(-458.515 -407.37)" fill="#ffe5c2"/>
        </g>
        <g id="Grupo_1222173" data-name="Grupo 1222173" transform="translate(16.057 20.479)">
          <path id="Trazado_1172923" data-name="Trazado 1172923" d="M461.775,413.908v-4.943a1.594,1.594,0,0,1,1.56-1.593l-.035,0H460.11a1.6,1.6,0,0,0-1.595,1.595v4.943a1.6,1.6,0,0,0,1.595,1.595H463.3l.035,0A1.594,1.594,0,0,1,461.775,413.908Z" transform="translate(-458.515 -407.37)" fill="#fed2a4"/>
        </g>
      </g>
      <g id="Grupo_1222175" data-name="Grupo 1222175" transform="translate(0 13.975)">
        <path id="Trazado_1172924" data-name="Trazado 1172924" d="M226.252,208.889h-7.416a1.678,1.678,0,0,0-1.652,1.982,5.1,5.1,0,0,0,5.008,4.153h.7a5.1,5.1,0,0,0,5.008-4.153,1.678,1.678,0,0,0-1.651-1.982Zm-3.356,4.054h-.7a3.015,3.015,0,0,1-2.83-1.974h6.365A3.015,3.015,0,0,1,222.9,212.943Z" transform="translate(-187.034 -181.852)"/>
        <path id="Trazado_1172925" data-name="Trazado 1172925" d="M213.773,150.862v-2.625a1.04,1.04,0,1,0-2.081,0v2.625a1.04,1.04,0,1,0,2.081,0Z" transform="translate(-182.328 -128.718)"/>
        <path id="Trazado_1172926" data-name="Trazado 1172926" d="M286.348,147.2a1.04,1.04,0,0,0-1.04,1.04v2.625a1.04,1.04,0,1,0,2.081,0v-2.625A1.04,1.04,0,0,0,286.348,147.2Z" transform="translate(-245.732 -128.718)"/>
        <path id="Trazado_1172927" data-name="Trazado 1172927" d="M239.705,163.154a1.04,1.04,0,0,0,1.555-1.382l-.876-.985.91-1.138a1.04,1.04,0,0,0-1.625-1.3l-1.459,1.824a1.04,1.04,0,0,0,.035,1.341Z" transform="translate(-204.972 -137.986)"/>
        <path id="Trazado_1172928" data-name="Trazado 1172928" d="M58.567,309.014a1.04,1.04,0,0,0-.952.622l-4.786,10.887a1.04,1.04,0,1,0,1.9.837l1.129-2.569h5.408L62.4,321.36a1.04,1.04,0,1,0,1.9-.837L59.52,309.636A1.041,1.041,0,0,0,58.567,309.014Zm1.79,7.7H56.778l1.79-4.071Z" transform="translate(-45.425 -268.089)"/>
        <path id="Trazado_1172929" data-name="Trazado 1172929" d="M375.111,308.466a4.131,4.131,0,0,0-.077-.866,1.04,1.04,0,0,0-.819-.818,4.111,4.111,0,0,0-2.833.46,1.04,1.04,0,0,0-2.08.02v1.333a4.21,4.21,0,0,0-2.283-.513,4.156,4.156,0,0,0-2.9,1.536,6.358,6.358,0,0,0-1.282,4.775c.348,3.137,2.626,5.572,5.147,5.571.077,0,.154,0,.231-.007h4.264c.077,0,.154.007.231.007,2.521,0,4.8-2.435,5.147-5.571a6.357,6.357,0,0,0-1.282-4.775A4.386,4.386,0,0,0,375.111,308.466Zm-3.132.913a.6.6,0,1,1-.549,1.009A2.026,2.026,0,0,1,371.978,309.379Zm3.807,4.784c-.228,2.056-1.618,3.72-3.074,3.72-.043,0-.087,0-.131,0l-.072,0h-4.33l-.072,0c-1.506.1-2.97-1.6-3.2-3.716a4.341,4.341,0,0,1,.811-3.212,2.092,2.092,0,0,1,1.45-.795c.042,0,.085,0,.127,0a2.732,2.732,0,0,1,2.041,1.135c.013.11.028.219.05.328a1.04,1.04,0,0,0,.819.819,4.111,4.111,0,0,0,4.321-1.908,2.5,2.5,0,0,1,.452.425A4.341,4.341,0,0,1,375.785,314.163Z" transform="translate(-312.465 -265.683)"/>
        <path id="Trazado_1172930" data-name="Trazado 1172930" d="M69.253,67.653V56.563a1.04,1.04,0,1,0-2.081,0V67.5H65.2a2.638,2.638,0,0,0-2.635,2.635v3.525H48.585V49.105H67.172v2.6a1.04,1.04,0,1,0,2.081,0v-2.95a1.736,1.736,0,0,0-1.734-1.734H51.185V43.546A5.027,5.027,0,0,0,53.873,39.1V37.793a5.027,5.027,0,0,0-2.689-4.446V27.366a11.718,11.718,0,0,0-11.351-11.7,8.973,8.973,0,0,0-5.273-1.692H31.54a11.717,11.717,0,0,0-11.7,11.7v7.669a5.027,5.027,0,0,0-2.689,4.446V39.1a5.027,5.027,0,0,0,2.689,4.446v3.478H18.171a1.04,1.04,0,0,0,0,2.081h4.264V73.663H8.459V70.138A2.638,2.638,0,0,0,5.824,67.5H3.848v-18.4h9.468a1.04,1.04,0,1,0,0-2.081H3.5a1.736,1.736,0,0,0-1.734,1.734V67.653A2.638,2.638,0,0,0,0,70.138v4.944a2.638,2.638,0,0,0,2.635,2.635H5.824a2.637,2.637,0,0,0,2.547-1.972h7.65v3.64a1.736,1.736,0,0,0,1.734,1.734h24a1.04,1.04,0,1,0,0-2.081H18.1V75.744h4.681a1.736,1.736,0,0,0,1.734-1.734V57.1a7.278,7.278,0,0,0,2.324.492V62a1.734,1.734,0,0,0,2.6,1.5L31.9,62.075l1.985,5.413a1.734,1.734,0,0,0,3.256,0l1.985-5.413L41.576,63.5a1.734,1.734,0,0,0,2.6-1.5V57.591A7.277,7.277,0,0,0,46.5,57.1V74.01a1.736,1.736,0,0,0,1.734,1.734h4.68v3.294H46.607a1.04,1.04,0,0,0,0,2.081h6.658A1.736,1.736,0,0,0,55,79.384v-3.64h7.65A2.637,2.637,0,0,0,65.2,77.717h3.189a2.638,2.638,0,0,0,2.635-2.635V70.138a2.638,2.638,0,0,0-1.768-2.485ZM6.379,75.082a.555.555,0,0,1-.554.554H2.635a.555.555,0,0,1-.554-.554V70.138a.555.555,0,0,1,.554-.554H5.824a.555.555,0,0,1,.554.554v4.944ZM51.793,39.1a2.945,2.945,0,0,1-2.942,2.942H46.99a10.817,10.817,0,0,0,.162-1.864V34.851h1.7a2.946,2.946,0,0,1,2.942,2.942ZM21.916,25.679a9.634,9.634,0,0,1,9.623-9.623h3.021a6.918,6.918,0,0,1,4.282,1.468,1.04,1.04,0,0,0,.638.219A9.634,9.634,0,0,1,49.1,27.366v5.411q-.126-.006-.253-.006h-1.7V30.837a5.052,5.052,0,0,0-2.024-4.032,3.972,3.972,0,0,0-4.723.007L36.8,29.426a1.942,1.942,0,0,1-1.146.371H27.9a4.041,4.041,0,0,0-3.892,2.974H22.17q-.127,0-.253.006v-7.1Zm14.44,23.214H34.664a8.724,8.724,0,0,1-8.714-8.714V33.831A1.956,1.956,0,0,1,27.9,31.877H35.65a4.01,4.01,0,0,0,2.366-.767L41.625,28.5a1.925,1.925,0,0,1,2.259-.024,2.924,2.924,0,0,1,1.187,2.364v9.342A8.724,8.724,0,0,1,36.357,48.893Zm2.132,1.868v3.307L35.51,57.253l-2.979-3.185V50.762a10.8,10.8,0,0,0,2.132.212h1.693A10.8,10.8,0,0,0,38.489,50.762ZM19.227,37.794a2.946,2.946,0,0,1,2.942-2.942h1.7v5.328a10.818,10.818,0,0,0,.162,1.864H22.17A2.945,2.945,0,0,1,19.227,39.1ZM27.6,50.5a1.732,1.732,0,0,0-.764,1.437v3.573a5.219,5.219,0,0,1-2.324-.713V48.758a1.736,1.736,0,0,0-1.734-1.734h-.866V44.117q.126.006.253.006h2.447a10.86,10.86,0,0,0,4.533,5.331Zm1.317,10.9V52.119l1.53-1.032v3.392a1.041,1.041,0,0,0,.28.711l3.126,3.342Zm6.589,4.487-1.786-4.869,1.786-1.036L37.3,61.015ZM42.1,61.4l-4.936-2.864,3.126-3.342a1.041,1.041,0,0,0,.28-.711V51.087l1.53,1.032ZM46.5,48.758v6.036a5.22,5.22,0,0,1-2.324.713V51.935a1.732,1.732,0,0,0-.764-1.437L41.87,49.455A10.861,10.861,0,0,0,46.4,44.124h2.447q.127,0,.253-.006v2.907h-.866A1.736,1.736,0,0,0,46.5,48.758ZM68.94,75.082a.555.555,0,0,1-.554.554H65.2a.555.555,0,0,1-.554-.554V70.138a.555.555,0,0,1,.554-.554h3.189a.555.555,0,0,1,.554.554Z" transform="translate(0 -13.975)"/>
      </g>
    </g>
  </g>
</svg>
