<svg xmlns="http://www.w3.org/2000/svg" xmlns:xlink="http://www.w3.org/1999/xlink" width="190" height="182" viewBox="0 0 190 182">
  <defs>
    <clipPath id="clip-path">
      <rect id="Rectángulo_420153" data-name="Rectángulo 420153" width="190" height="182" transform="translate(600 351)" fill="#fff" stroke="#707070" stroke-width="1"/>
    </clipPath>
  </defs>
  <g id="Enmascarar_grupo_1098948" data-name="Enmascarar grupo 1098948" transform="translate(-600 -351)" clip-path="url(#clip-path)">
    <g id="_x31_" transform="translate(585.785 344.594)">
      <path id="Trazado_1172739" data-name="Trazado 1172739" d="M73.677,0A73.677,73.677,0,1,1,0,73.677,73.677,73.677,0,0,1,73.677,0Z" transform="translate(37.543 20.992)" fill="#df93dd"/>
      <ellipse id="Elipse_14448" data-name="Elipse 14448" cx="43.602" cy="3.537" rx="43.602" ry="3.537" transform="translate(67.617 176.332)" fill="#df93dd"/>
      <g id="_x31__1_" transform="translate(34.775 43.721)">
        <path id="Trazado_1172433" data-name="Trazado 1172433" d="M298.93,352.395a3.764,3.764,0,0,1-.129.836c-.772,3.023-1.544,6.045-2.379,9a10.733,10.733,0,0,1-10.354,2.7l.643-4.5.965-9.2a5.657,5.657,0,1,1,11.254,1.158Z" transform="translate(-199.234 -256.504)" fill="#e26988"/>
        <path id="Trazado_1172434" data-name="Trazado 1172434" d="M285.1,385.877h-.023c1.355-4.757,2.671-9.536,3.946-14.277,1.543-6.109,3.537-12.862,4.887-18.907.9-7.331-10.675-8.489-11.318-1.158-1.222,12.026-2.637,25.081-4.18,37.043a2.637,2.637,0,0,0,.214,1.371c1.693,5.324,15.984,3.9,17.279.815a1.78,1.78,0,0,0,.064-.579c-.643-3.666-9.839-4.244-10.868-4.309Z" transform="translate(-194.213 -256.803)" fill="#ed7e97"/>
        <path id="Trazado_1172435" data-name="Trazado 1172435" d="M303.71,433.885h0s-3.987-2.572-11.254-3.344c-.193,0-.386-.064-.579-.064a1.732,1.732,0,0,1-1.415-2.379l6.946-15.627-.579,2.251c-1.286,4.759-2.572,9.518-3.923,14.277,1.029.064,10.225.643,10.868,4.309A1.78,1.78,0,0,1,303.71,433.885Z" transform="translate(-202.02 -299.924)" fill="#f490aa"/>
        <path id="Trazado_1172436" data-name="Trazado 1172436" d="M295.867,471.4c-1.35,3.215-16.849,4.63-17.428-1.608h.129S285.063,474.1,295.867,471.4Z" transform="translate(-194.241 -337.437)" fill="#e26988"/>
        <path id="Trazado_1172437" data-name="Trazado 1172437" d="M187.523,360.585l.579,5.338c-6.688,2.251-9.454-.257-9.454-.257l-.9-3.28c-.772-3.023-1.608-5.981-2.379-9a5.709,5.709,0,1,1,11.061-2.83,3.259,3.259,0,0,1,.129.836v.064Z" transform="translate(-126.67 -256.591)" fill="#e26988"/>
        <path id="Trazado_1172438" data-name="Trazado 1172438" d="M186.907,388.535a.2.2,0,0,0-.009-.076c-1.539-12.068-2.951-24.966-4.17-37.224-.9-7.975-13.055-5.788-11.19,1.993,1.479,5.788,3.215,12.283,4.759,18.071,1.273,4.789,2.589,9.537,3.943,14.277h-.021c-1.029.064-10.225.707-10.868,4.309-.579,3.537,15.949,5.595,17.428-.386q.023-.113.045-.227A2.762,2.762,0,0,0,186.907,388.535Z" transform="translate(-122.839 -256.567)" fill="#ed7e97"/>
        <path id="Trazado_1172439" data-name="Trazado 1172439" d="M182.69,429.583a.926.926,0,0,1-.9,1.286h-.965a28.8,28.8,0,0,0-11.447,2.251c.643-3.6,9.84-4.244,10.868-4.309-1.35-4.759-2.637-9.518-3.923-14.277l-.579-2.251Z" transform="translate(-122.866 -299.802)" fill="#f490aa"/>
        <path id="Trazado_1172440" data-name="Trazado 1172440" d="M186.779,471.467c-1.479,5.981-18.007,3.923-17.428.386C169.35,471.917,178.74,474.875,186.779,471.467Z" transform="translate(-122.838 -338.534)" fill="#e26988"/>
        <path id="Trazado_1172441" data-name="Trazado 1172441" d="M286.009,393.046c-.327,0-.651-.007-.971-.021-4.269-.192-7.138-1.6-7.882-3.875a3.159,3.159,0,0,1-.245-1.609c1.319-10.222,2.686-22.334,4.18-37.044a5.606,5.606,0,0,1,3.316-4.842,6.982,6.982,0,0,1,6.822.708,5.579,5.579,0,0,1,2.211,5.407c0,.017-.005.034-.009.05-.84,3.76-1.937,7.829-3,11.764-.642,2.38-1.306,4.842-1.892,7.158-1.289,4.792-2.557,9.387-3.775,13.676,3.453.27,10.122,1.239,10.728,4.693a.518.518,0,0,1,.008.09,2.226,2.226,0,0,1-.091.743c0,.012-.009.025-.014.037-.826,1.97-5.325,3.066-9.388,3.066Zm1.152-46.926a5.667,5.667,0,0,0-2.326.48,4.611,4.611,0,0,0-2.711,4c-1.5,14.727-2.864,26.848-4.183,37.064a2.114,2.114,0,0,0,.171,1.089.5.5,0,0,1,.022.058c.836,2.628,5.138,3.1,6.949,3.183,4.593.208,8.776-1.113,9.349-2.392a1.292,1.292,0,0,0,.033-.35c-.478-2.38-5.867-3.554-10.366-3.838h-.007a.518.518,0,0,1-.5-.66c1.27-4.459,2.6-9.259,3.944-14.269.585-2.317,1.25-4.782,1.893-7.166,1.056-3.915,2.149-7.964,2.983-11.694a4.577,4.577,0,0,0-1.8-4.421,5.889,5.889,0,0,0-3.454-1.079Z" transform="translate(-193.231 -255.817)" fill="#bf4b6f"/>
        <path id="Trazado_1172442" data-name="Trazado 1172442" d="M177.9,392.979c-3.529,0-7.177-.915-8.884-2.121-1.1-.777-1.233-1.541-1.151-2.045.628-3.514,7.718-4.456,10.727-4.7-1.358-4.766-2.593-9.245-3.771-13.671l-.278-1.042c-1.449-5.432-3.091-11.589-4.482-17.035a5.82,5.82,0,0,1,1.733-6.022,6.85,6.85,0,0,1,6.819-1.206,5.792,5.792,0,0,1,3.656,5.047c1.357,13.644,2.76,26.163,4.169,37.216,0,.013,0,.026,0,.039a4.426,4.426,0,0,1-2.512,4.279,12.835,12.835,0,0,1-6.029,1.255Zm-1.619-47.225a5.859,5.859,0,0,0-3.805,1.374,4.823,4.823,0,0,0-1.409,4.991c1.388,5.433,3.03,11.587,4.478,17.016l.278,1.042c1.226,4.611,2.515,9.278,3.941,14.268a.518.518,0,0,1-.5.661c-3.631.226-9.918,1.3-10.379,3.881-.065.4.428.812.727,1.023,2.517,1.778,10.142,2.827,13.815.8a3.408,3.408,0,0,0,1.978-3.3c-1.41-11.058-2.813-23.579-4.169-37.218a4.8,4.8,0,0,0-3-4.19A5.408,5.408,0,0,0,176.277,345.754Z" transform="translate(-121.86 -255.579)" fill="#bf4b6f"/>
        <path id="Trazado_1172443" data-name="Trazado 1172443" d="M186.412,160.1a17.511,17.511,0,0,1-17.492,17.492h-.643a17.5,17.5,0,0,1-16.849,12.733,17.052,17.052,0,0,1-8.811-2.379,17.537,17.537,0,0,1-14.148,7.2,17.337,17.337,0,0,1-11.9-4.695A17.482,17.482,0,0,1,91.1,188.719a17.53,17.53,0,0,1-23.087-8.232,9.3,9.3,0,0,1-.579-1.415c-.45.064-.965.193-1.415.257-.643.064-1.35.129-2.058.129a17.494,17.494,0,0,1-15.756-9.9,17.673,17.673,0,0,1,.515-16.271,17.343,17.343,0,0,1-3.666-10.74A17.612,17.612,0,0,1,57.921,125.63a17.12,17.12,0,0,1-.643-4.823A17.511,17.511,0,0,1,74.77,103.315a17.874,17.874,0,0,1,6.946,1.415,17.517,17.517,0,0,1,31.319-7.781,18.1,18.1,0,0,1,15.5-8.682,17.5,17.5,0,0,1,17.428,15.949,17.484,17.484,0,0,1,23.023,16.592v.45a17.67,17.67,0,0,1,3.794,1.35,17.437,17.437,0,0,1,9.84,15.756,17.189,17.189,0,0,1-2.187,8.489,17.829,17.829,0,0,1,5.98,13.249Z" transform="translate(-41.505 -87.748)" fill="#fc9db8"/>
        <path id="Trazado_1172444" data-name="Trazado 1172444" d="M178.437,152.537a17.511,17.511,0,0,1-17.492,17.492H160.3a17.5,17.5,0,0,1-16.849,12.734,17.052,17.052,0,0,1-8.811-2.379,17.537,17.537,0,0,1-14.148,7.2,17.337,17.337,0,0,1-11.9-4.695,17.482,17.482,0,0,1-25.467-1.736,17.462,17.462,0,0,1-7.331,1.608,17.82,17.82,0,0,1-7.653-1.736s.064-1.029-.579-1.415c-3.023-1.993-6.817-4.63-8.1-8.038a15.41,15.41,0,0,1-3.859.322,18.288,18.288,0,0,1-7.267-1.736,17.673,17.673,0,0,1,.515-16.271,17.343,17.343,0,0,1-3.666-10.74,17.612,17.612,0,0,1,12.862-16.914,17.12,17.12,0,0,1-.643-4.823A17.511,17.511,0,0,1,74.9,103.919a17.874,17.874,0,0,1,6.946,1.415,17.517,17.517,0,0,1,31.319-7.781h.386a17.5,17.5,0,0,1,32.541,7.267,17.485,17.485,0,0,1,23.023,16.592v.45a17.671,17.671,0,0,1,3.794,1.35,17.82,17.82,0,0,1,1.736,7.653,17.189,17.189,0,0,1-2.187,8.489A17.58,17.58,0,0,1,178.437,152.537Z" transform="translate(-41.589 -88.144)" fill="#ffa6bd"/>
        <path id="Trazado_1172445" data-name="Trazado 1172445" d="M168.368,120.873c-5.852-18.907-24.309-13.634-24.309-13.634A18.171,18.171,0,0,0,131,94.184c-11-2.958-17.942,6.624-17.942,6.624A19.249,19.249,0,0,0,97.627,95.6C87.981,96.628,84.122,109.1,84.122,109.1A23.648,23.648,0,0,0,66.694,111.1c-9.2,4.823-7.01,17.942-7.01,17.942-18.457,9.646-11.769,24.052-11.7,24.245a17.343,17.343,0,0,1-3.666-10.74,17.612,17.612,0,0,1,12.862-16.914,17.12,17.12,0,0,1-.643-4.823,17.511,17.511,0,0,1,17.492-17.492,17.874,17.874,0,0,1,6.946,1.415,17.517,17.517,0,0,1,31.319-7.781h.386a17.5,17.5,0,0,1,32.541,7.267,17.594,17.594,0,0,1,23.151,16.657Z" transform="translate(-41.018 -87.749)" fill="#ffb8cc"/>
        <path id="Trazado_1172446" data-name="Trazado 1172446" d="M264.856,308.357a.916.916,0,0,1-.386-.129.529.529,0,0,1-.064-.772c3.087-3.794,0-9.775-.064-9.84a.57.57,0,0,1,.129-.707c4.887-3.73,7.589-7.846,8.167-12.219a14.061,14.061,0,0,0-2.444-9.389.548.548,0,0,1,.836-.707,14.56,14.56,0,0,1,2.7,10.161c-.579,4.566-3.28,8.811-8.232,12.669.707,1.544,2.83,6.881-.257,10.675A.353.353,0,0,1,264.856,308.357Z" transform="translate(-184.967 -209.572)" fill="#ed7e97"/>
        <path id="Trazado_1172447" data-name="Trazado 1172447" d="M127.486,194.688a17.85,17.85,0,0,1-11.9-4.514,17.994,17.994,0,0,1-25.61-1.8,18.046,18.046,0,0,1-23.407-8.636c-.064-.149-.123-.274-.182-.4-.1-.21-.2-.425-.287-.655l-.247.049c-.252.05-.5.1-.738.134-.654.066-1.392.134-2.131.134a17.9,17.9,0,0,1-16.223-10.2,18.182,18.182,0,0,1,.366-16.447,17.769,17.769,0,0,1-3.569-10.789A18.138,18.138,0,0,1,56.3,124.3a18.137,18.137,0,0,1,17.483-22.48,18.472,18.472,0,0,1,6.548,1.214A18.03,18.03,0,0,1,112,95.064a18.7,18.7,0,0,1,15.553-8.3,18.117,18.117,0,0,1,17.877,15.783,18,18,0,0,1,23.092,17.276v.045A18.077,18.077,0,0,1,180.1,145.765a18.321,18.321,0,0,1,5.848,13.357,18.031,18.031,0,0,1-18.011,18.011h-.255a18.067,18.067,0,0,1-17.237,12.733,17.69,17.69,0,0,1-8.674-2.219A18.163,18.163,0,0,1,127.486,194.688Zm-11.9-5.731a.519.519,0,0,1,.355.14,16.814,16.814,0,0,0,11.543,4.555,17.127,17.127,0,0,0,13.73-6.991.518.518,0,0,1,.684-.137,16.585,16.585,0,0,0,8.544,2.306,17.022,17.022,0,0,0,16.35-12.355.519.519,0,0,1,.5-.378h.643a16.993,16.993,0,0,0,16.974-16.974,17.292,17.292,0,0,0-5.807-12.863.519.519,0,0,1-.106-.641,17.026,17.026,0,0,0-7.427-23.523,17.1,17.1,0,0,0-3.688-1.313.518.518,0,0,1-.4-.5v-.45a16.966,16.966,0,0,0-22.341-16.1.518.518,0,0,1-.68-.447A17.065,17.065,0,0,0,127.551,87.8,17.572,17.572,0,0,0,112.5,96.228a.519.519,0,0,1-.862.053,17,17,0,0,0-30.394,7.551.518.518,0,0,1-.714.395,17.418,17.418,0,0,0-6.743-1.374,16.993,16.993,0,0,0-16.974,16.974,16.5,16.5,0,0,0,.622,4.678.518.518,0,0,1-.358.644,17.1,17.1,0,0,0-12.483,16.414,16.737,16.737,0,0,0,3.555,10.42.519.519,0,0,1,.046.569,17.154,17.154,0,0,0-.5,15.8,16.866,16.866,0,0,0,15.287,9.607c.691,0,1.4-.065,2.006-.126.195-.028.427-.075.659-.122.25-.05.5-.1.734-.133a.521.521,0,0,1,.576.388,5.159,5.159,0,0,0,.366.928c.065.137.128.273.186.409a17.012,17.012,0,0,0,22.4,7.964.519.519,0,0,1,.616.143,16.963,16.963,0,0,0,24.715,1.684.517.517,0,0,1,.351-.137Z" transform="translate(-40.523 -86.768)" fill="#bf4b6f"/>
        <path id="Trazado_1172448" data-name="Trazado 1172448" d="M294.92,153.992c3.73,1.286,7.267.965,7.846-.707.579-1.736-1.929-4.18-5.659-5.466s-7.267-.965-7.846.707S291.19,152.642,294.92,153.992Z" transform="translate(-201.269 -126.206)" fill="#ed7e97"/>
        <path id="Trazado_1172449" data-name="Trazado 1172449" d="M298.238,154.218a14.57,14.57,0,0,1-4.5-.836,13.263,13.263,0,0,1-4.695-2.7c-1.222-1.222-1.736-2.444-1.35-3.473s1.544-1.736,3.215-1.865a13.6,13.6,0,0,1,5.338.772,13.263,13.263,0,0,1,4.695,2.7c1.222,1.222,1.736,2.444,1.35,3.473s-1.544,1.736-3.215,1.865A3.666,3.666,0,0,1,298.238,154.218Zm-6.5-7.846a2.412,2.412,0,0,0-.707.064c-1.222.129-2.058.515-2.251,1.093s.193,1.415,1.093,2.315a11.712,11.712,0,0,0,4.244,2.444,12.647,12.647,0,0,0,4.887.772c1.222-.129,2.058-.515,2.251-1.093s-.193-1.415-1.093-2.315a11.712,11.712,0,0,0-4.244-2.444A13.043,13.043,0,0,0,291.743,146.372Z" transform="translate(-200.214 -125.081)" fill="#bf4b6f"/>
        <path id="Trazado_1172450" data-name="Trazado 1172450" d="M184.311,155.979c3.666-1.544,6.045-4.18,5.338-5.852s-4.244-1.8-7.91-.257-6.045,4.18-5.338,5.852S180.646,157.522,184.311,155.979Z" transform="translate(-127.381 -127.357)" fill="#ed7e97"/>
        <path id="Trazado_1172451" data-name="Trazado 1172451" d="M178.318,156.468c-1.8,0-3.151-.579-3.666-1.672-.836-1.993,1.608-4.887,5.659-6.56a14.256,14.256,0,0,1,5.273-1.158c1.736.064,2.894.643,3.344,1.672s0,2.315-1.158,3.6a13.151,13.151,0,0,1-4.5,3.023A12.363,12.363,0,0,1,178.318,156.468Zm7.074-8.232a12.852,12.852,0,0,0-4.566,1.029c-3.6,1.544-5.531,3.923-5.016,5.081s3.537,1.479,7.138-.064a12.37,12.37,0,0,0,4.116-2.7c.836-.9,1.158-1.8.9-2.379s-1.093-.965-2.315-.965h-.257Z" transform="translate(-126.211 -126.239)" fill="#bf4b6f"/>
        <g id="Grupo_1221860" data-name="Grupo 1221860" transform="translate(26.185 11.541)">
          <path id="Trazado_1172452" data-name="Trazado 1172452" d="M181.527,128.758a.355.355,0,0,1-.322-.129.534.534,0,0,1-.129-.772c.064-.064,4.5-6.431,11.9-3.28a.591.591,0,0,1-.45,1.093,8.6,8.6,0,0,0-10.547,2.894A1.363,1.363,0,0,1,181.527,128.758Z" transform="translate(-156.634 -122.481)" fill="#ed7e97"/>
          <path id="Trazado_1172453" data-name="Trazado 1172453" d="M186.516,338.252a6.659,6.659,0,0,1-6.56-4.759.57.57,0,0,1,1.093-.321,5.4,5.4,0,0,0,5.724,3.923.575.575,0,0,1,.643.514.626.626,0,0,1-.515.643h-.386Z" transform="translate(-155.964 -259.305)" fill="#ed7e97"/>
          <path id="Trazado_1172454" data-name="Trazado 1172454" d="M309.155,358.076a6.759,6.759,0,0,1-2.572-.515.549.549,0,1,1,.386-1.029,5.452,5.452,0,0,0,6.624-2.058.562.562,0,1,1,.964.579,6.926,6.926,0,0,1-5.4,3.023Z" transform="translate(-238.602 -273.341)" fill="#ed7e97"/>
          <path id="Trazado_1172455" data-name="Trazado 1172455" d="M133.679,279.408a.236.236,0,0,1-.193-.064,6.711,6.711,0,0,1-4.116-7.331.555.555,0,1,1,1.093.193,5.372,5.372,0,0,0,3.344,6.045.52.52,0,0,1,.322.707c-.065.322-.258.45-.451.45Z" transform="translate(-122.805 -219.24)" fill="#ed7e97"/>
          <path id="Trazado_1172456" data-name="Trazado 1172456" d="M363.883,294.2a.567.567,0,0,1-.579-.515.525.525,0,0,1,.515-.579,5.542,5.542,0,0,0,5.209-4.63.582.582,0,1,1,1.158.129,6.711,6.711,0,0,1-6.3,5.6h0Z" transform="translate(-275.966 -229.981)" fill="#ed7e97"/>
          <path id="Trazado_1172457" data-name="Trazado 1172457" d="M111.138,182.32a.576.576,0,0,1-.579-.579c-.193-7.46,5.531-9.261,7.138-9.646a8.264,8.264,0,0,1,9.968-7.2.555.555,0,0,1-.193,1.093,8.178,8.178,0,0,0-5.466,1.029c-1.672,1.093-2.7,3.023-3.215,5.595a.546.546,0,0,1-.515.45c-.257.064-6.752.965-6.56,8.553,0,.45-.257.707-.579.707Z" transform="translate(-110.554 -149.355)" fill="#ed7e97"/>
          <path id="Trazado_1172458" data-name="Trazado 1172458" d="M382.313,188.73h-.193a.555.555,0,0,1-.386-.707,7.394,7.394,0,0,0-.579-5.531,8.244,8.244,0,0,0-5.273-3.666.623.623,0,0,1-.45-.515c0-.257-.386-6.817-7.91-7.267a.548.548,0,0,1,.064-1.093c7.46.45,8.746,6.3,8.939,7.974a9.168,9.168,0,0,1,5.659,4.116,8.8,8.8,0,0,1,.643,6.431.575.575,0,0,1-.515.257Z" transform="translate(-278.383 -152.742)" fill="#ed7e97"/>
          <path id="Trazado_1172459" data-name="Trazado 1172459" d="M175.8,352.979a3.957,3.957,0,0,1-.9-.064,7.619,7.619,0,0,1-4.437-2.765c-7.46,1.672-10.1-5.659-10.1-5.724a.549.549,0,1,1,1.029-.386c.064.257,2.444,6.688,9.132,4.887a.612.612,0,0,1,.643.257,6.275,6.275,0,0,0,3.923,2.572c1.672.257,3.537-.386,5.4-1.994a.548.548,0,0,1,.707.836A8.058,8.058,0,0,1,175.8,352.979Z" transform="translate(-143.128 -266.443)" fill="#ed7e97"/>
          <path id="Trazado_1172460" data-name="Trazado 1172460" d="M345.879,352.56a16.288,16.288,0,0,1-4.18-.579.57.57,0,1,1,.321-1.093c.386.129,8.939,2.765,11.576-4.63a.549.549,0,0,1,1.029.386C353.017,351.531,349.03,352.56,345.879,352.56Z" transform="translate(-261.563 -267.889)" fill="#ed7e97"/>
          <path id="Trazado_1172461" data-name="Trazado 1172461" d="M394.809,229.715h-.129a.555.555,0,0,1-.386-.707c.129-.386,2.508-9.068-4.952-11.447a.57.57,0,1,1,.321-1.093c8.489,2.765,5.724,12.734,5.724,12.862A.74.74,0,0,1,394.809,229.715Z" transform="translate(-292.744 -183.18)" fill="#ed7e97"/>
          <path id="Trazado_1172462" data-name="Trazado 1172462" d="M257.612,144.965c-.129,0-.193,0-.257-.064a.538.538,0,0,1-.193-.772c3.923-6.624-3.666-11.447-3.987-11.64a.585.585,0,0,1-.257-.515c.322-4.052-.322-7.074-2.058-8.875a5.736,5.736,0,0,0-3.621-1.775.58.58,0,0,1,.1-1.156,6.535,6.535,0,0,1,4.289,2.094c1.865,1.993,2.7,5.145,2.379,9.389,1.479,1.029,8.039,6.238,4.052,12.991a.485.485,0,0,1-.451.321Z" transform="translate(-199.664 -120.167)" fill="#ed7e97"/>
        </g>
        <ellipse id="Elipse_14449" data-name="Elipse 14449" cx="13.698" cy="11.383" rx="13.698" ry="11.383" transform="translate(36.734 60.718) rotate(-68.23)" fill="#fff"/>
        <ellipse id="Elipse_14450" data-name="Elipse 14450" cx="8.554" cy="7.397" rx="8.554" ry="7.397" transform="translate(44.265 64.324) rotate(-82.072)" fill="#22213f"/>
        <path id="Trazado_1172463" data-name="Trazado 1172463" d="M176.465,256.792a2.324,2.324,0,0,1-3.087,1.093,2.28,2.28,0,0,1-1.479-2.894,2.324,2.324,0,0,1,3.087-1.093A2.391,2.391,0,0,1,176.465,256.792Z" transform="translate(-124.422 -196.015)" fill="#fff"/>
        <path id="Trazado_1172464" data-name="Trazado 1172464" d="M309.806,205.844c2.958,6.946.643,14.6-5.145,17.042s-12.862-1.158-15.82-8.1-.643-14.6,5.145-17.042S306.848,198.9,309.806,205.844Z" transform="translate(-200.206 -158.894)" fill="#fff"/>
        <ellipse id="Elipse_14451" data-name="Elipse 14451" cx="7.397" cy="8.554" rx="7.397" ry="8.554" transform="matrix(0.987, -0.16, 0.16, 0.987, 91.2, 48.873)" fill="#22213f"/>
        <path id="Trazado_1172465" data-name="Trazado 1172465" d="M309.445,252.385a2.476,2.476,0,1,0,3.087-1.093A2.333,2.333,0,0,0,309.445,252.385Z" transform="translate(-214.444 -194.309)" fill="#fff"/>
        <path id="Trazado_1172466" data-name="Trazado 1172466" d="M161.582,225.42a11.012,11.012,0,0,1-3.794-.707,11.189,11.189,0,0,1-6.3-7.074,16.295,16.295,0,0,1,7.46-18.65,11.175,11.175,0,0,1,9.454-.772c6.109,2.444,8.746,10.354,5.852,17.685a15.6,15.6,0,0,1-6.946,8.039A12.849,12.849,0,0,1,161.582,225.42Zm2.958-26.753a10.741,10.741,0,0,0-5.081,1.35,15.072,15.072,0,0,0-6.881,17.3,10.022,10.022,0,0,0,5.659,6.367,9.74,9.74,0,0,0,8.489-.707,14.467,14.467,0,0,0,6.431-7.46c2.7-6.688.322-13.955-5.209-16.206A8.9,8.9,0,0,0,164.54,198.667Z" transform="translate(-110.697 -159.241)" fill="#bf4b6f"/>
        <path id="Trazado_1172467" data-name="Trazado 1172467" d="M299.788,223.112a11.789,11.789,0,0,1-5.4-1.35,15.8,15.8,0,0,1-7.138-7.846,15.988,15.988,0,0,1-.772-10.611,11.066,11.066,0,0,1,6.174-7.2,10.91,10.91,0,0,1,9.454.515,15.8,15.8,0,0,1,7.138,7.846,15.989,15.989,0,0,1,.772,10.611,11.066,11.066,0,0,1-6.174,7.2A9.734,9.734,0,0,1,299.788,223.112ZM296.7,196.424a9.347,9.347,0,0,0-9.132,7.2A15.167,15.167,0,0,0,294.9,220.8a9.535,9.535,0,0,0,14.019-5.981,15.167,15.167,0,0,0-7.331-17.171A10.386,10.386,0,0,0,296.7,196.424Z" transform="translate(-199.127 -157.769)" fill="#bf4b6f"/>
        <path id="Trazado_1172468" data-name="Trazado 1172468" d="M196.685,177.973a18.964,18.964,0,0,0-18.838,16.75,12.729,12.729,0,0,0-10.3-.023,18.973,18.973,0,1,0,.116,3.039,10.24,10.24,0,0,1,10.074.058,18.97,18.97,0,1,0,18.95-19.823Zm-47.976,35.242a16.206,16.206,0,1,1,16.206-16.206A16.22,16.22,0,0,1,148.709,213.215Zm47.976,0a16.206,16.206,0,1,1,16.206-16.206A16.22,16.22,0,0,1,196.685,213.215Z" transform="translate(-96.924 -146.457)" fill="#ea2a21"/>
        <path id="Trazado_1172469" data-name="Trazado 1172469" d="M195.7,215.452a19.447,19.447,0,0,1-19.452-18.321,9.756,9.756,0,0,0-9.069-.054,19.485,19.485,0,1,1-.2-4.089,13.1,13.1,0,0,1,9.454.016A19.489,19.489,0,1,1,195.7,215.452Zm-23.982-20.511a10.706,10.706,0,0,1,5.286,1.42.518.518,0,0,1,.265.43,18.46,18.46,0,1,0,.11-2.99.519.519,0,0,1-.724.414,12.162,12.162,0,0,0-9.89-.021.518.518,0,0,1-.718-.416,18.455,18.455,0,1,0,.113,2.957.518.518,0,0,1,.27-.434A11.282,11.282,0,0,1,171.721,194.942Zm23.982,17.81a16.724,16.724,0,1,1,16.724-16.724A16.743,16.743,0,0,1,195.7,212.752Zm0-32.412a15.688,15.688,0,1,0,15.688,15.688A15.705,15.705,0,0,0,195.7,180.34Zm-47.976,32.412a16.739,16.739,0,1,1,11.822-4.9A16.743,16.743,0,0,1,147.727,212.752Zm0-32.412a15.682,15.682,0,1,0,15.688,15.688A15.705,15.705,0,0,0,147.727,180.34Z" transform="translate(-95.942 -145.475)" fill="#b7130b"/>
        <path id="Trazado_1172470" data-name="Trazado 1172470" d="M409.353,302.757c-4.18,3.73-11.318,4.887-17.492,3.923-7.781-1.736-12.733-1.736-11.447-7.653,3.151-5.788,9.261.707,15.82-.129,17.878-.064,3.794-15.949-3.28-21.415a4.021,4.021,0,0,1-.772-5.659c4.888-5.081,10.225,3.6,14.727,8.3C413.148,288.03,416.428,296.069,409.353,302.757Z" transform="translate(-260.846 -206.867)" fill="#ed7e97"/>
        <path id="Trazado_1172471" data-name="Trazado 1172471" d="M409.75,300.069c-7.01,1.415-13.505-3.537-13.505-3.537a30.37,30.37,0,0,0,10.547,2.058c2.894,0,5.788-.579,7.846-2.315a2.812,2.812,0,0,0,1.093-2.379c-.129-5.081-7.846-13.441-12.155-16.72a4.044,4.044,0,0,1,3.666-7.074c-6.817,4.373,5.917,12.348,9.582,19.228C420.426,296.146,416.76,298.719,409.75,300.069Z" transform="translate(-271.339 -206.622)" fill="#e26988"/>
        <path id="Trazado_1172472" data-name="Trazado 1172472" d="M414.122,302.881c-3.344,2.83-7.781,4.244-13.055,4.244a34.129,34.129,0,0,1-4.373-.322,41.4,41.4,0,0,1-9.2-2.379c21.994,5.209,30.354-5.788,27.846-14.084-2.444-8.232-13.634-19.743-13.826-19.872a3.206,3.206,0,0,1,1.222.643,56.436,56.436,0,0,1,9.068,9.068c4.052,5.145,6.174,9.775,6.3,13.891A11.073,11.073,0,0,1,414.122,302.881Z" transform="translate(-265.615 -206.99)" fill="#f490aa"/>
        <path id="Trazado_1172473" data-name="Trazado 1172473" d="M398.717,306.262a37.023,37.023,0,0,1-4.5-.322,47.623,47.623,0,0,1-9.84-2.637.567.567,0,0,1-.322-.772.52.52,0,0,1,.707-.322,42.179,42.179,0,0,0,9.518,2.572,34.067,34.067,0,0,0,4.309.322c5.209,0,9.454-1.415,12.733-4.116a10.346,10.346,0,0,0,3.73-8.36c-.129-3.987-2.187-8.553-6.174-13.569a52.351,52.351,0,0,0-9-8.939,3.4,3.4,0,0,0-2.572-.643,3.474,3.474,0,0,0-1.608,6.238c4.116,3.087,12.219,11.576,12.348,17.171a3.079,3.079,0,0,1-1.286,2.83c-5.273,4.5-15.5,1.736-18.971.322a1.193,1.193,0,0,0-.45-.129.57.57,0,1,1,.321-1.093c.193.064.45.129.643.193,3.28,1.35,12.926,3.923,17.814-.193a2.1,2.1,0,0,0,.836-1.929c-.129-4.887-7.846-13.183-11.9-16.27a4.622,4.622,0,0,1-.9-6.5,4.784,4.784,0,0,1,3.022-1.8,4.338,4.338,0,0,1,3.409.9,59.949,59.949,0,0,1,9.2,9.132c4.116,5.209,6.3,10.032,6.431,14.212a11.4,11.4,0,0,1-4.116,9.261C408.813,304.719,404.119,306.262,398.717,306.262Z" transform="translate(-263.328 -205.549)" fill="#bf4b6f"/>
        <path id="Trazado_1172474" data-name="Trazado 1172474" d="M160.971,318.939v31.576l-1.993-.579-48.425-13.827v-5.917l.836-1.158,13.634-18.65a63.74,63.74,0,0,1,16.656,0C148.3,311.35,155.7,313.665,160.971,318.939Z" transform="translate(-84.367 -232.759)" fill="#e6ecff"/>
        <path id="Trazado_1172475" data-name="Trazado 1172475" d="M160.315,346.069s-20.386-20.9-50.226-14.727c-.322.064.836-1.158.836-1.158,9.775-3.923,29.647-.064,37.235,4.309,7.653,4.373,10.354,4.887,8.553-6.5-1.8-11.319-15.306-16.335-15.5-16.4,6.688.9,14.084,3.215,19.422,8.489Z" transform="translate(-84.027 -233.909)" fill="#f5f8ff"/>
        <path id="Trazado_1172476" data-name="Trazado 1172476" d="M158.807,395.9l-48.425-13.827v-1.993C110.318,380.081,144.531,379.438,158.807,395.9Z" transform="translate(-84.256 -278.725)" fill="#c7d1ea"/>
        <path id="Trazado_1172477" data-name="Trazado 1172477" d="M306.775,330.206v5.917L260.214,349.37l-3.923,1.093V318.888C268.639,306.668,292.3,310.4,292.3,310.4Z" transform="translate(-179.746 -232.772)" fill="#e6ecff"/>
        <path id="Trazado_1172478" data-name="Trazado 1172478" d="M259.882,383.363a68.577,68.577,0,0,1,20-10.933c12.348-4.373,28.489-3.215,28.489-3.215l-.193-1.608s-31.9-5.273-49.84,15.563Z" transform="translate(-181.086 -270.173)" fill="#f5f8ff"/>
        <path id="Trazado_1172479" data-name="Trazado 1172479" d="M314.2,380.087v1.993l-46.561,13.248c6.688-4.694,21.93-13.183,46.561-15.241Z" transform="translate(-187.176 -278.73)" fill="#c7d1ea"/>
        <path id="Trazado_1172480" data-name="Trazado 1172480" d="M256.985,346.069s20.386-20.9,50.226-14.727c.322.064-.836-1.158-.836-1.158-9.775-3.923-29.647-.064-37.236,4.309-7.653,4.373-10.354,4.887-8.553-6.5,1.8-11.319,15.306-16.335,15.5-16.4-6.688.9-14.084,3.215-19.422,8.489Z" transform="translate(-179.99 -233.909)" fill="#c7d1ea"/>
        <path id="Trazado_1172481" data-name="Trazado 1172481" d="M159.819,350.059a.517.517,0,0,1-.144-.021l-1.993-.579-48.423-13.825a.518.518,0,0,1-.376-.5V329.22a.518.518,0,0,1,.1-.3l.836-1.158,13.635-18.652a.519.519,0,0,1,.338-.206,64.957,64.957,0,0,1,16.808,0c8.458,1.231,15.048,4.158,19.589,8.7a.519.519,0,0,1,.152.367v31.576a.519.519,0,0,1-.518.518Zm-49.9-15.314,48.049,13.719,1.333.387v-30.67c-4.376-4.295-10.716-7.072-18.849-8.256a64.3,64.3,0,0,0-16.291-.031l-13.505,18.474-.736,1.02v5.358Z" transform="translate(-83.274 -231.785)" fill="#8196c9"/>
        <path id="Trazado_1172482" data-name="Trazado 1172482" d="M255.309,350.046a.519.519,0,0,1-.518-.518V317.951a.518.518,0,0,1,.154-.368c12.391-12.261,36.22-8.671,36.459-8.632a.518.518,0,0,1,.338.206l14.47,19.807a.517.517,0,0,1,.1.306v5.917a.517.517,0,0,1-.377.5l-46.56,13.248-3.925,1.094a.532.532,0,0,1-.139.019Zm.518-31.877v30.676l3.265-.91,46.181-13.14v-5.356l-14.242-19.494c-2.35-.322-23.76-2.888-35.205,8.224Z" transform="translate(-178.764 -231.836)" fill="#8196c9"/>
        <path id="Trazado_1172483" data-name="Trazado 1172483" d="M241.216,416.821s4.759-7.074,10.354,0C251.57,416.821,246.811,422.931,241.216,416.821Z" transform="translate(-169.88 -300.714)" fill="#e6ecff"/>
        <path id="Trazado_1172484" data-name="Trazado 1172484" d="M245.4,419.072c-1.931,0-3.8-.969-5.551-2.884a.518.518,0,0,1-.048-.639c.089-.133,2.219-3.246,5.42-3.37,2.015-.087,3.958,1.045,5.771,3.337a.518.518,0,0,1,0,.64,7.934,7.934,0,0,1-5.363,2.911q-.116,0-.231,0Zm-4.49-3.271a6.273,6.273,0,0,0,4.673,2.231,6.715,6.715,0,0,0,4.324-2.206c-1.51-1.791-3.072-2.673-4.64-2.61C243.155,413.294,241.514,415.056,240.913,415.8Z" transform="translate(-168.899 -299.73)" fill="#8196c9"/>
        <path id="Trazado_1172485" data-name="Trazado 1172485" d="M156.311,400.343a8.941,8.941,0,0,1-5.788-2.122c-30.29-8.875-45.789-13.377-46.175-13.505a1.22,1.22,0,0,1,.772-2.315c.257.064,6.688,1.993,46.3,13.569a1.038,1.038,0,0,1,.45.257l.064.064a6.48,6.48,0,0,0,8.618,0,1.612,1.612,0,0,1,.45-.257c21.03-6.174,45.789-13.377,46.432-13.569a1.224,1.224,0,0,1,1.544.772,1.251,1.251,0,0,1-.772,1.544c-.515.193-35.177,10.289-46.239,13.569A9.2,9.2,0,0,1,156.311,400.343Z" transform="translate(-79.766 -280.208)" fill="#4150d8"/>
        <path id="Trazado_1172486" data-name="Trazado 1172486" d="M155.328,399.879a9.489,9.489,0,0,1-6.037-2.173q-26.585-7.789-37.879-11.077c-5.522-1.612-8.042-2.348-8.21-2.4a1.64,1.64,0,0,1-1-.868,1.812,1.812,0,0,1-.1-1.317,1.648,1.648,0,0,1,.873-1.016,1.812,1.812,0,0,1,1.316-.1c.05.012.356.1,1.794.526,3.675,1.083,14.858,4.379,44.505,13.042a1.578,1.578,0,0,1,.671.387l.066.066a5.933,5.933,0,0,0,7.9-.021,1.569,1.569,0,0,1,.485-.3l.079-.037a.562.562,0,0,1,.085-.034c15.612-4.583,33.17-9.7,41.608-12.162,2.889-.842,4.655-1.357,4.82-1.406a1.741,1.741,0,0,1,2.189,1.119,1.767,1.767,0,0,1-1.075,2.174c-.271.1-7.01,2.074-18.9,5.552-10.16,2.972-21.668,6.338-27.291,8.005a9.752,9.752,0,0,1-5.9,2.044Zm-51.573-18a.753.753,0,0,0-.331.074.623.623,0,0,0-.333.382.788.788,0,0,0,.042.566.624.624,0,0,0,.382.333c.18.059,3.025.889,8.188,2.4q11.284,3.293,37.983,11.107a.52.52,0,0,1,.189.1,8.452,8.452,0,0,0,5.453,2,8.7,8.7,0,0,0,5.336-1.88.528.528,0,0,1,.176-.092c5.589-1.657,17.171-5.045,27.39-8.034,9.494-2.777,18.461-5.4,18.82-5.525a.726.726,0,0,0,.452-.907.706.706,0,0,0-.9-.424c-.166.05-1.935.565-4.828,1.409-8.431,2.458-25.966,7.57-41.566,12.15l-.074.034a.913.913,0,0,0-.2.1,6.979,6.979,0,0,1-9.33.02l-.086-.085a.537.537,0,0,0-.246-.13c-29.63-8.658-40.814-11.955-44.49-13.038-1.176-.347-1.712-.5-1.777-.521a.882.882,0,0,0-.256-.039Z" transform="translate(-78.783 -279.225)" fill="#31409b"/>
        <path id="Trazado_1172487" data-name="Trazado 1172487" d="M180.362,360.562a.925.925,0,0,1-.643-.386l-.193-.193c-.064-.064-.064-.129-.129-.129-.193-.322-.257-.514-.322-.579a.816.816,0,0,1-.386.064.591.591,0,0,1-.386-.257c-.322-.514-.772-1.093-1.222-.965-.129,0-.193.064-.322,0-.515-.129-.836-.579-1.222-1.093a4.079,4.079,0,0,0-.643-.772.224.224,0,0,0-.064.129,1.341,1.341,0,0,1-.386.257.543.543,0,0,1-.45-.129c-.064-.064-.193,0-.45.129a1.8,1.8,0,0,1-1.544.129,2.984,2.984,0,0,1-1.286-1.736,5.815,5.815,0,0,1-3.859-1.736l-.064-.064a2.813,2.813,0,0,0-2.508-.965,6.349,6.349,0,0,1-1.544-.193.334.334,0,0,1-.257-.129,4.367,4.367,0,0,0-3.28-.9h-1.35c-.257-.064-.579-.193-.836-.257a6.561,6.561,0,0,0-4.116-.386,4.879,4.879,0,0,1-3.666.193,5.454,5.454,0,0,0-2.251-.193.618.618,0,1,1-.193-1.222,6.654,6.654,0,0,1,2.765.193,4.039,4.039,0,0,0,2.894-.129.224.224,0,0,1,.129-.064,7.612,7.612,0,0,1,4.952.322,3.629,3.629,0,0,1,.772.257H159.4a5.518,5.518,0,0,1,4.052,1.093c.386.064.772.064,1.158.129a4.277,4.277,0,0,1,3.409,1.415,4.289,4.289,0,0,0,3.344,1.35.707.707,0,0,1,.643.386c.386,1.158.707,1.35.772,1.415.129.064.257,0,.579-.129a1.716,1.716,0,0,1,1.158-.193.967.967,0,0,1,.707-.257c.707,0,1.222.643,1.672,1.222a4.539,4.539,0,0,0,.45.579c.707-.129,1.415.257,2.058,1.158a.581.581,0,0,1,.322.064,2.046,2.046,0,0,1,1.158,1.158l.064.064a.618.618,0,0,1,.45.579.6.6,0,0,1-.45.643,2.079,2.079,0,0,1-.578.129Z" transform="translate(-107.74 -258.305)" fill="#8196c9"/>
        <path id="Trazado_1172488" data-name="Trazado 1172488" d="M269.962,358.153a.634.634,0,0,1-.643-.579.681.681,0,0,1,.322-.643c.064-.064.193-.064.386-.064.064-.064.064-.129.129-.193l.193-.193a3.473,3.473,0,0,1,2.122-1.222.386.386,0,0,1,.257.064,2.882,2.882,0,0,0,.836-.643,4.955,4.955,0,0,1,1.736-1.093,2.538,2.538,0,0,1,1.608-.772c.064,0,.193-.064.257-.064a1.433,1.433,0,0,0,.836-.386,1.6,1.6,0,0,1,.707-.9,1.188,1.188,0,0,1,.965.064c.193.064,0-.064.064-.064a1.327,1.327,0,0,1,1.415-.515c.257,0,.322,0,.386-.064a.6.6,0,0,1,.836-.064c.129.129.257.064.836-.322l.386-.193a.063.063,0,0,0,.064-.064c.193-.064.322-.193.515-.257a3.293,3.293,0,0,1,1.8-.515h.129a1.249,1.249,0,0,0,.772-.193,3.4,3.4,0,0,1,.965-.322,3.08,3.08,0,0,1,2.315-.579,3.6,3.6,0,0,1,.515-.386,4.666,4.666,0,0,1,1.608-.965c.836-.643,1.672.064,2.122.45a1.967,1.967,0,0,0,.45.322,2.731,2.731,0,0,1,1.994-.129c.193.064.386.064.579.129h1.093a11.345,11.345,0,0,1,1.479,0c.064,0,.129.064.257.064a1.554,1.554,0,0,0,1.093.064,3.888,3.888,0,0,1,1.222,0,4.374,4.374,0,0,1,2.894.45.618.618,0,1,1-.579,1.093,3.113,3.113,0,0,0-2.251-.257h-.257a2.121,2.121,0,0,0-.9,0,2.812,2.812,0,0,1-1.736-.193,6.962,6.962,0,0,0-1.158,0h-1.222a3.229,3.229,0,0,1-.772-.129c-.579-.129-.9-.193-1.286.129a.693.693,0,0,1-.515.129,2.574,2.574,0,0,1-1.158-.643,4.364,4.364,0,0,0-.579-.386l-.064.064a.556.556,0,0,1-.386.193c-.322,0-.707.386-1.093.707a2.9,2.9,0,0,1-.9.643.483.483,0,0,1-.579,0c-.45-.193-.9,0-1.608.45a.482.482,0,0,1-.322.064,3.955,3.955,0,0,0-.707.193,2.472,2.472,0,0,1-1.544.257,2.946,2.946,0,0,0-1.029.386,6.05,6.05,0,0,1-.643.322c-.064.064-.193.129-.257.193a2.237,2.237,0,0,1-1.8.514,1.615,1.615,0,0,1-1.029.193c-.257,0-.257,0-.322.064a1.1,1.1,0,0,1-1.544.45c0,.064-.064.129-.064.193s-.064.129-.129.193a2.18,2.18,0,0,1-1.608.836.386.386,0,0,0-.257.064h-.193c-.257,0-.643.322-.965.579a.491.491,0,0,1-.322.129,2.939,2.939,0,0,0-1.286.836,2.483,2.483,0,0,1-1.929.9,3.171,3.171,0,0,0-1.286.836l-.129.129a1.023,1.023,0,0,1-.707.643.287.287,0,0,1-.322,0s0,0-.063,0Z" transform="translate(-188.272 -256.925)" fill="#8196c9"/>
        <path id="Trazado_1172489" data-name="Trazado 1172489" d="M272.808,338.94a.79.79,0,0,1-.707-.45.648.648,0,0,1-.386-.707.666.666,0,0,1,.514-.579c.193,0,.322,0,.386.064a.639.639,0,0,1,.515-.386h.193a1.4,1.4,0,0,0,.193-.322c.257-.45.579-1.222,1.286-1.158a1.038,1.038,0,0,1,.9.772c0-.064.064-.064.064-.129.064-.193.193-.322.257-.515.386-.579.772-1.35,1.544-1.286a1.038,1.038,0,0,1,.9.579,3.013,3.013,0,0,0,2.637-1.093l.064-.064a2.765,2.765,0,0,1,2.058-.386,1.818,1.818,0,0,0,1.608-.386.731.731,0,0,1,.515-.193,3.752,3.752,0,0,0,1.415-.193l.257-.064a3.373,3.373,0,0,1,2.251,0,.591.591,0,0,1-.45,1.093,1.988,1.988,0,0,0-1.479.064l-.257.064a6.469,6.469,0,0,1-1.608.257,2.934,2.934,0,0,1-2.315.515,1.682,1.682,0,0,0-1.286.193c-1.415,1.286-2.765,1.672-4.052,1.222a.529.529,0,0,1-.322-.322.063.063,0,0,0-.064-.064c-.129.193-.322.515-.386.643a3.709,3.709,0,0,1-.257.45c-.322.579-.643,1.222-1.286,1.158-.515-.064-.707-.514-.836-.836,0,.064-.064.064-.064.129-.257.579-.579,1.158-1.093,1.222a.854.854,0,0,1-.707.515C272.872,338.94,272.808,338.94,272.808,338.94Z" transform="translate(-189.832 -247.422)" fill="#8196c9"/>
        <path id="Trazado_1172490" data-name="Trazado 1172490" d="M182.6,337.954a.98.98,0,0,1-.772-.45c-.515,0-.9-.579-1.222-1.093a.2.2,0,0,1-.064-.129c-.064.322-.257.836-.707.9-.643.129-1.029-.45-1.415-1.029-.064-.129-.193-.257-.257-.386a3.692,3.692,0,0,0-.515-.579v.064a.776.776,0,0,1-.322.322c-1.222.579-2.572.322-4.18-.772a1.767,1.767,0,0,0-1.286,0,3.208,3.208,0,0,1-2.379-.257,6.608,6.608,0,0,1-1.608-.064l-.257-.064a2.657,2.657,0,0,0-1.479.129.618.618,0,0,1-.579-1.093,3.113,3.113,0,0,1,2.251-.257l.257.064a3.479,3.479,0,0,0,1.415,0,.5.5,0,0,1,.515.129,1.782,1.782,0,0,0,1.608.193,3.081,3.081,0,0,1,2.122.129.063.063,0,0,1,.064.064,3.143,3.143,0,0,0,2.765.772,1.272,1.272,0,0,1,.836-.707c.707-.129,1.222.579,1.672,1.093.129.129.193.322.322.45a.224.224,0,0,1,.064.129c.129-.322.322-.772.836-.836.643-.129,1.093.579,1.415,1.029a1.417,1.417,0,0,0,.193.322c.064,0,.129-.064.193-.064a.562.562,0,0,1,.579.322.913.913,0,0,1,.386-.129.618.618,0,0,1,.579.515.714.714,0,0,1-.257.707c-.193.321-.386.578-.772.578Z" transform="translate(-120.137 -247.981)" fill="#8196c9"/>
        <path id="Trazado_1172491" data-name="Trazado 1172491" d="M381.1,346.166c.129.129.257.193.386.322a2.166,2.166,0,0,0,.9.322,8.515,8.515,0,0,1,5.338,3.023,2.019,2.019,0,1,0,3.216-2.444,40.9,40.9,0,0,1-3.409-2.315c-.643-.579.707-.322-.322-.9a10.329,10.329,0,0,0-4.373-1.415c-1.672-.129,0,0-.064,0a3.132,3.132,0,0,0-.772.064,2.011,2.011,0,0,0-1.415,1.8A1.9,1.9,0,0,0,381.1,346.166Z" transform="translate(-261.085 -254.263)" fill="#ed7e97"/>
        <path id="Trazado_1172492" data-name="Trazado 1172492" d="M381.1,346.517c0-1.672,2.187-2.058,3.987-2.122a10.405,10.405,0,0,1,2.122.128l-3.344-.836-1.865-.45a2.011,2.011,0,0,0-1.415,1.8A1.834,1.834,0,0,0,381.1,346.517Z" transform="translate(-261.085 -254.614)" fill="#f490aa"/>
        <path id="Trazado_1172493" data-name="Trazado 1172493" d="M387,349.525a.584.584,0,0,1-.45-.193,9.571,9.571,0,0,0-5.338-2.83,3.069,3.069,0,0,1-1.158-.386,2.393,2.393,0,0,1-1.158-2.379,2.607,2.607,0,0,1,2.83-2.379,12.369,12.369,0,0,1,5.852,2.379.553.553,0,0,1-.643.9,12.145,12.145,0,0,0-5.338-2.187,1.44,1.44,0,0,0-1.544,1.35,1.464,1.464,0,0,0,.643,1.35,2.686,2.686,0,0,0,.643.257,10.2,10.2,0,0,1,6.109,3.28.534.534,0,0,1-.129.772,2.689,2.689,0,0,1-.321.065Z" transform="translate(-259.971 -253.377)" fill="#bf4b6f"/>
        <path id="Trazado_1172494" data-name="Trazado 1172494" d="M71.28,274.226c-18.585,14.148-33.184,7.267-26.946-18.2,2.7-9.068,2.637-16.463,9.646-13.248,2.7,2.637,1.479,3.859.257,7.781-1.993,5.466-4.5,18.585-2.251,21.865,2.894,3.087,10.032-1.865,13.891-4.244C69.672,265.351,74.56,270.817,71.28,274.226Z" transform="translate(-40.074 -188.368)" fill="#ed7e97"/>
        <path id="Trazado_1172495" data-name="Trazado 1172495" d="M67.3,276.925c-.836.515-1.8,1.029-2.83,1.544-5.209,2.572-9.646,3.473-13.183,2.637a9.469,9.469,0,0,1-6.367-5.145q-3.28-6.656-.386-20.065a91.44,91.44,0,0,1,3.344-11.447,4.046,4.046,0,0,1,5.209-2.379,3.264,3.264,0,0,1,1.029.579c.322.257-3.344-.386-5.016,6.238s-5.338,22.508-.257,28.232S67.044,277.054,67.3,276.925Z" transform="translate(-40.275 -188.238)" fill="#f490aa"/>
        <path id="Trazado_1172496" data-name="Trazado 1172496" d="M76.151,273.474c-12.991,10.418-14.856,5.981-14.727-3.987.193-9.9,5.788-21.351,5.788-21.351l.386,1.029a3.921,3.921,0,0,1-.193,2.251s-.45,1.222-1.093,3.087c-.579,1.929-1.35,4.5-1.993,7.331-1.479,6.688-1.544,11.962-.257,14.534a1.535,1.535,0,0,0,1.029.9c2.572.708,7.524-1.608,11.061-3.794Z" transform="translate(-52.211 -192.375)" fill="#e26988"/>
        <path id="Trazado_1172497" data-name="Trazado 1172497" d="M52.988,281.011a13.735,13.735,0,0,1-2.894-.322,10.034,10.034,0,0,1-6.752-5.4c-2.251-4.5-2.379-11.383-.386-20.386a84.82,84.82,0,0,1,3.409-11.511,4.64,4.64,0,0,1,8.682,3.28,87.086,87.086,0,0,0-3.023,10.354c-1.415,6.56-1.544,11.7-.322,14.148.257.45.386.515.643.579,2.379.579,7.717-1.865,11.576-4.437a.553.553,0,1,1,.643.9c-2.894,1.929-9.2,5.4-12.476,4.63a2.12,2.12,0,0,1-1.415-1.158c-1.35-2.7-1.286-8.1.257-14.92a81.648,81.648,0,0,1,3.087-10.547,3.52,3.52,0,0,0-1.993-4.5,3.466,3.466,0,0,0-4.5,1.993,88.56,88.56,0,0,0-3.344,11.383c-1.929,8.746-1.865,15.37.322,19.679A8.988,8.988,0,0,0,50.48,279.6c3.409.836,7.717-.064,12.8-2.572a57.9,57.9,0,0,0,6.3-3.73,1.959,1.959,0,0,0,.515-.514,2.7,2.7,0,0,0,.579-.9.575.575,0,1,1,1.029.514,3.865,3.865,0,0,1-.727,1.224,3.271,3.271,0,0,1-.752.577,55.361,55.361,0,0,1-6.431,3.859A25.39,25.39,0,0,1,52.988,281.011Z" transform="translate(-39.21 -187.307)" fill="#bf4b6f"/>
        <path id="Trazado_1172498" data-name="Trazado 1172498" d="M132.343,327.552l5.531-5.531,2.058,4.952,1.865,4.5-4.5-1.865Z" transform="translate(-98.628 -240.729)" fill="#ffca3b"/>
        <path id="Trazado_1172499" data-name="Trazado 1172499" d="M146.673,338.866a11.38,11.38,0,0,1,1.093-1.544,8.378,8.378,0,0,1,1.479-1.158l1.865,4.5Z" transform="translate(-108.007 -249.986)" fill="#ea2a21"/>
        <path id="Trazado_1172500" data-name="Trazado 1172500" d="M140.576,330.542c-.334-.752-4.381-1.421-4.445-1.485l-5-2.013a.475.475,0,0,1-.322-.386.5.5,0,0,1,.129-.515l5.531-5.531a.5.5,0,0,1,.515-.129.658.658,0,0,1,.386.322l1.946,4.92c.064.193,1.737,4.212,1.544,4.4C140.791,330.195,140.628,330.659,140.576,330.542Zm-8.538-4.321L140.106,330l-3.65-8.285Z" transform="translate(-97.606 -239.707)" fill="#e29700"/>
        <path id="Trazado_1172501" data-name="Trazado 1172501" d="M0,0H7.846V39.293H0Z" transform="translate(5.82 59.071) rotate(-45.162)" fill="#ea2a21"/>
        <path id="Trazado_1172502" data-name="Trazado 1172502" d="M78.5,274.51a.517.517,0,0,1-.366-.151L50.276,246.646a.519.519,0,0,1,0-.733l5.534-5.562a.519.519,0,0,1,.366-.153.53.53,0,0,1,.367.151L84.4,268.062a.518.518,0,0,1,0,.733l-5.534,5.562A.518.518,0,0,1,78.5,274.51ZM51.374,246.277l27.12,26.982,4.8-4.827L56.177,241.45Z" transform="translate(-44.82 -187.18)" fill="#b7130b"/>
        <path id="Trazado_1172503" data-name="Trazado 1172503" d="M86.221,276.891c-.129,0-.063.148-.127.019l-27.91-27.718a.546.546,0,0,1,.772-.772L86.8,276.139c.193.193-.064.368-.257.561A.355.355,0,0,1,86.221,276.891Z" transform="translate(-50.001 -192.467)" fill="#b7130b"/>
        <path id="Trazado_1172504" data-name="Trazado 1172504" d="M44.314,240.854l6.431-6.3,2.058,2.122-6.3,6.3Z" transform="translate(-41.018 -183.485)" fill="#e6ecff"/>
        <path id="Trazado_1172505" data-name="Trazado 1172505" d="M37.468,227.705a3.881,3.881,0,0,1,5.531,0l2.058,2.058-5.531,5.531-2.058-2.058a3.881,3.881,0,0,1,0-5.53Z" transform="translate(-35.78 -178.247)" fill="#ffca3b"/>
        <path id="Trazado_1172506" data-name="Trazado 1172506" d="M38.521,234.746a.459.459,0,0,1-.386-.193L36.078,232.5a4.5,4.5,0,0,1,6.367-6.367l2.058,2.058c.193.193,0,.367-.194.559l-5.691,5.421C38.489,234.36,38.714,234.746,38.521,234.746Zm.707-8.81a3.344,3.344,0,0,0-2.379,5.724l2.077,2.064,4.823-4.632L41.543,226.9A3.261,3.261,0,0,0,39.229,225.936Z" transform="translate(-34.775 -177.12)" fill="#e29700"/>
        <path id="Trazado_1172507" data-name="Trazado 1172507" d="M113.9,294.616a2.3,2.3,0,0,1-.257.707,1.73,1.73,0,0,1-.45.515,5.557,5.557,0,0,0-.9.836,5.678,5.678,0,0,0-.772,1.093,4.236,4.236,0,0,0-.579,1.736,5.245,5.245,0,0,0,.064,1.672l-1.993,3.087-1.865-1.8a7.208,7.208,0,0,1-.322-2.7,9.208,9.208,0,0,1,3.859-7.074,1.973,1.973,0,0,1,2.83.322A2.5,2.5,0,0,1,113.9,294.616Z" transform="translate(-81.926 -221.234)" fill="#ed7e97"/>
        <path id="Trazado_1172508" data-name="Trazado 1172508" d="M121.09,301.208a2.373,2.373,0,0,1-.322,1.736l-.386.386a3.2,3.2,0,0,0-.515.45,7.075,7.075,0,0,0-.965,1.029,6.262,6.262,0,0,0-1.35,3.151l-4.566,3.087.515-3.151a5.434,5.434,0,0,1,.193-1.286,11.234,11.234,0,0,1,.643-1.929,2.99,2.99,0,0,1,.322-.643,11.611,11.611,0,0,1,1.993-2.7c.322-.322.643-.643,1.029-.965.064-.064.193-.129.257-.193a1.975,1.975,0,0,1,2.83.386,1.023,1.023,0,0,1,.322.643Z" transform="translate(-85.96 -226.154)" fill="#ed7e97"/>
        <path id="Trazado_1172509" data-name="Trazado 1172509" d="M125.143,311.459c-.064.129-.193.257-.257.386a1.43,1.43,0,0,1-.836.514,8.3,8.3,0,0,0-4.309,4.309,11.641,11.641,0,0,1-2.637,1.093c-1.093-.129-1.544-1.608-1.093-2.637a13,13,0,0,1,.836-1.608,14.431,14.431,0,0,1,1.929-2.444,10.57,10.57,0,0,1,3.859-2.508,3.319,3.319,0,0,1,.707-.129,1.988,1.988,0,0,1,1.865,1.35,1.9,1.9,0,0,1-.065,1.672Z" transform="translate(-87.827 -231.839)" fill="#ed7e97"/>
        <path id="Trazado_1172510" data-name="Trazado 1172510" d="M113.348,293.195a10.706,10.706,0,0,0-6.688,6.752,9.208,9.208,0,0,1,3.859-7.074A1.967,1.967,0,0,1,113.348,293.195Z" transform="translate(-81.82 -221.356)" fill="#f490aa"/>
        <path id="Trazado_1172511" data-name="Trazado 1172511" d="M123.454,300.924c-.129.064-2.187-.515-6.174,3.28a.731.731,0,0,1-.579.129c-.193,0-.129-.193.322-.643.064-.064.386-.515.9-1.222a8.041,8.041,0,0,0,.772-1.093c.064-.129.193-.257.257-.386.386-.515.836-1.093,1.35-1.672a2.3,2.3,0,0,1-.257.707c.064-.064.193-.129.257-.193a1.975,1.975,0,0,1,2.83.386A1.427,1.427,0,0,1,123.454,300.924Z" transform="translate(-88.325 -225.87)" fill="#f490aa"/>
        <path id="Trazado_1172512" data-name="Trazado 1172512" d="M130.707,311.458c-.45-1.672-2.7-1.415-4.373-1.029a17.6,17.6,0,0,0-1.993.643L127.3,309.4l1.672-.965a1.988,1.988,0,0,1,1.865,1.35A2.153,2.153,0,0,1,130.707,311.458Z" transform="translate(-93.392 -231.838)" fill="#f490aa"/>
        <path id="Trazado_1172513" data-name="Trazado 1172513" d="M105.657,301.279a.618.618,0,0,1-.579-.45A9.722,9.722,0,0,1,109,291.311a2.569,2.569,0,0,1,1.929-.579,2.634,2.634,0,0,1,1.736.965,2.516,2.516,0,0,1,.193,2.958.562.562,0,1,1-.964-.579,1.453,1.453,0,0,0-.129-1.672,1.221,1.221,0,0,0-.965-.515,1.386,1.386,0,0,0-1.093.322,8.775,8.775,0,0,0-3.537,8.424.639.639,0,0,1-.324.644Z" transform="translate(-80.689 -220.244)" fill="#bf4b6f"/>
        <path id="Trazado_1172514" data-name="Trazado 1172514" d="M115.083,304.673a.236.236,0,0,1-.193-.064.52.52,0,0,1-.322-.707,11.683,11.683,0,0,1,4.052-5.4,2.606,2.606,0,0,1,1.929-.514,2.634,2.634,0,0,1,1.736.965,2.288,2.288,0,0,1,.206,2.862c-.193.257-.656.547-.913.354a.534.534,0,0,1-.129-.772,1.447,1.447,0,0,0,0-1.736,1.523,1.523,0,0,0-.965-.579,1.386,1.386,0,0,0-1.093.322,10.682,10.682,0,0,0-3.666,4.887A1.155,1.155,0,0,1,115.083,304.673Z" transform="translate(-86.964 -224.988)" fill="#bf4b6f"/>
        <path id="Trazado_1172515" data-name="Trazado 1172515" d="M122.511,317.235a.486.486,0,0,1-.257-.064c-.257-.129-.5-.24-.432-.5,0-.064,2.233-4.648,5.448-5.87a.936.936,0,0,0,.579-.386,1.54,1.54,0,0,0,.322-1.479,1.408,1.408,0,0,0-.772-.836,1.317,1.317,0,0,0-1.093-.064,10.686,10.686,0,0,0-4.18,2.894.547.547,0,1,1-.836-.707,11.847,11.847,0,0,1,4.63-3.215,2.676,2.676,0,0,1,1.993.064,2.759,2.759,0,0,1,1.35,1.479,2.629,2.629,0,0,1-.515,2.637,2.282,2.282,0,0,1-1.029.707c-2.7.965-4.378,4.77-4.346,4.826a3.37,3.37,0,0,1-.863.512Z" transform="translate(-91.305 -230.798)" fill="#bf4b6f"/>
        <path id="Trazado_1172516" data-name="Trazado 1172516" d="M219.519,281.078s-4.052,1.35-3.987,4.695c.064,3.408,5.724,1.929,7.846-.45l-2.251-1.8Z" transform="translate(-153.071 -213.934)" fill="#ea2a21"/>
        <path id="Trazado_1172517" data-name="Trazado 1172517" d="M216.815,287.391a4.572,4.572,0,0,1-1.35-.193,2.38,2.38,0,0,1-1.608-2.379c-.064-3.794,4.18-5.209,4.373-5.273a.527.527,0,0,1,.643.257l1.158,2.7,2.573,1.479a.556.556,0,0,1,.193.386,1.193,1.193,0,0,1-.129.45A9.017,9.017,0,0,1,216.815,287.391Zm1.73-6.9c-.965.45-3.595,1.951-3.53,4.266a1.337,1.337,0,0,0,.9,1.35c1.35.515,4.219-.417,5.762-1.767l-1.968-1.255-.129-.129Z" transform="translate(-151.975 -212.916)" fill="#b7130b"/>
        <path id="Trazado_1172518" data-name="Trazado 1172518" d="M215.585,291.418a.486.486,0,0,1-.45-.257.534.534,0,0,1,.129-.772,52.854,52.854,0,0,1,5.209-3.473.575.575,0,0,1,.515,1.029,52.661,52.661,0,0,0-5.081,3.408A2.841,2.841,0,0,1,215.585,291.418Z" transform="translate(-152.738 -217.714)" fill="#b7130b"/>
        <path id="Trazado_1172519" data-name="Trazado 1172519" d="M159.82,381.9a.516.516,0,0,1-.375-.161c-.1-.105-10.18-10.559-24.14-14.366a57.209,57.209,0,0,0-25.78-1.019.518.518,0,0,1-.245-1.007,58.278,58.278,0,0,1,26.3,1.026c14.247,3.885,24.516,14.544,24.618,14.651a.519.519,0,0,1-.376.876Z" transform="translate(-83.275 -268.413)" fill="#8196c9"/>
        <path id="Trazado_1172520" data-name="Trazado 1172520" d="M157.218,388.553a.517.517,0,0,1-.316-.107c-20.8-15.968-47.2-13.978-47.46-13.955a.518.518,0,0,1-.086-1.033c.268-.021,27.052-2.052,48.177,14.166a.518.518,0,0,1-.316.93Z" transform="translate(-83.274 -274.332)" fill="#8196c9"/>
        <path id="Trazado_1172521" data-name="Trazado 1172521" d="M155.633,393.187a.516.516,0,0,1-.256-.068c-20.608-11.756-45.758-13.479-46.01-13.5a.518.518,0,1,1,.066-1.035c.254.016,25.637,1.751,46.458,13.629a.518.518,0,0,1-.257.969Z" transform="translate(-83.274 -277.75)" fill="#8196c9"/>
        <path id="Trazado_1172522" data-name="Trazado 1172522" d="M255.31,381.9a.518.518,0,0,1-.375-.876c.1-.107,10.371-10.766,24.618-14.651a58.281,58.281,0,0,1,26.3-1.026.518.518,0,0,1-.246,1.007,57.193,57.193,0,0,0-25.78,1.019c-13.972,3.81-24.04,14.261-24.14,14.366a.52.52,0,0,1-.376.161Z" transform="translate(-178.765 -268.414)" fill="#8196c9"/>
        <path id="Trazado_1172523" data-name="Trazado 1172523" d="M262.837,388.553a.518.518,0,0,1-.316-.93c21.124-16.218,47.909-14.188,48.177-14.166a.518.518,0,0,1-.086,1.033c-.265-.023-26.66-2.013-47.459,13.955A.513.513,0,0,1,262.837,388.553Z" transform="translate(-183.691 -274.332)" fill="#8196c9"/>
        <path id="Trazado_1172524" data-name="Trazado 1172524" d="M267.42,393.187a.518.518,0,0,1-.257-.969c20.821-11.878,46.2-13.613,46.458-13.629a.518.518,0,0,1,.066,1.035c-.252.016-25.4,1.739-46.01,13.5a.521.521,0,0,1-.257.068Z" transform="translate(-186.69 -277.75)" fill="#8196c9"/>
        <path id="Trazado_1172525" data-name="Trazado 1172525" d="M234.545,282.411h-.014c-9.179-.246-9.148-7.464-9.146-7.537a.529.529,0,0,1,.528-.509.519.519,0,0,1,.509.527c0,.258.011,6.264,8.137,6.483a.518.518,0,0,1-.013,1.037Z" transform="translate(-159.52 -209.541)" fill="#bf4b6f"/>
        <path id="Trazado_1172526" data-name="Trazado 1172526" d="M45.519,242.512a.515.515,0,0,1-.361-.147l-2.186-2.122a.518.518,0,0,1,0-.742l6.431-6.3a.552.552,0,0,1,.369-.148.518.518,0,0,1,.366.158l2.058,2.122a.518.518,0,0,1-.006.727l-6.3,6.3A.518.518,0,0,1,45.519,242.512Zm-1.444-2.642,1.439,1.4,5.58-5.58-1.34-1.382Z" transform="translate(-40.036 -182.503)" fill="#8196c9"/>
        <path id="Trazado_1172527" data-name="Trazado 1172527" d="M150.13,340.216a.518.518,0,0,1-.195-.038l-4.438-1.8a.518.518,0,0,1-.244-.755l.2-.32a8.171,8.171,0,0,1,2.52-2.536.543.543,0,0,1,.441-.06.525.525,0,0,1,.329.291l1.865,4.5a.519.519,0,0,1-.48.717Zm-3.665-2.565,2.712,1.1-1.145-2.764A7.221,7.221,0,0,0,146.465,337.651Z" transform="translate(-107.026 -249.016)" fill="#b7130b"/>
      </g>
    </g>
  </g>
</svg>
