<svg xmlns="http://www.w3.org/2000/svg" xmlns:xlink="http://www.w3.org/1999/xlink" width="113" height="113" viewBox="0 0 113 113">
  <defs>
    <filter id="Trazado_982547" x="0" y="0" width="113" height="113" filterUnits="userSpaceOnUse">
      <feOffset dy="3" input="SourceAlpha"/>
      <feGaussianBlur stdDeviation="3" result="blur"/>
      <feFlood flood-opacity="0.161"/>
      <feComposite operator="in" in2="blur"/>
      <feComposite in="SourceGraphic"/>
    </filter>
  </defs>
  <g id="Grupo_1222183" data-name="Grupo 1222183" transform="translate(-429 -6256.713)">
    <g id="Grupo_1221320" data-name="Grupo 1221320" transform="translate(0 5564)">
      <g id="Grupo_1215795" data-name="Grupo 1215795" transform="translate(0 -506.232)">
        <g id="Grupo_1214345" data-name="Grupo 1214345" transform="translate(0 -2968)">
          <g id="Grupo_1210956" data-name="Grupo 1210956" transform="translate(438 4172.946)">
            <g id="Grupo_1209935" data-name="Grupo 1209935">
              <g id="Grupo_1208705" data-name="Grupo 1208705">
                <g id="Grupo_1148633" data-name="Grupo 1148633">
                  <g id="Grupo_1148525" data-name="Grupo 1148525">
                    <g transform="matrix(1, 0, 0, 1, -9, -6)" filter="url(#Trazado_982547)">
                      <g id="Trazado_982547-2" data-name="Trazado 982547" transform="translate(9 6)" fill="#e4f1d4">
                        <path d="M 47.5 93.5 C 41.28937149047852 93.5 35.26533508300781 92.28397369384766 29.59518623352051 89.88570404052734 C 24.11771965026855 87.56893157958984 19.19813346862793 84.25196075439453 14.97309303283691 80.02691650390625 C 10.74804019927979 75.80186462402344 7.431066513061523 70.88229370117188 5.114293098449707 65.40481567382812 C 2.716026782989502 59.73468017578125 1.5 53.71062850952148 1.5 47.5 C 1.5 41.28937149047852 2.716026782989502 35.26533508300781 5.114293098449707 29.59518623352051 C 7.431066513061523 24.11771965026855 10.74804019927979 19.19813346862793 14.97309303283691 14.97309303283691 C 19.19813346862793 10.74804019927979 24.11771965026855 7.431066513061523 29.59518623352051 5.114293098449707 C 35.26533508300781 2.716026782989502 41.28937149047852 1.5 47.5 1.5 C 53.71062850952148 1.5 59.73468017578125 2.716026782989502 65.40481567382812 5.114293098449707 C 70.88229370117188 7.431066513061523 75.80186462402344 10.74804019927979 80.02691650390625 14.97309303283691 C 84.25196075439453 19.19813346862793 87.56893157958984 24.11771965026855 89.88570404052734 29.59518623352051 C 92.28397369384766 35.26533508300781 93.5 41.28937149047852 93.5 47.5 C 93.5 53.71062850952148 92.28397369384766 59.73468017578125 89.88570404052734 65.40481567382812 C 87.56893157958984 70.88229370117188 84.25196075439453 75.80186462402344 80.02691650390625 80.02691650390625 C 75.80186462402344 84.25196075439453 70.88229370117188 87.56893157958984 65.40481567382812 89.88570404052734 C 59.73468017578125 92.28397369384766 53.71062850952148 93.5 47.5 93.5 Z" stroke="none"/>
                        <path d="M 47.5 3 C 41.49121475219727 3 35.66376876831055 4.176155090332031 30.17950439453125 6.495796203613281 C 24.88084411621094 8.736953735351562 20.12152099609375 11.94598388671875 16.03375244140625 16.03375244140625 C 11.94598388671875 20.12152099609375 8.736953735351562 24.88084411621094 6.495796203613281 30.17950439453125 C 4.176155090332031 35.66376876831055 3 41.49121475219727 3 47.5 C 3 53.50878524780273 4.176155090332031 59.33623123168945 6.495796203613281 64.82049560546875 C 8.736953735351562 70.11915588378906 11.94598388671875 74.87847900390625 16.03375244140625 78.96624755859375 C 20.12152099609375 83.05401611328125 24.88084411621094 86.26304626464844 30.17950439453125 88.50419616699219 C 35.66376876831055 90.82384490966797 41.49121475219727 92 47.5 92 C 53.50878524780273 92 59.33623123168945 90.82384490966797 64.82049560546875 88.50419616699219 C 70.11915588378906 86.26304626464844 74.87847900390625 83.05401611328125 78.96624755859375 78.96624755859375 C 83.05401611328125 74.87847900390625 86.26304626464844 70.11915588378906 88.50419616699219 64.82049560546875 C 90.82384490966797 59.33623123168945 92 53.50878524780273 92 47.5 C 92 41.49121475219727 90.82384490966797 35.66376876831055 88.50419616699219 30.17950439453125 C 86.26304626464844 24.88084411621094 83.05401611328125 20.12152099609375 78.96624755859375 16.03375244140625 C 74.87847900390625 11.94598388671875 70.11915588378906 8.736953735351562 64.82049560546875 6.495796203613281 C 59.33623123168945 4.176155090332031 53.50878524780273 3 47.5 3 M 47.5 0 C 73.7335205078125 0 95 21.2664794921875 95 47.5 C 95 73.7335205078125 73.7335205078125 95 47.5 95 C 21.2664794921875 95 0 73.7335205078125 0 47.5 C 0 21.2664794921875 21.2664794921875 0 47.5 0 Z" stroke="none" fill="#a9d373"/>
                      </g>
                    </g>
                  </g>
                </g>
              </g>
            </g>
          </g>
        </g>
      </g>
    </g>
    <g id="bucle-de-retroalimentacion" transform="translate(446.556 6270.77)">
      <g id="Grupo_1222181" data-name="Grupo 1222181" transform="translate(1.156 1.155)">
        <path id="Trazado_1172955" data-name="Trazado 1172955" d="M37.491,174.37l-2.206,2.87a.462.462,0,0,1-.651.083,36.23,36.23,0,0,1-11.562-40.887.462.462,0,0,0-.222-.572l-1.492-.76a.462.462,0,0,1-.038-.8l7.5-4.775a.462.462,0,0,1,.71.364l.5,8.853a.462.462,0,0,1-.671.438l-1.6-.815a.462.462,0,0,0-.646.258,31.682,31.682,0,0,0,10.293,35.1A.463.463,0,0,1,37.491,174.37Z" transform="translate(-18.804 -110.662)" fill="#90809e"/>
        <path id="Trazado_1172956" data-name="Trazado 1172956" d="M382.622,71.563l2.206-2.87a.462.462,0,0,1,.651-.083A36.23,36.23,0,0,1,397.041,109.5a.462.462,0,0,0,.222.572l1.492.76a.462.462,0,0,1,.038.8l-7.5,4.775a.462.462,0,0,1-.71-.364l-.5-8.853a.462.462,0,0,1,.671-.438l1.6.815a.462.462,0,0,0,.646-.258,31.682,31.682,0,0,0-10.293-35.1.463.463,0,0,1-.082-.646Z" transform="translate(-324.743 -59.111)" fill="#7f688c"/>
        <g id="Grupo_1222179" data-name="Grupo 1222179" transform="translate(0 50.109)">
          <path id="Trazado_1172957" data-name="Trazado 1172957" d="M33.97,345.951a13.216,13.216,0,0,1-5.5,10.739c-3.022.188-5.019,1.111-7.907,1.111s-5.186-.785-7.563-1.111a13.235,13.235,0,1,1,20.97-10.739Z" transform="translate(-7.5 -332.716)" fill="#bbf49b"/>
          <path id="Trazado_1172958" data-name="Trazado 1172958" d="M78.933,426.891c0,3.583-6.227,3.245-6.442,0l.567-.157a.686.686,0,0,0,.5-.663v-3.626h4.3v3.626a.686.686,0,0,0,.505.663Z" transform="translate(-62.477 -408.619)" fill="#bb5d4c"/>
          <path id="Trazado_1172959" data-name="Trazado 1172959" d="M58.666,455.174v1.832a13.235,13.235,0,0,1-15.47,0v-1.832a3.453,3.453,0,0,1,1.719-2.982,3.5,3.5,0,0,1,.807-.338l1.987-.549a3.67,3.67,0,0,0,6.442,0l1.987.549a3.448,3.448,0,0,1,2.527,3.321Z" transform="translate(-37.696 -433.032)" fill="#f3f7fe"/>
          <path id="Trazado_1172960" data-name="Trazado 1172960" d="M65.418,371.165l.588.334a3.068,3.068,0,0,0,3.029,0l.588-.334a5.156,5.156,0,0,0,2.611-4.484v-1.692a4.713,4.713,0,0,0-9.426,0v1.692A5.156,5.156,0,0,0,65.418,371.165Z" transform="translate(-54.285 -356.034)" fill="#c96d59"/>
        </g>
        <g id="Grupo_1222180" data-name="Grupo 1222180" transform="translate(50.107)">
          <path id="Trazado_1172961" data-name="Trazado 1172961" d="M359.176,20.729a13.216,13.216,0,0,1-5.5,10.739c-3.022.188-5.019,1.111-7.907,1.111s-5.186-.785-7.563-1.111a13.235,13.235,0,1,1,20.97-10.739Z" transform="translate(-332.706 -7.494)" fill="#fc90a8"/>
          <path id="Trazado_1172962" data-name="Trazado 1172962" d="M404.14,101.669c0,3.583-6.227,3.245-6.442,0l.567-.157a.686.686,0,0,0,.5-.663V97.222h4.3v3.626a.686.686,0,0,0,.505.663Z" transform="translate(-387.684 -83.397)" fill="#ffcebe"/>
          <path id="Trazado_1172963" data-name="Trazado 1172963" d="M383.872,129.952v1.832a13.235,13.235,0,0,1-15.47,0v-1.832a3.453,3.453,0,0,1,1.719-2.982,3.5,3.5,0,0,1,.807-.338l1.987-.549a3.67,3.67,0,0,0,6.442,0l1.987.549a3.448,3.448,0,0,1,2.527,3.321Z" transform="translate(-362.902 -107.81)" fill="#f3f7fe"/>
          <path id="Trazado_1172964" data-name="Trazado 1172964" d="M390.624,45.944l.588.334a3.068,3.068,0,0,0,3.029,0l.588-.334a5.156,5.156,0,0,0,2.611-4.484V39.768a4.713,4.713,0,0,0-9.426,0V41.46A5.156,5.156,0,0,0,390.624,45.944Z" transform="translate(-379.492 -30.813)" fill="#ffdfcf"/>
        </g>
        <path id="Trazado_1172965" data-name="Trazado 1172965" d="M158.085,66.684l-.569,23.657c0,1.179-3.131,2.136-4.309,2.136h-17.1a2.135,2.135,0,0,1-2.132-2.136V66.684a2.133,2.133,0,0,1,2.132-2.134h17.095C154.385,64.55,158.085,65.505,158.085,66.684Z" transform="translate(-114.492 -55.759)" fill="#afe6f2"/>
        <path id="Trazado_1172966" data-name="Trazado 1172966" d="M193.285,291.284v23.657c0,1.179-3.463,2.134-4.642,2.134H171.132A2.133,2.133,0,0,1,169,314.941v-2.134a1.067,1.067,0,0,0-1.066-1.068H164.3a.958.958,0,0,1-.732-1.576l5.182-6.142a1.07,1.07,0,0,0,.251-.689V291.284a2.134,2.134,0,0,1,2.132-2.134h17.511C189.821,289.15,193.285,290.105,193.285,291.284Z" transform="translate(-139.329 -245.753)" fill="#ffe177"/>
        <path id="Trazado_1172967" data-name="Trazado 1172967" d="M271.79,70.846a.961.961,0,0,1-.227.618l-5.18,6.14a1.063,1.063,0,0,0-.253.689V90.341A2.135,2.135,0,0,1,264,92.477H258.77a2.136,2.136,0,0,0,2.134-2.136V66.684a2.135,2.135,0,0,0-2.134-2.134H264a2.133,2.133,0,0,1,2.132,2.134V68.82a1.067,1.067,0,0,0,1.068,1.066h3.633A.959.959,0,0,1,271.79,70.846Z" transform="translate(-220.055 -55.759)" fill="#9adbef"/>
        <path id="Trazado_1172968" data-name="Trazado 1172968" d="M334.506,291.284v23.657a2.135,2.135,0,0,1-2.134,2.134H327.56a2.134,2.134,0,0,0,2.134-2.134V291.284a2.134,2.134,0,0,0-2.134-2.134h4.812A2.135,2.135,0,0,1,334.506,291.284Z" transform="translate(-278.246 -245.753)" fill="#ffd15b"/>
        <path id="Trazado_1172969" data-name="Trazado 1172969" d="M240.9,326.545l2.245,4.548a.462.462,0,0,0,.348.253l5.02.729a.462.462,0,0,1,.256.788l-3.633,3.54a.462.462,0,0,0-.133.409l.858,5a.462.462,0,0,1-.671.487l-4.49-2.36a.463.463,0,0,0-.43,0l-4.49,2.36a.462.462,0,0,1-.671-.487l.858-5a.462.462,0,0,0-.133-.409l-3.633-3.54a.462.462,0,0,1,.256-.788l5.02-.729a.462.462,0,0,0,.348-.253l2.245-4.548A.462.462,0,0,1,240.9,326.545Z" transform="translate(-197.459 -277.168)" fill="#f3f7fe"/>
      </g>
      <g id="Grupo_1222182" data-name="Grupo 1222182" transform="translate(0 0)">
        <path id="Trazado_1172970" data-name="Trazado 1172970" d="M255.48,52.318l-1.736-.893A37.037,37.037,0,0,0,255.7,38.3a37.435,37.435,0,0,0-2.766-13.043,14.387,14.387,0,1,0-23.811-11.129H227.4V12.08a3.293,3.293,0,0,0-3.289-3.29H212.775a1.156,1.156,0,1,0,0,2.311h11.337a.979.979,0,0,1,.978.979v2.134a2.225,2.225,0,0,0,2.222,2.223h3.209l-4.908,5.816a2.227,2.227,0,0,0-.524,1.435V35.737a.979.979,0,0,1-.978.979h-5.4a1.156,1.156,0,1,0,0,2.311h5.4a3.293,3.293,0,0,0,3.289-3.29V23.72l2.954-3.5A14.4,14.4,0,0,0,246.808,28.4a30.5,30.5,0,0,1,.759,19.886l-1.534-.778a1.156,1.156,0,0,0-1.676,1.1l.594,10.443a1.156,1.156,0,0,0,1.774.909l8.847-5.632a1.155,1.155,0,0,0-.092-2ZM232.048,18.211l.512-.607a2.113,2.113,0,0,0-1.124-3.418,12.077,12.077,0,1,1,20.913,8.424,4.6,4.6,0,0,0-3.323-3.749l-2.211-.611V16.877a6.322,6.322,0,0,0,2.565-5.075V10.11a5.869,5.869,0,0,0-11.737,0V11.8a6.322,6.322,0,0,0,2.565,5.075V18.25L238,18.861a4.6,4.6,0,0,0-3.323,3.747,11.993,11.993,0,0,1-2.624-4.4Zm12.994-2.931-.588.334a1.921,1.921,0,0,1-1.888,0l-.588-.334h0a4.007,4.007,0,0,1-2.026-3.478V10.11a3.558,3.558,0,0,1,7.115,0V11.8A4.008,4.008,0,0,1,245.043,15.28Zm-2.525,3.326v-.554a4.2,4.2,0,0,0,1.986,0v.554a1.841,1.841,0,0,0,.371,1.107,2.222,2.222,0,0,1-2.729,0A1.84,1.84,0,0,0,242.518,18.606Zm-5.587,5.9V23.295a2.289,2.289,0,0,1,1.68-2.206l1.321-.365a4.506,4.506,0,0,0,7.159,0l1.321.365a2.29,2.29,0,0,1,1.68,2.206V24.51a12.019,12.019,0,0,1-13.159-.008Zm14.857,28.514.844.435-5.487,3.493-.368-6.471.944.479a1.156,1.156,0,0,0,1.613-.646,32.777,32.777,0,0,0-.324-22.621,14.347,14.347,0,0,0,2-1.019,35.138,35.138,0,0,1,2.382,11.7,34.739,34.739,0,0,1-2.157,13.219,1.156,1.156,0,0,0,.555,1.43Z" transform="translate(-179.013 0)"/>
        <path id="Trazado_1172971" data-name="Trazado 1172971" d="M129.764,87.289h11.528a1.156,1.156,0,1,0,0-2.311H129.764a.979.979,0,0,1-.978-.979V60.342a.979.979,0,0,1,.978-.979h5.593a1.156,1.156,0,0,0,0-2.311h-5.593a3.293,3.293,0,0,0-3.289,3.29V84A3.293,3.293,0,0,0,129.764,87.289Z" transform="translate(-106.988 -48.262)"/>
        <path id="Trazado_1172972" data-name="Trazado 1172972" d="M182.708,103.712H168.849a1.156,1.156,0,1,0,0,2.311h13.859a1.156,1.156,0,1,0,0-2.311Z" transform="translate(-141.855 -87.732)"/>
        <path id="Trazado_1172973" data-name="Trazado 1172973" d="M183.864,148.83a1.155,1.155,0,0,0-1.156-1.156H168.849a1.156,1.156,0,1,0,0,2.311h13.859A1.156,1.156,0,0,0,183.864,148.83Z" transform="translate(-141.855 -124.921)"/>
        <path id="Trazado_1172974" data-name="Trazado 1172974" d="M168.849,191.636a1.156,1.156,0,0,0,0,2.311h6.556a1.156,1.156,0,1,0,0-2.311Z" transform="translate(-141.855 -162.109)"/>
        <path id="Trazado_1172975" data-name="Trazado 1172975" d="M55.282,144.636H32.959a3.293,3.293,0,0,0-3.289,3.29v12.018L28.2,161.687a14.4,14.4,0,0,0-17.19-9.935,30.668,30.668,0,0,1-1.844-7.212,1.156,1.156,0,0,0-2.292.3,32.978,32.978,0,0,0,1.938,7.639,14.352,14.352,0,0,0-1.99,1.031,35.1,35.1,0,0,1-.155-25.287,1.155,1.155,0,0,0-.55-1.437l-.811-.419,5.489-3.495.368,6.467-.978-.5a1.156,1.156,0,0,0-1.611.636,32.6,32.6,0,0,0-1.945,9.779,1.156,1.156,0,0,0,2.309.1,30.133,30.133,0,0,1,1.387-7.845l1.581.806a1.155,1.155,0,0,0,1.678-1.1l-.594-10.443a1.155,1.155,0,0,0-1.774-.909l-8.847,5.632a1.156,1.156,0,0,0,.09,2l1.694.875A37.428,37.428,0,0,0,4.9,154.932,14.386,14.386,0,1,0,28.27,169.537h1.4v2.046a3.293,3.293,0,0,0,3.289,3.29H55.282a3.293,3.293,0,0,0,3.289-3.29V169.26a1.156,1.156,0,0,0-2.311,0v2.323a.979.979,0,0,1-.978.979H32.959a.979.979,0,0,1-.978-.979v-2.134a2.225,2.225,0,0,0-2.222-2.223H26.55l4.908-5.817a2.227,2.227,0,0,0,.524-1.434V147.926a.979.979,0,0,1,.978-.979H55.281a.979.979,0,0,1,.978.979v15.941a1.156,1.156,0,0,0,2.311,0V147.926a3.293,3.293,0,0,0-3.289-3.29ZM7.811,175.86v-1.215a2.289,2.289,0,0,1,1.68-2.206l1.32-.365a4.506,4.506,0,0,0,7.159,0l1.321.365a2.289,2.289,0,0,1,1.68,2.206v1.208a12.021,12.021,0,0,1-13.159.007Zm5.587-5.9V169.4a4.2,4.2,0,0,0,1.986,0v.554a1.841,1.841,0,0,0,.371,1.107,2.221,2.221,0,0,1-2.729,0A1.841,1.841,0,0,0,13.4,169.956Zm2.525-3.326-.588.334a1.921,1.921,0,0,1-1.888,0l-.588-.334a4.007,4.007,0,0,1-2.026-3.478V161.46a3.558,3.558,0,0,1,7.115,0v1.692a4.007,4.007,0,0,1-2.026,3.478Zm7.306,7.327a4.6,4.6,0,0,0-3.323-3.746l-2.211-.611v-1.373a6.323,6.323,0,0,0,2.565-5.075V161.46a5.869,5.869,0,0,0-11.738,0v1.692a6.322,6.322,0,0,0,2.565,5.075V169.6l-2.211.611a4.6,4.6,0,0,0-3.323,3.749A12.075,12.075,0,1,1,26.328,163.9L24.51,166.06a2.113,2.113,0,0,0,1.353,3.46,12.015,12.015,0,0,1-2.635,4.438Z" transform="translate(0 -101.241)"/>
        <path id="Trazado_1172976" data-name="Trazado 1172976" d="M241.277,322.312a1.155,1.155,0,0,0-.933-.786l-5.587-.812-2.5-5.061a1.156,1.156,0,0,0-2.073,0l-2.5,5.061-5.587.812a1.155,1.155,0,0,0-.641,1.971l4.042,3.939L224.549,333a1.155,1.155,0,0,0,1.677,1.218l5-2.626,5,2.626A1.155,1.155,0,0,0,237.9,333l-.954-5.562,4.042-3.939a1.154,1.154,0,0,0,.293-1.184Zm-6.383,3.893a1.155,1.155,0,0,0-.332,1.023l.661,3.854-3.462-1.82a1.156,1.156,0,0,0-1.075,0l-3.462,1.82.661-3.854a1.155,1.155,0,0,0-.332-1.023l-2.8-2.729,3.87-.562a1.155,1.155,0,0,0,.87-.632l1.731-3.507,1.731,3.507a1.156,1.156,0,0,0,.87.632l3.87.562Z" transform="translate(-187.044 -266.473)"/>
      </g>
    </g>
  </g>
</svg>
