<svg xmlns="http://www.w3.org/2000/svg" xmlns:xlink="http://www.w3.org/1999/xlink" width="113" height="113" viewBox="0 0 113 113">
  <defs>
    <filter id="Trazado_982547" x="0" y="0" width="113" height="113" filterUnits="userSpaceOnUse">
      <feOffset dy="3" input="SourceAlpha"/>
      <feGaussianBlur stdDeviation="3" result="blur"/>
      <feFlood flood-opacity="0.161"/>
      <feComposite operator="in" in2="blur"/>
      <feComposite in="SourceGraphic"/>
    </filter>
  </defs>
  <g id="Grupo_1222187" data-name="Grupo 1222187" transform="translate(-1059 -6256.713)">
    <g id="Grupo_1221321" data-name="Grupo 1221321" transform="translate(0 5564)">
      <g id="Grupo_1215796" data-name="Grupo 1215796" transform="translate(0 -506.232)">
        <g id="Grupo_1214349" data-name="Grupo 1214349" transform="translate(0 -2968)">
          <g id="Grupo_1212851" data-name="Grupo 1212851" transform="translate(1068 4172.946)">
            <g id="Grupo_1209935" data-name="Grupo 1209935">
              <g id="Grupo_1208705" data-name="Grupo 1208705">
                <g id="Grupo_1148633" data-name="Grupo 1148633">
                  <g id="Grupo_1148525" data-name="Grupo 1148525">
                    <g transform="matrix(1, 0, 0, 1, -9, -6)" filter="url(#Trazado_982547)">
                      <g id="Trazado_982547-2" data-name="Trazado 982547" transform="translate(9 6)" fill="#e4f1d4">
                        <path d="M 47.5 93.5 C 41.28937149047852 93.5 35.26533508300781 92.28397369384766 29.59518623352051 89.88570404052734 C 24.11771965026855 87.56893157958984 19.19813346862793 84.25196075439453 14.97309303283691 80.02691650390625 C 10.74804019927979 75.80186462402344 7.431066513061523 70.88229370117188 5.114293098449707 65.40481567382812 C 2.716026782989502 59.73468017578125 1.5 53.71062850952148 1.5 47.5 C 1.5 41.28937149047852 2.716026782989502 35.26533508300781 5.114293098449707 29.59518623352051 C 7.431066513061523 24.11771965026855 10.74804019927979 19.19813346862793 14.97309303283691 14.97309303283691 C 19.19813346862793 10.74804019927979 24.11771965026855 7.431066513061523 29.59518623352051 5.114293098449707 C 35.26533508300781 2.716026782989502 41.28937149047852 1.5 47.5 1.5 C 53.71062850952148 1.5 59.73468017578125 2.716026782989502 65.40481567382812 5.114293098449707 C 70.88229370117188 7.431066513061523 75.80186462402344 10.74804019927979 80.02691650390625 14.97309303283691 C 84.25196075439453 19.19813346862793 87.56893157958984 24.11771965026855 89.88570404052734 29.59518623352051 C 92.28397369384766 35.26533508300781 93.5 41.28937149047852 93.5 47.5 C 93.5 53.71062850952148 92.28397369384766 59.73468017578125 89.88570404052734 65.40481567382812 C 87.56893157958984 70.88229370117188 84.25196075439453 75.80186462402344 80.02691650390625 80.02691650390625 C 75.80186462402344 84.25196075439453 70.88229370117188 87.56893157958984 65.40481567382812 89.88570404052734 C 59.73468017578125 92.28397369384766 53.71062850952148 93.5 47.5 93.5 Z" stroke="none"/>
                        <path d="M 47.5 3 C 41.49121475219727 3 35.66376876831055 4.176155090332031 30.17950439453125 6.495796203613281 C 24.88084411621094 8.736953735351562 20.12152099609375 11.94598388671875 16.03375244140625 16.03375244140625 C 11.94598388671875 20.12152099609375 8.736953735351562 24.88084411621094 6.495796203613281 30.17950439453125 C 4.176155090332031 35.66376876831055 3 41.49121475219727 3 47.5 C 3 53.50878524780273 4.176155090332031 59.33623123168945 6.495796203613281 64.82049560546875 C 8.736953735351562 70.11915588378906 11.94598388671875 74.87847900390625 16.03375244140625 78.96624755859375 C 20.12152099609375 83.05401611328125 24.88084411621094 86.26304626464844 30.17950439453125 88.50419616699219 C 35.66376876831055 90.82384490966797 41.49121475219727 92 47.5 92 C 53.50878524780273 92 59.33623123168945 90.82384490966797 64.82049560546875 88.50419616699219 C 70.11915588378906 86.26304626464844 74.87847900390625 83.05401611328125 78.96624755859375 78.96624755859375 C 83.05401611328125 74.87847900390625 86.26304626464844 70.11915588378906 88.50419616699219 64.82049560546875 C 90.82384490966797 59.33623123168945 92 53.50878524780273 92 47.5 C 92 41.49121475219727 90.82384490966797 35.66376876831055 88.50419616699219 30.17950439453125 C 86.26304626464844 24.88084411621094 83.05401611328125 20.12152099609375 78.96624755859375 16.03375244140625 C 74.87847900390625 11.94598388671875 70.11915588378906 8.736953735351562 64.82049560546875 6.495796203613281 C 59.33623123168945 4.176155090332031 53.50878524780273 3 47.5 3 M 47.5 0 C 73.7335205078125 0 95 21.2664794921875 95 47.5 C 95 73.7335205078125 73.7335205078125 95 47.5 95 C 21.2664794921875 95 0 73.7335205078125 0 47.5 C 0 21.2664794921875 21.2664794921875 0 47.5 0 Z" stroke="none" fill="#a9d373"/>
                      </g>
                    </g>
                  </g>
                </g>
              </g>
            </g>
          </g>
        </g>
      </g>
    </g>
    <g id="aprender-en-linea_2_" data-name="aprender-en-linea (2)" transform="translate(1080.866 6269.654)">
      <g id="Grupo_1222185" data-name="Grupo 1222185" transform="translate(1.021 6.645)">
        <path id="Trazado_1172977" data-name="Trazado 1172977" d="M90.333,139.732v41.442H28.27V139.732a3.856,3.856,0,0,1,3.856-3.855H86.477a3.856,3.856,0,0,1,3.856,3.855Z" transform="translate(-25.439 -119.15)" fill="#dfeaef"/>
        <path id="Trazado_1172978" data-name="Trazado 1172978" d="M28.27,423.127H90.333v6.155H28.27Z" transform="translate(-25.439 -367.258)" fill="#b4d0d5"/>
        <path id="Trazado_1172979" data-name="Trazado 1172979" d="M0,0H32.055V52.524H0Z" transform="translate(60.125 21.496) rotate(90)" fill="#6ec17d"/>
        <path id="Trazado_1172980" data-name="Trazado 1172980" d="M75.224,441.114H7.5v2.265a5.606,5.606,0,0,0,5.606,5.606H69.617a5.606,5.606,0,0,0,5.606-5.606v-2.265Z" transform="translate(-7.499 -382.794)" fill="#dfeaef"/>
        <path id="Trazado_1172981" data-name="Trazado 1172981" d="M212.178,445.049h-7.345a3.82,3.82,0,0,1-3.82-3.82v-.115H216v.115A3.82,3.82,0,0,1,212.178,445.049Z" transform="translate(-174.642 -382.793)" fill="#b4d0d5"/>
        <path id="Trazado_1172982" data-name="Trazado 1172982" d="M19.225,448.988H13.1a5.606,5.606,0,0,1-5.607-5.606v-2.265h6.126v2.265A5.606,5.606,0,0,0,19.225,448.988Z" transform="translate(-7.491 -382.797)" fill="#b4d0d5"/>
        <path id="Trazado_1172983" data-name="Trazado 1172983" d="M175.578,164.417v5.757a8.523,8.523,0,0,1-5.23,7.879,25.649,25.649,0,0,1-19.668,0,8.523,8.523,0,0,1-5.23-7.879v-5.757Z" transform="translate(-126.651 -143.801)" fill="#665e66"/>
        <path id="Trazado_1172984" data-name="Trazado 1172984" d="M164.459,179.71a25.641,25.641,0,0,1-13.783-1.654,8.523,8.523,0,0,1-5.23-7.879V164.42h7.9v5.757a8.523,8.523,0,0,0,5.23,7.879A25.489,25.489,0,0,0,164.459,179.71Z" transform="translate(-126.648 -143.804)" fill="#454045"/>
        <path id="Trazado_1172985" data-name="Trazado 1172985" d="M175.578,164.417v2.308l-12.331,6.533a5.845,5.845,0,0,1-5.467,0l-12.331-6.533v-2.308Z" transform="translate(-126.651 -143.801)" fill="#454045"/>
        <path id="Trazado_1172986" data-name="Trazado 1172986" d="M125.355,24.275,105.593,13.806a5.839,5.839,0,0,0-5.466,0L80.365,24.275a3.129,3.129,0,0,0,0,5.53l19.762,10.469a5.839,5.839,0,0,0,5.466,0l19.762-10.469a3.129,3.129,0,0,0,0-5.53Z" transform="translate(-68.997 -13.126)" fill="#665e66"/>
        <g id="Grupo_1222184" data-name="Grupo 1222184" transform="translate(40.155 37.523)">
          <path id="Trazado_1172987" data-name="Trazado 1172987" d="M304.672,288.5l-2.218,3.841a2.079,2.079,0,0,0,1.8,3.119h.834a2.079,2.079,0,0,0,1.8-3.119Z" transform="translate(-302.173 -288.497)" fill="#f4dd45"/>
        </g>
      </g>
      <g id="Grupo_1222186" data-name="Grupo 1222186" transform="translate(0 5.622)">
        <path id="Trazado_1172988" data-name="Trazado 1172988" d="M68.746,63.942H66.937V27.226a4.883,4.883,0,0,0-4.878-4.877h-2.4a4.15,4.15,0,0,0-1.8-5.46L44.495,9.811a1.022,1.022,0,1,0-.957,1.806L56.9,18.7a2.108,2.108,0,0,1,0,3.725L43.911,29.3l-8.259-9.418a1.022,1.022,0,1,0-1.537,1.348l7.939,9.054-4.915,2.6a4.82,4.82,0,0,1-4.511,0L12.866,22.421a2.108,2.108,0,0,1,0-3.725L32.628,8.227a4.819,4.819,0,0,1,4.511,0l2.829,1.5a1.022,1.022,0,0,0,.957-1.806L38.1,6.42a6.861,6.861,0,0,0-6.423,0L11.909,16.89a4.15,4.15,0,0,0-1.8,5.46h-2.4A4.883,4.883,0,0,0,2.83,27.227V63.943H1.022A1.022,1.022,0,0,0,0,64.965V67.23a6.636,6.636,0,0,0,6.628,6.628H63.139a6.636,6.636,0,0,0,6.628-6.628V64.965A1.022,1.022,0,0,0,68.746,63.942ZM43.675,46.212l1.333,2.308a1.057,1.057,0,0,1-.916,1.586h-.834a1.057,1.057,0,0,1-.916-1.586ZM44.7,31.2l4.229-2.24v4.058A7.478,7.478,0,0,1,44.7,39.786Zm-9.813,4.3a6.865,6.865,0,0,0,3.212-.8l4.557-2.414v8.295a24.789,24.789,0,0,1-17.212-.623,7.476,7.476,0,0,1-4.6-6.936V28.959L31.672,34.7A6.86,6.86,0,0,0,34.884,35.494ZM4.874,27.226a2.837,2.837,0,0,1,2.834-2.833h4.515l5.144,2.725H8.621A1.022,1.022,0,0,0,7.6,28.141V60.2a1.022,1.022,0,0,0,1.022,1.022h5.395a1.022,1.022,0,0,0,0-2.044H9.643V29.163H18.8v3.855a9.514,9.514,0,0,0,5.859,8.823,26.86,26.86,0,0,0,18,.88v1.174l-2.081,3.6a3.1,3.1,0,0,0,2.686,4.652h.834A3.1,3.1,0,0,0,46.778,47.5l-2.081-3.6V42.006c.138-.055.276-.109.414-.166a9.515,9.515,0,0,0,5.859-8.823V29.163h9.154V59.174H18.1a1.022,1.022,0,0,0,0,2.044H61.146A1.022,1.022,0,0,0,62.168,60.2V28.141a1.022,1.022,0,0,0-1.022-1.022H52.4l5.144-2.725h4.515a2.837,2.837,0,0,1,2.834,2.833V63.942H4.874ZM41.2,65.987a2.8,2.8,0,0,1-2.647,1.891H31.211a2.8,2.8,0,0,1-2.647-1.891Zm26.52,1.243a4.589,4.589,0,0,1-4.584,4.584H6.628a4.589,4.589,0,0,1-4.584-4.584V65.986H26.455a4.849,4.849,0,0,0,4.756,3.935h7.345a4.849,4.849,0,0,0,4.756-3.935H67.724Z" transform="translate(0 -5.622)"/>
        <path id="Trazado_1172989" data-name="Trazado 1172989" d="M115.626,364.639a1.022,1.022,0,0,0-1.022-1.022H94.145a1.022,1.022,0,0,0,0,2.044H114.6A1.022,1.022,0,0,0,115.626,364.639Z" transform="translate(-80.434 -314.835)"/>
        <path id="Trazado_1172990" data-name="Trazado 1172990" d="M94.145,334.117h13.68a1.022,1.022,0,0,0,0-2.044H94.145a1.022,1.022,0,0,0,0,2.044Z" transform="translate(-80.434 -287.589)"/>
      </g>
    </g>
  </g>
</svg>
