<svg xmlns="http://www.w3.org/2000/svg" width="167.336" height="137.553" viewBox="0 0 167.336 137.553">
  <g id="_x31_" transform="translate(-20.535 -63.215)">
    <ellipse id="Elipse_14465" data-name="Elipse 14465" cx="54.986" cy="62.322" rx="54.986" ry="62.322" transform="translate(49.552 63.215)" fill="#df93dd"/>
    <ellipse id="Elipse_14466" data-name="Elipse 14466" cx="34.611" cy="2.808" rx="34.611" ry="2.808" transform="translate(69.927 195.152)" fill="#df93dd"/>
    <path id="Trazado_1172991" data-name="Trazado 1172991" d="M189.65,342.592c1.072,4.8,2.655,10.159,3.88,15.008,1.276,4.748,2.6,9.546,3.982,14.294.664,2.553,4.7,1.787,4.441-.817-1.225-9.495-2.348-19.858-3.318-29.4-.51-5.82-9.648-4.9-8.984.919Z" transform="translate(-108.761 -176.588)" fill="#ed7e97"/>
    <path id="Trazado_1172992" data-name="Trazado 1172992" d="M276.282,371.052c-.051,2.5,3.778,3.063,4.441.613,1.379-4.748,2.706-9.495,3.982-14.294,1.225-4.594,2.6-9.75,3.778-14.345,1.481-6.177-8.168-7.912-8.882-1.583C278.63,351.194,277.507,361.454,276.282,371.052Z" transform="translate(-164.509 -176.41)" fill="#ed7e97"/>
    <path id="Trazado_1172993" data-name="Trazado 1172993" d="M282.609,348.863l-.46,4.237c5.309,1.787,7.5-.2,7.5-.2l.715-2.6c.613-2.4,1.276-4.748,1.889-7.147a4.532,4.532,0,1,0-8.78-2.246,2.587,2.587,0,0,0-.1.664v.051Z" transform="translate(-168.283 -176.428)" fill="#e26988"/>
    <path id="Trazado_1172994" data-name="Trazado 1172994" d="M189.668,342.368a2.989,2.989,0,0,0,.1.664c.613,2.4,1.225,4.8,1.889,7.147a8.52,8.52,0,0,0,8.219,2.144l-.51-3.573-.766-7.3a4.49,4.49,0,1,0-8.933.919Z" transform="translate(-108.779 -176.364)" fill="#e26988"/>
    <path id="Trazado_1172995" data-name="Trazado 1172995" d="M185.289,429.055c1.072,2.553,13.375,3.676,13.834-1.225v-.51c0-.153-.051-.306-.051-.459a.187.187,0,0,0-.051-.153l-2.6-.766-2.5-.766h-.051c-.817.051-8.117.51-8.627,3.42a.722.722,0,0,0,.051.459Z" transform="translate(-105.931 -232.831)" fill="#ed7e97"/>
    <path id="Trazado_1172996" data-name="Trazado 1172996" d="M185.289,405.4a21.943,21.943,0,0,1,8.933-2.655c.153,0,.306-.051.459-.051a1.375,1.375,0,0,0,1.123-1.889l-5.513-12.4.459,1.787c1.021,3.778,2.042,7.555,3.114,11.333-.817.051-8.117.51-8.627,3.42a.718.718,0,0,0,.051.459Z" transform="translate(-105.931 -209.175)" fill="#f490aa"/>
    <path id="Trazado_1172997" data-name="Trazado 1172997" d="M276.283,427.38a3.941,3.941,0,0,0,.1.766c1.174,4.748,14.294,3.114,13.834.306-.511-2.859-7.81-3.369-8.627-3.42h-.051l-1.838.562-3.267.97a.386.386,0,0,1-.051.2,1.269,1.269,0,0,0-.051.408v.051c-.051.1-.051.1-.051.153Z" transform="translate(-164.509 -232.738)" fill="#ed7e97"/>
    <path id="Trazado_1172998" data-name="Trazado 1172998" d="M285.622,401.988a.735.735,0,0,0,.715,1.021h.766a22.862,22.862,0,0,1,9.086,1.787c-.511-2.859-7.81-3.369-8.627-3.42,1.072-3.778,2.093-7.555,3.114-11.333l.459-1.787Z" transform="translate(-170.48 -209.082)" fill="#f490aa"/>
    <path id="Trazado_1172999" data-name="Trazado 1172999" d="M276.569,433.76c1.174,4.748,14.294,3.114,13.834.306C290.4,434.117,282.95,436.466,276.569,433.76Z" transform="translate(-164.693 -238.353)" fill="#e26988"/>
    <path id="Trazado_1173000" data-name="Trazado 1173000" d="M185.419,433.748c1.072,2.553,13.375,3.676,13.834-1.276h-.1S194.046,435.892,185.419,433.748Z" transform="translate(-106.061 -237.524)" fill="#e26988"/>
    <path id="Trazado_1173001" data-name="Trazado 1173001" d="M198.826,370.074c-.01-.2-1.4-10.564-1.84-14.726l-.817-7.3L195.4,340.7a4.978,4.978,0,1,0-9.9,1.021c.051.2.1.46.153.715.613,2.45,1.276,4.8,1.889,7.2l1.889,7.147c.78,2.972,1.839,6.829,2.954,10.77-2.149.172-7.933.87-8.416,3.728-.051.459.051,1.123,1.072,1.787a13.335,13.335,0,0,0,6.534,1.429,10.134,10.134,0,0,0,5.717-1.429,3.1,3.1,0,0,0,1.534-2.989Zm-2.1,2.274c-2.655,1.838-8.984,1.276-11.18-.1-.357-.2-.715-.51-.664-.868.408-2.2,6.075-2.91,8.27-3.012a.446.446,0,0,0,.4-.438v0c0-.007,0-.013,0-.019s-.005-.016-.006-.025a.249.249,0,0,0,0-.042c-1.174-4.135-2.442-8.2-3.259-11.316l-1.889-7.147c-.664-2.348-1.276-4.748-1.889-7.147a2.564,2.564,0,0,1-.1-.613,4.079,4.079,0,0,1,8.117-.817l.766,7.3.817,7.3c.453,4.276,1.679,14.114,1.684,14.141a2.517,2.517,0,0,1-1.072,2.807Z" transform="translate(-105.122 -175.614)" fill="#bf4b6f"/>
    <path id="Trazado_1173002" data-name="Trazado 1173002" d="M289.944,371.255c-.566-3.065-6.851-3.629-8.492-3.738,1.125-3.929,2.194-7.867,2.979-10.861l1.889-7.147c.664-2.348,1.276-4.748,1.889-7.147a4.984,4.984,0,1,0-9.648-2.5,3.577,3.577,0,0,0-.153.715l-.766,7.351-.817,7.3c-.441,4.114-1.023,8.982-1.656,13.969a3.565,3.565,0,0,0,1.452,3.847,10.257,10.257,0,0,0,5.666,1.378,14.528,14.528,0,0,0,6.585-1.379c1.021-.664,1.174-1.327,1.072-1.787Zm-1.583.97c-2.144,1.429-8.525,1.991-11.18.1a2.843,2.843,0,0,1-1.094-2.924s0,0,0,0c.632-4.94,1.214-9.806,1.655-13.968l.817-7.351.766-7.351v-.051a2.636,2.636,0,0,1,.1-.562,4.259,4.259,0,0,1,1.889-2.5,4.007,4.007,0,0,1,3.063-.46,4.259,4.259,0,0,1,2.5,1.889,4.007,4.007,0,0,1,.46,3.063c-.613,2.4-1.276,4.748-1.889,7.147l-1.889,7.147c-.817,3.114-2.193,8.357-3.117,11.394a.394.394,0,0,0,.31.55c2.144.051,7.861.817,8.27,3.012.051.357-.357.664-.664.868Z" transform="translate(-163.723 -175.541)" fill="#bf4b6f"/>
    <path id="Trazado_1173003" data-name="Trazado 1173003" d="M35.189,230.431a3.745,3.745,0,0,0-.03,3.394c.883,1.917,3.079-1.5,3.079-1.5Z" transform="translate(-9.159 -107.561)" fill="#ed7e97"/>
    <path id="Trazado_1173004" data-name="Trazado 1173004" d="M34.975,233.937a1.3,1.3,0,0,1-.971-.847,4.167,4.167,0,0,1,.032-3.805.617.617,0,0,1,.286-.22.437.437,0,0,1,.354.046l3.1,1.9a.617.617,0,0,1,.22.286.437.437,0,0,1-.046.354c-.255.379-1.6,2.366-2.823,2.309l-.152-.02Zm-.335-3.75a3.358,3.358,0,0,0,.183,2.546.4.4,0,0,0,.321.3c.4.053,1.182-.773,1.743-1.523Z" transform="translate(-8.386 -106.67)" fill="#bf4b6f"/>
    <path id="Trazado_1173005" data-name="Trazado 1173005" d="M51.767,233.635c7.74,11.716,24.953,22.246,37.792,17.741l-2.2-6.052c-8.931,2.955-22.258-4.6-28.118-12.569C57.869,231.444,57,229.065,55,228.6a3.21,3.21,0,0,0-3.23,5.036Z" transform="translate(-19.675 -106.321)" fill="#ed7e97"/>
    <path id="Trazado_1173006" data-name="Trazado 1173006" d="M62.06,254.046a52.071,52.071,0,0,0,10.009,8.923,34.469,34.469,0,0,0,12.048,5.122c.253.033.5.117.753.149l1.691-6.266c-.506-.066-1.006-.183-1.556-.306A23.371,23.371,0,0,1,81,260.425c-1.321-.533-.985,3.218-4.813,2.565s-14.155-9.1-14.155-9.1Z" transform="translate(-26.691 -122.65)" fill="#e26988"/>
    <path id="Trazado_1173007" data-name="Trazado 1173007" d="M79.528,261.038c-.709-.092-1.461-.242-2.163-.385a34.564,34.564,0,0,1-12.244-5.2,54.117,54.117,0,0,1-13.432-13.075.433.433,0,1,1,.687-.528,53.209,53.209,0,0,0,13.2,12.89,34.631,34.631,0,0,0,11.9,5.051c.7.143,1.4.286,2.113.378a22.815,22.815,0,0,0,10.078-.695.457.457,0,1,1,.3.863A24.54,24.54,0,0,1,79.528,261.038Z" transform="translate(-19.991 -114.807)" fill="#bf4b6f"/>
    <path id="Trazado_1173008" data-name="Trazado 1173008" d="M46.364,173.85,24.189,202.21l7.662,5.992,22.175-28.36c.739-.933-.37-3.086-2.477-4.7a9.211,9.211,0,0,0-2.69-1.483c-.247-.083-.449-.11-.7-.194a1.832,1.832,0,0,0-1.8.383Z" transform="translate(-2.35 -70.878)" fill="#e6ecff"/>
    <ellipse id="Elipse_14467" data-name="Elipse 14467" cx="2.195" cy="4.85" rx="2.195" ry="4.85" transform="matrix(0.616, -0.788, 0.788, 0.616, 20.535, 133.1)" fill="#c7d1ea"/>
    <path id="Trazado_1173009" data-name="Trazado 1173009" d="M46.364,173.882l-22.175,28.36,7.662,5.992,1.536-1.911c-1.484-4.415-6.232-5.908-6.232-5.908l21-26.865a1.712,1.712,0,0,0-1.794.333Z" transform="translate(-2.35 -70.909)" fill="#c7d1ea"/>
    <path id="Trazado_1173010" data-name="Trazado 1173010" d="M65.732,173.986a11.143,11.143,0,0,1-.907,11.31L50.408,205.863l20.49-25.7c.739-.933-.37-3.086-2.477-4.7A10.637,10.637,0,0,0,65.732,173.986Z" transform="translate(-19.216 -71.253)" fill="#f5f8ff"/>
    <path id="Trazado_1173011" data-name="Trazado 1173011" d="M23.088,201.61l.132.172a.411.411,0,0,0,.577-.079l22.175-28.36c.5-.656,2.56-.284,4.615,1.322a8.224,8.224,0,0,1,2.2,2.5c.37.717.443,1.345.194,1.672L30.8,207.2a.411.411,0,0,0,.656.5l22.175-28.36c.491-.605.4-1.492-.132-2.54a8.586,8.586,0,0,0-2.424-2.735c-2.384-1.855-4.838-2.381-5.762-1.214L23.141,201.2a.56.56,0,0,0-.052.405Z" transform="translate(-1.63 -70.121)" fill="#8196c9"/>
    <path id="Trazado_1173012" data-name="Trazado 1173012" d="M22.716,252.34c.924-1.167,3.378-.641,5.762,1.214a9.249,9.249,0,0,1,2.424,2.735,2.41,2.41,0,0,1,.132,2.54,2.349,2.349,0,0,1-2.485.5,8.521,8.521,0,0,1-3.277-1.714,8.78,8.78,0,0,1-2.543-3.008,2.2,2.2,0,0,1-.013-2.267Zm7.468,4.319a8.967,8.967,0,0,0-2.2-2.5c-2.056-1.606-4.061-2.022-4.615-1.322-.5.656.341,2.515,2.4,4.122a8.563,8.563,0,0,0,2.943,1.516c.8.207,1.424.134,1.672-.194.242-.277.207-.8-.075-1.4A.712.712,0,0,1,30.185,256.659Z" transform="translate(-1.206 -121.256)" fill="#8196c9"/>
    <path id="Trazado_1173013" data-name="Trazado 1173013" d="M58.462,204.964l-.739.933c.739-.933,3.268-.192,5.7,1.67,2.384,1.855,3.733,4.142,2.987,5.125l.739-.933c.739-.933-.6-3.27-2.987-5.125S59.2,204.03,58.462,204.964Z" transform="translate(-23.921 -90.921)" fill="#fc3838"/>
    <path id="Trazado_1173014" data-name="Trazado 1173014" d="M52.387,211.872l-.739.933c.739-.933,3.268-.192,5.7,1.67,2.384,1.855,3.733,4.142,2.987,5.125l.739-.933c1.406-1.462-.062-3.521-2.446-5.376C56.254,211.386,54.035,209.9,52.387,211.872Z" transform="translate(-20.013 -95.024)" fill="#d11313"/>
    <path id="Trazado_1173015" data-name="Trazado 1173015" d="M55.29,207.6l-1.428,1.873c.739-.933,3.268-.192,5.7,1.67,2.384,1.855,3.733,4.142,2.987,5.125l1.428-1.873c.739-.933-.6-3.27-2.987-5.125C58.558,207.4,56.029,206.663,55.29,207.6Z" transform="translate(-21.437 -92.614)" fill="#ea2a21"/>
    <path id="Trazado_1173016" data-name="Trazado 1173016" d="M50.549,207.642l2.9-3.689c.491-.605,1.435-.74,2.674-.372a12.029,12.029,0,0,1,3.605,1.962,11.182,11.182,0,0,1,2.8,3.041c.678,1.118.755,2.106.265,2.711l-2.9,3.689a.446.446,0,1,1-.7-.554c.242-.277.125-.962-.339-1.743a10.906,10.906,0,0,0-2.575-2.755c-2.478-1.919-4.642-2.3-5.076-1.742a.473.473,0,0,1-.627.073l-.132-.172c.02-.151-.011-.31.11-.448Zm9.557,5.672,2.033-2.566c.242-.277.125-.962-.339-1.743a10.906,10.906,0,0,0-2.575-2.755,10.243,10.243,0,0,0-3.315-1.822c-.841-.264-1.519-.2-1.761.08l-2.033,2.566a9.554,9.554,0,0,1,4.712,2.158,11.181,11.181,0,0,1,2.8,3.041,4.41,4.41,0,0,1,.288.552A3.726,3.726,0,0,1,60.106,213.314Z" transform="translate(-19.236 -90.159)" fill="#b7130b"/>
    <path id="Trazado_1173017" data-name="Trazado 1173017" d="M26.413,255.643a3.95,3.95,0,0,0,1.5,1.534c1.42.957,2.628,1.166,3.163.618.3-.321.486-.966-.418-2.32a11.753,11.753,0,0,0-5.034-3.642.421.421,0,1,0-.308.784,11.57,11.57,0,0,1,4.662,3.336c.559.845.513,1.2.507,1.25-.115.088-.836.1-2.117-.739a2.808,2.808,0,0,1-1.184-1.184,2.477,2.477,0,0,1,1.149.665.411.411,0,1,0,.5-.656c-.656-.5-1.514-1.021-2.111-.79a.622.622,0,0,0-.383.568,1.029,1.029,0,0,0,.079.576Z" transform="translate(-2.906 -121.313)" fill="#8196c9"/>
    <path id="Trazado_1173018" data-name="Trazado 1173018" d="M58.639,228.907a5.726,5.726,0,0,1,2.047,4.437,1.6,1.6,0,0,0,1.385,1.622l.152.02a1.6,1.6,0,0,0,1.641-1.537l.006-.051a10.913,10.913,0,0,0-.273-2.249,8.388,8.388,0,0,0-3.078-4.828,1.654,1.654,0,0,0-2.256.324l-.192.284a1.752,1.752,0,0,0,.567,1.979Z" transform="translate(-24.08 -104.721)" fill="#ed7e97"/>
    <path id="Trazado_1173019" data-name="Trazado 1173019" d="M58.935,226.6a2.085,2.085,0,0,1,1.094.3c1.534.869,2.642,3.433,3.084,4.778a4.715,4.715,0,0,0,1.435,1.628,38.408,38.408,0,0,0,5.232,3.307,51.784,51.784,0,0,1-5.505-5.556A8.388,8.388,0,0,0,61.2,226.23,1.673,1.673,0,0,0,58.935,226.6Z" transform="translate(-24.701 -104.674)" fill="#f490aa"/>
    <path id="Trazado_1173020" data-name="Trazado 1173020" d="M88.861,251.779l-.1-.013c-5.657-2.024-11.056-6.022-16.053-11.924a.435.435,0,0,1,.643-.585c4.909,5.788,10.17,9.664,15.681,11.618a.444.444,0,0,1,.288.552.4.4,0,0,1-.458.352Z" transform="translate(-33.482 -113.143)" fill="#bf4b6f"/>
    <ellipse id="Elipse_14468" data-name="Elipse 14468" cx="1.532" cy="1.378" rx="1.532" ry="1.378" transform="translate(28.97 121.017) rotate(-82.591)" fill="#ed7e97"/>
    <path id="Trazado_1173021" data-name="Trazado 1173021" d="M44.921,219.92a1.933,1.933,0,0,1-1.565-2.212,1.9,1.9,0,0,1,2.08-1.737A1.932,1.932,0,0,1,47,218.184,1.9,1.9,0,0,1,44.921,219.92Zm.4-3.037a1.063,1.063,0,0,0-1.1.938,1,1,0,0,0,.823,1.188,1.063,1.063,0,0,0,1.1-.938A1.028,1.028,0,0,0,45.317,216.883Z" transform="translate(-14.668 -98.251)" fill="#bf4b6f"/>
    <ellipse id="Elipse_14469" data-name="Elipse 14469" cx="1.532" cy="1.378" rx="1.532" ry="1.378" transform="translate(27.34 122.864) rotate(-82.591)" fill="#ed7e97"/>
    <path id="Trazado_1173022" data-name="Trazado 1173022" d="M40.351,225.1a1.932,1.932,0,0,1-1.565-2.212,1.9,1.9,0,0,1,2.08-1.737,2,2,0,0,1-.514,3.948Zm.4-3.088a1.063,1.063,0,0,0-1.1.938,1,1,0,0,0,.823,1.188,1.063,1.063,0,0,0,1.1-.938A1.1,1.1,0,0,0,40.753,222.01Z" transform="translate(-11.729 -101.581)" fill="#bf4b6f"/>
    <ellipse id="Elipse_14470" data-name="Elipse 14470" cx="1.532" cy="1.378" rx="1.532" ry="1.378" transform="translate(25.831 124.572) rotate(-82.591)" fill="#ed7e97"/>
    <path id="Trazado_1173023" data-name="Trazado 1173023" d="M36.1,230.027a1.932,1.932,0,0,1-1.565-2.211,1.9,1.9,0,0,1,2.08-1.737,2,2,0,0,1-.514,3.948Zm.4-3.088a1.063,1.063,0,0,0-1.1.938,1,1,0,0,0,.823,1.188,1.077,1.077,0,0,0,.277-2.126Z" transform="translate(-8.995 -104.752)" fill="#bf4b6f"/>
    <path id="Trazado_1173024" data-name="Trazado 1173024" d="M60.3,234.074a.724.724,0,0,1-.29-.141,2.208,2.208,0,0,1-.487-1.4,5.317,5.317,0,0,0-1.891-4.056,2.115,2.115,0,0,1-.8-1.34,2.147,2.147,0,0,1,.356-1.549,2.115,2.115,0,0,1,1.34-.8,2.147,2.147,0,0,1,1.549.356,8.577,8.577,0,0,1,3.285,5.215.416.416,0,0,1-.326.524l-.576-.417a7.684,7.684,0,0,0-2.887-4.615,1.029,1.029,0,0,0-.847-.213,1.321,1.321,0,0,0-.781.464,1.029,1.029,0,0,0-.213.847,1.321,1.321,0,0,0,.464.781,6.49,6.49,0,0,1,2.254,4.824,1.341,1.341,0,0,0,.255.806.42.42,0,0,1-.029.614.551.551,0,0,1-.375.106Z" transform="translate(-23.328 -103.911)" fill="#bf4b6f"/>
    <path id="Trazado_1173025" data-name="Trazado 1173025" d="M321.84,105.445l-15.111,6.432-2.3.97-6.892-1.123,16.387-6.789L286.872,87.476Z" transform="translate(-171.321 -15.606)" fill="#27324c"/>
    <path id="Trazado_1173026" data-name="Trazado 1173026" d="M233.847,100.107c-13.477,5.717-29.557,12.507-43.034,18.224-10.873-5.615-30.016-15.417-40.737-20.93L193.11,79.177C200.308,82.9,226.6,96.38,233.847,100.107Z" transform="translate(-83.327 -10.268)" fill="#3a4668"/>
    <path id="Trazado_1173027" data-name="Trazado 1173027" d="M194.427,79.933,151.7,98.31l-1.48-.766L193.2,79.32Z" transform="translate(-83.419 -10.36)" fill="#4e5f84"/>
    <path id="Trazado_1173028" data-name="Trazado 1173028" d="M189.8,117.9a.46.46,0,0,1-.255-.051l-40.737-20.93a.562.562,0,0,1-.306-.511.614.614,0,0,1,.357-.511l43.034-18.224a.709.709,0,0,1,.46,0l40.737,20.93a.562.562,0,0,1,.306.511.615.615,0,0,1-.357.511L190,117.852C189.953,117.9,189.851,117.954,189.8,117.9ZM150.441,96.514,189.85,116.78l41.656-17.663L192.1,78.851Z" transform="translate(-82.314 -9.278)" fill="#22213f"/>
    <path id="Trazado_1173029" data-name="Trazado 1173029" d="M255.554,124.937l-.511,11.077-28.128-1.276c0-.357.562-10.465.511-11.077,2.3-5.258,25.269-1.889,28.026.459C255.452,124.171,255.554,124.835,255.554,124.937Z" transform="translate(-132.754 -37.089)" fill="#3a4668"/>
    <path id="Trazado_1173030" data-name="Trazado 1173030" d="M255.411,124.534s-12.4-4.492-24.708-.919a2.018,2.018,0,0,0-1.43,1.787l-.408,9.24-2.093-.1s.511-10.975.511-11.077c.1-1.889,6.432-3.114,14.243-2.757A38.072,38.072,0,0,1,255.411,124.534Z" transform="translate(-132.662 -36.941)" fill="#4e5f84"/>
    <path id="Trazado_1173031" data-name="Trazado 1173031" d="M253.888,135.495l-28.128-1.276a.579.579,0,0,1-.562-.613l.51-11.077c.1-2.6,7.555-3.625,14.8-3.267,7.249.306,14.549,2.042,14.447,4.594l-.511,11.077a.535.535,0,0,1-.562.562Zm-27.515-2.4,27,1.225.459-10.516c.051-.97-4.492-3.012-13.375-3.42s-13.579,1.225-13.63,2.2Z" transform="translate(-131.65 -36.007)" fill="#22213f"/>
    <path id="Trazado_1173032" data-name="Trazado 1173032" d="M372.813,140.246a.585.585,0,0,1-.664-.357c-4.748-14.345-8.117-16.54-9.342-16.795a1.109,1.109,0,0,0-1.021.2.577.577,0,0,1-.817-.817,2.226,2.226,0,0,1,2.093-.511c3.165.715,6.585,6.636,10.158,17.561A.563.563,0,0,1,372.813,140.246Z" transform="translate(-218.873 -37.747)" fill="#22213f"/>
    <path id="Trazado_1173033" data-name="Trazado 1173033" d="M401.809,175.883a6.794,6.794,0,0,1-4.8,4.594,6.29,6.29,0,0,1-1.991.2s-3.931-8.423-1.889-9.852a.551.551,0,0,1,.357-.153,3.643,3.643,0,0,1,2.4.613,31.9,31.9,0,0,1,5.922,4.595Z" transform="translate(-239.293 -69.095)" fill="#f9c710"/>
    <path id="Trazado_1173034" data-name="Trazado 1173034" d="M406.275,176.975a6.794,6.794,0,0,1-4.8,4.594,6.291,6.291,0,0,1-1.991.2s6.534-2.808.868-9.444A33.646,33.646,0,0,1,406.275,176.975Z" transform="translate(-243.759 -70.187)" fill="#f8a01f"/>
    <path id="Trazado_1173035" data-name="Trazado 1173035" d="M396.141,179.89a7.3,7.3,0,0,1-2.144.2.677.677,0,0,1-.51-.306c-.715-1.48-4.033-8.933-1.736-10.567s8.219,3.982,9.393,5.156a.576.576,0,0,1,.153.562A7.124,7.124,0,0,1,396.141,179.89Zm-1.736-.868a6.108,6.108,0,0,0,5.768-4.084c-3.012-2.859-6.687-5.462-7.708-4.748C391.444,170.855,392.669,175.245,394.405,179.022Z" transform="translate(-238.27 -67.998)" fill="#a55a0f"/>
    <path id="Trazado_1173036" data-name="Trazado 1173036" d="M399.568,182.63a.553.553,0,0,1-.613-.255c-1.225-1.991-4.033-6.84-3.676-8.219a.82.82,0,0,1,.408-.562c1.021-.562,3.42,1.43,7.1,6.024a.582.582,0,0,1-.919.715c-1.991-2.45-4.543-5.1-5.513-5.615.2,1.123,1.889,4.339,3.522,7.045a.533.533,0,0,1-.2.766.11.11,0,0,1-.1.1Z" transform="translate(-241.034 -70.942)" fill="#a55a0f"/>
    <path id="Trazado_1173037" data-name="Trazado 1173037" d="M101.853,196.155a13.9,13.9,0,0,0,13.885,13.885h.511a13.888,13.888,0,0,0,13.375,10.107,13.537,13.537,0,0,0,6.994-1.889,13.921,13.921,0,0,0,11.231,5.717,13.762,13.762,0,0,0,9.444-3.727,13.877,13.877,0,0,0,20.215-1.378,13.916,13.916,0,0,0,18.327-6.534,7.387,7.387,0,0,0,.459-1.123c.357.051.766.153,1.123.2.51.051,1.072.1,1.634.1a13.887,13.887,0,0,0,12.507-7.861,14.03,14.03,0,0,0-.408-12.915,13.768,13.768,0,0,0,2.91-8.525,13.98,13.98,0,0,0-10.21-13.426,13.588,13.588,0,0,0,.511-3.829,13.9,13.9,0,0,0-13.885-13.885,14.186,14.186,0,0,0-5.513,1.123,13.943,13.943,0,0,0-13.732-11.741,14.547,14.547,0,0,0-11.435,5.564,13.888,13.888,0,0,0-25.831,5.769,13.879,13.879,0,0,0-18.275,13.171v.357a14,14,0,0,0-3.012,1.072,13.841,13.841,0,0,0-7.81,12.507,13.646,13.646,0,0,0,1.736,6.738,13.964,13.964,0,0,0-4.748,10.515Z" transform="translate(-52.308 -48.835)" fill="#fc9db8"/>
    <path id="Trazado_1173038" data-name="Trazado 1173038" d="M119.883,189.814A13.9,13.9,0,0,0,133.768,203.7h.511a13.888,13.888,0,0,0,13.375,10.107,13.537,13.537,0,0,0,6.994-1.889,13.921,13.921,0,0,0,11.231,5.717,13.762,13.762,0,0,0,9.444-3.727,13.877,13.877,0,0,0,20.215-1.378,13.865,13.865,0,0,0,5.82,1.276,14.148,14.148,0,0,0,6.075-1.378c.562-.255-.051-.817.459-1.123,2.4-1.583,5.411-3.676,6.432-6.381a12.216,12.216,0,0,0,3.063.255,14.514,14.514,0,0,0,5.768-1.378,14.028,14.028,0,0,0-.408-12.915,13.768,13.768,0,0,0,2.91-8.525,13.98,13.98,0,0,0-10.21-13.426,13.587,13.587,0,0,0,.511-3.829,13.9,13.9,0,0,0-13.885-13.885,14.186,14.186,0,0,0-5.513,1.123,13.9,13.9,0,0,0-24.861-6.177h-.306a13.888,13.888,0,0,0-25.831,5.769,13.879,13.879,0,0,0-18.275,13.171v.357a14,14,0,0,0-3.012,1.072,14.143,14.143,0,0,0-1.378,6.075,13.646,13.646,0,0,0,1.736,6.738,13.951,13.951,0,0,0-4.748,10.465Z" transform="translate(-63.905 -48.926)" fill="#ffa6bd"/>
    <path id="Trazado_1173039" data-name="Trazado 1173039" d="M140.775,165.015c4.645-15.008,19.3-10.822,19.3-10.822a14.424,14.424,0,0,1,10.363-10.363c8.729-2.348,14.243,5.258,14.243,5.258a15.279,15.279,0,0,1,12.252-4.135c7.657.817,10.72,10.72,10.72,10.72a18.772,18.772,0,0,1,13.834,1.583c7.3,3.829,5.564,14.243,5.564,14.243,14.651,7.657,9.342,19.092,9.291,19.245a13.768,13.768,0,0,0,2.91-8.525,13.98,13.98,0,0,0-10.21-13.426,13.588,13.588,0,0,0,.511-3.829,13.9,13.9,0,0,0-13.885-13.885,14.186,14.186,0,0,0-5.513,1.123,13.9,13.9,0,0,0-24.861-6.177h-.306a13.888,13.888,0,0,0-25.831,5.769,13.879,13.879,0,0,0-4.39-.715A14.03,14.03,0,0,0,140.775,165.015Z" transform="translate(-77.344 -48.835)" fill="#ffb8cc"/>
    <path id="Trazado_1173040" data-name="Trazado 1173040" d="M232.307,285.587c-2.091-2.984-.55-6.968.041-8.15-3.88-3.063-6.075-6.483-6.534-10.056a11.831,11.831,0,0,1,1.889-7.759c-5.36-5.973.153-13.12.2-13.171a.435.435,0,0,1,.664.562c-.2.255-5.258,6.84-.051,12.3a.535.535,0,0,1,.051.613,11.163,11.163,0,0,0-1.94,7.453c.408,3.471,2.6,6.687,6.483,9.7a.466.466,0,0,1,.1.562c0,.05-2.347,4.506-.266,7.523a.38.38,0,0,1-.09.517A.389.389,0,0,1,232.307,285.587Z" transform="translate(-131.754 -117.763)" fill="#ed7e97"/>
    <path id="Trazado_1173041" data-name="Trazado 1173041" d="M165.833,229.752c-2.348,5.513-.51,11.588,4.084,13.528s10.21-.919,12.558-6.432.511-11.588-4.084-13.528c-4.543-1.939-10.21.919-12.558,6.433Z" transform="translate(-92.805 -102.597)" fill="#fff"/>
    <path id="Trazado_1173042" data-name="Trazado 1173042" d="M172.19,243.5a7.726,7.726,0,0,1-3.216-.664,8.785,8.785,0,0,1-4.9-5.717,12.905,12.905,0,0,1,6.279-14.651,8.661,8.661,0,0,1,7.5-.408c4.8,2.042,6.738,8.372,4.288,14.141a12.115,12.115,0,0,1-5.666,6.228A9.52,9.52,0,0,1,172.19,243.5Zm-6.687-14.4a11.845,11.845,0,0,0-.562,7.81,7.861,7.861,0,0,0,4.39,5.156,7.687,7.687,0,0,0,6.738-.408,11.546,11.546,0,0,0,5.258-5.82c2.246-5.258.511-11.077-3.829-12.915a7.861,7.861,0,0,0-6.738.408,10.823,10.823,0,0,0-5.258,5.769Z" transform="translate(-92.016 -101.748)" fill="#bf4b6f"/>
    <ellipse id="Elipse_14471" data-name="Elipse 14471" cx="6.79" cy="5.871" rx="6.79" ry="5.871" transform="matrix(0.16, -0.987, 0.987, 0.16, 75.819, 137.545)" fill="#22213f"/>
    <path id="Trazado_1173043" data-name="Trazado 1173043" d="M199.581,243.924a1.965,1.965,0,1,1-2.45-.868A1.89,1.89,0,0,1,199.581,243.924Z" transform="translate(-112.77 -115.594)" fill="#fff"/>
    <path id="Trazado_1173044" data-name="Trazado 1173044" d="M201.259,184.686c-2.961,1.021-5.768.766-6.228-.562-.46-1.378,1.532-3.318,4.492-4.339s5.768-.766,6.228.562C206.211,181.726,204.22,183.665,201.259,184.686Z" transform="translate(-112.202 -74.581)" fill="#ed7e97"/>
    <path id="Trazado_1173045" data-name="Trazado 1173045" d="M196.914,184.937a2.912,2.912,0,0,1-.664-.051c-1.378-.1-2.3-.664-2.553-1.481-.562-1.634,1.532-3.778,4.8-4.952,3.267-1.123,6.228-.766,6.84.868.562,1.634-1.532,3.778-4.8,4.952A12.137,12.137,0,0,1,196.914,184.937Zm5.156-6.228a10.662,10.662,0,0,0-3.267.613c-2.91,1.021-4.594,2.808-4.237,3.778.153.46.817.817,1.787.868a9.164,9.164,0,0,0,3.88-.613c2.91-1.021,4.594-2.808,4.237-3.778C204.265,179.067,203.346,178.709,202.07,178.709Z" transform="translate(-111.328 -73.709)" fill="#bf4b6f"/>
    <path id="Trazado_1173046" data-name="Trazado 1173046" d="M266.176,191.372c-2.91-1.225-4.8-3.318-4.237-4.645s3.369-1.43,6.279-.2,4.8,3.318,4.237,4.645C271.842,192.5,269.086,192.6,266.176,191.372Z" transform="translate(-155.219 -78.765)" fill="#ed7e97"/>
    <path id="Trazado_1173047" data-name="Trazado 1173047" d="M269.1,191.793a11.241,11.241,0,0,1-3.982-.868,10.44,10.44,0,0,1-3.573-2.4,2.883,2.883,0,0,1-.919-2.859c.357-.817,1.276-1.276,2.655-1.327a9.443,9.443,0,0,1,4.186.919,10.44,10.44,0,0,1,3.573,2.4,2.883,2.883,0,0,1,.919,2.859C271.6,191.385,270.526,191.793,269.1,191.793Zm-5.564-6.534h-.2c-.97.051-1.685.306-1.838.766-.2.46.051,1.174.715,1.889a9.823,9.823,0,0,0,3.267,2.144c2.859,1.225,5.258.97,5.666.051.2-.459-.051-1.174-.715-1.889a9.319,9.319,0,0,0-3.267-2.144A10.21,10.21,0,0,0,263.533,185.259Z" transform="translate(-154.362 -77.91)" fill="#bf4b6f"/>
    <g id="Grupo_1222188" data-name="Grupo 1222188" transform="translate(60.613 99.967)">
      <path id="Trazado_1173048" data-name="Trazado 1173048" d="M293.71,170.3a.342.342,0,0,1-.357-.2,6.8,6.8,0,0,0-8.372-2.3.469.469,0,1,1-.357-.868c5.871-2.5,9.393,2.553,9.444,2.6a.417.417,0,0,1-.1.613A.28.28,0,0,1,293.71,170.3Z" transform="translate(-230.298 -166.234)" fill="#ed7e97"/>
      <path id="Trazado_1173049" data-name="Trazado 1173049" d="M296.744,331.472h-.306a.462.462,0,1,1,.1-.919,4.353,4.353,0,0,0,4.543-3.114.452.452,0,0,1,.868.255A5.217,5.217,0,0,1,296.744,331.472Z" transform="translate(-237.824 -269.723)" fill="#ed7e97"/>
      <path id="Trazado_1173050" data-name="Trazado 1173050" d="M201.073,346.634a5.5,5.5,0,0,1-4.339-2.4.446.446,0,0,1,.766-.46,4.367,4.367,0,0,0,5.258,1.634.436.436,0,0,1,.306.817,6.021,6.021,0,0,1-1.991.408Z" transform="translate(-173.905 -280.291)" fill="#ed7e97"/>
      <path id="Trazado_1173051" data-name="Trazado 1173051" d="M349.61,283.09a.388.388,0,0,1-.408-.306.416.416,0,0,1,.255-.562,4.258,4.258,0,0,0,2.655-4.8.441.441,0,1,1,.868-.153,5.271,5.271,0,0,1-3.267,5.82h-.1Z" transform="translate(-272.006 -237.421)" fill="#ed7e97"/>
      <path id="Trazado_1173052" data-name="Trazado 1173052" d="M161.218,297.609a5.283,5.283,0,0,1-5-4.441.462.462,0,0,1,.919-.1,4.28,4.28,0,0,0,4.135,3.676.391.391,0,0,1,.408.459.45.45,0,0,1-.459.408Z" transform="translate(-147.883 -247.55)" fill="#ed7e97"/>
      <path id="Trazado_1173053" data-name="Trazado 1173053" d="M133.549,216.672a.388.388,0,0,1-.408-.306,6.988,6.988,0,0,1,.511-5.1,7.137,7.137,0,0,1,4.492-3.267,7.127,7.127,0,0,1,7.1-6.33.435.435,0,0,1,.051.868c-6.024.357-6.279,5.564-6.279,5.768a.433.433,0,0,1-.357.408,5.713,5.713,0,0,0-4.646,7.3.44.44,0,0,1-.306.562C133.651,216.672,133.6,216.672,133.549,216.672Z" transform="translate(-132.875 -189.024)" fill="#ed7e97"/>
      <path id="Trazado_1173054" data-name="Trazado 1173054" d="M285.29,342.972A6.831,6.831,0,0,1,281,341.134a.435.435,0,1,1,.562-.664,5.6,5.6,0,0,0,4.288,1.583,5.381,5.381,0,0,0,3.114-2.042.486.486,0,0,1,.51-.2c5.36,1.43,7.2-3.676,7.249-3.88a.436.436,0,0,1,.817.306c0,.051-2.144,5.871-8.015,4.543a5.877,5.877,0,0,1-3.522,2.2h-.715Z" transform="translate(-228.055 -275.2)" fill="#ed7e97"/>
      <path id="Trazado_1173055" data-name="Trazado 1173055" d="M137.535,248.181a.445.445,0,0,1-.408-.306c0-.1-2.246-8.015,4.543-10.21a.409.409,0,0,1,.562.306.44.44,0,0,1-.306.562c-5.922,1.889-4.033,8.78-3.931,9.086a.44.44,0,0,1-.306.562Z" transform="translate(-135.381 -212.161)" fill="#ed7e97"/>
    </g>
    <path id="Trazado_1173056" data-name="Trazado 1173056" d="M230.786,285.947c6.483-1.685,7.912-7.555,6.994-10.465a2.381,2.381,0,0,0-1.021-1.43c-2.553-1.532-3.88,1.685-8.321,2.859-4.492,1.123-7.147-1.021-8.678,1.532a2.385,2.385,0,0,0-.153,1.736C220.219,283.089,224.2,287.632,230.786,285.947Z" transform="translate(-127.997 -135.36)" fill="#22213f"/>
    <path id="Trazado_1173057" data-name="Trazado 1173057" d="M219.367,279.525c2.2,1.021,5.871,1.327,9.75.306a15.675,15.675,0,0,0,8.423-4.952c-.2-.664-.408-.715-.868-.97-2.553-1.532-3.88,1.685-8.321,2.859-4.492,1.123-7.147-1.021-8.678,1.532A1.109,1.109,0,0,0,219.367,279.525Z" transform="translate(-127.86 -135.268)" fill="#fff"/>
    <path id="Trazado_1173058" data-name="Trazado 1173058" d="M227.206,286a9.735,9.735,0,0,1-5-1.378,8.8,8.8,0,0,1-3.88-5.156,2.948,2.948,0,0,1,.2-2.042c1.021-1.685,2.553-1.583,4.288-1.481a13.551,13.551,0,0,0,4.645-.255,12.8,12.8,0,0,0,4.186-1.991c1.481-.97,2.757-1.787,4.492-.766a3.045,3.045,0,0,1,1.174,1.685,8.421,8.421,0,0,1-.868,6.279,9.8,9.8,0,0,1-6.432,4.748,11.129,11.129,0,0,1-2.807.357Zm2.655-1.225.1.46-.1-.46a8.818,8.818,0,0,0,5.871-4.339,7.514,7.514,0,0,0,.817-5.564,1.937,1.937,0,0,0-.817-1.174c-1.174-.715-1.991-.255-3.522.766a14.749,14.749,0,0,1-4.492,2.144,14.333,14.333,0,0,1-4.952.306c-1.838-.153-2.757-.153-3.471,1.021a2.111,2.111,0,0,0-.1,1.43,7.6,7.6,0,0,0,3.471,4.594A9.8,9.8,0,0,0,229.86,284.776Z" transform="translate(-127.173 -134.598)" fill="#bf4b6f"/>
    <path id="Trazado_1173059" data-name="Trazado 1173059" d="M285.238,247.226a.446.446,0,0,1-.2-.05c-7.112-3.67-15.153-.029-15.233.008a.446.446,0,0,1-.534-.685,17.4,17.4,0,0,1,6.636-4.8.446.446,0,0,1,.316.834,17.446,17.446,0,0,0-4.965,3.158c2.885-.922,8.712-2.131,14.189.7a.446.446,0,0,1-.2.843Z" transform="translate(-159.933 -114.789)" fill="#22213f"/>
    <path id="Trazado_1173060" data-name="Trazado 1173060" d="M165.931,223.616a14.377,14.377,0,0,1-9.441-3.572,14.2,14.2,0,0,1-9.447,3.572,14.454,14.454,0,0,1-11.348-5.58,14.073,14.073,0,0,1-6.876,1.751,14.376,14.376,0,0,1-13.708-10.107h-.177a14.372,14.372,0,0,1-9.7-24.942,14.4,14.4,0,0,1,9.2-20.57v-.009A14.326,14.326,0,0,1,132.773,150.4a14.336,14.336,0,0,1,26.265-5.957,15.08,15.08,0,0,1,11.387-5.234A14.315,14.315,0,0,1,184.5,150.779a14.7,14.7,0,0,1,5.172-.951,14.433,14.433,0,0,1,13.92,17.855,14.433,14.433,0,0,1,10.111,13.73,14.138,14.138,0,0,1-2.827,8.567,14.47,14.47,0,0,1,.283,13.064,14.243,14.243,0,0,1-12.91,8.117c-.582,0-1.148-.052-1.678-.1-.206-.029-.407-.069-.607-.109l-.167-.033c-.068.177-.146.342-.218.495-.047.1-.094.2-.136.3a14.359,14.359,0,0,1-18.611,6.9A14.319,14.319,0,0,1,165.931,223.616ZM156.487,219a.445.445,0,0,1,.3.117,13.431,13.431,0,0,0,19.569-1.332.447.447,0,0,1,.53-.123,13.471,13.471,0,0,0,17.741-6.324c.037-.088.088-.2.139-.306a4.065,4.065,0,0,0,.288-.73.443.443,0,0,1,.5-.334c.186.026.384.066.583.106.184.037.367.074.539.1.489.048,1.03.1,1.571.1a13.357,13.357,0,0,0,12.106-7.609,13.586,13.586,0,0,0-.4-12.506.446.446,0,0,1,.039-.49,13.251,13.251,0,0,0,2.815-8.25,13.536,13.536,0,0,0-9.883-13,.445.445,0,0,1-.309-.554,13.052,13.052,0,0,0,.493-3.7A13.454,13.454,0,0,0,189.67,150.72a13.786,13.786,0,0,0-5.339,1.088.446.446,0,0,1-.615-.34A13.433,13.433,0,0,0,170.425,140.1a14.108,14.108,0,0,0-11.08,5.388.446.446,0,0,1-.741-.045,13.442,13.442,0,0,0-25,5.583.446.446,0,0,1-.585.385A13.433,13.433,0,0,0,115.33,164.16v.357a.446.446,0,0,1-.343.434,13.5,13.5,0,0,0-2.915,1.037,13.482,13.482,0,0,0-5.886,18.627.446.446,0,0,1-.095.555,13.48,13.48,0,0,0,8.843,23.619h.511a.447.447,0,0,1,.43.325A13.477,13.477,0,0,0,128.82,218.9a13.131,13.131,0,0,0,6.764-1.825.446.446,0,0,1,.589.118,13.562,13.562,0,0,0,10.871,5.536,13.312,13.312,0,0,0,9.139-3.606.441.441,0,0,1,.3-.121Z" transform="translate(-51.503 -48.029)" fill="#bf4b6f"/>
    <path id="Trazado_1173061" data-name="Trazado 1173061" d="M369.4,238.183c-.613,5.82,12.4,5.156,22.87-2.5,6.483-5.258,10.618-13.324,12.3-24.044.408-2.706,1.531-7.249-2.4-7.708a3.249,3.249,0,0,0-3.522,2.91c-.868,10.516-4.543,19.194-10.465,23.84-9.137,7.76-17.969,1.889-18.786,7.5Z" transform="translate(-224.392 -90.506)" fill="#ed7e97"/>
    <path id="Trazado_1173062" data-name="Trazado 1173062" d="M453.087,194.488a1.507,1.507,0,0,0,1.174.817,1.736,1.736,0,0,0,1.021-.153,10.144,10.144,0,0,0,5.054-8.729v-.2a1.635,1.635,0,0,0-1.634-1.583,1.425,1.425,0,0,0-.919.306,1.62,1.62,0,0,0-.664,1.327,6.9,6.9,0,0,1-3.369,6.024A1.6,1.6,0,0,0,453.087,194.488Z" transform="translate(-278.115 -78.104)" fill="#ed7e97"/>
    <path id="Trazado_1173063" data-name="Trazado 1173063" d="M466.6,184.941s2.2.919,1.736,5.1l.817-3.625v-.2a1.635,1.635,0,0,0-1.634-1.583,1.428,1.428,0,0,0-.919.306Z" transform="translate(-286.928 -78.103)" fill="#f490aa"/>
    <path id="Trazado_1173064" data-name="Trazado 1173064" d="M453.53,194.936h-.051A2.024,2.024,0,0,1,452,193.864a2.125,2.125,0,0,1-.153-1.583,2.017,2.017,0,0,1,1.021-1.225,6.479,6.479,0,0,0,3.114-5.615,2.224,2.224,0,0,1,.562-1.48,1.932,1.932,0,0,1,1.43-.613,2.224,2.224,0,0,1,1.48.562,1.932,1.932,0,0,1,.613,1.43,9.84,9.84,0,0,1-.051,1.225.462.462,0,1,1-.919-.1,8.274,8.274,0,0,0,.051-1.123,1.2,1.2,0,0,0-.357-.817,1.16,1.16,0,0,0-.817-.306,1.2,1.2,0,0,0-.817.357,1.16,1.16,0,0,0-.306.817,7.351,7.351,0,0,1-3.573,6.432,1.412,1.412,0,0,0-.562.664,1.03,1.03,0,0,0,.1.868,1.124,1.124,0,0,0,.817.613.421.421,0,0,1,.357.511.49.49,0,0,1-.46.459Z" transform="translate(-277.384 -77.275)" fill="#bf4b6f"/>
    <path id="Trazado_1173065" data-name="Trazado 1173065" d="M450.772,200.7c-.306-.153-.766-.408-1.532-2.6a14.942,14.942,0,0,1-.817-4.39,1.608,1.608,0,0,1,3.216-.051,11.339,11.339,0,0,0,1.174,4.645,1.631,1.631,0,0,1-1.532,2.6A1.519,1.519,0,0,1,450.772,200.7Z" transform="translate(-275.239 -82.89)" fill="#ed7e97"/>
    <path id="Trazado_1173066" data-name="Trazado 1173066" d="M455.716,196.667a1.528,1.528,0,0,0,1.327,1.43,1.1,1.1,0,0,0,.409,0,7.9,7.9,0,0,0,6.789-4.288,1.115,1.115,0,0,1,.153-.255,9.519,9.519,0,0,0,.817-3.471,1.6,1.6,0,0,0-1.634-1.583,1.815,1.815,0,0,0-.511.1,1.593,1.593,0,0,0-1.123,1.532,4.791,4.791,0,0,1-4.748,4.8,1.61,1.61,0,0,0-1.48,1.735Z" transform="translate(-279.928 -80.589)" fill="#ed7e97"/>
    <path id="Trazado_1173067" data-name="Trazado 1173067" d="M476.591,194.421l.919-.868a9.519,9.519,0,0,0,.817-3.471,1.6,1.6,0,0,0-1.634-1.583,1.815,1.815,0,0,0-.511.1C476.285,188.6,477.715,190.439,476.591,194.421Z" transform="translate(-293.095 -80.589)" fill="#f490aa"/>
    <path id="Trazado_1173068" data-name="Trazado 1173068" d="M460.546,204.562a1.626,1.626,0,0,0,1.327,1.378,1.389,1.389,0,0,0,.46,0,8.349,8.349,0,0,0,2.348-.613,10.094,10.094,0,0,0,5.768-6.228,1.6,1.6,0,0,0-3.063-.919,6.828,6.828,0,0,1-5.462,4.543A1.646,1.646,0,0,0,460.546,204.562Z" transform="translate(-283.022 -86.085)" fill="#ed7e97"/>
    <path id="Trazado_1173069" data-name="Trazado 1173069" d="M472.177,205.447a10.094,10.094,0,0,0,5.768-6.228,1.612,1.612,0,0,0-1.072-1.991S477.282,201.567,472.177,205.447Z" transform="translate(-290.518 -86.204)" fill="#f490aa"/>
    <path id="Trazado_1173070" data-name="Trazado 1173070" d="M470.272,192.047a.423.423,0,0,1-.093-.537,4.759,4.759,0,0,0,.625-2.257,2.048,2.048,0,0,1,2.042-2.042,2.092,2.092,0,0,1,2.093,2.042,7.255,7.255,0,0,1-.255,1.838c-.051.255-.183-.063-.438-.114s-.532.165-.481-.09a7.35,7.35,0,0,0,.2-1.634,1.145,1.145,0,0,0-1.174-1.123,1.187,1.187,0,0,0-1.174,1.174,5.716,5.716,0,0,1-.7,2.629.427.427,0,0,1-.648.114Z" transform="translate(-289.195 -79.76)" fill="#bf4b6f"/>
    <path id="Trazado_1173071" data-name="Trazado 1173071" d="M369.395,252.012a3.2,3.2,0,0,0,2.655,3.573h.1a28.628,28.628,0,0,0,20.062-6.126c6.483-5.258,10.618-13.324,12.3-24.044-2.144,8.219-8.168,21.491-18.428,25.678-10.158,4.186-14.345-1.685-14.447-1.787A3.354,3.354,0,0,0,369.395,252.012Z" transform="translate(-224.388 -104.336)" fill="#e26988"/>
    <path id="Trazado_1173072" data-name="Trazado 1173072" d="M384.175,242.445c13.324,2.553,20.062-7.1,22.41-13.783a36.766,36.766,0,0,0,1.532-13.834c-1.123,10.516-4.594,18.224-10.363,22.819A22.564,22.564,0,0,1,384.175,242.445Z" transform="translate(-233.911 -97.525)" fill="#f490aa"/>
    <path id="Trazado_1173073" data-name="Trazado 1173073" d="M411.178,193.791a2.116,2.116,0,0,0-1.225-.97A2.075,2.075,0,0,0,407.4,194.2a5.928,5.928,0,0,1-1.06,1.931.426.426,0,0,0,.057.59l.008.007a.43.43,0,0,0,.616-.066,7.847,7.847,0,0,0,1.246-2.258,1.15,1.15,0,0,1,1.43-.766,1.321,1.321,0,0,1,.715.562,1.03,1.03,0,0,1,.1.868,9.625,9.625,0,0,1-6.738,6.279.427.427,0,0,0-.273.273.188.188,0,0,0-.03.08v.011c0,.007,0,.014,0,.022-1.586,11.113-5.824,19.887-12.4,25.191a28.263,28.263,0,0,1-19.7,6.024h-.1a2.708,2.708,0,0,1-2.3-3.063,2.97,2.97,0,0,1,1.072-1.838,2.678,2.678,0,0,1,2.042-.562,22.974,22.974,0,0,0,15.57-4.85c6.024-4.85,9.6-12.966,10.618-24.146a.646.646,0,0,0-.026-.178h0c0-.017-.012-.033-.018-.05-.1-.256-.214-.65-.31-.985,0-.008,0-.016-.008-.024a14.151,14.151,0,0,1-.812-4.226,1.16,1.16,0,0,1,.306-.817,1.2,1.2,0,0,1,.817-.357,1.16,1.16,0,0,1,.817.306,1.2,1.2,0,0,1,.357.817,10.242,10.242,0,0,0,.409,2.706.452.452,0,1,0,.868-.255,11.348,11.348,0,0,1-.357-2.5,1.932,1.932,0,0,0-.613-1.43,2.224,2.224,0,0,0-1.481-.562,1.932,1.932,0,0,0-1.43.613,2.224,2.224,0,0,0-.562,1.481,15.906,15.906,0,0,0,.868,4.492,6.1,6.1,0,0,0,.21.589.432.432,0,0,1,.029.2c-.991,10.836-4.456,18.942-10.245,23.613a22.058,22.058,0,0,1-14.906,4.645,3.684,3.684,0,0,0-2.706.766,3.687,3.687,0,0,0,1.685,6.534h.153c.1,0,.919.1,2.2.1a29.007,29.007,0,0,0,18.173-6.38c6.716-5.4,10.934-13.938,12.555-25.092a.427.427,0,0,1,.3-.345,10.644,10.644,0,0,0,6.8-6.775A2.1,2.1,0,0,0,411.178,193.791Z" transform="translate(-223.547 -82.154)" fill="#bf4b6f"/>
    <path id="Trazado_1173074" data-name="Trazado 1173074" d="M165.732,342.7a7.25,7.25,0,0,1-6.978-4.67.446.446,0,0,1,.849-.271c.073.226,1.874,5.52,8.939,3.653a.446.446,0,0,1,.228.863,11.919,11.919,0,0,1-3.039.426Z" transform="translate(-88.895 -176.401)" fill="#ed7e97"/>
    <path id="Trazado_1173075" data-name="Trazado 1173075" d="M231.71,186.471a.446.446,0,0,1-.43-.327c-2.593-9.405,3.407-12.617,4.95-13.273-.346-3.234.216-5.677,1.673-7.265a5.783,5.783,0,0,1,4.187-1.824.446.446,0,0,1-.033.891,4.958,4.958,0,0,0-3.506,1.545c-1.316,1.443-1.786,3.761-1.4,6.887a.446.446,0,0,1-.31.481c-.3.1-7.419,2.473-4.705,12.319a.446.446,0,0,1-.311.548.436.436,0,0,1-.118.016Z" transform="translate(-135.149 -64.689)" fill="#ed7e97"/>
    <path id="Trazado_1173076" data-name="Trazado 1173076" d="M340.256,211.794h-.015a.446.446,0,0,1-.431-.46c.215-6.791-4.9-7.035-5.115-7.042a.446.446,0,0,1-.422-.354c-1.438-6.818-6.829-5.924-7.057-5.883a.446.446,0,0,1-.162-.877c.064-.012,6.295-1.079,8.021,6.26,1.313.191,5.835,1.33,5.626,7.925A.446.446,0,0,1,340.256,211.794Z" transform="translate(-196.934 -86.133)" fill="#ed7e97"/>
  </g>
</svg>
