<svg xmlns="http://www.w3.org/2000/svg" xmlns:xlink="http://www.w3.org/1999/xlink" width="108" height="108" viewBox="0 0 108 108">
  <defs>
    <filter id="Trazado_978624" x="0" y="0" width="108" height="108" filterUnits="userSpaceOnUse">
      <feOffset dy="3" input="SourceAlpha"/>
      <feGaussianBlur stdDeviation="3" result="blur"/>
      <feFlood flood-opacity="0.161"/>
      <feComposite operator="in" in2="blur"/>
      <feComposite in="SourceGraphic"/>
    </filter>
    <filter id="Trazado_1076716" x="0" y="0" width="108" height="108" filterUnits="userSpaceOnUse">
      <feOffset dy="3" input="SourceAlpha"/>
      <feGaussianBlur stdDeviation="3" result="blur-2"/>
      <feFlood flood-opacity="0.161"/>
      <feComposite operator="in" in2="blur-2"/>
      <feComposite in="SourceGraphic"/>
    </filter>
  </defs>
  <g id="Grupo_1222276" data-name="Grupo 1222276" transform="translate(-197 -2714.5)">
    <g id="Grupo_1221331" data-name="Grupo 1221331" transform="translate(-420 1803.198)">
      <g id="Grupo_1220010" data-name="Grupo 1220010" transform="translate(0 -2573.698)">
        <g id="Grupo_1208078" data-name="Grupo 1208078" transform="translate(1 2999)">
          <g id="Grupo_1181203" data-name="Grupo 1181203" transform="translate(625 492)">
            <g id="Grupo_1172348" data-name="Grupo 1172348" transform="translate(0)">
              <g id="Grupo_1171897" data-name="Grupo 1171897">
                <g id="Grupo_1171052" data-name="Grupo 1171052">
                  <g id="Grupo_1164581" data-name="Grupo 1164581">
                    <g id="Grupo_1144123" data-name="Grupo 1144123">
                      <g transform="matrix(1, 0, 0, 1, -9, -6)" filter="url(#Trazado_978624)">
                        <g id="Trazado_978624-2" data-name="Trazado 978624" transform="translate(9 6)" fill="#fbf3fb">
                          <path d="M 45 88.5 C 39.12687683105469 88.5 33.43022537231445 87.35007476806641 28.06830024719238 85.08217620849609 C 22.88852500915527 82.89131164550781 18.23629951477051 79.75458526611328 14.2408504486084 75.75914764404297 C 10.24541282653809 71.76370239257812 7.108687400817871 67.11147308349609 4.917825222015381 61.93170166015625 C 2.649924993515015 56.56977462768555 1.5 50.87312316894531 1.5 45 C 1.5 39.12687683105469 2.649924993515015 33.43022537231445 4.917825222015381 28.06830024719238 C 7.108687400817871 22.88852500915527 10.24541282653809 18.23629951477051 14.2408504486084 14.2408504486084 C 18.23629951477051 10.24541282653809 22.88852500915527 7.108687400817871 28.06830024719238 4.917825222015381 C 33.43022537231445 2.649924993515015 39.12687683105469 1.5 45 1.5 C 50.87312316894531 1.5 56.56977462768555 2.649924993515015 61.93170166015625 4.917825222015381 C 67.11147308349609 7.108687400817871 71.76370239257812 10.24541282653809 75.75914764404297 14.2408504486084 C 79.75458526611328 18.23629951477051 82.89131164550781 22.88852500915527 85.08217620849609 28.06830024719238 C 87.35007476806641 33.43022537231445 88.5 39.12687683105469 88.5 45 C 88.5 50.87312316894531 87.35007476806641 56.56977462768555 85.08217620849609 61.93170166015625 C 82.89131164550781 67.11147308349609 79.75458526611328 71.76370239257812 75.75914764404297 75.75914764404297 C 71.76370239257812 79.75458526611328 67.11147308349609 82.89131164550781 61.93170166015625 85.08217620849609 C 56.56977462768555 87.35007476806641 50.87312316894531 88.5 45 88.5 Z" stroke="none"/>
                          <path d="M 45 3 C 39.32871246337891 3 33.82865524291992 4.110054016113281 28.65262985229492 6.299339294433594 C 23.65165710449219 8.414573669433594 19.15968322753906 11.44334411621094 15.301513671875 15.301513671875 C 11.44334411621094 19.15968322753906 8.414573669433594 23.65165710449219 6.299339294433594 28.65262985229492 C 4.110054016113281 33.82865524291992 3 39.32871246337891 3 45 C 3 50.67128753662109 4.110054016113281 56.17134475708008 6.299339294433594 61.34737396240234 C 8.414573669433594 66.34834289550781 11.44334411621094 70.84031677246094 15.301513671875 74.698486328125 C 19.15968322753906 78.55665588378906 23.65165710449219 81.58542633056641 28.65262985229492 83.70066070556641 C 33.82865524291992 85.88994598388672 39.32871246337891 87 45 87 C 50.67128753662109 87 56.17134475708008 85.88994598388672 61.34737396240234 83.70066070556641 C 66.34834289550781 81.58542633056641 70.84031677246094 78.55665588378906 74.698486328125 74.698486328125 C 78.55665588378906 70.84031677246094 81.58542633056641 66.34834289550781 83.70066070556641 61.34737396240234 C 85.88994598388672 56.17134475708008 87 50.67128753662109 87 45 C 87 39.32871246337891 85.88994598388672 33.82865524291992 83.70066070556641 28.65262985229492 C 81.58542633056641 23.65165710449219 78.55665588378906 19.15968322753906 74.698486328125 15.301513671875 C 70.84031677246094 11.44334411621094 66.34834289550781 8.414573669433594 61.34737396240234 6.299339294433594 C 56.17134475708008 4.110054016113281 50.67128753662109 3 45 3 M 45 0 C 69.85281372070312 0 90 20.14718627929688 90 45 C 90 69.85281372070312 69.85281372070312 90 45 90 C 20.14718627929688 90 0 69.85281372070312 0 45 C 0 20.14718627929688 20.14718627929688 0 45 0 Z" stroke="none" fill="#df93dd"/>
                        </g>
                      </g>
                      <g transform="matrix(1, 0, 0, 1, -9, -6)" filter="url(#Trazado_1076716)">
                        <g id="Trazado_1076716-2" data-name="Trazado 1076716" transform="translate(9 6)" fill="#fbf3fb">
                          <path d="M 45 88.5 C 39.12687683105469 88.5 33.43022537231445 87.35007476806641 28.06830024719238 85.08217620849609 C 22.88852500915527 82.89131164550781 18.23629951477051 79.75458526611328 14.2408504486084 75.75914764404297 C 10.24541282653809 71.76370239257812 7.108687400817871 67.11147308349609 4.917825222015381 61.93170166015625 C 2.649924993515015 56.56977462768555 1.5 50.87312316894531 1.5 45 C 1.5 39.12687683105469 2.649924993515015 33.43022537231445 4.917825222015381 28.06830024719238 C 7.108687400817871 22.88852500915527 10.24541282653809 18.23629951477051 14.2408504486084 14.2408504486084 C 18.23629951477051 10.24541282653809 22.88852500915527 7.108687400817871 28.06830024719238 4.917825222015381 C 33.43022537231445 2.649924993515015 39.12687683105469 1.5 45 1.5 C 50.87312316894531 1.5 56.56977462768555 2.649924993515015 61.93170166015625 4.917825222015381 C 67.11147308349609 7.108687400817871 71.76370239257812 10.24541282653809 75.75914764404297 14.2408504486084 C 79.75458526611328 18.23629951477051 82.89131164550781 22.88852500915527 85.08217620849609 28.06830024719238 C 87.35007476806641 33.43022537231445 88.5 39.12687683105469 88.5 45 C 88.5 50.87312316894531 87.35007476806641 56.56977462768555 85.08217620849609 61.93170166015625 C 82.89131164550781 67.11147308349609 79.75458526611328 71.76370239257812 75.75914764404297 75.75914764404297 C 71.76370239257812 79.75458526611328 67.11147308349609 82.89131164550781 61.93170166015625 85.08217620849609 C 56.56977462768555 87.35007476806641 50.87312316894531 88.5 45 88.5 Z" stroke="none"/>
                          <path d="M 45 3 C 39.32871246337891 3 33.82865524291992 4.110054016113281 28.65262985229492 6.299339294433594 C 23.65165710449219 8.414573669433594 19.15968322753906 11.44334411621094 15.301513671875 15.301513671875 C 11.44334411621094 19.15968322753906 8.414573669433594 23.65165710449219 6.299339294433594 28.65262985229492 C 4.110054016113281 33.82865524291992 3 39.32871246337891 3 45 C 3 50.67128753662109 4.110054016113281 56.17134475708008 6.299339294433594 61.34737396240234 C 8.414573669433594 66.34834289550781 11.44334411621094 70.84031677246094 15.301513671875 74.698486328125 C 19.15968322753906 78.55665588378906 23.65165710449219 81.58542633056641 28.65262985229492 83.70066070556641 C 33.82865524291992 85.88994598388672 39.32871246337891 87 45 87 C 50.67128753662109 87 56.17134475708008 85.88994598388672 61.34737396240234 83.70066070556641 C 66.34834289550781 81.58542633056641 70.84031677246094 78.55665588378906 74.698486328125 74.698486328125 C 78.55665588378906 70.84031677246094 81.58542633056641 66.34834289550781 83.70066070556641 61.34737396240234 C 85.88994598388672 56.17134475708008 87 50.67128753662109 87 45 C 87 39.32871246337891 85.88994598388672 33.82865524291992 83.70066070556641 28.65262985229492 C 81.58542633056641 23.65165710449219 78.55665588378906 19.15968322753906 74.698486328125 15.301513671875 C 70.84031677246094 11.44334411621094 66.34834289550781 8.414573669433594 61.34737396240234 6.299339294433594 C 56.17134475708008 4.110054016113281 50.67128753662109 3 45 3 M 45 0 C 69.85281372070312 0 90 20.14718627929688 90 45 C 90 69.85281372070312 69.85281372070312 90 45 90 C 20.14718627929688 90 0 69.85281372070312 0 45 C 0 20.14718627929688 20.14718627929688 0 45 0 Z" stroke="none" fill="#df93dd"/>
                        </g>
                      </g>
                    </g>
                  </g>
                </g>
              </g>
            </g>
          </g>
        </g>
      </g>
    </g>
    <g id="conocimiento_1_" data-name="conocimiento (1)" transform="translate(203.125 2713.739)">
      <g id="Grupo_1222270" data-name="Grupo 1222270" transform="translate(7.744 72.61)">
        <g id="Grupo_1222268" data-name="Grupo 1222268">
          <path id="Trazado_1173437" data-name="Trazado 1173437" d="M81.539,383.07V372.232q-.286-.177-.575-.348A32.292,32.292,0,0,0,59.2,367.943l-17.789,2.977v6.4H62.464C69.454,377.314,75.556,379.689,81.539,383.07Z" transform="translate(-41.408 -367.485)" fill="#eaf0f0"/>
        </g>
        <g id="Grupo_1222269" data-name="Grupo 1222269" transform="translate(40.131)">
          <path id="Trazado_1173438" data-name="Trazado 1173438" d="M256,383.07V372.232q.286-.177.575-.348a32.291,32.291,0,0,1,21.767-3.942l17.789,2.977v6.4H275.075C268.086,377.314,261.983,379.689,256,383.07Z" transform="translate(-256 -367.485)" fill="#eaf0f0"/>
        </g>
      </g>
      <g id="Grupo_1222271" data-name="Grupo 1222271" transform="translate(31.01 6.65)">
        <path id="Trazado_1173439" data-name="Trazado 1173439" d="M196.749,40.967l-.01,0a16.864,16.864,0,1,0-27.543.8c1.29,1.952,4.368,5.46,4.368,12.339h18.257C191.821,48.747,193.679,45.32,196.749,40.967Z" transform="translate(-165.821 -14.779)" fill="#ffce62"/>
      </g>
      <g id="Grupo_1222272" data-name="Grupo 1222272" transform="translate(38.747 45.974)">
        <path id="Trazado_1173440" data-name="Trazado 1173440" d="M216.316,225.056h-9.128v6.093a8.256,8.256,0,0,0,8.132,8.132h1.993a8.256,8.256,0,0,0,8.132-8.132v-6.093Z" transform="translate(-207.188 -225.056)" fill="#bfd8d8"/>
      </g>
      <g id="Grupo_1222273" data-name="Grupo 1222273" transform="translate(43.488 18.911)">
        <path id="Trazado_1173441" data-name="Trazado 1173441" d="M236.926,107.407V97.064A14.239,14.239,0,0,1,239.64,88.7a14.23,14.23,0,0,0,1.234-2.041,4.391,4.391,0,1,0-7.892,0,14.263,14.263,0,0,0,1.232,2.041l0,0a14.238,14.238,0,0,1,2.709,8.355v10.347" transform="translate(-232.54 -80.344)" fill="#eaf0f0"/>
      </g>
      <g id="Grupo_1222274" data-name="Grupo 1222274" transform="translate(1.87 82.439)">
        <path id="Trazado_1173442" data-name="Trazado 1173442" d="M45.969,429.614a7.206,7.206,0,0,1,5.726,2.739,5.437,5.437,0,0,0,8.62,0,7.206,7.206,0,0,1,5.726-2.739H102.01v-9.572H75.08c-7,0-13.075,2.367-19.075,5.756-6-3.388-12.078-5.756-19.075-5.756H10v9.572Z" transform="translate(-10 -420.042)" fill="#e0a083"/>
      </g>
      <g id="Grupo_1222275" data-name="Grupo 1222275" transform="translate(0 4.78)">
        <path id="Trazado_1173443" data-name="Trazado 1173443" d="M160.037,35.437a17.843,17.843,0,0,1,3.521,10.537v6.093a10.136,10.136,0,0,0,10,10h1.993a10.136,10.136,0,0,0,10-10V46.111c.376-5.155,1.46-8,4.723-12.409a18.734,18.734,0,1,0-34.456-10.188C155.822,28.015,157.5,31.818,160.037,35.437Zm21.777,16.63a6.426,6.426,0,0,1-6.262,6.262H173.56a6.426,6.426,0,0,1-6.262-6.262V47.844h14.516Zm-8.457-25.9a12.411,12.411,0,0,1-1.07-1.773,2.521,2.521,0,1,1,4.54,0,12.394,12.394,0,0,1-1.072,1.773,16.259,16.259,0,0,0-1.2,1.919A16.335,16.335,0,0,0,173.358,26.171Zm1.2-17.651a14.993,14.993,0,0,1,12.5,23.28c-2.552,3.828-4.784,7.612-5.159,12.3h-5.468V35.632a12.291,12.291,0,0,1,2.357-7.263,16.146,16.146,0,0,0,1.4-2.309,6.261,6.261,0,1,0-11.244,0,16.171,16.171,0,0,0,1.4,2.313,12.293,12.293,0,0,1,2.353,7.257V44.1h-5.454a22.114,22.114,0,0,0-4.669-11.592A14.994,14.994,0,0,1,174.556,8.52Z" transform="translate(-126.681 -4.78)"/>
        <path id="Trazado_1173444" data-name="Trazado 1173444" d="M93.88,330.658h-4v-4.525a1.87,1.87,0,0,0-1.562-1.845l-17.789-2.976a34.508,34.508,0,0,0-18.289,1.867,19.024,19.024,0,0,1,18.21-6.751l13.919,2.457a1.87,1.87,0,0,0,.65-3.683L71.1,312.744c-8.957-1.582-18.468,2.311-23.222,10.189-4.754-7.878-14.264-11.771-23.222-10.189L10.734,315.2a1.87,1.87,0,1,0,.65,3.683L25.3,316.427a19.008,19.008,0,0,1,18.206,6.749,34.508,34.508,0,0,0-18.286-1.865L7.435,324.288a1.87,1.87,0,0,0-1.562,1.844v4.525h-4A1.87,1.87,0,0,0,0,332.528V342.1a1.87,1.87,0,0,0,1.87,1.87H13.208a1.87,1.87,0,0,0,0-3.74H3.74V334.4H28.8c6.576,0,12.574,2.165,18.155,5.514a2.027,2.027,0,0,0,2.08-.136c5.616-3.17,11.386-5.378,17.915-5.378H92.01v5.832h-34.1A9.119,9.119,0,0,0,50.7,343.7a3.567,3.567,0,0,1-5.656,0,9.119,9.119,0,0,0-7.208-3.468H29.661a1.87,1.87,0,0,0,0,3.74h8.178a5.357,5.357,0,0,1,4.245,2.009,7.307,7.307,0,0,0,11.583,0,5.356,5.356,0,0,1,4.245-2.009H93.88a1.87,1.87,0,0,0,1.87-1.87v-9.572a1.87,1.87,0,0,0-1.87-1.87Zm-84.266,0v-2.942L25.841,325A30.473,30.473,0,0,1,46,328.508v6.574a35.835,35.835,0,0,0-17.2-4.424Zm57.336,0a35.839,35.839,0,0,0-17.2,4.424v-6.574A30.472,30.472,0,0,1,69.908,325l16.227,2.715v2.942Z" transform="translate(0 -254.869)"/>
        <path id="Trazado_1173445" data-name="Trazado 1173445" d="M107.845,462.382a1.869,1.869,0,1,0-.613,2.218A1.886,1.886,0,0,0,107.845,462.382Z" transform="translate(-84.753 -375.867)"/>
      </g>
    </g>
  </g>
</svg>
