<svg xmlns="http://www.w3.org/2000/svg" width="107.54" height="105" viewBox="0 0 107.54 105">
  <g id="Grupo_1222292" data-name="Grupo 1222292" transform="translate(-157.46 -3988)">
    <rect id="Rectángulo_420205" data-name="Rectángulo 420205" width="60" height="105" transform="translate(205 3988)" fill="#ddddeb"/>
    <g id="psicologia_6_" data-name="psicologia (6)" transform="translate(157.46 3987.995)">
      <g id="Grupo_1222290" data-name="Grupo 1222290" transform="translate(1.538 1.542)">
        <g id="Grupo_1222287" data-name="Grupo 1222287" transform="translate(17.783)">
          <g id="Grupo_1222285" data-name="Grupo 1222285" transform="translate(8.022)">
            <path id="Trazado_1173495" data-name="Trazado 1173495" d="M175.639,16.268l-4.825,2.786a19.026,19.026,0,0,0-5.679-3.277V10.2a2.7,2.7,0,0,0-2.7-2.7h-7.9a2.7,2.7,0,0,0-2.7,2.7v5.571a19.188,19.188,0,0,0-5.686,3.275l-4.818-2.781a2.7,2.7,0,0,0-3.692.99L133.687,24.1a2.7,2.7,0,0,0,.99,3.692l4.816,2.782a19.261,19.261,0,0,0,.006,6.561l-4.825,2.786a2.7,2.7,0,0,0-.988,3.693l3.948,6.838a2.7,2.7,0,0,0,3.692.991l4.825-2.786a19.076,19.076,0,0,0,5.681,3.279V57.5a2.7,2.7,0,0,0,2.7,2.7l7.9,0a2.7,2.7,0,0,0,2.7-2.7V51.935a19.247,19.247,0,0,0,5.685-3.277l4.818,2.781a2.7,2.7,0,0,0,3.693-.988l3.948-6.841a2.7,2.7,0,0,0-.988-3.693l-4.818-2.781a19.178,19.178,0,0,0-.006-6.561l4.825-2.786a2.7,2.7,0,0,0,.988-3.693l-3.948-6.838a2.7,2.7,0,0,0-3.691-.991Zm-7.362,23.241a11.309,11.309,0,1,1-4.139-15.449,11.309,11.309,0,0,1,4.139,15.449Z" transform="translate(-133.325 -7.502)" fill="#685e68"/>
          </g>
          <path id="Trazado_1173496" data-name="Trazado 1173496" d="M124.75,177.466V152.181h53.834v15.23" transform="translate(-118.487 -122.51)" fill="#ffc344"/>
          <path id="Trazado_1173497" data-name="Trazado 1173497" d="M201.207,430.653H163.1a19.051,19.051,0,0,1,38.1,0Z" transform="translate(-148.976 -328.729)" fill="#9be69d"/>
          <path id="Trazado_1173498" data-name="Trazado 1173498" d="M187.208,412.28a19.056,19.056,0,0,0-14,18.373h-10.1a19.068,19.068,0,0,1,24.1-18.373Z" transform="translate(-148.976 -328.729)" fill="#6fd7a3"/>
          <path id="Trazado_1173499" data-name="Trazado 1173499" d="M160.57,192.883c0,4.694-2.8,8.5-6.263,8.5a5.4,5.4,0,0,1-4.087-2.063,23.059,23.059,0,0,1-14.585,18.437c-.646.248-1.308.468-1.981.658v3.474a6.263,6.263,0,1,1-12.526,0v-3.474a23.06,23.06,0,0,1-16.567-19.1,5.4,5.4,0,0,1-4.087,2.063c-3.46,0-6.263-3.8-6.263-8.5s2.8-8.5,6.263-8.5a5.313,5.313,0,0,1,3.882,1.833c9.5-1.772,12.914-12.684,12.914-12.684s7.338,12.711,32.512,6.647a22.939,22.939,0,0,1,.644,5.422v.615a5.313,5.313,0,0,1,3.882-1.833C157.767,184.384,160.57,188.188,160.57,192.883Z" transform="translate(-94.21 -139.483)" fill="#ffdfcf"/>
          <path id="Trazado_1173500" data-name="Trazado 1173500" d="M135.635,259.814c-.646.248-1.308.468-1.981.658v3.474a6.263,6.263,0,0,1-12.526,0v-3.474a23.06,23.06,0,0,1-16.567-19.1,5.4,5.4,0,0,1-4.087,2.063c-3.46,0-6.263-3.8-6.263-8.5s2.8-8.5,6.263-8.5a5.313,5.313,0,0,1,3.882,1.833,13.611,13.611,0,0,0,3.755-1.286c-.008,1.624-.012,2.74-.012,3.039,0,15.744,11.45,28.508,25.574,28.508A2.464,2.464,0,0,1,135.635,259.814Z" transform="translate(-94.21 -181.542)" fill="#ffcebf"/>
          <g id="Grupo_1222286" data-name="Grupo 1222286" transform="translate(3.976 50.455)">
            <path id="Trazado_1173501" data-name="Trazado 1173501" d="M378.9,258.025s.477-3.205,3-4.5c0,0,1.949,2.592.4,5.047S378.9,258.025,378.9,258.025Z" transform="translate(-324.491 -253.524)" fill="#ffcebf"/>
            <path id="Trazado_1173502" data-name="Trazado 1173502" d="M117.6,258.025s-.477-3.205-3-4.5c0,0-1.949,2.592-.4,5.047S117.6,258.025,117.6,258.025Z" transform="translate(-113.596 -253.524)" fill="#ffb09e"/>
          </g>
        </g>
        <g id="Grupo_1222288" data-name="Grupo 1222288" transform="translate(71.174 23.248)">
          <circle id="Elipse_14484" data-name="Elipse 14484" cx="15.376" cy="15.376" r="15.376" transform="translate(0 0.001)" fill="#fef056"/>
          <path id="Trazado_1173503" data-name="Trazado 1173503" d="M373.927,151.09a15.376,15.376,0,1,1,0-29.7,15.38,15.38,0,0,0,0,29.7Z" transform="translate(-354.553 -120.863)" fill="#fedf30"/>
        </g>
        <g id="Grupo_1222289" data-name="Grupo 1222289" transform="translate(0 23.248)">
          <circle id="Elipse_14485" data-name="Elipse 14485" cx="15.376" cy="15.376" r="15.376" transform="translate(0 0.001)" fill="#fe646f"/>
          <path id="Trazado_1173504" data-name="Trazado 1173504" d="M26.874,151.09a15.376,15.376,0,1,1,0-29.7,15.38,15.38,0,0,0,0,29.7Z" transform="translate(-7.5 -120.863)" fill="#fd4755"/>
        </g>
      </g>
      <g id="Grupo_1222291" data-name="Grupo 1222291" transform="translate(0 0.005)">
        <path id="Trazado_1173505" data-name="Trazado 1173505" d="M224.32,241.473a1.538,1.538,0,1,0-3.076,0v4.047a1.538,1.538,0,1,0,3.076,0Z" transform="translate(-175.871 -190.73)"/>
        <path id="Trazado_1173506" data-name="Trazado 1173506" d="M278.832,245.521v-4.047a1.538,1.538,0,1,0-3.076,0v4.047a1.538,1.538,0,1,0,3.076,0Z" transform="translate(-219.203 -190.73)"/>
        <path id="Trazado_1173507" data-name="Trazado 1173507" d="M234.3,314.85h6.454a1.538,1.538,0,1,0,0-3.076H234.3a1.538,1.538,0,1,0,0,3.076Z" transform="translate(-185.029 -247.836)"/>
        <path id="Trazado_1173508" data-name="Trazado 1173508" d="M89.626,23.327V18.153a4.864,4.864,0,0,0-4.859-4.859H76.276l-1.6-2.763a4.248,4.248,0,0,0-5.794-1.555l-3.92,2.265A20.383,20.383,0,0,0,60.69,8.772V4.244A4.244,4.244,0,0,0,56.451,0h-7.9a4.245,4.245,0,0,0-4.241,4.239V8.77a20.719,20.719,0,0,0-4.283,2.468L36.114,8.976a4.248,4.248,0,0,0-5.791,1.554l-1.6,2.765H20.235a4.864,4.864,0,0,0-4.859,4.859v5.174A16.921,16.921,0,0,0,1.541,47.232a1.538,1.538,0,0,0,2.8-1.285,13.857,13.857,0,1,1,4,5.075,1.538,1.538,0,1,0-1.911,2.411,16.726,16.726,0,0,0,10.492,3.649c.35,0,.7-.014,1.042-.035.749,4.56,3.884,7.933,7.628,7.933a6.378,6.378,0,0,0,3.055-.791A24.525,24.525,0,0,0,44.7,81.609v2.339c0,.154.006.307.015.459a20.573,20.573,0,0,0-12.8,19.06A1.538,1.538,0,0,0,33.45,105h38.1a1.538,1.538,0,0,0,1.538-1.538A20.452,20.452,0,0,0,67.06,88.91,20.736,20.736,0,0,0,60.288,84.4c.009-.152.014-.3.014-.457v-2.34q.505-.169,1-.357A24.706,24.706,0,0,0,64.581,79.7a1.538,1.538,0,0,0-1.515-2.678,21.582,21.582,0,0,1-2.872,1.355c-.595.229-1.217.435-1.849.614a1.538,1.538,0,0,0-1.119,1.48v3.474a4.725,4.725,0,0,1-9.45,0V80.474a1.538,1.538,0,0,0-1.121-1.48A21.454,21.454,0,0,1,31.2,61.175,1.538,1.538,0,0,0,28.5,60.38,3.92,3.92,0,0,1,25.584,61.9c-2.176,0-4.075-2.293-4.588-5.323a16.807,16.807,0,0,0,4.132-1.635,6.23,6.23,0,0,1,.647,1.78,1.539,1.539,0,0,0,1.519,1.311,1.554,1.554,0,0,0,.229-.017,1.538,1.538,0,0,0,1.294-1.748,9,9,0,0,0-1.14-3.067,17.051,17.051,0,0,0,3.337-3.71c6.6-1.818,10.215-7.563,11.814-10.931a20.4,20.4,0,0,0,5.277,3.8c7.579,3.868,16.775,3.383,23.63,2.119a16.948,16.948,0,0,0,5.59,8.72,9,9,0,0,0-1.14,3.067,1.538,1.538,0,0,0,3.041.462,6.223,6.223,0,0,1,.648-1.788,16.8,16.8,0,0,0,4.132,1.635c-.512,3.03-2.411,5.323-4.588,5.323A3.92,3.92,0,0,1,76.5,60.381a1.538,1.538,0,0,0-2.695.795,21.329,21.329,0,0,1-5.506,11.7,1.538,1.538,0,0,0,2.26,2.087,24.4,24.4,0,0,0,5.8-10.773,6.376,6.376,0,0,0,3.054.79c3.745,0,6.88-3.374,7.628-7.933.345.021.692.035,1.042.035a16.912,16.912,0,0,0,1.538-33.755ZM52.5,91.749A7.8,7.8,0,0,0,59.5,87.408a17.645,17.645,0,0,1,5.389,3.677,17.377,17.377,0,0,1,5.063,10.844H35.055A17.5,17.5,0,0,1,45.511,87.407a7.81,7.81,0,0,0,6.99,4.342ZM84.768,16.371a1.784,1.784,0,0,1,1.782,1.783v5.174a16.9,16.9,0,0,0-11.714,6.349H73.229a20.757,20.757,0,0,0-.071-4.251l3.92-2.263a4.245,4.245,0,0,0,1.551-5.793l-.577-1h6.715Zm-51.782-4.3a1.167,1.167,0,0,1,1.59-.428l4.817,2.783a1.538,1.538,0,0,0,1.754-.15,17.668,17.668,0,0,1,5.233-3.015,1.538,1.538,0,0,0,1.008-1.444V4.244a1.165,1.165,0,0,1,1.165-1.163h7.9a1.164,1.164,0,0,1,1.163,1.163V9.816a1.538,1.538,0,0,0,1.007,1.444,17.493,17.493,0,0,1,5.227,3.018,1.538,1.538,0,0,0,1.754.15l4.821-2.786a1.167,1.167,0,0,1,1.592.427l3.95,6.84a1.165,1.165,0,0,1-.426,1.59l-4.824,2.785a1.538,1.538,0,0,0-.747,1.593,17.756,17.756,0,0,1,.17,4.8H65.226a12.8,12.8,0,0,0-1.218-7.493,1.538,1.538,0,0,0-2.756,1.367,9.738,9.738,0,0,1,.858,6.127H42.895A9.769,9.769,0,0,1,57.018,19.231a1.538,1.538,0,1,0,1.426-2.726A12.842,12.842,0,0,0,39.781,29.676H34.867a17.577,17.577,0,0,1,.161-4.8,1.538,1.538,0,0,0-.747-1.594L29.463,20.5a1.163,1.163,0,0,1-.427-1.59ZM18.452,23.327V18.153a1.785,1.785,0,0,1,1.783-1.783h6.715l-.577,1a4.239,4.239,0,0,0,1.553,5.793l3.914,2.259a20.632,20.632,0,0,0-.063,4.255h-1.61a16.9,16.9,0,0,0-11.715-6.349Zm31.259,16.4a15,15,0,0,1-6-4.906,1.539,1.539,0,0,0-2.8.308c-.026.082-2.274,6.994-7.9,10.217a16.877,16.877,0,0,0-.9-12.6H72.89a16.81,16.81,0,0,0-1.716,7.415c0,.432.022.858.054,1.282-10.8,2.011-17.638.2-21.517-1.72ZM88.088,54.005a13.838,13.838,0,1,1,13.838-13.838A13.853,13.853,0,0,1,88.088,54.005Z" transform="translate(0 -0.005)"/>
        <path id="Trazado_1173509" data-name="Trazado 1173509" d="M396.915,188.343a1.538,1.538,0,0,0-1.538,1.538,7.727,7.727,0,1,1-15.455,0,1.538,1.538,0,0,0-3.076,0,10.8,10.8,0,1,0,21.607,0A1.538,1.538,0,0,0,396.915,188.343Z" transform="translate(-299.562 -149.718)"/>
        <path id="Trazado_1173510" data-name="Trazado 1173510" d="M404.068,166.132a1.538,1.538,0,0,0,1.538-1.538v-4.047a1.538,1.538,0,0,0-3.076,0v4.047A1.538,1.538,0,0,0,404.068,166.132Z" transform="translate(-319.978 -126.399)"/>
        <path id="Trazado_1173511" data-name="Trazado 1173511" d="M443.061,166.132a1.538,1.538,0,0,0,1.538-1.538v-4.047a1.538,1.538,0,1,0-3.076,0v4.047A1.538,1.538,0,0,0,443.061,166.132Z" transform="translate(-350.975 -126.399)"/>
        <path id="Trazado_1173512" data-name="Trazado 1173512" d="M44.176,203.388a1.538,1.538,0,0,0,3.076,0,4.778,4.778,0,0,1,9.556,0,1.538,1.538,0,1,0,3.076,0,7.854,7.854,0,0,0-15.708,0Z" transform="translate(-35.116 -155.434)"/>
        <path id="Trazado_1173513" data-name="Trazado 1173513" d="M58.553,164.593v-4.047a1.538,1.538,0,0,0-3.076,0v4.047a1.538,1.538,0,1,0,3.076,0Z" transform="translate(-44.1 -126.399)"/>
        <path id="Trazado_1173514" data-name="Trazado 1173514" d="M97.546,164.593v-4.047a1.538,1.538,0,0,0-3.076,0v4.047a1.538,1.538,0,1,0,3.076,0Z" transform="translate(-75.096 -126.399)"/>
      </g>
    </g>
  </g>
</svg>
