<svg xmlns="http://www.w3.org/2000/svg" xmlns:xlink="http://www.w3.org/1999/xlink" width="103" height="103" viewBox="0 0 103 103">
  <defs>
    <filter id="Trazado_978624" x="0" y="0" width="103" height="103" filterUnits="userSpaceOnUse">
      <feOffset dy="3" input="SourceAlpha"/>
      <feGaussianBlur stdDeviation="3" result="blur"/>
      <feFlood flood-opacity="0.161"/>
      <feComposite operator="in" in2="blur"/>
      <feComposite in="SourceGraphic"/>
    </filter>
  </defs>
  <g id="Grupo_1222082" data-name="Grupo 1222082" transform="translate(-208.789 -1283)">
    <g id="Grupo_1221201" data-name="Grupo 1221201" transform="translate(217.789 1289)">
      <g id="Grupo_1220071" data-name="Grupo 1220071">
        <g id="Grupo_1178144" data-name="Grupo 1178144">
          <g id="Grupo_1177896" data-name="Grupo 1177896">
            <g id="Grupo_1176881" data-name="Grupo 1176881">
              <g id="Grupo_1175148" data-name="Grupo 1175148">
                <g id="Grupo_1173798" data-name="Grupo 1173798">
                  <g id="Grupo_1171925" data-name="Grupo 1171925">
                    <g id="Grupo_1164524" data-name="Grupo 1164524">
                      <g id="Grupo_1144123" data-name="Grupo 1144123">
                        <g transform="matrix(1, 0, 0, 1, -9, -6)" filter="url(#Trazado_978624)">
                          <g id="Trazado_978624-2" data-name="Trazado 978624" transform="translate(9 6)" fill="#cdcde2">
                            <path d="M 42.5 83.5 C 36.96437835693359 83.5 31.59512901306152 82.41617584228516 26.54141235351562 80.27863311767578 C 21.65934181213379 78.21369171142578 17.27447128295898 75.25723266601562 13.50862312316895 71.49137878417969 C 9.742764472961426 67.72553253173828 6.786305904388428 63.34066009521484 4.721364498138428 58.45858764648438 C 2.583823442459106 53.40486907958984 1.5 48.03562164306641 1.5 42.5 C 1.5 36.96437835693359 2.583823442459106 31.59512901306152 4.721364498138428 26.54141235351562 C 6.786305904388428 21.65934181213379 9.742764472961426 17.27447128295898 13.50862312316895 13.50862312316895 C 17.27447128295898 9.742764472961426 21.65934181213379 6.786305904388428 26.54141235351562 4.721364498138428 C 31.59512901306152 2.583823442459106 36.96437835693359 1.5 42.5 1.5 C 48.03562164306641 1.5 53.40486907958984 2.583823442459106 58.45858764648438 4.721364498138428 C 63.34066009521484 6.786305904388428 67.72553253173828 9.742764472961426 71.49137878417969 13.50862312316895 C 75.25723266601562 17.27447128295898 78.21369171142578 21.65934181213379 80.27863311767578 26.54141235351562 C 82.41617584228516 31.59512901306152 83.5 36.96437835693359 83.5 42.5 C 83.5 48.03562164306641 82.41617584228516 53.40486907958984 80.27863311767578 58.45858764648438 C 78.21369171142578 63.34066009521484 75.25723266601562 67.72553253173828 71.49137878417969 71.49137878417969 C 67.72553253173828 75.25723266601562 63.34066009521484 78.21369171142578 58.45858764648438 80.27863311767578 C 53.40486907958984 82.41617584228516 48.03562164306641 83.5 42.5 83.5 Z" stroke="none"/>
                            <path d="M 42.5 3 C 37.16621398925781 3 31.99356079101562 4.043960571289062 27.125732421875 6.102882385253906 C 22.42246627807617 8.092185974121094 18.19785308837891 10.94070434570312 14.56928253173828 14.56928253173828 C 10.94070434570312 18.19785308837891 8.092185974121094 22.42246627807617 6.102882385253906 27.125732421875 C 4.043960571289062 31.99356079101562 3 37.16621398925781 3 42.5 C 3 47.83378601074219 4.043960571289062 53.00643920898438 6.102882385253906 57.87425231933594 C 8.092185974121094 62.57753372192383 10.94070434570312 66.80213165283203 14.56928253173828 70.43071746826172 C 18.19786834716797 74.05929565429688 22.42246627807617 76.90781402587891 27.125732421875 78.89711761474609 C 31.99356079101562 80.95603942871094 37.16621398925781 82 42.5 82 C 47.83378601074219 82 53.00642395019531 80.95603942871094 57.87425231933594 78.89711761474609 C 62.57753372192383 76.90781402587891 66.80213165283203 74.05929565429688 70.43071746826172 70.43071746826172 C 74.05929565429688 66.80213165283203 76.90781402587891 62.57753372192383 78.89711761474609 57.87425231933594 C 80.95603942871094 53.00642395019531 82 47.83378601074219 82 42.5 C 82 37.16621398925781 80.95603942871094 31.99356079101562 78.89711761474609 27.125732421875 C 76.90781402587891 22.42246627807617 74.05929565429688 18.19786834716797 70.43071746826172 14.56928253173828 C 66.80213165283203 10.94070434570312 62.57753372192383 8.092185974121094 57.87425231933594 6.102882385253906 C 53.00643920898438 4.043960571289062 47.83378601074219 3 42.5 3 M 42.5 0 C 65.97209167480469 0 85 19.02789306640625 85 42.5 C 85 65.97209167480469 65.97209167480469 85 42.5 85 C 19.02789306640625 85 0 65.97209167480469 0 42.5 C 0 19.02789306640625 19.02789306640625 0 42.5 0 Z" stroke="none" fill="#ededf5"/>
                          </g>
                        </g>
                      </g>
                    </g>
                  </g>
                </g>
              </g>
            </g>
          </g>
        </g>
      </g>
    </g>
    <g id="Page-1" transform="translate(222.571 1302.603)">
      <g id="_026---Idea" data-name="026---Idea" transform="translate(0.424)">
        <path id="Shape" d="M31.72,55.839l-.567,6.86H3.954a2.522,2.522,0,0,1-2.484-3L6.993,31.351A1.261,1.261,0,0,1,8.228,30.33h3.505l-4.2,25.244a1.271,1.271,0,0,0,1.627,1.412A43.138,43.138,0,0,1,31.72,55.839Z" transform="translate(-0.163 7.915)" fill="sienna"/>
        <path id="Shape-2" data-name="Shape" d="M62.316,62.7h-27.2l-.567-6.86a43.138,43.138,0,0,1,22.559,1.147,1.271,1.271,0,0,0,1.627-1.412l-4.2-25.244h3.505a1.261,1.261,0,0,1,1.236,1.021L64.8,59.7a2.522,2.522,0,0,1-2.484,3Z" transform="translate(8.482 7.915)" fill="sienna"/>
        <path id="Shape-3" data-name="Shape" d="M60.664,59.7,55.141,31.351a1.261,1.261,0,0,0-1.236-1.021H50.4l.009.05a1.261,1.261,0,0,1,.95.971L56.881,59.7a2.522,2.522,0,0,1-2.484,3H58.18a2.522,2.522,0,0,0,2.484-3Z" transform="translate(12.618 7.915)" fill="#783e22"/>
        <path id="Shape-4" data-name="Shape" d="M64.492,57.717A43.138,43.138,0,0,0,41.933,56.57,29.193,29.193,0,0,0,36.2,58.386a29.193,29.193,0,0,0-5.737-1.816A43.138,43.138,0,0,0,7.9,57.717a1.271,1.271,0,0,1-1.627-1.412l4.2-25.244.353-2.131a1.271,1.271,0,0,1,1.059-1.047c.857-.126,1.74-.252,2.623-.353A8.994,8.994,0,0,0,22.5,32.41a9.092,9.092,0,0,0,3.115-.555,6.641,6.641,0,0,0,11.311,2.169,10.938,10.938,0,0,0,3.959.744h.076c.265,2.27,1.45,3.606,5.41,4.93A6.9,6.9,0,0,1,49.5,41.766a2.671,2.671,0,0,0,3.089.794,2.633,2.633,0,0,0,1.589-2.408,2.566,2.566,0,0,0-.126-.807,11.132,11.132,0,0,0-1.664-3.354,9.379,9.379,0,0,0,4.779-6.557,6.537,6.537,0,0,0,1.173-1.841c.731.088,1.45.177,2.169.29a1.271,1.271,0,0,1,1.059,1.047l.353,2.131,4.2,25.244a1.271,1.271,0,0,1-1.627,1.412Z" transform="translate(1.098 7.184)" fill="#f5f5f5"/>
        <path id="Shape-5" data-name="Shape" d="M55.471,56.292l-4.2-25.244-.353-2.131a1.271,1.271,0,0,0-1.059-1.047c-.719-.113-1.437-.2-2.169-.29a6.557,6.557,0,0,1-.63,1.124,1.246,1.246,0,0,1,.072.213l.353,2.131,4.2,25.244a1.221,1.221,0,0,1-.126.757c.757.2,1.513.411,2.279.657a1.271,1.271,0,0,0,1.634-1.414Z" transform="translate(11.746 7.197)" fill="#cfd8dc"/>
        <path id="Shape-6" data-name="Shape" d="M37.61,57.42c0,1.387-2.825,2.522-6.3,2.522S25,58.807,25,57.42l.567-6.86A29.193,29.193,0,0,1,31.3,52.376a29.193,29.193,0,0,1,5.737-1.816Z" transform="translate(5.99 13.194)" fill="#783e22"/>
        <path id="Shape-7" data-name="Shape" d="M57.395,29.793a6.371,6.371,0,0,1-.555,2.635,6.537,6.537,0,0,1-1.173,1.841,9.379,9.379,0,0,1-4.779,6.557,11.132,11.132,0,0,1,1.664,3.354,2.566,2.566,0,0,1,.126.807A2.633,2.633,0,0,1,51.09,47.4,2.671,2.671,0,0,1,48,46.6a6.9,6.9,0,0,0-3.127-2.068c-3.959-1.324-5.145-2.661-5.41-4.93h-.076a10.938,10.938,0,0,1-3.959-.744,6.641,6.641,0,0,1-11.311-2.169A9.009,9.009,0,0,1,13.791,22.845a3.683,3.683,0,0,1-.227-1.286A3.928,3.928,0,0,1,16.716,17.7c-.013-.151-.025-.3-.025-.467a5.1,5.1,0,0,1,5.094-5.094,4.976,4.976,0,0,1,2.207.5A7.447,7.447,0,0,1,30.4,9a7.314,7.314,0,0,1,4.893,1.854,3.909,3.909,0,0,1,6.935.567,10.224,10.224,0,0,1,1.084-.063,9.4,9.4,0,0,1,9.356,8.625H52.7A3.909,3.909,0,0,1,56.613,23.9a4.046,4.046,0,0,1-.5,1.942,6.683,6.683,0,0,1,1.286,3.947Z" transform="translate(2.597 2.349)" fill="#e91e63"/>
        <path id="Shape-8" data-name="Shape" d="M50.994,25.847a4.046,4.046,0,0,0,.5-1.942,3.909,3.909,0,0,0-3.909-3.922h-.038a9.4,9.4,0,0,0-9.356-8.625,10.224,10.224,0,0,0-1.084.063A3.9,3.9,0,0,0,31.6,9.5a3.879,3.879,0,0,1,1.728,1.925,10.224,10.224,0,0,1,1.084-.063,9.4,9.4,0,0,1,9.356,8.625h.038A3.909,3.909,0,0,1,47.715,23.9a4.046,4.046,0,0,1-.5,1.942A6.683,6.683,0,0,1,48.5,29.794a6.37,6.37,0,0,1-.555,2.635,6.537,6.537,0,0,1-1.173,1.841,9.379,9.379,0,0,1-4.779,6.557,11.132,11.132,0,0,1,1.664,3.354,2.566,2.566,0,0,1,.126.807,2.609,2.609,0,0,1-.734,1.778,2.6,2.6,0,0,0,4.517-1.778,2.566,2.566,0,0,0-.126-.807,11.132,11.132,0,0,0-1.664-3.354,9.379,9.379,0,0,0,4.779-6.557,6.537,6.537,0,0,0,1.173-1.841,6.37,6.37,0,0,0,.555-2.635,6.683,6.683,0,0,0-1.286-3.947Z" transform="translate(7.712 2.348)" fill="#ad1457"/>
        <path id="Shape-9" data-name="Shape" d="M42.215,25.627a1.261,1.261,0,1,0-2.253,1.135,1.878,1.878,0,0,1-.608,2.377,1.9,1.9,0,0,1-2.739-.7,1.261,1.261,0,1,0-2.256,1.129,4.394,4.394,0,0,0,7.856-3.937Z" transform="translate(8.397 6.506)" fill="#ad1457"/>
        <path id="Shape-10" data-name="Shape" d="M36.626,26.3a7.529,7.529,0,0,0,3.126-4.8,1.261,1.261,0,1,0-2.477-.474,5.026,5.026,0,0,1-2.088,3.2,5.147,5.147,0,0,1-6.638-.757,1.263,1.263,0,0,0-1.866,1.7,7.6,7.6,0,0,0,4.041,2.33,3.756,3.756,0,0,1-3.069,1.579,1.261,1.261,0,1,0,0,2.522,6.253,6.253,0,0,0,5.875-4.044,7.6,7.6,0,0,0,3.1-1.26Z" transform="translate(6.343 5.215)" fill="#ad1457"/>
        <path id="Shape-11" data-name="Shape" d="M22.146,27.861a1.891,1.891,0,0,1-2.417-1.8v-.032a1.247,1.247,0,0,0-1.261-1.245,1.274,1.274,0,0,0-1.261,1.276,4.4,4.4,0,0,0,4.391,4.4,4.474,4.474,0,0,0,1.261-.185,1.261,1.261,0,0,0-.719-2.417Z" transform="translate(3.956 6.469)" fill="#ad1457"/>
        <path id="Shape-12" data-name="Shape" d="M29.261,17.261A1.261,1.261,0,0,0,28,16a5.807,5.807,0,0,0-5.8,5.8,1.261,1.261,0,0,0,2.522,0A3.279,3.279,0,0,1,28,18.522a1.261,1.261,0,0,0,1.261-1.261Z" transform="translate(5.259 4.175)" fill="#ad1457"/>
        <g id="Grupo_1222081" data-name="Grupo 1222081" transform="translate(6.909)">
          <path id="Shape-13" data-name="Shape" d="M30.261,3.783A1.261,1.261,0,0,1,29,2.522V1.261a1.261,1.261,0,0,1,2.522,0V2.522A1.261,1.261,0,0,1,30.261,3.783Z" transform="translate(0.124)" fill="#ffdc00"/>
          <path id="Shape-14" data-name="Shape" d="M46.378,10.669a1.261,1.261,0,0,1-.892-2.152l1.261-1.261A1.261,1.261,0,1,1,48.53,9.039L47.269,10.3a1.261,1.261,0,0,1-.892.369Z" transform="translate(4.33 1.793)" fill="#ffdc00"/>
          <path id="Shape-15" data-name="Shape" d="M14.408,10.669a1.261,1.261,0,0,1-.892-.369L12.256,9.039a1.261,1.261,0,1,1,1.783-1.783L15.3,8.517a1.261,1.261,0,0,1-.892,2.152Z" transform="translate(-4.346 1.793)" fill="#ffdc00"/>
          <path id="Shape-16" data-name="Shape" d="M22.144,6.925a1.261,1.261,0,0,1-1.165-.778l-1.448-3.5a1.261,1.261,0,1,1,2.329-.966l1.449,3.5a1.261,1.261,0,0,1-.682,1.649,1.279,1.279,0,0,1-.483.095Z" transform="translate(-2.375 0.23)" fill="#ffdc00"/>
          <path id="Shape-17" data-name="Shape" d="M38.68,6.925a1.279,1.279,0,0,1-.483-.1,1.261,1.261,0,0,1-.682-1.648l1.449-3.5a1.261,1.261,0,1,1,2.329.966l-1.448,3.5a1.261,1.261,0,0,1-1.165.778Z" transform="translate(2.321 0.23)" fill="#ffdc00"/>
          <path id="Shape-18" data-name="Shape" d="M50.587,18.4a1.261,1.261,0,0,1-.483-2.427l3.5-1.448a1.261,1.261,0,1,1,.965,2.33L51.07,18.307a1.261,1.261,0,0,1-.483.1Z" transform="translate(5.427 3.766)" fill="#ffdc00"/>
          <path id="Shape-19" data-name="Shape" d="M10.659,18.4a1.261,1.261,0,0,1-.483-.1L6.682,16.859a1.261,1.261,0,1,1,.965-2.33l3.5,1.448a1.261,1.261,0,0,1-.483,2.427Z" transform="translate(-5.903 3.766)" fill="#ffdc00"/>
        </g>
        <path id="Shape-20" data-name="Shape" d="M69.423,36.943A2.522,2.522,0,0,0,66.947,34.9H64.512l-.179-1.073a2.535,2.535,0,0,0-2.107-2.089c-.24-.038-.482-.063-.72-.1a7.692,7.692,0,0,0-.958-5.623,5.16,5.16,0,0,0-3.739-6.9,10.73,10.73,0,0,0-10.482-8.759c-.126,0-.238.016-.358.02A5.13,5.13,0,0,0,38.122,9.4,8.655,8.655,0,0,0,33.413,8a8.755,8.755,0,0,0-6.882,3.389A6.281,6.281,0,0,0,18.5,17.034a5.19,5.19,0,0,0-3.179,4.782,5.128,5.128,0,0,0,.126,1.076,10.148,10.148,0,0,0-1.209,8.7c-.338.047-.683.088-1.009.136a2.537,2.537,0,0,0-2.123,2.088l-.179,1.077H8.489a2.522,2.522,0,0,0-2.474,2.042L.493,65.283a3.783,3.783,0,0,0,3.721,4.5h26.3c1.044,1.722,4.217,2.522,7.208,2.522,2.959,0,6.1-.781,7.176-2.522H71.222a3.783,3.783,0,0,0,3.721-4.5ZM19.138,24.1A2.663,2.663,0,0,1,20.5,19.152a2.615,2.615,0,0,1,2.117,1.069,1.261,1.261,0,0,0,2.025-1.5A5.094,5.094,0,0,0,21.066,16.7,3.833,3.833,0,0,1,24.8,13.666a3.931,3.931,0,0,1,.459.05,8.282,8.282,0,0,0-.265.789,1.261,1.261,0,0,0,2.441.63,6.132,6.132,0,0,1,.654-1.579,6.227,6.227,0,0,1,5.319-3.035,6.125,6.125,0,0,1,3.34,1.009,5.126,5.126,0,0,0-.3,1.653,1.261,1.261,0,0,0,2.522,0,2.652,2.652,0,1,1,5.3,0,1.261,1.261,0,1,0,2.522,0c0-.1-.024-.189-.029-.286a8.185,8.185,0,0,1,7.467,6.312,5.1,5.1,0,0,0-1.63.813,1.261,1.261,0,0,0,1.513,2.018,2.658,2.658,0,0,1,3.9,3.439,2.69,2.69,0,0,1-1.194,1.1,1.261,1.261,0,0,0,.537,2.4,1.245,1.245,0,0,0,.535-.12,5.179,5.179,0,0,0,.942-.589,5.386,5.386,0,0,1-1.067,5.378l-.03.032a5.446,5.446,0,0,1-6.431,1.18,5.109,5.109,0,0,1-1.494-1.125,1.261,1.261,0,1,0-1.86,1.7,7.644,7.644,0,0,0,2.205,1.672,7.768,7.768,0,0,0,5.824.538A8.037,8.037,0,0,1,50.8,40.834,1.261,1.261,0,0,0,51,43.34a1.342,1.342,0,0,0,.2-.015,10.363,10.363,0,0,0,2.237-.653,11.275,11.275,0,0,1,.941,2.165,1.3,1.3,0,0,1,.066.407,1.361,1.361,0,0,1-.827,1.251,1.427,1.427,0,0,1-1.628-.438A8.049,8.049,0,0,0,48.3,43.6c-2.725-.913-3.777-1.729-4.223-2.617a12.105,12.105,0,0,0,1.933-.4,1.261,1.261,0,0,0-.741-2.411,9.556,9.556,0,0,1-2.176.4,9.359,9.359,0,0,1-4.179-.63,1.261,1.261,0,0,0-1.414.352,5.4,5.4,0,0,1-8.708-6.314,1.263,1.263,0,1,0-2.166-1.3,7.81,7.81,0,0,0-1.009,5.382A7.706,7.706,0,0,1,16.895,25.51a5.083,5.083,0,0,0,.938.748,1.261,1.261,0,0,0,1.3-2.16ZM13.59,34.227c.581-.086,1.182-.161,1.778-.24a10.181,10.181,0,0,0,11.059,4.487,7.9,7.9,0,0,0,12.373,2.1,12.1,12.1,0,0,0,2.632.477C42.04,43.357,43.8,44.757,47.5,46a5.589,5.589,0,0,1,2.567,1.691,4.016,4.016,0,0,0,3.046,1.431,3.83,3.83,0,0,0,1.5-.305,3.883,3.883,0,0,0,2.357-3.57,3.741,3.741,0,0,0-.192-1.193,13.784,13.784,0,0,0-1.115-2.566,10.63,10.63,0,0,0,4.19-6.408,7.9,7.9,0,0,0,.726-1.016c.422.054.845.1,1.27.173L66.4,61.614a43.284,43.284,0,0,0-27.418,0V45.829a1.261,1.261,0,0,0-2.522,0v15.79a43.291,43.291,0,0,0-27.418-.01ZM3.232,66.8a1.251,1.251,0,0,1-.265-1.034L8.489,37.418h2.018L6.55,61.2A2.531,2.531,0,0,0,9.8,64.016a42.186,42.186,0,0,1,20.827-1.321l-.376,4.571H4.214a1.27,1.27,0,0,1-.982-.464Zm34.486,2.986c-3.038,0-4.78-.9-5.036-1.3l.434-5.233a26.947,26.947,0,0,1,4.058,1.361,1.272,1.272,0,0,0,.545.126,1.253,1.253,0,0,0,.546-.126,26.859,26.859,0,0,1,4.057-1.369l.434,5.241c-.256.4-2,1.3-5.036,1.3ZM72.2,66.8a1.27,1.27,0,0,1-.982.464H45.184l-.378-4.58a42.2,42.2,0,0,1,20.836,1.333A2.529,2.529,0,0,0,68.885,61.2L64.932,37.42H66.95l5.523,28.346A1.251,1.251,0,0,1,72.2,66.8Z" transform="translate(-0.424 2.088)"/>
      </g>
    </g>
  </g>
</svg>
