<svg xmlns="http://www.w3.org/2000/svg" xmlns:xlink="http://www.w3.org/1999/xlink" width="113" height="113" viewBox="0 0 113 113">
  <defs>
    <filter id="Trazado_982547" x="0" y="0" width="113" height="113" filterUnits="userSpaceOnUse">
      <feOffset dy="3" input="SourceAlpha"/>
      <feGaussianBlur stdDeviation="3" result="blur"/>
      <feFlood flood-opacity="0.161"/>
      <feComposite operator="in" in2="blur"/>
      <feComposite in="SourceGraphic"/>
    </filter>
  </defs>
  <g id="Grupo_1222146" data-name="Grupo 1222146" transform="translate(-324 -1629.361)">
    <g id="Grupo_1222090" data-name="Grupo 1222090">
      <g id="Grupo_1221202" data-name="Grupo 1221202" transform="translate(-1 188.666)">
        <g id="Grupo_1212632" data-name="Grupo 1212632" transform="translate(0 -6098.948)">
          <g id="Grupo_1209992" data-name="Grupo 1209992" transform="translate(0 10.835)">
            <g id="Grupo_1208705" data-name="Grupo 1208705" transform="translate(-1.454 3213.429)">
              <g id="Grupo_1148633" data-name="Grupo 1148633" transform="translate(71.408 600.047)">
                <g id="Grupo_1148525" data-name="Grupo 1148525" transform="translate(264.046 3721.333)">
                  <g transform="matrix(1, 0, 0, 1, -9, -6)" filter="url(#Trazado_982547)">
                    <g id="Trazado_982547-2" data-name="Trazado 982547" transform="translate(9 6)" fill="#e4f1d4">
                      <path d="M 47.5 93.5 C 41.28937149047852 93.5 35.26533508300781 92.28397369384766 29.59518623352051 89.88570404052734 C 24.11771965026855 87.56893157958984 19.19813346862793 84.25196075439453 14.97309303283691 80.02691650390625 C 10.74804019927979 75.80186462402344 7.431066513061523 70.88229370117188 5.114293098449707 65.40481567382812 C 2.716026782989502 59.73468017578125 1.5 53.71062850952148 1.5 47.5 C 1.5 41.28937149047852 2.716026782989502 35.26533508300781 5.114293098449707 29.59518623352051 C 7.431066513061523 24.11771965026855 10.74804019927979 19.19813346862793 14.97309303283691 14.97309303283691 C 19.19813346862793 10.74804019927979 24.11771965026855 7.431066513061523 29.59518623352051 5.114293098449707 C 35.26533508300781 2.716026782989502 41.28937149047852 1.5 47.5 1.5 C 53.71062850952148 1.5 59.73468017578125 2.716026782989502 65.40481567382812 5.114293098449707 C 70.88229370117188 7.431066513061523 75.80186462402344 10.74804019927979 80.02691650390625 14.97309303283691 C 84.25196075439453 19.19813346862793 87.56893157958984 24.11771965026855 89.88570404052734 29.59518623352051 C 92.28397369384766 35.26533508300781 93.5 41.28937149047852 93.5 47.5 C 93.5 53.71062850952148 92.28397369384766 59.73468017578125 89.88570404052734 65.40481567382812 C 87.56893157958984 70.88229370117188 84.25196075439453 75.80186462402344 80.02691650390625 80.02691650390625 C 75.80186462402344 84.25196075439453 70.88229370117188 87.56893157958984 65.40481567382812 89.88570404052734 C 59.73468017578125 92.28397369384766 53.71062850952148 93.5 47.5 93.5 Z" stroke="none"/>
                      <path d="M 47.5 3 C 41.49121475219727 3 35.66376876831055 4.176155090332031 30.17950439453125 6.495796203613281 C 24.88084411621094 8.736953735351562 20.12152099609375 11.94598388671875 16.03375244140625 16.03375244140625 C 11.94598388671875 20.12152099609375 8.736953735351562 24.88084411621094 6.495796203613281 30.17950439453125 C 4.176155090332031 35.66376876831055 3 41.49121475219727 3 47.5 C 3 53.50878524780273 4.176155090332031 59.33623123168945 6.495796203613281 64.82049560546875 C 8.736953735351562 70.11915588378906 11.94598388671875 74.87847900390625 16.03375244140625 78.96624755859375 C 20.12152099609375 83.05401611328125 24.88084411621094 86.26304626464844 30.17950439453125 88.50419616699219 C 35.66376876831055 90.82384490966797 41.49121475219727 92 47.5 92 C 53.50878524780273 92 59.33623123168945 90.82384490966797 64.82049560546875 88.50419616699219 C 70.11915588378906 86.26304626464844 74.87847900390625 83.05401611328125 78.96624755859375 78.96624755859375 C 83.05401611328125 74.87847900390625 86.26304626464844 70.11915588378906 88.50419616699219 64.82049560546875 C 90.82384490966797 59.33623123168945 92 53.50878524780273 92 47.5 C 92 41.49121475219727 90.82384490966797 35.66376876831055 88.50419616699219 30.17950439453125 C 86.26304626464844 24.88084411621094 83.05401611328125 20.12152099609375 78.96624755859375 16.03375244140625 C 74.87847900390625 11.94598388671875 70.11915588378906 8.736953735351562 64.82049560546875 6.495796203613281 C 59.33623123168945 4.176155090332031 53.50878524780273 3 47.5 3 M 47.5 0 C 73.7335205078125 0 95 21.2664794921875 95 47.5 C 95 73.7335205078125 73.7335205078125 95 47.5 95 C 21.2664794921875 95 0 73.7335205078125 0 47.5 C 0 21.2664794921875 21.2664794921875 0 47.5 0 Z" stroke="none" fill="#a9d373"/>
                    </g>
                  </g>
                </g>
              </g>
            </g>
          </g>
        </g>
      </g>
    </g>
    <g id="rompecabezas" transform="translate(340.82 1651.131)">
      <path id="Trazado_1172813" data-name="Trazado 1172813" d="M220.277,442.422h-16.02v6.425a3.188,3.188,0,0,0,3.188,3.188h9.645a3.188,3.188,0,0,0,3.188-3.188Z" transform="translate(-172.587 -373.965)" fill="#d8ecfe"/>
      <path id="Trazado_1172814" data-name="Trazado 1172814" d="M212.083,452.032h-4.642a3.188,3.188,0,0,1-3.187-3.187v-6.426H208.9v6.426A3.188,3.188,0,0,0,212.083,452.032Z" transform="translate(-172.584 -373.962)" fill="#b3dafe"/>
      <path id="Trazado_1172815" data-name="Trazado 1172815" d="M200,416.065H180.771a2.4,2.4,0,0,1,0-4.806H200a2.4,2.4,0,1,1,0,4.806Z" transform="translate(-150.704 -347.624)" fill="#eaf6ff"/>
      <path id="Trazado_1172816" data-name="Trazado 1172816" d="M185.41,416.064h-4.642a2.4,2.4,0,1,1,0-4.806h4.642a2.4,2.4,0,1,0,0,4.806Z" transform="translate(-150.7 -347.623)" fill="#d8ecfe"/>
      <path id="Trazado_1172817" data-name="Trazado 1172817" d="M128.75,236.979a4,4,0,0,1-4,4.006V252.64h-8.01v-2.346a3.98,3.98,0,0,0-2.264-3.6,24.034,24.034,0,0,1-13.757-21.727v-.028h8.01v.026a4.005,4.005,0,1,0,8.01,0v-.026h8.01v8.037A4,4,0,0,1,128.75,236.979Z" transform="translate(-85.065 -190.133)" fill="#aee69c"/>
      <path id="Trazado_1172818" data-name="Trazado 1172818" d="M119.83,250.294v2.346h-3.095v-2.346a3.98,3.98,0,0,0-2.264-3.6,24.034,24.034,0,0,1-13.757-21.727v-.028h3.095v.028a24.034,24.034,0,0,0,13.757,21.727A3.98,3.98,0,0,1,119.83,250.294Z" transform="translate(-85.065 -190.133)" fill="#89daa4"/>
      <path id="Trazado_1172819" data-name="Trazado 1172819" d="M280.055,203.2v.026a24.032,24.032,0,0,1-13.748,21.724,3.987,3.987,0,0,0-2.273,3.605v3.481h-8.01v-12.79a4.005,4.005,0,0,0,0-8.01V203.2h8.01a4.005,4.005,0,0,1,8.01,0Z" transform="translate(-216.344 -168.393)" fill="#8ac9fe"/>
      <path id="Trazado_1172820" data-name="Trazado 1172820" d="M258.18,93.8h-8.01a4.005,4.005,0,0,0-8.01,0h-8.01V85.819a4.005,4.005,0,0,1,0-8.01V69.8A24.031,24.031,0,0,1,258.18,93.8Z" transform="translate(-194.468 -58.998)" fill="#ffe177"/>
      <path id="Trazado_1172821" data-name="Trazado 1172821" d="M120.741,81.813a4,4,0,0,0,4,4.006V93.8h-8.01v.026a4.005,4.005,0,1,1-8.01,0V93.8h-8.01A23.985,23.985,0,0,1,124.745,69.8v8.01A4,4,0,0,0,120.741,81.813Z" transform="translate(-85.065 -58.998)" fill="#fe646f"/>
      <path id="Trazado_1172822" data-name="Trazado 1172822" d="M124.745,69.8v.2A23.98,23.98,0,0,0,103.809,93.8h-3.095A23.985,23.985,0,0,1,124.745,69.8Z" transform="translate(-85.065 -58.998)" fill="#fd4755"/>
      <g id="Grupo_1222145" data-name="Grupo 1222145" transform="translate(0.077)">
        <path id="Trazado_1172823" data-name="Trazado 1172823" d="M139.831,74.288a1.16,1.16,0,1,0-1.976,1.218A22.79,22.79,0,0,1,141.208,86.3h-5.793a5.166,5.166,0,0,0-10.056,0h-5.827V79.477a1.16,1.16,0,0,0-1.16-1.16,2.844,2.844,0,0,1,0-5.689,1.16,1.16,0,0,0,1.16-1.16V64.645a22.66,22.66,0,0,1,15.356,7.021,1.16,1.16,0,1,0,1.676-1.606A24.98,24.98,0,0,0,118.387,62.3h-.031a25.2,25.2,0,0,0-16.6,6.227,1.16,1.16,0,0,0,1.529,1.746,22.858,22.858,0,0,1,13.923-5.622v5.791a5.166,5.166,0,0,0,0,10.068V86.3h-6.849a1.16,1.16,0,0,0-1.16,1.16v.027a2.845,2.845,0,0,1-5.69,0v-.027a1.16,1.16,0,0,0-1.16-1.16H95.531a22.673,22.673,0,0,1,4.488-12.492,1.16,1.16,0,1,0-1.861-1.387,25.02,25.02,0,0,0-4.979,15.04c-.232,9.571,5.876,18.755,14.421,22.8a2.829,2.829,0,0,1,1.6,2.552v2.313c-2.382,0-4.006,1.276-4.006,3.563s1.572,3.565,4.006,3.563v5.281a4.5,4.5,0,0,0,4.348,4.348h9.646a4.5,4.5,0,0,0,4.348-4.348v-5.281c2.718,0,4.007-1.442,4.006-3.563,0-2.212-1.391-3.563-4.006-3.563v-2.313a2.838,2.838,0,0,1,1.61-2.557,25.613,25.613,0,0,0,14.411-22.8,25.132,25.132,0,0,0-3.732-13.172Zm-31.238,33.88A23,23,0,0,1,95.532,88.621h5.783a5.167,5.167,0,0,0,10.082,0h5.814V95.5a1.16,1.16,0,0,0,1.16,1.16,2.844,2.844,0,1,1,0,5.689,1.16,1.16,0,0,0-1.16,1.16V115.13h-5.689v-2.313A5.16,5.16,0,0,0,108.594,108.167Zm14.6,21.4h-9.646a2.127,2.127,0,0,1-2.027-2.476h13.7C125.223,128.327,124.831,129.565,123.194,129.565Zm4.789-9.629h-7.173a1.16,1.16,0,0,0-1.16,1.16s0,.005,0,.008,0,.005,0,.008a1.16,1.16,0,0,0,1.16,1.16h4.411v2.5h-13.7v-2.5h4.232a1.16,1.16,0,0,0,1.16-1.16s0-.005,0-.008,0-.005,0-.008a1.16,1.16,0,0,0-1.16-1.16h-6.994a1.251,1.251,0,1,1,0-2.485h19.224A1.243,1.243,0,1,1,127.983,119.936Zm.175-11.773a5.169,5.169,0,0,0-2.937,4.654v2.313h-5.689V104.536a5.166,5.166,0,0,0,0-10.068V88.621h6.849a1.161,1.161,0,0,0,1.161-1.153,2.845,2.845,0,0,1,5.69,0,1.161,1.161,0,0,0,1.16,1.153h6.818A23,23,0,0,1,128.157,108.163Z" transform="translate(-78.768 -52.656)"/>
        <g id="Grupo_1222144" data-name="Grupo 1222144" transform="translate(0)">
          <g id="Grupo_1222132" data-name="Grupo 1222132" transform="translate(38.443)">
            <path id="Trazado_1172824" data-name="Trazado 1172824" d="M249.684,7.127a1.16,1.16,0,0,1-1.16-1.16V1.16a1.161,1.161,0,0,1,2.321,0V5.967A1.16,1.16,0,0,1,249.684,7.127Z" transform="translate(-248.524)"/>
          </g>
          <g id="Grupo_1222133" data-name="Grupo 1222133" transform="translate(55.26 5.15)">
            <path id="Trazado_1172825" data-name="Trazado 1172825" d="M357.794,39.612a1.158,1.158,0,0,1-.425-1.585l2.4-4.162a1.16,1.16,0,1,1,2.01,1.16l-2.4,4.162A1.25,1.25,0,0,1,357.794,39.612Z" transform="translate(-357.213 -33.284)"/>
          </g>
          <g id="Grupo_1222136" data-name="Grupo 1222136" transform="translate(5.161 19.221)">
            <g id="Grupo_1222134" data-name="Grupo 1222134" transform="translate(62.412)">
              <path id="Trazado_1172826" data-name="Trazado 1172826" d="M436.94,128.366a1.161,1.161,0,0,1,.425-1.585l4.162-2.4a1.16,1.16,0,0,1,1.16,2.01l-4.162,2.4A1.209,1.209,0,0,1,436.94,128.366Z" transform="translate(-436.784 -124.222)"/>
            </g>
            <g id="Grupo_1222135" data-name="Grupo 1222135" transform="translate(0 36.039)">
              <path id="Trazado_1172827" data-name="Trazado 1172827" d="M33.574,361.282A1.178,1.178,0,0,1,34,359.7l4.162-2.4a1.16,1.16,0,1,1,1.16,2.01l-4.162,2.4A1.09,1.09,0,0,1,33.574,361.282Z" transform="translate(-33.429 -357.138)"/>
            </g>
          </g>
          <g id="Grupo_1222137" data-name="Grupo 1222137" transform="translate(19.221 5.15)">
            <path id="Trazado_1172828" data-name="Trazado 1172828" d="M126.858,39.188l-2.4-4.162a1.16,1.16,0,1,1,2.01-1.16l2.4,4.162a1.178,1.178,0,0,1-.425,1.585A1.209,1.209,0,0,1,126.858,39.188Z" transform="translate(-124.299 -33.284)"/>
          </g>
          <g id="Grupo_1222140" data-name="Grupo 1222140" transform="translate(5.15 19.221)">
            <g id="Grupo_1222138" data-name="Grupo 1222138">
              <path id="Trazado_1172829" data-name="Trazado 1172829" d="M38.1,128.791l-4.162-2.4a1.16,1.16,0,0,1,1.16-2.01l4.162,2.4a1.105,1.105,0,0,1,.425,1.585A1.183,1.183,0,0,1,38.1,128.791Z" transform="translate(-33.362 -124.222)"/>
            </g>
            <g id="Grupo_1222139" data-name="Grupo 1222139" transform="translate(62.422 36.039)">
              <path id="Trazado_1172830" data-name="Trazado 1172830" d="M441.527,361.707l-4.162-2.4a1.16,1.16,0,0,1,1.161-2.01l4.162,2.4a1.142,1.142,0,0,1,.425,1.585A1.068,1.068,0,0,1,441.527,361.707Z" transform="translate(-436.784 -357.139)"/>
            </g>
          </g>
          <g id="Grupo_1222143" data-name="Grupo 1222143" transform="translate(0 38.443)">
            <g id="Grupo_1222141" data-name="Grupo 1222141">
              <path id="Trazado_1172831" data-name="Trazado 1172831" d="M6.044,250.768H1.237a1.16,1.16,0,0,1,0-2.321H6.044a1.16,1.16,0,1,1,0,2.321Z" transform="translate(-0.077 -248.447)"/>
            </g>
            <g id="Grupo_1222142" data-name="Grupo 1222142" transform="translate(72.079)">
              <path id="Trazado_1172832" data-name="Trazado 1172832" d="M471.875,250.768h-4.806a1.16,1.16,0,0,1,0-2.321h4.806a1.16,1.16,0,0,1,0,2.321Z" transform="translate(-465.908 -248.447)"/>
            </g>
          </g>
        </g>
      </g>
    </g>
  </g>
</svg>
