<svg xmlns="http://www.w3.org/2000/svg" xmlns:xlink="http://www.w3.org/1999/xlink" width="113" height="113" viewBox="0 0 113 113">
  <defs>
    <filter id="Trazado_982547" x="0" y="0" width="113" height="113" filterUnits="userSpaceOnUse">
      <feOffset dy="3" input="SourceAlpha"/>
      <feGaussianBlur stdDeviation="3" result="blur"/>
      <feFlood flood-opacity="0.161"/>
      <feComposite operator="in" in2="blur"/>
      <feComposite in="SourceGraphic"/>
    </filter>
  </defs>
  <g id="Grupo_1222122" data-name="Grupo 1222122" transform="translate(-743 -1629.361)">
    <g id="Grupo_1221203" data-name="Grupo 1221203" transform="translate(0.954 188.666)">
      <g id="Grupo_1212633" data-name="Grupo 1212633" transform="translate(0 -6098.948)">
        <g id="Grupo_1209993" data-name="Grupo 1209993" transform="translate(0 10.835)">
          <g id="Grupo_1208706" data-name="Grupo 1208706" transform="translate(-1.454 3213.429)">
            <g id="Grupo_1148634" data-name="Grupo 1148634" transform="translate(488.454 600.047)">
              <g id="Grupo_1148525" data-name="Grupo 1148525" transform="translate(264.046 3721.333)">
                <g transform="matrix(1, 0, 0, 1, -9, -6)" filter="url(#Trazado_982547)">
                  <g id="Trazado_982547-2" data-name="Trazado 982547" transform="translate(9 6)" fill="#e4f1d4">
                    <path d="M 47.5 93.5 C 41.28937149047852 93.5 35.26533508300781 92.28397369384766 29.59518623352051 89.88570404052734 C 24.11771965026855 87.56893157958984 19.19813346862793 84.25196075439453 14.97309303283691 80.02691650390625 C 10.74804019927979 75.80186462402344 7.431066513061523 70.88229370117188 5.114293098449707 65.40481567382812 C 2.716026782989502 59.73468017578125 1.5 53.71062850952148 1.5 47.5 C 1.5 41.28937149047852 2.716026782989502 35.26533508300781 5.114293098449707 29.59518623352051 C 7.431066513061523 24.11771965026855 10.74804019927979 19.19813346862793 14.97309303283691 14.97309303283691 C 19.19813346862793 10.74804019927979 24.11771965026855 7.431066513061523 29.59518623352051 5.114293098449707 C 35.26533508300781 2.716026782989502 41.28937149047852 1.5 47.5 1.5 C 53.71062850952148 1.5 59.73468017578125 2.716026782989502 65.40481567382812 5.114293098449707 C 70.88229370117188 7.431066513061523 75.80186462402344 10.74804019927979 80.02691650390625 14.97309303283691 C 84.25196075439453 19.19813346862793 87.56893157958984 24.11771965026855 89.88570404052734 29.59518623352051 C 92.28397369384766 35.26533508300781 93.5 41.28937149047852 93.5 47.5 C 93.5 53.71062850952148 92.28397369384766 59.73468017578125 89.88570404052734 65.40481567382812 C 87.56893157958984 70.88229370117188 84.25196075439453 75.80186462402344 80.02691650390625 80.02691650390625 C 75.80186462402344 84.25196075439453 70.88229370117188 87.56893157958984 65.40481567382812 89.88570404052734 C 59.73468017578125 92.28397369384766 53.71062850952148 93.5 47.5 93.5 Z" stroke="none"/>
                    <path d="M 47.5 3 C 41.49121475219727 3 35.66376876831055 4.176155090332031 30.17950439453125 6.495796203613281 C 24.88084411621094 8.736953735351562 20.12152099609375 11.94598388671875 16.03375244140625 16.03375244140625 C 11.94598388671875 20.12152099609375 8.736953735351562 24.88084411621094 6.495796203613281 30.17950439453125 C 4.176155090332031 35.66376876831055 3 41.49121475219727 3 47.5 C 3 53.50878524780273 4.176155090332031 59.33623123168945 6.495796203613281 64.82049560546875 C 8.736953735351562 70.11915588378906 11.94598388671875 74.87847900390625 16.03375244140625 78.96624755859375 C 20.12152099609375 83.05401611328125 24.88084411621094 86.26304626464844 30.17950439453125 88.50419616699219 C 35.66376876831055 90.82384490966797 41.49121475219727 92 47.5 92 C 53.50878524780273 92 59.33623123168945 90.82384490966797 64.82049560546875 88.50419616699219 C 70.11915588378906 86.26304626464844 74.87847900390625 83.05401611328125 78.96624755859375 78.96624755859375 C 83.05401611328125 74.87847900390625 86.26304626464844 70.11915588378906 88.50419616699219 64.82049560546875 C 90.82384490966797 59.33623123168945 92 53.50878524780273 92 47.5 C 92 41.49121475219727 90.82384490966797 35.66376876831055 88.50419616699219 30.17950439453125 C 86.26304626464844 24.88084411621094 83.05401611328125 20.12152099609375 78.96624755859375 16.03375244140625 C 74.87847900390625 11.94598388671875 70.11915588378906 8.736953735351562 64.82049560546875 6.495796203613281 C 59.33623123168945 4.176155090332031 53.50878524780273 3 47.5 3 M 47.5 0 C 73.7335205078125 0 95 21.2664794921875 95 47.5 C 95 73.7335205078125 73.7335205078125 95 47.5 95 C 21.2664794921875 95 0 73.7335205078125 0 47.5 C 0 21.2664794921875 21.2664794921875 0 47.5 0 Z" stroke="none" fill="#a9d373"/>
                  </g>
                </g>
              </g>
            </g>
          </g>
        </g>
      </g>
    </g>
    <g id="estudio" transform="translate(758.693 1629.036)">
      <g id="Grupo_1222121" data-name="Grupo 1222121" transform="translate(1.195 30.132)">
        <g id="Grupo_1222120" data-name="Grupo 1222120" transform="translate(0 0)">
          <path id="Trazado_1172766" data-name="Trazado 1172766" d="M201.212,236.57H219.1v33.051H201.212Z" transform="translate(-170.334 -204.668)" fill="#88a8d8"/>
          <g id="Grupo_1222119" data-name="Grupo 1222119">
            <g id="Grupo_1222111" data-name="Grupo 1222111">
              <g id="Grupo_1222096" data-name="Grupo 1222096" transform="translate(0 5.976)">
                <g id="Grupo_1222095" data-name="Grupo 1222095">
                  <g id="Grupo_1222094" data-name="Grupo 1222094">
                    <g id="Grupo_1222093" data-name="Grupo 1222093">
                      <g id="Grupo_1222092" data-name="Grupo 1222092">
                        <g id="Grupo_1222091" data-name="Grupo 1222091">
                          <path id="Trazado_1172767" data-name="Trazado 1172767" d="M17.958,73.926a8.492,8.492,0,0,0-3.444.73L7.965,77.562a.781.781,0,0,0,0,1.428L14.514,81.9a8.493,8.493,0,0,0,3.444.73H75.816v-8.7Z" transform="translate(-7.5 -73.926)" fill="#e07f84"/>
                          <path id="Trazado_1172768" data-name="Trazado 1172768" d="M453.11,73.926h-4.57v8.7h4.57a4.35,4.35,0,0,0,0-8.7Z" transform="translate(-378.237 -73.926)" fill="#eac12e"/>
                        </g>
                        <path id="Trazado_1172769" data-name="Trazado 1172769" d="M16.909,82.916V74.351a8.483,8.483,0,0,0-2.4.662L7.965,77.919a.781.781,0,0,0,0,1.428l6.549,2.906A8.494,8.494,0,0,0,16.909,82.916Z" transform="translate(-7.5 -74.283)" fill="#a87f7f"/>
                        <path id="Trazado_1172770" data-name="Trazado 1172770" d="M426.667,73.926h5.076v8.7h-5.076Z" transform="translate(-359.851 -73.926)" fill="#edeaed"/>
                      </g>
                    </g>
                  </g>
                </g>
              </g>
              <g id="Grupo_1222110" data-name="Grupo 1222110" transform="translate(23.771)">
                <g id="Grupo_1222109" data-name="Grupo 1222109">
                  <g id="Grupo_1222108" data-name="Grupo 1222108">
                    <g id="Grupo_1222107" data-name="Grupo 1222107">
                      <g id="Grupo_1222106" data-name="Grupo 1222106">
                        <g id="Grupo_1222105" data-name="Grupo 1222105">
                          <g id="Grupo_1222104" data-name="Grupo 1222104">
                            <g id="Grupo_1222103" data-name="Grupo 1222103">
                              <g id="Grupo_1222102" data-name="Grupo 1222102">
                                <g id="Grupo_1222101" data-name="Grupo 1222101">
                                  <g id="Grupo_1222100" data-name="Grupo 1222100">
                                    <g id="Grupo_1222099" data-name="Grupo 1222099">
                                      <g id="Grupo_1222097" data-name="Grupo 1222097">
                                        <path id="Trazado_1172771" data-name="Trazado 1172771" d="M182.585,39.772h-1.422A2.224,2.224,0,0,0,178.938,42V40.571a2.224,2.224,0,0,0-2.224-2.224h-1.422a2.224,2.224,0,0,0-2.224,2.224V39.438a2.224,2.224,0,0,0-2.224-2.224H169.42a2.224,2.224,0,0,0-2.224,2.224v-.776a2.224,2.224,0,0,0-2.224-2.224h-1.422a2.224,2.224,0,0,0-2.224,2.224l0,8.6a3.849,3.849,0,0,1-3.849,3.848h-.846a8.616,8.616,0,0,0,3.14,6.662l2.02,1.591a5.105,5.105,0,0,1,1.947,4.011v1.57h17.886V61.283a5.107,5.107,0,0,1,.362-1.889l1.679-4.214a21.447,21.447,0,0,0,1.147-6.92V42a2.224,2.224,0,0,0-2.224-2.224Z" transform="translate(-156.628 -36.437)" fill="#ffece4"/>
                                      </g>
                                      <g id="Grupo_1222098" data-name="Grupo 1222098" transform="translate(14.612 1.909)">
                                        <path id="Trazado_1172772" data-name="Trazado 1172772" d="M259.642,49.84H258.22A2.224,2.224,0,0,0,256,52.064V50.638a2.224,2.224,0,0,0-2.224-2.224h-1.422a2.215,2.215,0,0,0-1.541.623,2.217,2.217,0,0,1,.679,1.6V56.9a21.447,21.447,0,0,1-1.147,6.92l-1.679,4.214a5.107,5.107,0,0,0-.362,1.889v5.092h10.381V71.351a5.107,5.107,0,0,1,.362-1.889l1.679-4.214a21.446,21.446,0,0,0,1.147-6.92V52.064A2.225,2.225,0,0,0,259.642,49.84Z" transform="translate(-248.298 -48.414)" fill="#ffddce"/>
                                      </g>
                                      <path id="Trazado_1172773" data-name="Trazado 1172773" d="M248.3,236.57h10.381v33.051H248.3Z" transform="translate(-233.685 -204.668)" fill="#7296d1"/>
                                    </g>
                                  </g>
                                </g>
                              </g>
                            </g>
                          </g>
                        </g>
                      </g>
                    </g>
                  </g>
                </g>
              </g>
            </g>
            <g id="Grupo_1222118" data-name="Grupo 1222118" transform="translate(0.174 52.949)">
              <g id="Grupo_1222117" data-name="Grupo 1222117">
                <g id="Grupo_1222116" data-name="Grupo 1222116">
                  <g id="Grupo_1222113" data-name="Grupo 1222113" transform="translate(5.249)">
                    <path id="Trazado_1172774" data-name="Trazado 1172774" d="M75.754,375.285c-11.536-10.107-29.04-6.055-33.284-4.868a1.3,1.3,0,0,0-.951,1.252v8.945H75.754Z" transform="translate(-41.519 -368.61)" fill="#f7f4f7"/>
                    <path id="Trazado_1172775" data-name="Trazado 1172775" d="M256.291,375.285c11.536-10.107,29.04-6.055,33.284-4.868a1.3,1.3,0,0,1,.951,1.252v8.945H256.291Z" transform="translate(-222.056 -368.61)" fill="#edeaed"/>
                    <g id="Grupo_1222112" data-name="Grupo 1222112" transform="translate(56.882 0.073)">
                      <path id="Trazado_1172776" data-name="Trazado 1172776" d="M409,370.8a51.457,51.457,0,0,0-10.638-1.734l.257.071a1.3,1.3,0,0,1,.951,1.252V381h10.381v-8.945A1.3,1.3,0,0,0,409,370.8Z" transform="translate(-398.362 -369.067)" fill="#e0dde0"/>
                    </g>
                  </g>
                  <g id="Grupo_1222115" data-name="Grupo 1222115" transform="translate(0 5.377)">
                    <path id="Trazado_1172777" data-name="Trazado 1172777" d="M64.554,409.431c-12.311-10.786-31.022-6.389-35.413-5.152a1.3,1.3,0,0,0-.946,1.251v7.559H64.554Z" transform="translate(-25.07 -402.342)" fill="#edeaed"/>
                    <path id="Trazado_1172778" data-name="Trazado 1172778" d="M256.291,409.431c12.311-10.786,31.022-6.389,35.413-5.152a1.3,1.3,0,0,1,.946,1.251v7.559H256.291Z" transform="translate(-216.807 -402.342)" fill="#e0dde0"/>
                    <g id="Grupo_1222114" data-name="Grupo 1222114" transform="translate(64.652 0.152)">
                      <path id="Trazado_1172779" data-name="Trazado 1172779" d="M424.425,405.078a54.5,54.5,0,0,0-10.245-1.785A1.3,1.3,0,0,1,415,404.5v9.386h10.369v-7.559A1.3,1.3,0,0,0,424.425,405.078Z" transform="translate(-414.18 -403.293)" fill="#d1ccd3"/>
                    </g>
                    <path id="Trazado_1172780" data-name="Trazado 1172780" d="M85.037,448.958H11.115a2.523,2.523,0,1,1,0-5.045H85.037a2.523,2.523,0,1,1,0,5.045Z" transform="translate(-8.592 -437.286)" fill="#eab14d"/>
                    <path id="Trazado_1172781" data-name="Trazado 1172781" d="M433.517,443.913H423.154a2.523,2.523,0,0,1,2.523,2.523v2.523h7.84a2.523,2.523,0,0,0,0-5.045Z" transform="translate(-357.072 -437.286)" fill="#e8ae4d"/>
                  </g>
                </g>
              </g>
            </g>
          </g>
          <path id="Trazado_1172782" data-name="Trazado 1172782" d="M190.139,207.156v3.4a1.692,1.692,0,0,0,1.692,1.692h18.5a1.692,1.692,0,0,0,1.692-1.692v-3.4a1.692,1.692,0,0,0-1.692-1.692h-18.5A1.692,1.692,0,0,0,190.139,207.156Z" transform="translate(-161.026 -178.521)" fill="#5884c9"/>
          <path id="Trazado_1172783" data-name="Trazado 1172783" d="M248.3,212.25h10.925a1.692,1.692,0,0,0,1.692-1.692v-3.4a1.692,1.692,0,0,0-1.692-1.692H248.3Z" transform="translate(-209.913 -178.521)" fill="#4478c1"/>
        </g>
      </g>
      <path id="Trazado_1172784" data-name="Trazado 1172784" d="M78.408,93.937V91.645a2.5,2.5,0,0,0-1.817-2.4l-.307-.085V86.14a2.5,2.5,0,0,0-1.825-2.4c-7.11-1.988-15.883-2.621-23.3-.659V77.056a1.2,1.2,0,1,0-2.391,0v6.757A26.636,26.636,0,0,0,40.853,88.2a26.557,26.557,0,0,0-7.584-4.266V65.056h15.5v6.429a1.2,1.2,0,1,0,2.391,0V64.98a2.891,2.891,0,0,0,2.236-2.811v-3.4a2.89,2.89,0,0,0-2.236-2.81v-.978c0-1.947,1.957-4.209,2.823-8.975h22.09a5.546,5.546,0,1,0,0-11.091H54.251a3.424,3.424,0,0,0-3.327-2.641H49.5a3.4,3.4,0,0,0-1.463.329,3.423,3.423,0,0,0-2.986-1.754H43.63a3.4,3.4,0,0,0-1.6.4,3.42,3.42,0,0,0-2.849-1.531H37.759a3.4,3.4,0,0,0-1.784.5,3.415,3.415,0,0,0-2.665-1.279H31.888a3.424,3.424,0,0,0-3.42,3.42v2.556H11.653a9.627,9.627,0,0,0-3.929.833L1.175,38.65a1.977,1.977,0,0,0,0,3.614L7.724,45.17A9.63,9.63,0,0,0,11.653,46H23.848a9.781,9.781,0,0,0,3.519,6.406c1.384,1.254,2.938,1.792,3.4,3.75a2.888,2.888,0,0,0-1.657,2.608v3.4a2.892,2.892,0,0,0,1.765,2.66V83.164c-7.435-2.051-16.336-1.468-23.631.572a2.5,2.5,0,0,0-1.825,2.4v3.019l-.307.085a2.5,2.5,0,0,0-1.817,2.4v2.292a3.718,3.718,0,0,0,.593,7.388H77.814a3.718,3.718,0,0,0,.593-7.388ZM74.283,37.3h1.786a3.154,3.154,0,1,1,0,6.309H74.283Zm-5.076,0h2.684v6.309H69.207Zm-14.864,0H66.816v1.959H54.343Zm0,4.652v-.3H66.816v1.959H54.282q.06-.825.062-1.657Zm-44.935,1.3c-.634-.206-.509-.2-6.411-2.8,5.9-2.6,5.776-2.6,6.411-2.8ZM75.942,91.545a.1.1,0,0,1,.074.1v2.244H45.138C53.926,88.565,66.245,88.815,75.942,91.545ZM42.049,90.306c8.475-7.085,21.374-7.174,31.767-4.267a.1.1,0,0,1,.077.1v2.433c-10.678-2.351-22.911-1.96-31.844,4.5ZM51,62.169a.5.5,0,0,1-.5.5H32a.5.5,0,0,1-.5-.5v-3.4a.5.5,0,0,1,.5-.5H50.5a.5.5,0,0,1,.5.5v3.4ZM24.966,43.612H11.8V41.653h5.031a1.2,1.2,0,1,0,0-2.391H11.8V37.3H28.466v1.959H22.4a1.2,1.2,0,1,0,0,2.391H28.37a2.656,2.656,0,0,1-2.558,1.959Zm3.88,6.918a7.305,7.305,0,0,1-2.59-4.546,5.051,5.051,0,0,0,4.6-5.024c0-1.8,0-6.809,0-8.6a1.03,1.03,0,0,1,1.029-1.029h1.422a1.03,1.03,0,0,1,1.029,1.029v.776a1.2,1.2,0,1,0,2.391,0A1.03,1.03,0,0,1,37.758,32.1h1.422a1.03,1.03,0,0,1,1.029,1.029v1.133a1.2,1.2,0,0,0,2.391,0,1.03,1.03,0,0,1,1.029-1.029h1.422a1.03,1.03,0,0,1,1.029,1.029v1.426a1.2,1.2,0,1,0,2.391,0A1.03,1.03,0,0,1,49.5,34.662h1.422a1.03,1.03,0,0,1,1.029,1.029v6.264c0,6.807-3.188,9.815-3.188,13.023v.9H33.155c-.609-3.2-3.149-4.235-4.308-5.35ZM7.814,86.139a.1.1,0,0,1,.077-.1c10.405-2.91,23.361-2.759,31.767,4.267v2.765c-8.955-6.474-21.195-6.84-31.844-4.5V86.139ZM5.69,91.645a.1.1,0,0,1,.074-.1c9.726-2.738,22.033-2.97,30.8,2.344H5.69Zm72.125,7.289H3.892a1.327,1.327,0,1,1,0-2.654H77.814a1.327,1.327,0,0,1,0,2.654Z" transform="translate(0 0)"/>
    </g>
  </g>
</svg>
