<svg xmlns="http://www.w3.org/2000/svg" xmlns:xlink="http://www.w3.org/1999/xlink" width="93.934" height="93.934" viewBox="0 0 93.934 93.934">
  <defs>
    <filter id="Trazado_978624" x="0" y="0" width="93.934" height="93.934" filterUnits="userSpaceOnUse">
      <feOffset dy="3" input="SourceAlpha"/>
      <feGaussianBlur stdDeviation="3" result="blur"/>
      <feFlood flood-opacity="0.161"/>
      <feComposite operator="in" in2="blur"/>
      <feComposite in="SourceGraphic"/>
    </filter>
  </defs>
  <g id="Grupo_1222150" data-name="Grupo 1222150" transform="translate(-609 -2553.533)">
    <g id="Grupo_1212226" data-name="Grupo 1212226" transform="translate(0 1030)">
      <g id="Grupo_1210963" data-name="Grupo 1210963" transform="translate(0 -377.186)">
        <g id="Grupo_1208068" data-name="Grupo 1208068" transform="translate(412 470.719)">
          <g id="Grupo_1144123" data-name="Grupo 1144123" transform="translate(206 1436)">
            <g transform="matrix(1, 0, 0, 1, -9, -6)" filter="url(#Trazado_978624)">
              <g id="Trazado_978624-2" data-name="Trazado 978624" transform="translate(9 6)" fill="#fbf3fb">
                <path d="M 37.966796875 74.43359375 C 33.04315185546875 74.43359375 28.26757431030273 73.46962738037109 23.77274131774902 71.56847381591797 C 19.43047523498535 69.73184967041016 15.53040790557861 67.10224914550781 12.18087482452393 63.75271987915039 C 8.831341743469238 60.4031867980957 6.201741218566895 56.50312042236328 4.365118980407715 52.16086196899414 C 2.463963508605957 47.66601943969727 1.499996900558472 42.89044189453125 1.499996900558472 37.966796875 C 1.499996900558472 33.04315185546875 2.463963508605957 28.26757431030273 4.365118980407715 23.77274131774902 C 6.201741218566895 19.43047523498535 8.831341743469238 15.53040790557861 12.18087482452393 12.18087482452393 C 15.53040790557861 8.831341743469238 19.43047523498535 6.201741218566895 23.77274131774902 4.365118980407715 C 28.26757431030273 2.463963508605957 33.04315185546875 1.499996900558472 37.966796875 1.499996900558472 C 42.89044189453125 1.499996900558472 47.66601943969727 2.463963508605957 52.16086196899414 4.365118980407715 C 56.50312042236328 6.201741218566895 60.4031867980957 8.831341743469238 63.75271987915039 12.18087482452393 C 67.10224914550781 15.53040790557861 69.73184967041016 19.43047523498535 71.56847381591797 23.77274131774902 C 73.46962738037109 28.26757431030273 74.43359375 33.04315185546875 74.43359375 37.966796875 C 74.43359375 42.89044189453125 73.46962738037109 47.66601943969727 71.56847381591797 52.16086196899414 C 69.73184967041016 56.50313186645508 67.10224914550781 60.4031867980957 63.75271987915039 63.75271987915039 C 60.4031867980957 67.10224914550781 56.50313186645508 69.73184967041016 52.16086196899414 71.56847381591797 C 47.66601943969727 73.46962738037109 42.89044189453125 74.43359375 37.966796875 74.43359375 Z" stroke="none"/>
                <path d="M 37.966796875 3 C 33.2449836730957 3 28.66600799560547 3.924095153808594 24.35705947875977 5.746635437011719 C 20.19359588623047 7.507621765136719 16.45379638671875 10.02927398681641 13.24153518676758 13.24153518676758 C 10.02927398681641 16.45379638671875 7.507621765136719 20.19359588623047 5.746635437011719 24.35705947875977 C 3.924095153808594 28.66600799560547 3 33.2449836730957 3 37.966796875 C 3 42.6886100769043 3.924095153808594 47.26758575439453 5.746635437011719 51.57653427124023 C 7.507621765136719 55.73999786376953 10.02927398681641 59.47979736328125 13.24153518676758 62.69205856323242 C 16.45379638671875 65.90431976318359 20.19359588623047 68.42597198486328 24.35705947875977 70.18695831298828 C 28.66600799560547 72.00949859619141 33.2449836730957 72.93359375 37.966796875 72.93359375 C 42.6886100769043 72.93359375 47.26758575439453 72.00949859619141 51.57653427124023 70.18695831298828 C 55.73999786376953 68.42597198486328 59.47979736328125 65.90431976318359 62.69205856323242 62.69205856323242 C 65.90431976318359 59.47979736328125 68.42597198486328 55.73999786376953 70.18695831298828 51.57653427124023 C 72.00949859619141 47.26758575439453 72.93359375 42.6886100769043 72.93359375 37.966796875 C 72.93359375 33.2449836730957 72.00949859619141 28.66600799560547 70.18695831298828 24.35705947875977 C 68.42597198486328 20.19359588623047 65.90431976318359 16.45379638671875 62.69205856323242 13.24153518676758 C 59.47979736328125 10.02927398681641 55.73999786376953 7.507621765136719 51.57653427124023 5.746635437011719 C 47.26758575439453 3.924095153808594 42.6886100769043 3 37.966796875 3 M 37.966796875 0 C 58.93528366088867 0 75.93359375 16.99831008911133 75.93359375 37.966796875 C 75.93359375 58.93528366088867 58.93528366088867 75.93359375 37.966796875 75.93359375 C 16.99831008911133 75.93359375 0 58.93528366088867 0 37.966796875 C 0 16.99831008911133 16.99831008911133 0 37.966796875 0 Z" stroke="none" fill="#df93dd"/>
              </g>
            </g>
          </g>
        </g>
      </g>
    </g>
    <g id="mentor" transform="translate(623.532 2567.186)">
      <g id="Grupo_1222148" data-name="Grupo 1222148" transform="translate(7.579 1.001)">
        <path id="Trazado_1172833" data-name="Trazado 1172833" d="M126.133,372.119,126,378.79H96.766c-2.562,0-3.3-1.159-3.309-2.6l-.041-6.209a12.026,12.026,0,0,1,3.289-8.256l7.811,5.393L114.9,359.95a14.387,14.387,0,0,1,4.057,10.035l-.005,1.134a1,1,0,0,0,.995,1Z" transform="translate(-82.834 -312.947)" fill="#7293df"/>
        <path id="Trazado_1172834" data-name="Trazado 1172834" d="M75.035,378.79H70.993a2.611,2.611,0,0,1-2.611-2.6l-.041-6.209A14.387,14.387,0,0,1,72.4,359.95l2.577,1.779a14.371,14.371,0,0,0-2.591,8.256l.041,6.209A2.611,2.611,0,0,0,75.035,378.79Z" transform="translate(-61.103 -312.947)" fill="#5c85da"/>
        <path id="Trazado_1172835" data-name="Trazado 1172835" d="M133.452,332.2s-6.756,7.7-6.756,7.7l-3.63,2.783-3.631-2.783-4.614-5.256c1.093-3.6,5.686-6.391,10.267-6.707a3.266,3.266,0,0,1,.859.147A14.409,14.409,0,0,1,133.452,332.2Z" transform="translate(-101.385 -285.199)" fill="#deddf5"/>
        <path id="Trazado_1172836" data-name="Trazado 1172836" d="M111.169,327.031a14.436,14.436,0,0,0-10.267,6.707L98.76,331.3a14.453,14.453,0,0,1,12.409-4.268Z" transform="translate(-87.467 -284.296)" fill="#c7c4ea"/>
        <path id="Trazado_1172837" data-name="Trazado 1172837" d="M310.777,93.587h16.978a2.8,2.8,0,0,1,2.8,2.8V117.58a2.8,2.8,0,0,1-2.8,2.8h-5.112l-4.248-1.827-4.64,1.827H304.8Z" transform="translate(-266.03 -82.106)" fill="#deddf5"/>
        <path id="Trazado_1172838" data-name="Trazado 1172838" d="M382.267,223.036l-1.428,5.038h-8.887l2.563-7.466a4.063,4.063,0,0,1,7.752,2.427Z" transform="translate(-324.224 -189.8)" fill="#c7c4ea"/>
        <path id="Trazado_1172839" data-name="Trazado 1172839" d="M274.307,109.626a6.913,6.913,0,0,1-5.3,6.713,20.058,20.058,0,0,1-1.958,4.041h-3.009a2.8,2.8,0,0,1-2.8-2.8V96.388a2.8,2.8,0,0,1,2.8-2.8h8.985a8.865,8.865,0,0,1,.589,1.314,8.23,8.23,0,0,1-.309,6.448,5.967,5.967,0,0,1,.789,2.425,6.208,6.208,0,0,1-.417,2.973A6.9,6.9,0,0,1,274.307,109.626Z" transform="translate(-228.28 -82.106)" fill="#c7c4ea"/>
        <path id="Trazado_1172840" data-name="Trazado 1172840" d="M349.743,238.839l-9.286,27.053,4.268.886,7.682-27.1A1.4,1.4,0,0,0,349.743,238.839Z" transform="translate(-296.931 -207.165)" fill="#e4996d"/>
        <path id="Trazado_1172841" data-name="Trazado 1172841" d="M341.908,451.2l-.136,6.671H337.73l.136-6.671Z" transform="translate(-294.567 -392.028)" fill="#c7c4ea"/>
        <path id="Trazado_1172842" data-name="Trazado 1172842" d="M160.316,350.524h-1.842a1.734,1.734,0,0,1-1.734-1.734v-2.206a1.734,1.734,0,0,1,1.734-1.734h1.842a1.734,1.734,0,0,1,1.734,1.734v2.206A1.734,1.734,0,0,1,160.316,350.524Z" transform="translate(-137.714 -299.862)" fill="#7a8fa5"/>
        <path id="Trazado_1172843" data-name="Trazado 1172843" d="M153.455,395.106l3.23-3.678-.677-2.8a1.616,1.616,0,0,0-1.571-1.237h-2.765a1.617,1.617,0,0,0-1.571,1.237l-.677,2.8,3.23,3.678A.533.533,0,0,0,153.455,395.106Z" transform="translate(-131.373 -336.729)" fill="#7a8fa5"/>
        <circle id="Elipse_14458" data-name="Elipse 14458" cx="4.234" cy="4.234" r="4.234" transform="translate(34.894 23.287)" fill="#ffcbbe"/>
        <circle id="Elipse_14459" data-name="Elipse 14459" cx="4.234" cy="4.234" r="4.234" transform="translate(0 23.287)" fill="#ffcbbe"/>
        <path id="Trazado_1172844" data-name="Trazado 1172844" d="M121.271,102.341a17.527,17.527,0,0,1-14.027,17.173c-9.636-1.831-14.712-8.692-14.712-17.173a16.928,16.928,0,0,1,14.712-17.174A17.528,17.528,0,0,1,121.271,102.341Z" transform="translate(-82.069 -74.809)" fill="#ffddcf"/>
        <path id="Trazado_1172845" data-name="Trazado 1172845" d="M66.277,117.253a17.522,17.522,0,1,1,0-34.347,17.526,17.526,0,0,0,0,34.347Z" transform="translate(-41.101 -72.547)" fill="#ffcbbe"/>
        <path id="Trazado_1172846" data-name="Trazado 1172846" d="M322.359,451.3h-1.313a3.923,3.923,0,0,1-3.923-3.923v-.34a3.923,3.923,0,0,1,3.923-3.923h1.313a3.923,3.923,0,0,1,3.923,3.923v.34A3.923,3.923,0,0,1,322.359,451.3Z" transform="translate(-276.708 -385.017)" fill="#ffddcf"/>
        <path id="Trazado_1172847" data-name="Trazado 1172847" d="M150.07,39.533a12.063,12.063,0,0,1-2.751-.28,1.078,1.078,0,0,1-.781-.719,18.436,18.436,0,0,0-.995-2.5,5.615,5.615,0,0,1-5.569-4.4,6.787,6.787,0,0,1-7.328-1.539,5.926,5.926,0,0,1-6.251,0,6.647,6.647,0,0,1-4.025,1.97c-.867-6.406,3.9-14.078,10.628-16.041a5.6,5.6,0,0,1,1.824,2.393c5.062-4.814,12.983.008,11.23,6.467,4.558.356,6.636,6.38,3.366,9.49a3.3,3.3,0,0,1,.652,5.157Z" transform="translate(-107.84 -14.89)" fill="#7a8fa5"/>
        <path id="Trazado_1172848" data-name="Trazado 1172848" d="M40.38,8.638A19.763,19.763,0,0,0,29.752,24.679a6.4,6.4,0,0,1-3.3-.431,5.615,5.615,0,0,1-5.568,4.4,18.26,18.26,0,0,0-1,2.5,1.076,1.076,0,0,1-.781.719,12.056,12.056,0,0,1-2.751.28A3.3,3.3,0,0,1,17,26.987c-3.27-3.11-1.192-9.134,3.366-9.49C18.616,11.038,26.537,6.216,31.6,11.03A5.613,5.613,0,0,1,37.007,7.5,5.556,5.556,0,0,1,40.38,8.638Z" transform="translate(-15.222 -7.501)" fill="#6a829a"/>
        <g id="Grupo_1222147" data-name="Grupo 1222147" transform="translate(7.156 28.179)">
          <ellipse id="Elipse_14460" data-name="Elipse 14460" cx="3.915" cy="3.118" rx="3.915" ry="3.118" fill="#ffa1ac"/>
          <ellipse id="Elipse_14461" data-name="Elipse 14461" cx="3.915" cy="3.118" rx="3.915" ry="3.118" transform="translate(21.22)" fill="#ffa1ac"/>
        </g>
      </g>
      <g id="Grupo_1222149" data-name="Grupo 1222149" transform="translate(6.579 0)">
        <path id="Trazado_1172849" data-name="Trazado 1172849" d="M381.8,182.861H370.758a1,1,0,0,0,0,2H381.8a1,1,0,1,0,0-2Z" transform="translate(-321.324 -158.474)"/>
        <path id="Trazado_1172850" data-name="Trazado 1172850" d="M381.8,140.1H370.758a1,1,0,0,0,0,2H381.8a1,1,0,1,0,0-2Z" transform="translate(-321.324 -121.42)"/>
        <path id="Trazado_1172851" data-name="Trazado 1172851" d="M107.7,200.172a1,1,0,0,0-1,1v1.6a1,1,0,1,0,2,0v-1.6A1,1,0,0,0,107.7,200.172Z" transform="translate(-93.346 -173.477)"/>
        <path id="Trazado_1172852" data-name="Trazado 1172852" d="M232.6,203.773a1,1,0,0,0,1-1v-1.6a1,1,0,1,0-2,0v1.6A1,1,0,0,0,232.6,203.773Z" transform="translate(-201.587 -173.477)"/>
        <path id="Trazado_1172853" data-name="Trazado 1172853" d="M158.827,213.474a1,1,0,0,0-1.508-1.314,1.91,1.91,0,0,1-2.884,0,1,1,0,0,0-1.508,1.314,3.911,3.911,0,0,0,5.9,0Z" transform="translate(-133.196 -183.568)"/>
        <path id="Trazado_1172854" data-name="Trazado 1172854" d="M69.3,11.481H63.869a1,1,0,0,0,0,2H69.3a1.8,1.8,0,0,1,1.8,1.8V36.475a1.8,1.8,0,0,1-1.8,1.8H62.744l1.273-4.493a2.4,2.4,0,0,0-4.572-1.431l-2.034,5.925H45a18.431,18.431,0,0,0,2.029-4.532,5.231,5.231,0,0,0,4.06-8.073,4.4,4.4,0,0,0,.644-2.828,4.183,4.183,0,0,0-1.137-2.5,6.61,6.61,0,0,0,.366-6.865H59.2a1,1,0,1,0,0-2H49.406a6.126,6.126,0,0,0-2.433-1.293,7.467,7.467,0,0,0-3.7-7.492,7.61,7.61,0,0,0-8.4.286,6.793,6.793,0,0,0-11.242,0A7.61,7.61,0,0,0,15.242,2.7a7.467,7.467,0,0,0-3.7,7.492,6.434,6.434,0,0,0-4.372,4.166,6.468,6.468,0,0,0,.744,5.993,4.183,4.183,0,0,0-1.137,2.5,4.4,4.4,0,0,0,.645,2.829,5.231,5.231,0,0,0,4.061,8.072A18.61,18.61,0,0,0,20.9,45.057a15.523,15.523,0,0,0-7.083,12.989l.041,6.21a3.621,3.621,0,0,0,3.612,3.588H50.024a5.063,5.063,0,0,0,2.063.438h.972a5.09,5.09,0,0,0,3.634-8.658l5.483-19.347H69.3a3.805,3.805,0,0,0,3.8-3.8V15.282a3.805,3.805,0,0,0-3.8-3.8ZM47.517,31.651a18.514,18.514,0,0,0,.151-5.155,13.66,13.66,0,0,0,1.661.141,3.229,3.229,0,0,1-1.813,5.015ZM8.579,28.521a3.218,3.218,0,0,1,.61-1.884A13.674,13.674,0,0,0,10.85,26.5,18.516,18.516,0,0,0,11,31.652,3.24,3.24,0,0,1,8.579,28.521Zm3.759-6.813c-.434.8-.71,1.788-1.107,2.682a10.467,10.467,0,0,1-2.094.248,2.4,2.4,0,0,1-.369-1.589,2.132,2.132,0,0,1,1.077-1.687,1,1,0,0,0,.2-1.6,4.427,4.427,0,0,1-.992-4.739A4.4,4.4,0,0,1,12.8,12a1,1,0,0,0,.887-1.259,5.544,5.544,0,0,1,2.576-6.322,5.708,5.708,0,0,1,7,.841,1,1,0,0,0,1.62-.358A4.6,4.6,0,0,1,29.328,2h.035a4.572,4.572,0,0,1,4.268,2.9,1,1,0,0,0,1.619.355,5.717,5.717,0,0,1,7-.841,5.544,5.544,0,0,1,2.576,6.322A1,1,0,0,0,45.714,12a4.4,4.4,0,0,1,3.746,3.028,4.427,4.427,0,0,1-.992,4.739,1,1,0,0,0,.2,1.6,2.132,2.132,0,0,1,1.077,1.687,2.4,2.4,0,0,1-.369,1.589,10.476,10.476,0,0,1-2.094-.248c-.4-.895-.673-1.886-1.106-2.682a1,1,0,0,0-.928-.558,4.613,4.613,0,0,1-4.557-3.6,1,1,0,0,0-1.375-.72,5.809,5.809,0,0,1-6.2-1.3,1,1,0,0,0-1.29-.15,4.913,4.913,0,0,1-5.136,0,1,1,0,0,0-1.29.15,5.809,5.809,0,0,1-6.2,1.3,1,1,0,0,0-1.375.72,4.609,4.609,0,0,1-4.558,3.6,1,1,0,0,0-.928.558Zm.4,6.824a11.964,11.964,0,0,1,1.143-5.4,6.73,6.73,0,0,0,5.581-4.115,7.961,7.961,0,0,0,6.823-1.573,7.106,7.106,0,0,0,5.949,0,7.96,7.96,0,0,0,6.823,1.573,6.729,6.729,0,0,0,5.58,4.115c4.444,10.241-4.412,22.179-15.377,21.922A16.54,16.54,0,0,1,12.738,28.532Zm19.99,18.195a18.341,18.341,0,0,0,2.59-.691,13.045,13.045,0,0,1,2.948,2.024l-4.857,5.532-.224-.926a2.613,2.613,0,0,0-.71-1.252,2.717,2.717,0,0,0,.439-1.483V47.724a2.747,2.747,0,0,0-.186-1Zm-4.851,5.936h2.765a.615.615,0,0,1,.6.472L31.8,55.43l-2.536,2.889L26.723,55.43l.555-2.294a.615.615,0,0,1,.6-.472ZM27.6,49.93V47.724a.735.735,0,0,1,.544-.7c.368.022.738.034,1.11.034s.743-.012,1.11-.034a.736.736,0,0,1,.544.7V49.93a.734.734,0,0,1-.733.733H28.338A.734.734,0,0,1,27.6,49.93Zm-4.4-3.893a18.342,18.342,0,0,0,2.587.691,2.75,2.75,0,0,0-.186,1V49.93a2.717,2.717,0,0,0,.439,1.484,2.612,2.612,0,0,0-.71,1.252l-.224.926-4.853-5.527A13.369,13.369,0,0,1,23.2,46.036ZM37.655,65.843V59.331a1,1,0,1,0-2,0v6.511H22.865V57.951a1,1,0,1,0-2,0v7.892h-3.4a1.615,1.615,0,0,1-1.611-1.6l-.041-6.2a13.473,13.473,0,0,1,3.057-8.518l9.635,10.974a1.006,1.006,0,0,0,1.5,0l9.635-10.973A13.9,13.9,0,0,1,42.7,59.169a2,2,0,0,0,1.995,2h2.717a5.082,5.082,0,0,0,.332,4.67Zm15.4.438h-.972a3.093,3.093,0,1,1,0-6.186h.972a3.093,3.093,0,1,1,0,6.186Zm9.033-33.044-7.148,25.22a5.4,5.4,0,0,0-2.221-.363l2.432-7.085a1,1,0,0,0-1.892-.649l-2.74,7.981a5.083,5.083,0,0,0-1.566.833l-4.26,0,.005-1.139a15.519,15.519,0,0,0-7.083-12.982,18.643,18.643,0,0,0,5.951-4.781H56.725l-1.946,5.669a1,1,0,0,0,1.892.649L61.337,33C61.421,32.5,62.311,32.776,62.092,33.237Z" transform="translate(-6.579 0)"/>
      </g>
    </g>
  </g>
</svg>
