<svg xmlns="http://www.w3.org/2000/svg" xmlns:xlink="http://www.w3.org/1999/xlink" width="108" height="108" viewBox="0 0 108 108">
  <defs>
    <filter id="Trazado_978624" x="0" y="0" width="108" height="108" filterUnits="userSpaceOnUse">
      <feOffset dy="3" input="SourceAlpha"/>
      <feGaussianBlur stdDeviation="3" result="blur"/>
      <feFlood flood-opacity="0.161"/>
      <feComposite operator="in" in2="blur"/>
      <feComposite in="SourceGraphic"/>
    </filter>
    <filter id="Trazado_1076716" x="0" y="0" width="108" height="108" filterUnits="userSpaceOnUse">
      <feOffset dy="3" input="SourceAlpha"/>
      <feGaussianBlur stdDeviation="3" result="blur-2"/>
      <feFlood flood-opacity="0.161"/>
      <feComposite operator="in" in2="blur-2"/>
      <feComposite in="SourceGraphic"/>
    </filter>
  </defs>
  <g id="Grupo_1222178" data-name="Grupo 1222178" transform="translate(-617 -4021)">
    <g id="Grupo_1221207" data-name="Grupo 1221207" transform="translate(620.058 4027)">
      <g id="Grupo_1220010" data-name="Grupo 1220010" transform="translate(5.942 0)">
        <g id="Grupo_1208078" data-name="Grupo 1208078">
          <g id="Grupo_1181203" data-name="Grupo 1181203">
            <g id="Grupo_1172348" data-name="Grupo 1172348">
              <g id="Grupo_1171897" data-name="Grupo 1171897">
                <g id="Grupo_1171052" data-name="Grupo 1171052">
                  <g id="Grupo_1164581" data-name="Grupo 1164581">
                    <g id="Grupo_1144123" data-name="Grupo 1144123">
                      <g transform="matrix(1, 0, 0, 1, -9, -6)" filter="url(#Trazado_978624)">
                        <g id="Trazado_978624-2" data-name="Trazado 978624" transform="translate(9 6)" fill="#f0fbfa">
                          <path d="M 45 88.49999237060547 C 39.12687683105469 88.49999237060547 33.43022537231445 87.35006713867188 28.06830024719238 85.08216857910156 C 22.88852500915527 82.89130401611328 18.23629951477051 79.75457763671875 14.2408504486084 75.75914001464844 C 10.24541282653809 71.76369476318359 7.108687400817871 67.11146545410156 4.917825222015381 61.93169403076172 C 2.649924993515015 56.56976699829102 1.5 50.87311553955078 1.5 44.99999237060547 C 1.5 39.12686920166016 2.649924993515015 33.43021774291992 4.917825222015381 28.06829261779785 C 7.108687400817871 22.88851737976074 10.24541282653809 18.23630523681641 14.2408504486084 14.24085521697998 C 18.23629951477051 10.24540519714355 22.88852500915527 7.108692169189453 28.06830024719238 4.917829990386963 C 33.43022537231445 2.649929761886597 39.12687683105469 1.500004887580872 45 1.500004887580872 C 50.87312316894531 1.500004887580872 56.56977462768555 2.649929761886597 61.93170166015625 4.917829990386963 C 67.11147308349609 7.108692169189453 71.76370239257812 10.24540519714355 75.75914764404297 14.24085521697998 C 79.75458526611328 18.23630523681641 82.89131164550781 22.88851737976074 85.08217620849609 28.06829261779785 C 87.35007476806641 33.43021774291992 88.5 39.12686920166016 88.5 44.99999237060547 C 88.5 50.87311553955078 87.35007476806641 56.56976699829102 85.08217620849609 61.93169403076172 C 82.89131164550781 67.11146545410156 79.75458526611328 71.76369476318359 75.75914764404297 75.75914001464844 C 71.76370239257812 79.75457763671875 67.11147308349609 82.89130401611328 61.93170166015625 85.08216857910156 C 56.56977462768555 87.35006713867188 50.87312316894531 88.49999237060547 45 88.49999237060547 Z" stroke="none"/>
                          <path d="M 45 2.999992370605469 C 39.32871246337891 2.999992370605469 33.82865524291992 4.11004638671875 28.65262985229492 6.299331665039062 C 23.65165710449219 8.414566040039062 19.15968322753906 11.44333648681641 15.301513671875 15.30150604248047 C 11.44334411621094 19.15969085693359 8.414573669433594 23.65164947509766 6.299339294433594 28.65262222290039 C 4.110054016113281 33.82866287231445 3 39.32870483398438 3 44.99999237060547 C 3 50.67127990722656 4.110054016113281 56.17133712768555 6.299339294433594 61.34736633300781 C 8.414573669433594 66.34833526611328 11.44334411621094 70.84029388427734 15.301513671875 74.69846343994141 C 19.15968322753906 78.55664825439453 23.65165710449219 81.58540344238281 28.65262985229492 83.70065307617188 C 33.82865524291992 85.88992309570312 39.32871246337891 86.99997711181641 45 86.99997711181641 C 50.67128753662109 86.99997711181641 56.17134475708008 85.88992309570312 61.34737396240234 83.70065307617188 C 66.34834289550781 81.58540344238281 70.84031677246094 78.55664825439453 74.698486328125 74.69846343994141 C 78.55665588378906 70.84029388427734 81.58542633056641 66.34833526611328 83.70066070556641 61.34736633300781 C 85.88994598388672 56.17133712768555 87 50.67127990722656 87 44.99999237060547 C 87 39.32870483398438 85.88994598388672 33.82866287231445 83.70066070556641 28.65262222290039 C 81.58542633056641 23.65164947509766 78.55665588378906 19.15969085693359 74.698486328125 15.30150604248047 C 70.84031677246094 11.44333648681641 66.34834289550781 8.414566040039062 61.34737396240234 6.299331665039062 C 56.17134475708008 4.11004638671875 50.67128753662109 2.999992370605469 45 2.999992370605469 M 45 -7.62939453125e-06 C 69.85281372070312 -7.62939453125e-06 90 20.14719390869141 90 44.99999237060547 C 90 69.85280609130859 69.85281372070312 89.99997711181641 45 89.99997711181641 C 20.14718627929688 89.99997711181641 0 69.85280609130859 0 44.99999237060547 C 0 20.14719390869141 20.14718627929688 -7.62939453125e-06 45 -7.62939453125e-06 Z" stroke="none" fill="#3f7776"/>
                        </g>
                      </g>
                      <g transform="matrix(1, 0, 0, 1, -9, -6)" filter="url(#Trazado_1076716)">
                        <g id="Trazado_1076716-2" data-name="Trazado 1076716" transform="translate(9 6)" fill="#f0fbfa">
                          <path d="M 45 88.49999237060547 C 39.12687683105469 88.49999237060547 33.43022537231445 87.35006713867188 28.06830024719238 85.08216857910156 C 22.88852500915527 82.89130401611328 18.23629951477051 79.75457763671875 14.2408504486084 75.75914001464844 C 10.24541282653809 71.76369476318359 7.108687400817871 67.11146545410156 4.917825222015381 61.93169403076172 C 2.649924993515015 56.56976699829102 1.5 50.87311553955078 1.5 44.99999237060547 C 1.5 39.12686920166016 2.649924993515015 33.43021774291992 4.917825222015381 28.06829261779785 C 7.108687400817871 22.88851737976074 10.24541282653809 18.23630523681641 14.2408504486084 14.24085521697998 C 18.23629951477051 10.24540519714355 22.88852500915527 7.108692169189453 28.06830024719238 4.917829990386963 C 33.43022537231445 2.649929761886597 39.12687683105469 1.500004887580872 45 1.500004887580872 C 50.87312316894531 1.500004887580872 56.56977462768555 2.649929761886597 61.93170166015625 4.917829990386963 C 67.11147308349609 7.108692169189453 71.76370239257812 10.24540519714355 75.75914764404297 14.24085521697998 C 79.75458526611328 18.23630523681641 82.89131164550781 22.88851737976074 85.08217620849609 28.06829261779785 C 87.35007476806641 33.43021774291992 88.5 39.12686920166016 88.5 44.99999237060547 C 88.5 50.87311553955078 87.35007476806641 56.56976699829102 85.08217620849609 61.93169403076172 C 82.89131164550781 67.11146545410156 79.75458526611328 71.76369476318359 75.75914764404297 75.75914001464844 C 71.76370239257812 79.75457763671875 67.11147308349609 82.89130401611328 61.93170166015625 85.08216857910156 C 56.56977462768555 87.35006713867188 50.87312316894531 88.49999237060547 45 88.49999237060547 Z" stroke="none"/>
                          <path d="M 45 2.999992370605469 C 39.32871246337891 2.999992370605469 33.82865524291992 4.11004638671875 28.65262985229492 6.299331665039062 C 23.65165710449219 8.414566040039062 19.15968322753906 11.44333648681641 15.301513671875 15.30150604248047 C 11.44334411621094 19.15969085693359 8.414573669433594 23.65164947509766 6.299339294433594 28.65262222290039 C 4.110054016113281 33.82866287231445 3 39.32870483398438 3 44.99999237060547 C 3 50.67127990722656 4.110054016113281 56.17133712768555 6.299339294433594 61.34736633300781 C 8.414573669433594 66.34833526611328 11.44334411621094 70.84029388427734 15.301513671875 74.69846343994141 C 19.15968322753906 78.55664825439453 23.65165710449219 81.58540344238281 28.65262985229492 83.70065307617188 C 33.82865524291992 85.88992309570312 39.32871246337891 86.99997711181641 45 86.99997711181641 C 50.67128753662109 86.99997711181641 56.17134475708008 85.88992309570312 61.34737396240234 83.70065307617188 C 66.34834289550781 81.58540344238281 70.84031677246094 78.55664825439453 74.698486328125 74.69846343994141 C 78.55665588378906 70.84029388427734 81.58542633056641 66.34833526611328 83.70066070556641 61.34736633300781 C 85.88994598388672 56.17133712768555 87 50.67127990722656 87 44.99999237060547 C 87 39.32870483398438 85.88994598388672 33.82866287231445 83.70066070556641 28.65262222290039 C 81.58542633056641 23.65164947509766 78.55665588378906 19.15969085693359 74.698486328125 15.30150604248047 C 70.84031677246094 11.44333648681641 66.34834289550781 8.414566040039062 61.34737396240234 6.299331665039062 C 56.17134475708008 4.11004638671875 50.67128753662109 2.999992370605469 45 2.999992370605469 M 45 -7.62939453125e-06 C 69.85281372070312 -7.62939453125e-06 90 20.14719390869141 90 44.99999237060547 C 90 69.85280609130859 69.85281372070312 89.99997711181641 45 89.99997711181641 C 20.14718627929688 89.99997711181641 0 69.85280609130859 0 44.99999237060547 C 0 20.14719390869141 20.14718627929688 -7.62939453125e-06 45 -7.62939453125e-06 Z" stroke="none" fill="#3f7776"/>
                        </g>
                      </g>
                    </g>
                  </g>
                </g>
              </g>
            </g>
          </g>
        </g>
      </g>
    </g>
    <g id="educacion_2_" data-name="educacion (2)" transform="translate(636.691 4044.736)">
      <g id="Grupo_1222177" data-name="Grupo 1222177" transform="translate(1.175 5.825)">
        <path id="Trazado_1172932" data-name="Trazado 1172932" d="M106.437,234.044a13.5,13.5,0,0,0-.081,10l1.1,2.157H59.918s-8.851-4.973,0-13.824l47.129-.971Z" transform="translate(-49.656 -201.904)" fill="#f1f2f2"/>
        <path id="Trazado_1172933" data-name="Trazado 1172933" d="M107.46,246.2H59.921s-8.851-4.973,0-13.824l47.13-.972-.611,2.639a12.946,12.946,0,0,0-.671,2.144H62.629a3.03,3.03,0,1,0,0,6.059h43.155a11.637,11.637,0,0,0,.575,1.8Z" transform="translate(-49.659 -201.903)" fill="#dee1e1"/>
        <path id="Trazado_1172934" data-name="Trazado 1172934" d="M91.031,237.79l-43.455-.068c-5.206,0-9.677-3.321-9.677-8.527a11.861,11.861,0,0,1,.177-3.676,9.43,9.43,0,0,1,8.844-6.156H91.5a2.126,2.126,0,1,1,0,4.252H57.76l-3.3.773-2.866-.773h-4.68a5.174,5.174,0,0,0,0,10.348H91.5a2.128,2.128,0,0,1,2.112,2.377C93.487,237.4,92.12,237.79,91.031,237.79Z" transform="translate(-33.949 -191.474)" fill="#b7e546"/>
        <path id="Trazado_1172935" data-name="Trazado 1172935" d="M91.326,272.6a2.125,2.125,0,0,1-2.111,1.876L67.191,275.8l-22.556-1.32a9.431,9.431,0,0,1-8.623-13.241v1.938a9.427,9.427,0,0,0,9.427,9.427Z" transform="translate(-31.664 -227.735)" fill="#abd641"/>
        <path id="Trazado_1172936" data-name="Trazado 1172936" d="M147.752,257.291v-6.2h-4.418l-1.569.157.094,5.773a.268.268,0,0,0,.366.25l1.109-.271,1.24-.486a.267.267,0,0,1,.2,0l2.617,1.025A.268.268,0,0,0,147.752,257.291Z" transform="translate(-123.941 -218.952)" fill="#ef5227"/>
        <path id="Trazado_1172937" data-name="Trazado 1172937" d="M142.212,251.1V257l-1.376.539a.268.268,0,0,1-.366-.249v-6.2Z" transform="translate(-122.819 -218.954)" fill="#d83724"/>
        <path id="Trazado_1172938" data-name="Trazado 1172938" d="M141.332,173.313v3.022l-.134,1.34a.938.938,0,0,1-.938.938l-35.718-.134a.937.937,0,0,1-.938-.938l-.268-4.228,18.336-.876Z" transform="translate(-90.662 -150.838)" fill="#fdcd08"/>
        <path id="Trazado_1172939" data-name="Trazado 1172939" d="M438.346,197.8c-.839,2.068-1.683,4.109-2.522,6.177a1.877,1.877,0,0,0,1.723,2.591l1.551.134h3.774a1.877,1.877,0,0,0,1.723-2.591l-1.75-4.313-1.1-2h-3.4Z" transform="translate(-378.468 -172.8)" fill="#fdcd08"/>
        <path id="Trazado_1172940" data-name="Trazado 1172940" d="M438.834,198.274a5.1,5.1,0,0,0,3.149-.762l-.941-2.351-1.555.465h0l-2.027-.27c-.256.631-.628,1.528-.884,2.159h0l-1.749,4.311a1.877,1.877,0,0,0,1.722,2.591h2.144a1.877,1.877,0,0,1-1.722-2.591l1.306-3.22A.542.542,0,0,1,438.834,198.274Z" transform="translate(-377.605 -170.517)" fill="#faab18"/>
        <path id="Trazado_1172941" data-name="Trazado 1172941" d="M453.442,160.924a3.122,3.122,0,0,0-2.089-2.954c-.315-.109-.773.085-1.125.085a2.632,2.632,0,0,0-2.76,2.869,2.726,2.726,0,0,0,2.987,2.759c.352,0,.583.3.9.195A3.122,3.122,0,0,0,453.442,160.924Z" transform="translate(-388.673 -138.281)" fill="#fdcd08"/>
        <path id="Trazado_1172942" data-name="Trazado 1172942" d="M449.974,163a3.049,3.049,0,0,1-1.005.169,3.123,3.123,0,0,1,0-6.247,3.048,3.048,0,0,1,1.005.169,3.134,3.134,0,0,0,0,5.909Z" transform="translate(-387.295 -137.405)" fill="#faab18"/>
        <path id="Trazado_1172943" data-name="Trazado 1172943" d="M74.984,23.607l-8.84,3.06-2.412-.247L46.573,33.442a5.624,5.624,0,0,1-3.68,0L25.735,26.693l-2.412-.026-8.84-3.06a1.125,1.125,0,0,1,0-2.126L43.228,11.53a4.6,4.6,0,0,1,3.009,0l28.746,9.951A1.125,1.125,0,0,1,74.984,23.607Z" transform="translate(-13.061 -11.277)" fill="#868491"/>
        <path id="Trazado_1172944" data-name="Trazado 1172944" d="M128.157,83.814v.907L108.586,91.5a5.623,5.623,0,0,1-3.68,0l-19.57-6.775v-.907a3.943,3.943,0,0,1,3.249-3.884,102.932,102.932,0,0,1,36.324,0,3.946,3.946,0,0,1,3.249,3.884Z" transform="translate(-75.074 -69.33)" fill="#77777f"/>
        <path id="Trazado_1172945" data-name="Trazado 1172945" d="M143.064,99.4v7.992H105.47l-.134-7.724A1.533,1.533,0,0,1,106.6,98.16c.383-.069.5-.4.882-.467a100.489,100.489,0,0,1,34.321.2,1.535,1.535,0,0,1,1.262,1.509Z" transform="translate(-92.394 -84.918)" fill="#868491"/>
        <path id="Trazado_1172946" data-name="Trazado 1172946" d="M141.332,176.335v1.474a.938.938,0,0,1-.938.938h-36.12a.938.938,0,0,1-.938-.938v-4.5l1.206-.876,1.206.876v2.352a.67.67,0,0,0,.67.67Z" transform="translate(-90.662 -150.838)" fill="#faab18"/>
        <path id="Trazado_1172947" data-name="Trazado 1172947" d="M105.748,106.6v9.7h-2.412v-7.992A1.534,1.534,0,0,1,104.6,106.8C104.982,106.735,105.365,106.668,105.748,106.6Z" transform="translate(-90.662 -93.829)" fill="#77777f"/>
        <path id="Trazado_1172948" data-name="Trazado 1172948" d="M90.416,392.074a12.61,12.61,0,0,1,0-9.651l.408-1.812h-54.8s-6.169,6.707.4,13.277l54.759.411Z" transform="translate(-30.094 -331.113)" fill="#f1f2f2"/>
        <path id="Trazado_1172949" data-name="Trazado 1172949" d="M91.18,394.3l-54.758-.41c-6.571-6.57-.4-13.276-.4-13.276l55.066.1-.671,1.709a12.559,12.559,0,0,0-.6,1.828H39.52a3.03,3.03,0,1,0,0,6.059H89.833a12.715,12.715,0,0,0,.583,1.765Z" transform="translate(-30.093 -331.116)" fill="#dee1e1"/>
        <path id="Trazado_1172950" data-name="Trazado 1172950" d="M73.587,378.417l-49.548-.091c-5.206,0-9.786-2.938-9.786-8.144,0-1.652-.4-3.927.343-5.278a9.424,9.424,0,0,1,8.254-4.871H74.518a2.126,2.126,0,1,1,0,4.252h-12.8l-3.345.74-2.816-.74H22.85a5.174,5.174,0,0,0,0,10.348H74.518a2.128,2.128,0,0,1,2.092,2.51c-.181.991-1.98,1.273-3.023,1.273Z" transform="translate(-13.423 -313.292)" fill="#ef5227"/>
        <path id="Trazado_1172951" data-name="Trazado 1172951" d="M71.955,405.333a2.129,2.129,0,0,1-2.092,1.742H18.2a9.428,9.428,0,0,1-7.953-14.49v3.321a9.427,9.427,0,0,0,9.427,9.427Z" transform="translate(-8.768 -341.482)" fill="#d83724"/>
        <path id="Trazado_1172952" data-name="Trazado 1172952" d="M330.4,398v-6.249h-4.15l-1.841.112.1,5.869a.268.268,0,0,0,.366.25l1.376-.376.972-.381a.267.267,0,0,1,.2,0l2.617,1.025A.268.268,0,0,0,330.4,398Z" transform="translate(-282.102 -340.758)" fill="#fdcd08"/>
        <path id="Trazado_1172953" data-name="Trazado 1172953" d="M325.15,391.745V397.6l-1.644.643a.268.268,0,0,1-.366-.249v-6.249Z" transform="translate(-281.008 -340.754)" fill="#faab18"/>
      </g>
      <path id="Trazado_1172954" data-name="Trazado 1172954" d="M68.406,36.319l-2.231-5.5A4.084,4.084,0,0,0,64.1,24.231c0-.264,0-6.888,0-7.169a2.086,2.086,0,0,0-1.42-1.995L34.423,5.284a5.549,5.549,0,0,0-3.616,0L23.772,7.72a1.005,1.005,0,1,0,.658,1.9l7.036-2.436a3.529,3.529,0,0,1,2.3,0l28.259,9.783a.1.1,0,0,1,0,.19L52.3,20.525v-.3a2.51,2.51,0,0,0-2.069-2.473,99.446,99.446,0,0,0-35.225,0,2.51,2.51,0,0,0-2.069,2.473v.3L3.206,17.157a.1.1,0,0,1,0-.19l16.709-5.784a1.005,1.005,0,1,0-.658-1.9L2.548,15.067a2.111,2.111,0,0,0,0,3.99l10.386,3.6V32.6A10.428,10.428,0,0,0,8.18,51.648a10.431,10.431,0,0,0,2.252,20.616H62.1A3.131,3.131,0,0,0,62.163,66a11.515,11.515,0,0,1-.024-8.34A3.131,3.131,0,0,0,62.1,51.4h-.621a3.13,3.13,0,0,0-2.923-4.252h-.027a11.508,11.508,0,0,1-.19-7.809,2.823,2.823,0,0,0,2.075.91h5.367A2.827,2.827,0,0,0,68.128,39a2.861,2.861,0,0,0,.278-2.678Zm-3.272-8.141A2.036,2.036,0,1,1,63.1,26.114,2.053,2.053,0,0,1,65.134,28.179Zm-3.041-8.918v4.97A4.084,4.084,0,0,0,60.02,30.82l-.7,1.728H52.3v-9.9Zm-46.735.469a97.461,97.461,0,0,1,34.515,0,.5.5,0,0,1,.413.494v6.851H44.093a1.005,1.005,0,1,0,0,2.01h6.194v3.463H14.945V29.085H39.4a1.005,1.005,0,1,0,0-2.01H14.945V20.224a.5.5,0,0,1,.413-.494Zm47.863,34.8A1.122,1.122,0,0,1,62.1,55.653H10.432a6.179,6.179,0,1,0,0,12.358H50.124a1.005,1.005,0,0,0,0-2.01H10.432a4.169,4.169,0,1,1,0-8.337h31.7V63.3a1.005,1.005,0,0,0,1.372.936l2.714-1.063,2.714,1.063A1.005,1.005,0,0,0,50.3,63.3V57.663h9.7A13.491,13.491,0,0,0,60.026,66H54.814a1.005,1.005,0,1,0,0,2.01H62.1a1.121,1.121,0,1,1,0,2.242H10.432a8.421,8.421,0,1,1,0-16.842H62.1a1.122,1.122,0,0,1,1.121,1.121ZM44.142,57.663h4.15v4.161l-1.709-.669a1,1,0,0,0-.733,0l-1.709.669Zm-17.2-8.505H58.556a1.121,1.121,0,0,1,0,2.242H13.975a8.421,8.421,0,0,1,0-16.842H58.5c-.248.667-.707,1.612-.862,2.242H13.975a6.179,6.179,0,1,0,0,12.358h8.272a1.005,1.005,0,1,0,0-2.01H13.975a4.169,4.169,0,1,1,0-8.337H17.65V44.4a1.005,1.005,0,0,0,1.372.936l2.714-1.063,2.714,1.063a1.005,1.005,0,0,0,1.372-.936V38.81H56.394a13.492,13.492,0,0,0,0,8.337H26.938a1.005,1.005,0,0,0,0,2.01ZM19.661,38.811h4.15v4.113L22.1,42.255a1,1,0,0,0-.733,0l-1.709.669Zm46.8-.936a.815.815,0,0,1-.68.365H60.414a.815.815,0,0,1-.68-.365.843.843,0,0,1-.083-.8l2.056-5.069a4.024,4.024,0,0,0,2.779,0l2.056,5.069A.842.842,0,0,1,66.461,37.874Z" transform="translate(0 0)"/>
    </g>
  </g>
</svg>
