<svg xmlns="http://www.w3.org/2000/svg" width="97.684" height="105" viewBox="0 0 97.684 105">
  <g id="Grupo_1222200" data-name="Grupo 1222200" transform="translate(-164.316 -5285)">
    <rect id="Rectángulo_420198" data-name="Rectángulo 420198" width="76" height="105" transform="translate(186 5285)" fill="#a9d373"/>
    <g id="maestro_1_" data-name="maestro (1)" transform="translate(164.316 5280.857)">
      <g id="Grupo_1222198" data-name="Grupo 1222198" transform="translate(1.431 19.959)">
        <g id="Grupo_1222193" data-name="Grupo 1222193" transform="translate(0.196 7.192)">
          <path id="Trazado_1173077" data-name="Trazado 1173077" d="M303.576,103.114H265.408A4.117,4.117,0,0,1,261.291,99V67.842a4.117,4.117,0,0,1,4.117-4.117h38.168a4.117,4.117,0,0,1,4.117,4.117V99A4.117,4.117,0,0,1,303.576,103.114Z" transform="translate(-213.066 -63.725)" fill="#d7ddf5"/>
          <path id="Trazado_1173078" data-name="Trazado 1173078" d="M78.468,209.744a7.576,7.576,0,0,0-7.576-7.576H16.1a7.575,7.575,0,0,0-4.761,13.469,7.575,7.575,0,0,0,4.881,12.1,7.6,7.6,0,0,0,7.457,8.913H63.315a7.6,7.6,0,0,0,7.457-8.913,7.575,7.575,0,0,0,4.881-12.1,7.56,7.56,0,0,0,2.815-5.892Z" transform="translate(-8.525 -175.755)" fill="#4a66a0"/>
          <path id="Trazado_1173079" data-name="Trazado 1173079" d="M367.185,213.4l-15.213,44.319,6.352,1.989L371.1,214.628A2.053,2.053,0,0,0,367.185,213.4Z" transform="translate(-286.446 -183.716)" fill="#5972a5"/>
          <g id="Grupo_1222191" data-name="Grupo 1222191" transform="translate(13.74 45.741)">
            <g id="Grupo_1222189" data-name="Grupo 1222189">
              <path id="Trazado_1173080" data-name="Trazado 1173080" d="M212.89,327.911l-.2,9.807H201.244a8.2,8.2,0,0,1-8.2-8.2v4.361a3.832,3.832,0,0,1-1.3,2.877c-6.443-2.678-10.556-11.364-11.67-20.466-.506-4.131-.073-9.411,2.919-12.731a21.23,21.23,0,0,1,20.411,21.216l-.008,1.667a1.462,1.462,0,0,0,1.463,1.469Z" transform="translate(-160.94 -303.542)" fill="#c7aee4"/>
              <path id="Trazado_1173081" data-name="Trazado 1173081" d="M111.347,336.684a3.821,3.821,0,0,1-2.541.962H84.438a3.839,3.839,0,0,1-3.839-3.814L80.54,324.7a21.233,21.233,0,0,1,21.233-21.233c.275,0,.549.006.822.017a34.458,34.458,0,0,0-.822,12.976C102.887,325.564,107.256,333.278,111.347,336.684Z" transform="translate(-80.54 -303.469)" fill="#b18cd9"/>
            </g>
            <g id="Grupo_1222190" data-name="Grupo 1222190" transform="translate(48.774 22.784)">
              <path id="Trazado_1173082" data-name="Trazado 1173082" d="M343.879,434.924h-1.93a5.767,5.767,0,0,1-5.767-5.767v-.5a5.768,5.768,0,0,1,5.767-5.768h1.93a5.768,5.768,0,0,1,5.768,5.768v.5A5.768,5.768,0,0,1,343.879,434.924Z" transform="translate(-336.181 -422.888)" fill="#db9e82"/>
            </g>
          </g>
          <g id="Grupo_1222192" data-name="Grupo 1222192" transform="translate(22.254 46.99)">
            <path id="Trazado_1173083" data-name="Trazado 1173083" d="M198.094,325.152l-7.414-3.39a34.672,34.672,0,0,1,.525-11.743H202.57l.818,11.461A3.745,3.745,0,0,1,198.094,325.152Z" transform="translate(-177.961 -310.019)" fill="#b18cd9"/>
            <path id="Trazado_1173084" data-name="Trazado 1173084" d="M137.885,321.762l-7.414,3.39a3.745,3.745,0,0,1-5.294-3.673l.82-11.461H138.41A34.661,34.661,0,0,0,137.885,321.762Z" transform="translate(-125.167 -310.019)" fill="#996acc"/>
            <path id="Trazado_1173085" data-name="Trazado 1173085" d="M195.936,310.019s-7.712,11.743-11.89,11.743c-2.556-4.491-2.5-8.909.525-11.743Z" transform="translate(-171.327 -310.019)" fill="#f3f5fc"/>
            <path id="Trazado_1173086" data-name="Trazado 1173086" d="M141.408,321.762c-4.178,0-11.888-11.743-11.888-11.743h12.413A34.662,34.662,0,0,0,141.408,321.762Z" transform="translate(-128.689 -310.019)" fill="#d7ddf5"/>
          </g>
        </g>
        <g id="Grupo_1222197" data-name="Grupo 1222197" transform="translate(0 0)">
          <g id="Grupo_1222194" data-name="Grupo 1222194">
            <ellipse id="Elipse_14472" data-name="Elipse 14472" cx="6.867" cy="6.072" rx="6.867" ry="6.072" transform="translate(56.6 27.533)" fill="#c8866a"/>
            <ellipse id="Elipse_14473" data-name="Elipse 14473" cx="6.867" cy="6.072" rx="6.867" ry="6.072" transform="translate(0 27.533)" fill="#c8866a"/>
            <path id="Trazado_1173087" data-name="Trazado 1173087" d="M168.866,95.66c0,8.986-5.331,16.87-13.35,21.313-28.7,2.254-33.406-27.126-20.062-46.057a32,32,0,0,1,4.989-.387C156.143,70.529,168.866,81.78,168.866,95.66Z" transform="translate(-105.278 -62.039)" fill="#db9e82"/>
            <path id="Trazado_1173088" data-name="Trazado 1173088" d="M86.352,118.616a31.072,31.072,0,0,1-15.072,3.82c-15.7,0-28.42-11.251-28.42-25.133,0-12.375,10.114-22.66,23.431-24.744C57.654,94.981,60.512,115.523,86.352,118.616Z" transform="translate(-36.114 -63.682)" fill="#c8866a"/>
            <path id="Trazado_1173089" data-name="Trazado 1173089" d="M199.129,55.508a23.256,23.256,0,0,1-5.43-.639,19.473,19.473,0,0,0-8.881-10.314,7.573,7.573,0,0,1-12.31,3.1,7.6,7.6,0,0,1-2.675,2.9c-11.4-2.367-13.171-21.116-5.581-24.5q.764-.031,1.538-.031c18.413,0,33.339,13.2,33.339,29.479Z" transform="translate(-130.624 -26.029)" fill="#5972a5"/>
            <path id="Trazado_1173090" data-name="Trazado 1173090" d="M54.47,50.684a7.57,7.57,0,0,1-10.759-2.9A7.575,7.575,0,0,1,31.63,45.274c-4.451,2.31-7.872,5.989-9.112,9.732a20.258,20.258,0,0,1-5.428.632c0-15.826,14.1-28.737,31.8-29.448-3.982,8.128-1.446,20.06,5.581,24.5Z" transform="translate(-15.26 -26.158)" fill="#4a66a0"/>
          </g>
          <g id="Grupo_1222196" data-name="Grupo 1222196" transform="translate(14.449 36.615)">
            <g id="Grupo_1222195" data-name="Grupo 1222195">
              <ellipse id="Elipse_14474" data-name="Elipse 14474" cx="5.584" cy="4.447" rx="5.584" ry="4.447" fill="#fff"/>
              <ellipse id="Elipse_14475" data-name="Elipse 14475" cx="5.584" cy="4.447" rx="5.584" ry="4.447" transform="translate(30.268)" fill="#fff"/>
            </g>
          </g>
        </g>
      </g>
      <g id="Grupo_1222199" data-name="Grupo 1222199" transform="translate(0 18.528)">
        <path id="Trazado_1173091" data-name="Trazado 1173091" d="M123.489,199.349a1.431,1.431,0,0,0-1.431,1.431v2.283a1.431,1.431,0,0,0,2.862,0V200.78A1.431,1.431,0,0,0,123.489,199.349Z" transform="translate(-98.771 -164.85)"/>
        <path id="Trazado_1173092" data-name="Trazado 1173092" d="M248.022,199.349a1.431,1.431,0,0,0-1.431,1.431v2.283a1.431,1.431,0,0,0,2.862,0V200.78A1.431,1.431,0,0,0,248.022,199.349Z" transform="translate(-199.544 -164.85)"/>
        <path id="Trazado_1173093" data-name="Trazado 1173093" d="M176.543,211.31a1.431,1.431,0,0,0-2.019.139,2.72,2.72,0,0,1-4.107,0,1.431,1.431,0,1,0-2.158,1.88,5.582,5.582,0,0,0,8.421,0A1.431,1.431,0,0,0,176.543,211.31Z" transform="translate(-135.873 -174.244)"/>
        <path id="Trazado_1173094" data-name="Trazado 1173094" d="M92.136,25.72h-4.33a1.431,1.431,0,1,0,0,2.862h4.33a2.689,2.689,0,0,1,2.686,2.686V62.424a2.689,2.689,0,0,1-2.686,2.686H85.772l1.886-6.656a3.484,3.484,0,0,0-6.646-2.081l-3,8.737H72.081a9.012,9.012,0,0,0,.042-7.847,6.8,6.8,0,0,0,1.074-3.7,7.038,7.038,0,0,0-1.838-4.709q-.014-.654-.058-1.3H87.117a1.431,1.431,0,0,0,0-2.862H70.957a27.916,27.916,0,0,0-1.564-5.521H87.117a1.431,1.431,0,1,0,0-2.862H68.07a31.07,31.07,0,0,0-5.834-7.728H81.129a1.431,1.431,0,1,0,0-2.862H58.868A37.3,37.3,0,0,0,36.6,18.528c-18.952,0-34.409,13.552-34.76,30.328A7.03,7.03,0,0,0,0,53.555a6.821,6.821,0,0,0,1.074,3.707,9.006,9.006,0,0,0,1.513,9.991A8.919,8.919,0,0,0,1.448,71.64a9.073,9.073,0,0,0,6.321,8.6,9.076,9.076,0,0,0,6.714,8.945,22.658,22.658,0,0,0-.549,4.952l0,.762a1.431,1.431,0,0,0,1.431,1.422h.01a1.431,1.431,0,0,0,1.421-1.44l0-.753a19.815,19.815,0,0,1,6.07-14.262l-.4,5.637a5.189,5.189,0,0,0,5.155,5.553,5.19,5.19,0,0,0,2.162-.475l6.82-3.119,6.82,3.119A5.177,5.177,0,0,0,50.735,85.5l-.4-5.637A19.808,19.808,0,0,1,56.4,94.118l-.008,1.667a2.893,2.893,0,0,0,2.893,2.907h4.055a7.425,7.425,0,0,0,.5,6.944H55.669A6.776,6.776,0,0,1,48.9,98.869V96.987a1.431,1.431,0,0,0-2.862,0v6.242a2.411,2.411,0,0,1-2.408,2.408H27.158v-8.65a1.431,1.431,0,0,0-2.862,0v8.65H19.264a2.414,2.414,0,0,1-2.408-2.392l-.011-1.689a1.431,1.431,0,0,0-1.431-1.421H15.4a1.431,1.431,0,0,0-1.421,1.44l.011,1.689a5.283,5.283,0,0,0,5.27,5.235H43.632a5.278,5.278,0,0,0,4.856-3.222,9.61,9.61,0,0,0,7.182,3.222H67.133a7.4,7.4,0,0,0,3.024.644h1.43a7.444,7.444,0,0,0,5.3-12.678l8.076-28.493h7.175a5.554,5.554,0,0,0,5.548-5.548V31.268a5.554,5.554,0,0,0-5.548-5.548ZM83.719,57.3a.622.622,0,0,1,1.186.371L74.385,94.792a7.973,7.973,0,0,0-3.347-.547ZM36.6,84.454c-.922,0-2.958-1.33-5.977-4.844a33.643,33.643,0,0,0,11.954,0C39.558,83.124,37.522,84.454,36.6,84.454Zm0-7.171c-14.883,0-26.991-10.632-26.991-23.7a21.062,21.062,0,0,1,.468-4.4c1.027-3.017,3.713-6.049,7.172-8.154a9.008,9.008,0,0,0,12.277,2.629,9.008,9.008,0,0,0,14.148,0A9.008,9.008,0,0,0,56.248,40.55a17.875,17.875,0,0,1,6.871,8.619,21.054,21.054,0,0,1,.47,4.413C63.589,66.65,51.481,77.282,36.6,77.282ZM3.844,56.217a4.1,4.1,0,0,1-.982-2.652,4.184,4.184,0,0,1,1.025-2.7,24.259,24.259,0,0,0,3.045-.233,23.657,23.657,0,0,0,.25,7.484,5.624,5.624,0,0,1-3.338-1.9Zm62.417-5.622a24.847,24.847,0,0,0,3.048.265,4.2,4.2,0,0,1,1.026,2.715c.035,2.316-2.114,4.18-4.32,4.537a23.676,23.676,0,0,0,.246-7.517ZM36.6,21.39c17.028,0,30.984,11.787,31.862,26.567a21.965,21.965,0,0,1-2.876-.386,21.027,21.027,0,0,0-9.261-10.335,1.431,1.431,0,0,0-2.052.784,6.144,6.144,0,0,1-9.985,2.515,1.431,1.431,0,0,0-2.24.387,6.145,6.145,0,0,1-10.9,0,1.431,1.431,0,0,0-2.24-.387,6.144,6.144,0,0,1-9.8-2.038,1.431,1.431,0,0,0-1.969-.694c-4.484,2.326-7.991,5.946-9.535,9.8a17.7,17.7,0,0,1-2.873.369C5.607,33.184,19.566,21.39,36.6,21.39ZM15.285,86.435a6.159,6.159,0,0,1-3.349-2.2A6.054,6.054,0,0,1,10.729,79.4a1.431,1.431,0,0,0-1.194-1.681A6.178,6.178,0,0,1,4.31,71.64,6.086,6.086,0,0,1,5.578,67.9a1.431,1.431,0,0,0-.235-1.983,6.133,6.133,0,0,1-2.069-6.389,8.764,8.764,0,0,0,4.68,1.532,27.514,27.514,0,0,0,14.081,15.7A22.7,22.7,0,0,0,15.285,86.435Zm13.3,1.54a2.315,2.315,0,0,1-3.272-2.27l.525-7.344.152.052a50.513,50.513,0,0,0,4.669,5.457,19.588,19.588,0,0,0,2.405,2.058Zm18.3-.2a2.3,2.3,0,0,1-2.283.2l-4.48-2.049a19.592,19.592,0,0,0,2.405-2.058,50.523,50.523,0,0,0,4.67-5.457l.151-.051.525,7.345a2.3,2.3,0,0,1-.989,2.067Zm4.271-11.011a27.513,27.513,0,0,0,14.08-15.7,8.766,8.766,0,0,0,4.68-1.532,6.127,6.127,0,0,1-1.629,5.995c-.142.139-.287.27-.44.394a1.431,1.431,0,0,0-.235,1.983,6.086,6.086,0,0,1,1.267,3.735,6.179,6.179,0,0,1-5.225,6.077A1.431,1.431,0,0,0,62.468,79.4a6.055,6.055,0,0,1-1.206,4.832,6.158,6.158,0,0,1-3.347,2.2,22.7,22.7,0,0,0-6.752-9.673Zm8.1,19.061a.028.028,0,0,1-.009-.022l.008-1.674a22.621,22.621,0,0,0-.548-4.943,9.076,9.076,0,0,0,6.711-8.944,9.073,9.073,0,0,0,6.321-8.6,8.937,8.937,0,0,0-.782-3.668h6.065L67.891,94.6a7.435,7.435,0,0,0-2.319,1.232H59.287a.027.027,0,0,1-.022-.009Zm12.322,10.459h-1.43a4.587,4.587,0,0,1,0-9.174h1.43a4.587,4.587,0,0,1,0,9.174Z" transform="translate(0 -18.528)"/>
      </g>
    </g>
  </g>
</svg>
