<svg xmlns="http://www.w3.org/2000/svg" width="122" height="136" viewBox="0 0 122 136">
  <g id="Grupo_1222225" data-name="Grupo 1222225" transform="translate(-180 -1293)">
    <rect id="Rectángulo_420199" data-name="Rectángulo 420199" width="70" height="136" transform="translate(232 1293)" fill="#75dad9"/>
    <g id="estudiante" transform="translate(180 1305.971)">
      <g id="Grupo_1222223" data-name="Grupo 1222223" transform="translate(1.655 3.814)">
        <g id="Grupo_1222208" data-name="Grupo 1222208" transform="translate(27.008 46.376)">
          <g id="Grupo_1222201" data-name="Grupo 1222201">
            <path id="Trazado_1173095" data-name="Trazado 1173095" d="M129.5,259.356a6.091,6.091,0,0,1-6.152,0,6.131,6.131,0,0,0-.828.585,25.556,25.556,0,0,1-2.016,3.222c-.228.926-.179,1.307-.179,4.072a6.1,6.1,0,0,0,12.2,0v-2.613A6.1,6.1,0,0,0,129.5,259.356Z" transform="translate(-120.321 -246.217)" fill="#57697d"/>
            <path id="Trazado_1173096" data-name="Trazado 1173096" d="M129.5,204.2a6.091,6.091,0,0,1-6.152,0,6.134,6.134,0,0,0-.828.585,25.557,25.557,0,0,1-2.016,3.222c-.228.926-.179,1.307-.179,4.072a6.1,6.1,0,0,0,12.2,0v-2.613A6.1,6.1,0,0,0,129.5,204.2Z" transform="translate(-120.321 -204.201)" fill="#57697d"/>
            <path id="Trazado_1173097" data-name="Trazado 1173097" d="M132.527,322.415V319.8a6.1,6.1,0,0,0-3.023-5.266,6.1,6.1,0,0,1-6.152,0,6.119,6.119,0,0,0-3.023,5.336c-.005.3,0,2.519,0,2.585a6.1,6.1,0,0,0,12.2-.042Z" transform="translate(-120.324 -288.252)" fill="#57697d"/>
            <path id="Trazado_1173098" data-name="Trazado 1173098" d="M129.5,259.356a6.091,6.091,0,0,1-6.152,0,6.131,6.131,0,0,0-.828.585,25.556,25.556,0,0,1-2.016,3.222c-.228.926-.179,1.307-.179,4.072a6.1,6.1,0,0,0,12.2,0v-2.613A6.1,6.1,0,0,0,129.5,259.356Z" transform="translate(-120.321 -246.217)" fill="#57697d"/>
            <path id="Trazado_1173099" data-name="Trazado 1173099" d="M129.5,204.2a6.091,6.091,0,0,1-6.152,0,6.134,6.134,0,0,0-.828.585,25.557,25.557,0,0,1-2.016,3.222c-.228.926-.179,1.307-.179,4.072a6.1,6.1,0,0,0,12.2,0v-2.613A6.1,6.1,0,0,0,129.5,204.2Z" transform="translate(-120.321 -204.201)" fill="#57697d"/>
            <path id="Trazado_1173100" data-name="Trazado 1173100" d="M132.527,322.415V319.8a6.1,6.1,0,0,0-3.023-5.266,6.1,6.1,0,0,1-6.152,0,6.119,6.119,0,0,0-3.023,5.336c-.005.3,0,2.519,0,2.585a6.1,6.1,0,0,0,12.2-.042Z" transform="translate(-120.324 -288.252)" fill="#57697d"/>
            <path id="Trazado_1173101" data-name="Trazado 1173101" d="M128.712,267.235v-2.613a6.126,6.126,0,0,0-1.925-4.444,6.087,6.087,0,0,1-3.438-.822,6.114,6.114,0,0,0-.828.585,25.557,25.557,0,0,1-2.016,3.222c-.228.926-.179,1.307-.179,4.072A6.1,6.1,0,0,0,124.44,273,5.961,5.961,0,0,0,128.712,267.235Z" transform="translate(-120.322 -246.217)" fill="#57697d"/>
            <path id="Trazado_1173102" data-name="Trazado 1173102" d="M126.793,205.03l-.007-.008a6.084,6.084,0,0,1-3.436-.822,6.117,6.117,0,0,0-.828.585,25.557,25.557,0,0,1-2.016,3.222c-.228.926-.179,1.307-.179,4.072a6.1,6.1,0,0,0,4.179,5.789,6.075,6.075,0,0,0,4.208-5.789v-2.613A6.075,6.075,0,0,0,126.793,205.03Z" transform="translate(-120.322 -204.2)" fill="#57697d"/>
            <path id="Trazado_1173103" data-name="Trazado 1173103" d="M124.761,328.124a6.106,6.106,0,0,0,3.955-5.71c0-2.6.334-4.928-1.922-7.051l-.007-.008a6.091,6.091,0,0,1-3.434-.82,6.119,6.119,0,0,0-3.023,5.336c-.005.3,0,2.519,0,2.585a6.1,6.1,0,0,0,4.223,5.762Z" transform="translate(-120.324 -288.252)" fill="#57697d"/>
          </g>
          <g id="Grupo_1222203" data-name="Grupo 1222203" transform="translate(3.959 0)">
            <g id="Grupo_1222202" data-name="Grupo 1222202">
              <path id="Trazado_1173104" data-name="Trazado 1173104" d="M142.161,204.2a6.083,6.083,0,0,1-3.184.83c2.254,2.123,1.92,4.455,1.92,7.049a6.1,6.1,0,0,1-3.955,5.71,6.1,6.1,0,0,0,8.243-5.71v-2.613A6.094,6.094,0,0,0,142.161,204.2Z" transform="translate(-136.941 -204.201)" fill="#3d5168"/>
            </g>
          </g>
          <g id="Grupo_1222205" data-name="Grupo 1222205" transform="translate(3.959 13.139)">
            <g id="Grupo_1222204" data-name="Grupo 1222204">
              <path id="Trazado_1173105" data-name="Trazado 1173105" d="M142.161,259.356a6.083,6.083,0,0,1-3.184.83c2.254,2.123,1.92,4.455,1.92,7.049a6.1,6.1,0,0,1-3.955,5.71,6.1,6.1,0,0,0,8.243-5.71v-2.613A6.094,6.094,0,0,0,142.161,259.356Z" transform="translate(-136.941 -259.356)" fill="#3d5168"/>
            </g>
          </g>
          <g id="Grupo_1222207" data-name="Grupo 1222207" transform="translate(3.96 26.283)">
            <g id="Grupo_1222206" data-name="Grupo 1222206">
              <path id="Trazado_1173106" data-name="Trazado 1173106" d="M142.163,314.535a6.088,6.088,0,0,1-3.186.828c2.228,2.1,1.922,4.368,1.922,7.051a6.106,6.106,0,0,1-3.955,5.71,6.1,6.1,0,0,0,8.242-5.71V319.8A6.1,6.1,0,0,0,142.163,314.535Z" transform="translate(-136.944 -314.535)" fill="#3d5168"/>
            </g>
          </g>
        </g>
        <g id="Grupo_1222216" data-name="Grupo 1222216" transform="translate(79.59 46.376)">
          <g id="Grupo_1222209" data-name="Grupo 1222209">
            <path id="Trazado_1173107" data-name="Trazado 1173107" d="M350.234,259.356a6.091,6.091,0,0,1-6.152,0,6.133,6.133,0,0,0-.828.585,25.553,25.553,0,0,1-2.016,3.222c-.228.926-.179,1.307-.179,4.072a6.1,6.1,0,0,0,12.2,0v-2.613A6.1,6.1,0,0,0,350.234,259.356Z" transform="translate(-341.055 -246.217)" fill="#57697d"/>
            <path id="Trazado_1173108" data-name="Trazado 1173108" d="M350.234,204.2a6.091,6.091,0,0,1-6.152,0,6.135,6.135,0,0,0-.828.585,25.554,25.554,0,0,1-2.016,3.222c-.228.926-.179,1.307-.179,4.072a6.1,6.1,0,1,0,12.2,0v-2.613a6.1,6.1,0,0,0-3.023-5.266Z" transform="translate(-341.055 -204.201)" fill="#57697d"/>
            <path id="Trazado_1173109" data-name="Trazado 1173109" d="M353.261,322.415V319.8a6.1,6.1,0,0,0-3.023-5.266,6.1,6.1,0,0,1-6.152,0,6.119,6.119,0,0,0-3.023,5.336c-.005.3,0,2.519,0,2.585a6.1,6.1,0,0,0,12.2-.042Z" transform="translate(-341.058 -288.252)" fill="#57697d"/>
            <path id="Trazado_1173110" data-name="Trazado 1173110" d="M350.234,259.356a6.091,6.091,0,0,1-6.152,0,6.133,6.133,0,0,0-.828.585,25.553,25.553,0,0,1-2.016,3.222c-.228.926-.179,1.307-.179,4.072a6.1,6.1,0,0,0,12.2,0v-2.613A6.1,6.1,0,0,0,350.234,259.356Z" transform="translate(-341.055 -246.217)" fill="#57697d"/>
            <path id="Trazado_1173111" data-name="Trazado 1173111" d="M350.234,204.2a6.091,6.091,0,0,1-6.152,0,6.135,6.135,0,0,0-.828.585,25.554,25.554,0,0,1-2.016,3.222c-.228.926-.179,1.307-.179,4.072a6.1,6.1,0,1,0,12.2,0v-2.613a6.1,6.1,0,0,0-3.023-5.266Z" transform="translate(-341.055 -204.201)" fill="#57697d"/>
            <path id="Trazado_1173112" data-name="Trazado 1173112" d="M353.261,322.415V319.8a6.1,6.1,0,0,0-3.023-5.266,6.1,6.1,0,0,1-6.152,0,6.119,6.119,0,0,0-3.023,5.336c-.005.3,0,2.519,0,2.585a6.1,6.1,0,0,0,12.2-.042Z" transform="translate(-341.058 -288.252)" fill="#57697d"/>
            <path id="Trazado_1173113" data-name="Trazado 1173113" d="M349.446,267.235v-2.613a6.126,6.126,0,0,0-1.925-4.444,6.087,6.087,0,0,1-3.438-.822,6.115,6.115,0,0,0-.828.585,25.559,25.559,0,0,1-2.016,3.222c-.228.926-.179,1.307-.179,4.072A6.1,6.1,0,0,0,345.174,273,5.961,5.961,0,0,0,349.446,267.235Z" transform="translate(-341.055 -246.217)" fill="#57697d"/>
            <path id="Trazado_1173114" data-name="Trazado 1173114" d="M347.528,205.03l-.007-.008a6.084,6.084,0,0,1-3.436-.822,6.118,6.118,0,0,0-.828.585,25.558,25.558,0,0,1-2.016,3.222c-.228.926-.179,1.307-.179,4.072a6.1,6.1,0,0,0,4.179,5.789,6.075,6.075,0,0,0,4.208-5.789v-2.613A6.076,6.076,0,0,0,347.528,205.03Z" transform="translate(-341.056 -204.2)" fill="#57697d"/>
            <path id="Trazado_1173115" data-name="Trazado 1173115" d="M345.495,328.124a6.106,6.106,0,0,0,3.955-5.71c0-3.442.26-4.644-1.929-7.059a6.091,6.091,0,0,1-3.434-.82,6.119,6.119,0,0,0-3.023,5.336c-.005.3,0,2.519,0,2.585a6.1,6.1,0,0,0,4.223,5.762Z" transform="translate(-341.058 -288.252)" fill="#57697d"/>
          </g>
          <g id="Grupo_1222211" data-name="Grupo 1222211" transform="translate(3.959 0)">
            <g id="Grupo_1222210" data-name="Grupo 1222210">
              <path id="Trazado_1173116" data-name="Trazado 1173116" d="M362.9,204.2a6.083,6.083,0,0,1-3.184.83,6.075,6.075,0,0,1,1.92,4.436v2.613a6.1,6.1,0,0,1-3.955,5.71,6.1,6.1,0,0,0,8.243-5.71v-2.613A6.094,6.094,0,0,0,362.9,204.2Z" transform="translate(-357.675 -204.201)" fill="#3d5168"/>
            </g>
          </g>
          <g id="Grupo_1222213" data-name="Grupo 1222213" transform="translate(3.959 13.139)">
            <g id="Grupo_1222212" data-name="Grupo 1222212">
              <path id="Trazado_1173117" data-name="Trazado 1173117" d="M362.9,259.356a6.083,6.083,0,0,1-3.184.83c2.254,2.123,1.92,4.455,1.92,7.049a6.1,6.1,0,0,1-3.955,5.71,6.1,6.1,0,0,0,8.243-5.71v-2.613A6.094,6.094,0,0,0,362.9,259.356Z" transform="translate(-357.675 -259.356)" fill="#3d5168"/>
            </g>
          </g>
          <g id="Grupo_1222215" data-name="Grupo 1222215" transform="translate(3.96 26.283)">
            <g id="Grupo_1222214" data-name="Grupo 1222214">
              <path id="Trazado_1173118" data-name="Trazado 1173118" d="M362.9,314.535a6.088,6.088,0,0,1-3.186.828c2.228,2.1,1.922,4.368,1.922,7.051a6.106,6.106,0,0,1-3.955,5.71,6.1,6.1,0,0,0,8.242-5.71V319.8A6.1,6.1,0,0,0,362.9,314.535Z" transform="translate(-357.678 -314.535)" fill="#3d5168"/>
            </g>
          </g>
        </g>
        <path id="Trazado_1173119" data-name="Trazado 1173119" d="M167.14,348.02h-4.66l-9.188,11.288v7.9H134.915v-7.9l-9.188-11.288h-4.66a11.776,11.776,0,0,0-11.78,11.945v18.743h69.634V359.8A11.78,11.78,0,0,0,167.14,348.02Z" transform="translate(-84.907 -267.384)" fill="#eaf6ff"/>
        <path id="Trazado_1173120" data-name="Trazado 1173120" d="M167.14,348.02h-4.66l-9.188,11.288v7.9H134.915v-7.9l-9.188-11.288h-4.66a11.776,11.776,0,0,0-11.78,11.945v18.743h69.634V359.8A11.78,11.78,0,0,0,167.14,348.02Z" transform="translate(-84.907 -267.384)" fill="#eaf6ff"/>
        <g id="Grupo_1222217" data-name="Grupo 1222217" transform="translate(77.561 80.636)">
          <path id="Trazado_1173121" data-name="Trazado 1173121" d="M337.212,348.02h-4.66l-.012.014A11.78,11.78,0,0,1,343.752,359.8v18.908h5.241V359.8A11.78,11.78,0,0,0,337.212,348.02Z" transform="translate(-332.54 -348.02)" fill="#d8ecfe"/>
        </g>
        <path id="Trazado_1173122" data-name="Trazado 1173122" d="M210.562,287.447v8.539l9.709,14.183a1.191,1.191,0,0,0,1.966,0l9.709-14.183v-8.539Z" transform="translate(-162.058 -221.241)" fill="#ffa78f"/>
        <path id="Trazado_1173123" data-name="Trazado 1173123" d="M119.82,162.606h-4.985A8.664,8.664,0,0,0,111,169.8v.053a8.676,8.676,0,0,0,9.014,8.673h5.406V162.606Z" transform="translate(-86.214 -126.139)" fill="#ffb09e"/>
        <path id="Trazado_1173124" data-name="Trazado 1173124" d="M345.068,162.606H333.144v15.925h6.673a8.688,8.688,0,0,0,9.086-8.673V169.8A8.665,8.665,0,0,0,345.068,162.606Z" transform="translate(-255.439 -126.139)" fill="#f89580"/>
        <path id="Trazado_1173125" data-name="Trazado 1173125" d="M194.84,86.067h-47.3V104.3h-.006c-.183,1.747-.141,1.87-.141,11.747,0,14.565,12.191,25.434,24.262,25.434a25.545,25.545,0,0,0,23.186-25.434C194.84,114.719,194.84,87.353,194.84,86.067Z" transform="translate(-113.932 -67.832)" fill="#ffcebf"/>
        <path id="Trazado_1173126" data-name="Trazado 1173126" d="M195.7,337.477l-9.709-14.183-7.685,5.89,9.188,11.288v19.4h18.377v-19.4l9.188-11.288-7.685-5.89-9.709,14.183a1.191,1.191,0,0,1-1.966,0Z" transform="translate(-137.484 -248.548)" fill="#d8ecfe"/>
        <path id="Trazado_1173127" data-name="Trazado 1173127" d="M308.724,414.156V397.007a2.383,2.383,0,0,0-2.322-2.381c-9.527-.248-45.375-.253-50.955,13.413v6.118Z" transform="translate(-196.25 -302.845)" fill="#fff3be"/>
        <path id="Trazado_1173128" data-name="Trazado 1173128" d="M308.525,463.344H255.446V451.109h53.079a6.117,6.117,0,0,1,6.117,6.117h0A6.117,6.117,0,0,1,308.525,463.344Z" transform="translate(-196.25 -345.916)" fill="#fd8087"/>
        <path id="Trazado_1173129" data-name="Trazado 1173129" d="M268.434,109.713V134.06a25.544,25.544,0,0,1-23.189,25.434A25.548,25.548,0,0,0,273.2,134.06V109.713Z" transform="translate(-188.479 -85.845)" fill="#ffb09e"/>
        <path id="Trazado_1173130" data-name="Trazado 1173130" d="M155.883,10C142.146,10,127.1,22.521,127.1,40.318v6.033H142.11a15.56,15.56,0,0,0,15.56-15.56,15.56,15.56,0,0,0,15.56,15.56h10.584V40.318A30.415,30.415,0,0,0,155.883,10Z" transform="translate(-98.474 -9.883)" fill="#57697d"/>
        <g id="Grupo_1222219" data-name="Grupo 1222219" transform="translate(56.456)">
          <g id="Grupo_1222218" data-name="Grupo 1222218">
            <path id="Trazado_1173131" data-name="Trazado 1173131" d="M243.942,9.633a30.415,30.415,0,0,1,27.933,30.321v6.033h5.241V39.954A30.451,30.451,0,0,0,243.942,9.633Z" transform="translate(-243.942 -9.519)" fill="#3d5168"/>
          </g>
        </g>
        <g id="Grupo_1222221" data-name="Grupo 1222221" transform="translate(63.144 74.746)">
          <g id="Grupo_1222220" data-name="Grupo 1222220">
            <path id="Trazado_1173132" data-name="Trazado 1173132" d="M278.763,323.293l-1.8,2.635,4.247,3.256-9.188,11.288v19.4h5.241v-19.4l9.188-11.288Z" transform="translate(-272.018 -323.293)" fill="#c4e2ff"/>
          </g>
        </g>
        <path id="Trazado_1173133" data-name="Trazado 1173133" d="M106.124,272.732c-7.01-26.163-6.418-24.576-7.142-25.172L97,248.092a2.057,2.057,0,0,0-1.454,2.519l6.239,23.285Z" transform="translate(-74.384 -190.855)" fill="#5de1c4"/>
        <path id="Trazado_1173134" data-name="Trazado 1173134" d="M114.24,272.313l4.063-1.089-6.463-24.118a2.057,2.057,0,0,0-2.519-1.454l-2.238.6c.49.535-.035-1.027,6.932,24.973Z" transform="translate(-83.23 -189.347)" fill="#0ed2b3"/>
        <path id="Trazado_1173135" data-name="Trazado 1173135" d="M106.37,330.269V319.645a4.764,4.764,0,0,0-4.764-4.764H94.793a4.764,4.764,0,0,0-4.764,4.764v10.623a4.764,4.764,0,0,0,4.764,4.764h6.812A4.765,4.765,0,0,0,106.37,330.269Z" transform="translate(-70.237 -242.139)" fill="#ffcebf"/>
        <path id="Trazado_1173136" data-name="Trazado 1173136" d="M139.389,314.881h-4.764a4.764,4.764,0,0,1,4.764,4.764v10.623a4.764,4.764,0,0,1-4.764,4.764h4.764a4.764,4.764,0,0,0,4.764-4.764V319.645A4.764,4.764,0,0,0,139.389,314.881Z" transform="translate(-104.21 -242.139)" fill="#ffb09e"/>
        <path id="Trazado_1173137" data-name="Trazado 1173137" d="M301.638,394.626c-2.169-.056-2.892-.051.622-.055-13.078-.02-41.861,1.341-46.812,13.468v6.118H303.96V397.008A2.383,2.383,0,0,0,301.638,394.626Z" transform="translate(-196.25 -302.846)" fill="#ffe177"/>
        <path id="Trazado_1173138" data-name="Trazado 1173138" d="M446.789,394.561c-1.492-.039-10.95-.149-5.241,0a2.383,2.383,0,0,1,2.322,2.381v17.149h5.241V396.943A2.383,2.383,0,0,0,446.789,394.561Z" transform="translate(-336.638 -302.781)" fill="#ffd15b"/>
        <path id="Trazado_1173139" data-name="Trazado 1173139" d="M303.761,463.344a6.118,6.118,0,0,0,0-12.235H255.446v12.235h48.315Z" transform="translate(-196.25 -345.916)" fill="#fe646f"/>
        <path id="Trazado_1173140" data-name="Trazado 1173140" d="M461.507,451.109h-5.241a6.118,6.118,0,0,1,0,12.235h5.241a6.117,6.117,0,0,0,6.117-6.117h0A6.117,6.117,0,0,0,461.507,451.109Z" transform="translate(-349.231 -345.916)" fill="#fd4755"/>
        <path id="Trazado_1173141" data-name="Trazado 1173141" d="M31.8,414.213V397.064a2.383,2.383,0,0,1,2.322-2.381c9.527-.248,45.375-.253,50.955,13.413v6.118Z" transform="translate(-25.876 -302.889)" fill="#fff0ad"/>
        <path id="Trazado_1173142" data-name="Trazado 1173142" d="M66.142,463.344H13.063a6.117,6.117,0,0,1-6.117-6.117h0a6.117,6.117,0,0,1,6.117-6.117H66.142Z" transform="translate(-6.946 -345.916)" fill="#fd8087"/>
        <g id="Grupo_1222222" data-name="Grupo 1222222" transform="translate(40.82 57.358)">
          <path id="Trazado_1173143" data-name="Trazado 1173143" d="M308.3,253.985h2.175a1.892,1.892,0,0,0,1.917-1.784,1.841,1.841,0,0,0-1.84-1.9H308.3a1.841,1.841,0,0,0,0,3.681Z" transform="translate(-275.931 -250.304)" fill="#fe8f83"/>
          <path id="Trazado_1173144" data-name="Trazado 1173144" d="M182.4,253.985h-2.175A1.892,1.892,0,0,1,178.3,252.2a1.841,1.841,0,0,1,1.84-1.9H182.4a1.841,1.841,0,0,1,0,3.681Z" transform="translate(-178.303 -250.304)" fill="#fe8f83"/>
        </g>
      </g>
      <g id="Grupo_1222224" data-name="Grupo 1222224" transform="translate(0 2.03)">
        <path id="Trazado_1173145" data-name="Trazado 1173145" d="M232.414,266.111a7.239,7.239,0,0,0,7.231-7.231,1.787,1.787,0,1,0-3.573,0,3.657,3.657,0,0,1-7.315,0,1.787,1.787,0,1,0-3.573,0A7.239,7.239,0,0,0,232.414,266.111Z" transform="translate(-171.541 -196.334)"/>
        <path id="Trazado_1173146" data-name="Trazado 1173146" d="M302.347,221.262a1.787,1.787,0,0,0,1.787-1.787v-2.934h.147a1.787,1.787,0,0,0,0-3.573h-1.933a1.787,1.787,0,0,0-1.787,1.787v4.72A1.787,1.787,0,0,0,302.347,221.262Z" transform="translate(-228.962 -162.72)"/>
        <path id="Trazado_1173147" data-name="Trazado 1173147" d="M189.183,216.542h.147v2.934a1.787,1.787,0,1,0,3.573,0v-4.72a1.787,1.787,0,0,0-1.787-1.787h-1.933a1.787,1.787,0,1,0,0,3.573Z" transform="translate(-142.755 -162.72)"/>
        <path id="Trazado_1173148" data-name="Trazado 1173148" d="M116.047,107.473v-9.5a4.147,4.147,0,0,0-4.062-4.167c-2.761-.072-8.217-.132-14.58.227A13.449,13.449,0,0,0,94.6,87.74a7.826,7.826,0,0,0,.769-3.388V81.739a7.909,7.909,0,0,0-2.024-5.264,7.853,7.853,0,0,0,2.024-5.268V68.595a7.909,7.909,0,0,0-2.023-5.263,7.848,7.848,0,0,0,2.023-5.269c0-2.764.059-3.336-.23-4.5a10.619,10.619,0,0,0,1.9-6.027V47.48A10.444,10.444,0,0,0,93.2,39.393V34.249A32.322,32.322,0,0,0,38.851,10.7a1.787,1.787,0,0,0,2.439,2.611A28.749,28.749,0,0,1,89.629,34.249V38.5H76.543A13.789,13.789,0,0,1,62.769,24.721a1.787,1.787,0,1,0-3.573,0A13.789,13.789,0,0,1,45.422,38.5H32.194V34.249a28.589,28.589,0,0,1,4.157-14.87A1.787,1.787,0,1,0,33.3,17.522a32.16,32.16,0,0,0-4.677,16.728v5.144a10.445,10.445,0,0,0-3.834,8.087v.053a10.551,10.551,0,0,0,2.337,6.592A12.962,12.962,0,0,0,27,56.572c0,.777-.007,1.386.022,1.925l-3.09.828a3.848,3.848,0,0,0-2.718,4.707l2.974,11.1a6.561,6.561,0,0,0-4.4,6.187V91.944a6.49,6.49,0,0,0,.289,1.911c-4.39-.134-8.014-.087-10.1-.032A4.147,4.147,0,0,0,5.919,97.99v9.484A7.9,7.9,0,0,0,7.9,123.029H98.1a1.787,1.787,0,1,0,0-3.573H62.77v-8.662h51.292a4.331,4.331,0,0,1,0,8.662h-7.623a1.787,1.787,0,1,0,0,3.573h7.623a7.9,7.9,0,0,0,1.985-15.556Zm-44.089-9.08v-2.02l8.251-10.136c3.985,0,7.545-.446,10.92,2.973a9.669,9.669,0,0,1,2.692,5.065c-7.03.558-15.2,1.713-21.864,4.119Zm-9.188,5.154c0-14.47,0,5.656,0-8.815l9.315-13.607,4.728,3.624L68.786,94.61a1.787,1.787,0,0,0-.4,1.128v4.137a23.478,23.478,0,0,0-5.615,3.673Zm-9.188-3.659V95.738a1.787,1.787,0,0,0-.4-1.128l-8.027-9.861,4.728-3.624L59.2,94.732c0,.8,0,8.031,0,8.829a23.528,23.528,0,0,0-5.615-3.672ZM36.966,74.769H35.784l-2.4-8.965a8.043,8.043,0,0,0,3.7-.166A27.348,27.348,0,0,0,39.207,68.8c0,.2,0,.135,0,2.408a4.3,4.3,0,0,1-1.9,3.571C37.2,74.773,37.082,74.769,36.966,74.769ZM32.219,61.444A4.035,4.035,0,0,0,30.68,59a10.314,10.314,0,0,1-.1-2.1,10.671,10.671,0,0,0,3.516,1.015,27.069,27.069,0,0,0,1.373,4.428,4.331,4.331,0,0,1-3.247-.892Zm10.452,11.05A27.051,27.051,0,0,0,48.5,76.449v1.23L43.516,81.5a6.552,6.552,0,0,0-2.5-5.322A7.845,7.845,0,0,0,42.671,72.494Zm18.292,6.864a27.215,27.215,0,0,0,8.9-1.488l.028-.009v.145L60.983,91.016,52.078,78.007v-.071a28.333,28.333,0,0,0,8.885,1.422Zm29.409-.815a4.331,4.331,0,0,1,1.42,3.2,22.53,22.53,0,0,1-.056,3.314,14.128,14.128,0,0,0-8.568-2.4v-.913a4.331,4.331,0,0,1,1.42-3.2A7.908,7.908,0,0,0,90.372,78.544Zm1.42-7.336a4.312,4.312,0,0,1-8.625,0,26.911,26.911,0,0,1,.059-3.327,27.473,27.473,0,0,0,1.538-2.415,7.919,7.919,0,0,0,5.608-.067,4.331,4.331,0,0,1,1.42,3.2Zm-2.317-9.328a4.27,4.27,0,0,1-3.153.337l.01-.027a26.852,26.852,0,0,0,1.3-4.2c.006-.026.013-.051.019-.077a10.635,10.635,0,0,0,4.137-1.306C91.792,58.018,92.092,60.514,89.475,61.879Zm-9.844,10.09a7.856,7.856,0,0,0,1.986,4.507,7.909,7.909,0,0,0-2.024,5.264v.639l-6.132-4.7V76.329a27.471,27.471,0,0,0,6.17-4.36ZM43.517,91.944V88.4l6.491,7.974V98.4a57.971,57.971,0,0,0-8.032-2.238A6.543,6.543,0,0,0,43.517,91.944ZM90.836,42.068a6.881,6.881,0,0,1,2.627,5.412v.053a6.839,6.839,0,0,1-5.255,6.645c.055-.708.084-1.548.084-2.149,0-9.69.006-9.342-.016-9.961h2.559ZM60.983,32.385a17.368,17.368,0,0,0,15.56,9.683H84.7c.029.72.021.072.021,9.961a23.843,23.843,0,0,1-47.687,0c0-6.542-.018-8.722.02-9.961h8.369a17.369,17.369,0,0,0,15.56-9.683ZM28.36,47.48a6.881,6.881,0,0,1,2.627-5.412h2.489c-.024.958-.023,2.441-.02,5.424,0,4.113-.031,5.156.086,6.681a6.828,6.828,0,0,1-5.183-6.64Zm-3.5,15.3,3.48-.932a.273.273,0,0,1,.259.069.616.616,0,0,1,.094.2l3.39,12.652H27.8L24.671,63.107a.27.27,0,0,1,.191-.331Zm-.642,31.25a2.939,2.939,0,0,1-.855-2.083V81.32a2.98,2.98,0,0,1,3.06-2.978c11.256,0,10.613-.02,11.006.042l.024,0a2.98,2.98,0,0,1,2.488,2.934V91.944a2.981,2.981,0,0,1-2.978,2.978c-4.927,0-4.492-.454-12.746-.895ZM9.493,97.989a.593.593,0,0,1,.582-.6c12.262-.319,39.7.524,47.708,9.827H9.493ZM3.573,115.125A4.336,4.336,0,0,1,7.9,110.794H59.2v8.662H7.9a4.336,4.336,0,0,1-4.331-4.331Zm60.6-7.9c8-9.323,35.421-10.161,47.721-9.84a.593.593,0,0,1,.582.6v9.245Z" transform="translate(0 -2.03)"/>
      </g>
    </g>
  </g>
</svg>
