<svg xmlns="http://www.w3.org/2000/svg" width="122.278" height="125.224" viewBox="0 0 122.278 125.224">
  <g id="_x31_" transform="translate(-26.773 -21)">
    <circle id="Elipse_14476" data-name="Elipse 14476" cx="54.141" cy="54.141" r="54.141" transform="translate(30.709 21)" fill="#a9d373"/>
    <ellipse id="Elipse_14477" data-name="Elipse 14477" cx="32.669" cy="2.65" rx="32.669" ry="2.65" transform="translate(52.181 140.924)" fill="#a9d373"/>
    <path id="Trazado_1173149" data-name="Trazado 1173149" d="M275.666,355.235c-1.012,4.529-2.506,9.589-3.662,14.166-1.2,4.481-2.457,9.011-3.758,13.492-.626,2.409-4.433,1.686-4.192-.771,1.156-8.962,2.216-18.744,3.132-27.754C267.668,348.874,276.341,349.742,275.666,355.235Z" transform="translate(-174.053 -241.824)" fill="#ed7e97"/>
    <path id="Trazado_1173150" data-name="Trazado 1173150" d="M175.19,382.19a2.149,2.149,0,0,1-4.192.578c-1.3-4.481-2.554-8.962-3.758-13.491-1.156-4.337-2.457-9.2-3.566-13.54-1.4-5.83,7.71-7.468,8.384-1.494C173.022,363.4,174.082,373.132,175.19,382.19Z" transform="translate(-100.319 -241.7)" fill="#ed7e97"/>
    <path id="Trazado_1173151" data-name="Trazado 1173151" d="M172.814,361.075l.434,4c-5.011,1.686-7.083-.193-7.083-.193l-.675-2.457c-.578-2.265-1.2-4.481-1.783-6.746a4.277,4.277,0,0,1,8.288-2.12,2.439,2.439,0,0,1,.1.626v.048Z" transform="translate(-100.352 -241.593)" fill="#e26988"/>
    <path id="Trazado_1173152" data-name="Trazado 1173152" d="M281.135,354.912a2.818,2.818,0,0,1-.1.626c-.578,2.265-1.156,4.529-1.783,6.746a8.042,8.042,0,0,1-7.758,2.024l.482-3.373.723-6.89a4.239,4.239,0,1,1,8.432.867Z" transform="translate(-179.522 -241.501)" fill="#e26988"/>
    <path id="Trazado_1173153" data-name="Trazado 1173153" d="M277.142,464.821h0c-1.012,2.409-12.624,3.469-13.058-1.156v-.482c0-.145.048-.289.048-.434a.177.177,0,0,1,.048-.145l2.457-.723,2.361-.723h.048c.771.048,7.661.482,8.143,3.228a.468.468,0,0,1-.048.434Z" transform="translate(-174.083 -322.885)" fill="#ed7e97"/>
    <path id="Trazado_1173154" data-name="Trazado 1173154" d="M285.482,430.727h0a20.714,20.714,0,0,0-8.432-2.506c-.145,0-.289-.048-.434-.048a1.3,1.3,0,0,1-1.06-1.783l5.252-11.709-.434,1.686c-.964,3.566-1.927,7.131-2.939,10.7.771.048,7.661.482,8.143,3.228a.711.711,0,0,1-.1.434Z" transform="translate(-182.423 -288.791)" fill="#f490aa"/>
    <path id="Trazado_1173155" data-name="Trazado 1173155" d="M171.05,463.376a3.721,3.721,0,0,1-.1.723c-1.108,4.481-13.491,2.939-13.058.289.482-2.7,7.372-3.18,8.143-3.228h.048l1.735.53,3.084.915a.363.363,0,0,0,.048.193,1.2,1.2,0,0,1,.048.386v.048c.048.048.048.048.048.145Z" transform="translate(-96.179 -322.886)" fill="#ed7e97"/>
    <path id="Trazado_1173156" data-name="Trazado 1173156" d="M168.08,427.463a.694.694,0,0,1-.675.964h-.723a21.581,21.581,0,0,0-8.577,1.687c.482-2.7,7.372-3.18,8.143-3.228-1.012-3.566-1.976-7.131-2.939-10.7l-.434-1.687Z" transform="translate(-96.341 -288.658)" fill="#f490aa"/>
    <path id="Trazado_1173157" data-name="Trazado 1173157" d="M171.134,472.011c-1.108,4.481-13.491,2.939-13.058.289C158.076,472.348,165.063,474.565,171.134,472.011Z" transform="translate(-96.311 -330.846)" fill="#e26988"/>
    <path id="Trazado_1173158" data-name="Trazado 1173158" d="M277.142,471.769c-1.012,2.409-12.624,3.469-13.058-1.2h.1S269.047,473.744,277.142,471.769Z" transform="translate(-174.083 -329.784)" fill="#e26988"/>
    <path id="Trazado_1173159" data-name="Trazado 1173159" d="M276.455,382.006c-.511-2.769-6.216-3.391-8.1-3.531,1.057-3.732,2.06-7.386,2.8-10.2l1.783-6.746c.626-2.265,1.2-4.529,1.783-6.794a1.7,1.7,0,0,0,.145-.675,4.661,4.661,0,0,0-1.012-3.421,4.834,4.834,0,0,0-3.18-1.687,4.661,4.661,0,0,0-3.421,1.012,4.834,4.834,0,0,0-1.686,3.18l-.723,6.89-.771,6.89c-.434,4.1-1.012,8.914-1.638,13.781h.008a3.16,3.16,0,0,0,1.437,2.987,9.683,9.683,0,0,0,5.348,1.3,13.573,13.573,0,0,0,6.216-1.3C276.406,383.066,276.551,382.44,276.455,382.006Zm-1.494.915c-2.024,1.349-8.047,1.879-10.552.1a2.4,2.4,0,0,1-1.012-2.65c.674-4.915,1.108-9.3,1.494-13.3l.771-6.939.723-6.939a3.612,3.612,0,0,1,1.4-2.6,3.855,3.855,0,0,1,2.795-.819,3.612,3.612,0,0,1,2.6,1.4,3.855,3.855,0,0,1,.819,2.795,2.417,2.417,0,0,1-.1.578c-.578,2.265-1.2,4.481-1.783,6.746l-1.783,6.746c-.771,2.939-1.831,6.794-2.939,10.7a.583.583,0,0,0-.005.2.34.34,0,0,0,.046.146.35.35,0,0,0,.248.185.579.579,0,0,0,.206,0c2.1.071,7.317.8,7.7,2.839.048.337-.337.626-.626.819Z" transform="translate(-172.866 -240.552)" fill="#bf4b6f"/>
    <path id="Trazado_1173160" data-name="Trazado 1173160" d="M170.468,380.661h.005c-.626-4.867-1.2-9.685-1.638-13.781l-.771-6.89-.723-6.89v-.048c-.048-.241-.1-.434-.145-.675a4.719,4.719,0,0,0-8.625-1.2,4.863,4.863,0,0,0-.482,3.566c.578,2.313,1.2,4.529,1.783,6.794l1.783,6.746c.755,2.876,1.851,6.3,2.937,10.1-1.844.134-7.668.744-8.14,3.534-.048.434.048,1.06,1.012,1.686a12.587,12.587,0,0,0,6.168,1.349,9.567,9.567,0,0,0,5.4-1.349,3.11,3.11,0,0,0,1.44-2.939Zm-1.97,2.264c-2.506,1.735-8.481,1.2-10.552-.1-.337-.193-.675-.482-.626-.819.385-2.072,5.734-2.746,7.806-2.843a.414.414,0,0,0,.372-.331.146.146,0,0,0,.013-.1.33.33,0,0,0-.046-.161c-1.094-3.847-2.23-7.637-2.99-10.535l-1.783-6.746c-.626-2.216-1.2-4.481-1.783-6.746a3.833,3.833,0,1,1,7.42-1.927,2.047,2.047,0,0,1,.1.53l.723,6.939.771,6.89c.434,4.048,1.012,8.914,1.638,13.781l.017,0A2.33,2.33,0,0,1,168.5,382.925Z" transform="translate(-95.121 -240.507)" fill="#bf4b6f"/>
    <path id="Trazado_1173161" data-name="Trazado 1173161" d="M370.292,252.768c-9.3,10.051-19.3,8.486-27.7,3.95.065-.129,3.109-4.8,3.261-5.1,16.99,9.224,25.158-8.241,27.268-22.439.609-3.9,6.727-2.879,6.011,1.021C378.268,234.721,376.012,245.988,370.292,252.768Z" transform="translate(-231.677 -150.903)" fill="#ed7e97"/>
    <path id="Trazado_1173162" data-name="Trazado 1173162" d="M389.438,264.959a14.3,14.3,0,0,0,10.652-5.33c3.755-4.262,6.2-13.438,7.135-18.091-.022.258-.68,8.769-3.252,14.541C401.38,261.894,395.447,266.95,389.438,264.959Z" transform="translate(-266.038 -161.779)" fill="#f490aa"/>
    <path id="Trazado_1173163" data-name="Trazado 1173163" d="M370.233,265.446c-6.3,7.189-13.543,7.869-18.542,7.194a25.008,25.008,0,0,1-7.733-2.424c-.861-.432-1.4-.756-1.443-.778l.389-.56,3.087-4.435a19.657,19.657,0,0,0,6.742,2.25,3.321,3.321,0,0,0,.409.044,5.862,5.862,0,0,0,5.446,3.972c4.546.286,13.473-3.861,20.248-26.715C378.208,247.614,375.542,259.376,370.233,265.446Z" transform="translate(-231.618 -163.581)" fill="#e26988"/>
    <path id="Trazado_1173164" data-name="Trazado 1173164" d="M461.708,211.99a3.318,3.318,0,0,0,1.014-.731,2.758,2.758,0,0,0,.475-.517,8.667,8.667,0,0,0,1.469-2.5,15.653,15.653,0,0,0,.888-3.6,1.522,1.522,0,0,0-1.312-1.683,1.615,1.615,0,0,0-1.574.881,1.412,1.412,0,0,0-.108.431,8.182,8.182,0,0,1-1.752,4.674c-.129.151-.281.237-.3.28l.065-.022Z" transform="translate(-318.17 -133.477)" fill="#ed7e97"/>
    <path id="Trazado_1173165" data-name="Trazado 1173165" d="M450.276,220.487a1.489,1.489,0,0,0,1.724-.429,1.644,1.644,0,0,0,.259-.409.907.907,0,0,0,.087-.388,1.564,1.564,0,0,0-.925-1.6,2.74,2.74,0,0,1-1.033-.734,2.881,2.881,0,0,1-.516-.69,3.969,3.969,0,0,1-.559-1.251,1.5,1.5,0,0,0-2.91.75,7.3,7.3,0,0,0,3.873,4.746Z" transform="translate(-307.794 -141.48)" fill="#ed7e97"/>
    <path id="Trazado_1173166" data-name="Trazado 1173166" d="M470.538,226.812a1.509,1.509,0,0,1-2.088-2.179,3.227,3.227,0,0,0,.756-.969,1.473,1.473,0,0,1-.192-1.875,1.552,1.552,0,0,1,2.112-.45,2.548,2.548,0,0,1,1.118,1.962,4.178,4.178,0,0,1-1.146,2.929C470.969,226.382,470.753,226.6,470.538,226.812Z" transform="translate(-323.662 -146.787)" fill="#ed7e97"/>
    <path id="Trazado_1173167" data-name="Trazado 1173167" d="M476.4,225.354l-.086-.043a.609.609,0,0,1,0-.791,3.168,3.168,0,0,0,1.018-2.419,2.294,2.294,0,0,0-.946-1.66.829.829,0,0,0-.56-.173.431.431,0,1,1,0-.862,1.862,1.862,0,0,1,.969.325,3.109,3.109,0,0,1,1.333,2.286,4.289,4.289,0,0,1-1.233,3.209A.457.457,0,0,1,476.4,225.354Z" transform="translate(-329.093 -145.544)" fill="#bf4b6f"/>
    <path id="Trazado_1173168" data-name="Trazado 1173168" d="M470.575,208.331l.043-.086a15.652,15.652,0,0,0,.888-3.6,1.522,1.522,0,0,0-1.312-1.683,1.615,1.615,0,0,0-1.574.881c.237-.043,2.737-.406,1.955,4.485Z" transform="translate(-324.123 -133.478)" fill="#f490aa"/>
    <path id="Trazado_1173169" data-name="Trazado 1173169" d="M446.283,215.784c.194-.28,1.144-1.421,3.49.457a3.971,3.971,0,0,1-.559-1.251,1.519,1.519,0,1,0-2.932.793Z" transform="translate(-307.696 -141.48)" fill="#f490aa"/>
    <path id="Trazado_1173170" data-name="Trazado 1173170" d="M460.073,208.239c.237-.486-.152-.1-.195-.118a.416.416,0,0,1-.021-.6,7.488,7.488,0,0,0,1.665-4.394,1.806,1.806,0,0,1,.756-1.292,2.066,2.066,0,0,1,1.444-.407,1.806,1.806,0,0,1,1.292.756,2.066,2.066,0,0,1,.407,1.444,14.186,14.186,0,0,1-1.083,4.093.41.41,0,1,1-.754-.324,13.814,13.814,0,0,0,1.018-3.856,1.056,1.056,0,0,0-.236-.819.978.978,0,0,0-.711-.41,1.056,1.056,0,0,0-.819.236.978.978,0,0,0-.41.711c-.37,2.995-1.34,4.334-1.879,4.872C460.466,208.188,460.246,208.326,460.073,208.239Z" transform="translate(-317.608 -132.347)" fill="#bf4b6f"/>
    <path id="Trazado_1173171" data-name="Trazado 1173171" d="M447.665,219.141l-.043-.022a8.41,8.41,0,0,1-2.989-4.357,1.927,1.927,0,0,1,1.4-2.369,1.926,1.926,0,0,1,2.369,1.4,4.115,4.115,0,0,0,.935,1.77c.172.194.226.429.054.558a.467.467,0,0,1-.647,0,5.345,5.345,0,0,1-1.139-2.135,1.123,1.123,0,0,0-1.335-.777,1.19,1.19,0,0,0-.69.516,1.094,1.094,0,0,0-.087.819,7.4,7.4,0,0,0,2.684,3.761.6.6,0,0,1,.09.7A.518.518,0,0,1,447.665,219.141Z" transform="translate(-306.476 -140.351)" fill="#bf4b6f"/>
    <path id="Trazado_1173172" data-name="Trazado 1173172" d="M342.658,263.621c-.9-.454-1.443-.778-1.486-.8a.418.418,0,0,1-.194-.259.687.687,0,0,1,.043-.3l3.239-5.06.043-.086a.469.469,0,0,1,.6-.128,19.282,19.282,0,0,0,6.763,2.315c4.869.61,9.073-1.108,12.57-5.069,4.144-4.713,6.679-15.571,7.331-19.341a.427.427,0,1,1,.84.152c-.652,3.878-3.274,14.907-7.547,19.772-3.669,4.2-8.132,6-13.3,5.348a20.073,20.073,0,0,1-6.72-2.185l-2.807,4.414c.258.13.581.346,1.012.562a24.639,24.639,0,0,0,7.6,2.359c4.848.653,11.959.016,18.154-7.065,6.129-6.952,8.648-21.753,8.736-22.356a.427.427,0,1,1,.84.152c-.109.646-2.671,15.641-8.952,22.787-6.431,7.339-13.845,8.041-18.887,7.344A26.608,26.608,0,0,1,342.658,263.621Z" transform="translate(-230.49 -156.641)" fill="#bf4b6f"/>
    <path id="Trazado_1173173" data-name="Trazado 1173173" d="M134.183,153.465a13.12,13.12,0,0,1-13.106,13.106H120.6a13.109,13.109,0,0,1-12.624,9.54,12.778,12.778,0,0,1-6.6-1.783,13.139,13.139,0,0,1-10.6,5.4,12.991,12.991,0,0,1-8.914-3.517,13.1,13.1,0,0,1-19.081-1.3,13.135,13.135,0,0,1-17.3-6.168,6.962,6.962,0,0,1-.434-1.06c-.337.048-.723.145-1.06.193-.482.048-1.012.1-1.542.1a13.107,13.107,0,0,1-11.805-7.42,13.242,13.242,0,0,1,.386-12.191,12.994,12.994,0,0,1-2.746-8.047,13.2,13.2,0,0,1,9.637-12.672,12.829,12.829,0,0,1-.482-3.614,13.12,13.12,0,0,1,13.106-13.106,13.389,13.389,0,0,1,5.2,1.06,13.124,13.124,0,0,1,23.466-5.83,13.56,13.56,0,0,1,11.612-6.505,13.108,13.108,0,0,1,13.058,11.95,13.1,13.1,0,0,1,17.25,12.432v.337a13.222,13.222,0,0,1,2.843,1.012,13.064,13.064,0,0,1,7.372,11.805,12.88,12.88,0,0,1-1.638,6.36,13.264,13.264,0,0,1,4.481,9.927Z" transform="translate(-1.101 -57.689)" fill="#fc9db8"/>
    <path id="Trazado_1173174" data-name="Trazado 1173174" d="M128.112,147.528a13.12,13.12,0,0,1-13.106,13.106h-.482a13.109,13.109,0,0,1-12.624,9.541,12.778,12.778,0,0,1-6.6-1.783,13.139,13.139,0,0,1-10.6,5.4,12.991,12.991,0,0,1-8.914-3.517,13.1,13.1,0,0,1-19.081-1.3,13.083,13.083,0,0,1-5.493,1.2,13.351,13.351,0,0,1-5.734-1.3,15.894,15.894,0,0,1-1.542-.867,12.881,12.881,0,0,1-4.963-6.216,11.541,11.541,0,0,1-2.891.241,13.7,13.7,0,0,1-5.445-1.3,13.242,13.242,0,0,1,.386-12.191,12.994,12.994,0,0,1-2.746-8.047,13.2,13.2,0,0,1,9.637-12.672,12.829,12.829,0,0,1-.482-3.614A13.12,13.12,0,0,1,50.535,111.1a13.389,13.389,0,0,1,5.2,1.06,13.124,13.124,0,0,1,23.466-5.83h.289a13.109,13.109,0,0,1,24.381,5.445,13.1,13.1,0,0,1,17.25,12.432v.337a13.222,13.222,0,0,1,2.843,1.012,13.354,13.354,0,0,1,1.3,5.734,12.88,12.88,0,0,1-1.638,6.36,13.005,13.005,0,0,1,4.481,9.878Z" transform="translate(-1.101 -57.823)" fill="#ffa6bd"/>
    <path id="Trazado_1173175" data-name="Trazado 1173175" d="M120.68,124.073c-4.385-14.166-18.214-10.215-18.214-10.215a13.614,13.614,0,0,0-9.781-9.781c-8.24-2.216-13.444,4.963-13.444,4.963a14.423,14.423,0,0,0-11.564-3.9c-7.228.771-10.119,10.119-10.119,10.119A17.72,17.72,0,0,0,44.5,116.749c-6.89,3.614-5.252,13.444-5.252,13.444-13.829,7.228-8.818,18.021-8.769,18.166a12.994,12.994,0,0,1-2.746-8.047,13.2,13.2,0,0,1,9.637-12.672,12.829,12.829,0,0,1-.482-3.614,13.12,13.12,0,0,1,13.106-13.106,13.389,13.389,0,0,1,5.2,1.06,13.124,13.124,0,0,1,23.466-5.83h.289a13.109,13.109,0,0,1,24.381,5.445,13.183,13.183,0,0,1,17.346,12.48Z" transform="translate(-0.704 -57.69)" fill="#ffb8cc"/>
    <path id="Trazado_1173176" data-name="Trazado 1173176" d="M241.441,272.3a.4.4,0,0,1-.048-.578c2.313-2.843,0-7.324-.048-7.372a.426.426,0,0,1,.1-.53c3.662-2.795,5.686-5.879,6.12-9.155a10.536,10.536,0,0,0-1.831-7.035.4.4,0,0,1,.048-.578c4.963-5.156.193-11.323-.048-11.612a.41.41,0,0,1,.626-.53c.048.048,5.252,6.794.193,12.432a10.883,10.883,0,0,1,1.783,7.324c-.434,3.421-2.457,6.6-6.168,9.492.53,1.156,2.12,5.156-.193,8A.4.4,0,0,1,241.441,272.3Z" transform="translate(-157.362 -156.816)" fill="#ed7e97"/>
    <path id="Trazado_1173177" data-name="Trazado 1173177" d="M89.668,179.024a13.383,13.383,0,0,1-8.917-3.379,13.492,13.492,0,0,1-19.191-1.352,13.533,13.533,0,0,1-17.545-6.479c-.048-.111-.092-.2-.136-.3-.07-.149-.146-.311-.213-.484l-.176.035c-.189.038-.378.075-.554.1a15.9,15.9,0,0,1-1.6.1,13.422,13.422,0,0,1-12.165-7.646,13.636,13.636,0,0,1,.271-12.327,13.325,13.325,0,0,1-2.672-8.085,13.6,13.6,0,0,1,9.548-12.945,13.6,13.6,0,0,1,13.113-16.847,13.851,13.851,0,0,1,4.9.906,13.521,13.521,0,0,1,23.731-5.973,14.023,14.023,0,0,1,11.654-6.208,13.586,13.586,0,0,1,13.4,11.822,13.5,13.5,0,0,1,17.3,12.959v.025a13.555,13.555,0,0,1,8.678,19.407,13.543,13.543,0,0,1-9.126,23.516h-.183a13.548,13.548,0,0,1-12.923,9.541,13.264,13.264,0,0,1-6.5-1.659,13.619,13.619,0,0,1-10.706,5.274Zm-8.914-4.317a.4.4,0,0,1,.273.108,12.586,12.586,0,0,0,8.641,3.41,12.822,12.822,0,0,0,10.279-5.234.4.4,0,0,1,.527-.106,12.42,12.42,0,0,0,6.4,1.726,12.743,12.743,0,0,0,12.239-9.249.4.4,0,0,1,.385-.292h.482a12.747,12.747,0,0,0,8.359-22.335.4.4,0,0,1-.082-.494,12.746,12.746,0,0,0-5.56-17.609,12.808,12.808,0,0,0-2.761-.983.4.4,0,0,1-.307-.389v-.337A12.7,12.7,0,0,0,102.9,110.87a.4.4,0,0,1-.525-.345,12.774,12.774,0,0,0-12.66-11.584,13.154,13.154,0,0,0-11.266,6.306.4.4,0,0,1-.664.041,12.725,12.725,0,0,0-22.752,5.653.4.4,0,0,1-.551.3,13.037,13.037,0,0,0-5.048-1.028,12.721,12.721,0,0,0-12.707,12.707,12.358,12.358,0,0,0,.466,3.5.4.4,0,0,1-.277.5,12.8,12.8,0,0,0-9.344,12.287,12.528,12.528,0,0,0,2.661,7.8.4.4,0,0,1,.035.439,12.843,12.843,0,0,0-.375,11.828,12.628,12.628,0,0,0,11.444,7.191c.518,0,1.047-.049,1.5-.094.146-.021.32-.056.493-.091s.375-.075.55-.1a.4.4,0,0,1,.444.3,3.822,3.822,0,0,0,.274.695c.048.1.1.2.139.305a12.735,12.735,0,0,0,16.765,5.962.4.4,0,0,1,.475.11,12.7,12.7,0,0,0,18.5,1.26.4.4,0,0,1,.27-.105Z" transform="translate(0 -56.588)" fill="#bf4b6f"/>
    <path id="Trazado_1173178" data-name="Trazado 1173178" d="M149.39,214.379c-2.12,5.252-.241,10.938,4.144,12.672s9.637-1.108,11.709-6.36c2.12-5.252.241-10.938-4.144-12.672S151.511,209.127,149.39,214.379Z" transform="translate(-89.307 -136.817)" fill="#fff"/>
    <path id="Trazado_1173179" data-name="Trazado 1173179" d="M155.151,226.708a8.251,8.251,0,0,1-2.843-.53c-4.578-1.831-6.553-7.758-4.385-13.251a11.689,11.689,0,0,1,5.2-6.023,8.374,8.374,0,0,1,7.083-.578c4.578,1.831,6.553,7.758,4.385,13.251a11.689,11.689,0,0,1-5.2,6.023A9.278,9.278,0,0,1,155.151,226.708Zm2.168-20.044a8.046,8.046,0,0,0-3.807,1.012,10.839,10.839,0,0,0-4.818,5.589c-2.024,5.011-.241,10.456,3.9,12.143a7.3,7.3,0,0,0,6.36-.53,10.84,10.84,0,0,0,4.818-5.589c2.024-5.011.241-10.456-3.9-12.143A6.674,6.674,0,0,0,157.319,206.664Z" transform="translate(-88.225 -135.559)" fill="#bf4b6f"/>
    <ellipse id="Elipse_14478" data-name="Elipse 14478" cx="6.409" cy="5.542" rx="6.409" ry="5.542" transform="translate(61.251 87.684) rotate(-82.072)" fill="#22213f"/>
    <path id="Trazado_1173180" data-name="Trazado 1173180" d="M170.653,234.865a1.741,1.741,0,0,1-2.313.819,1.708,1.708,0,0,1-1.108-2.168,1.741,1.741,0,0,1,2.313-.819A1.791,1.791,0,0,1,170.653,234.865Z" transform="translate(-102.957 -155.183)" fill="#fff"/>
    <path id="Trazado_1173181" data-name="Trazado 1173181" d="M296.684,212.052c2.216,5.2.482,10.938-3.855,12.769s-9.637-.867-11.853-6.071-.482-10.938,3.855-12.769C289.119,204.1,294.468,206.848,296.684,212.052Z" transform="translate(-185.767 -135.261)" fill="#fff"/>
    <path id="Trazado_1173182" data-name="Trazado 1173182" d="M288.823,224.545c-3.758,0-7.613-2.65-9.4-6.89-2.313-5.4-.482-11.371,4.047-13.347,4.529-1.927,10.119.867,12.432,6.312,2.313,5.4.482,11.371-4.047,13.347a8.48,8.48,0,0,1-3.036.578Zm-2.313-20a7.473,7.473,0,0,0-2.7.53c-4.1,1.735-5.734,7.228-3.614,12.191s7.179,7.613,11.323,5.83c4.1-1.735,5.734-7.228,3.614-12.191C293.448,207.006,289.931,204.548,286.51,204.548Z" transform="translate(-184.603 -134.021)" fill="#bf4b6f"/>
    <ellipse id="Elipse_14479" data-name="Elipse 14479" cx="5.542" cy="6.409" rx="5.542" ry="6.409" transform="matrix(0.987, -0.16, 0.16, 0.987, 95.301, 75.771)" fill="#22213f"/>
    <path id="Trazado_1173183" data-name="Trazado 1173183" d="M293.478,231.888a1.855,1.855,0,1,0,2.313-.819A1.748,1.748,0,0,0,293.478,231.888Z" transform="translate(-195.571 -153.989)" fill="#fff"/>
    <path id="Trazado_1173184" data-name="Trazado 1173184" d="M273.958,155.631c2.795.964,5.445.723,5.879-.53.434-1.3-1.445-3.132-4.24-4.1s-5.445-.723-5.878.53S271.163,154.619,273.958,155.631Z" transform="translate(-178.17 -94.934)" fill="#ed7e97"/>
    <path id="Trazado_1173185" data-name="Trazado 1173185" d="M276.083,155.417a10.905,10.905,0,0,1-3.373-.626,9.932,9.932,0,0,1-3.517-2.024c-.915-.915-1.3-1.831-1.012-2.6a2.587,2.587,0,0,1,2.409-1.4,10.186,10.186,0,0,1,4,.578,9.931,9.931,0,0,1,3.517,2.024c.915.915,1.3,1.831,1.012,2.6a2.587,2.587,0,0,1-2.409,1.4A2.744,2.744,0,0,1,276.083,155.417Zm-4.866-5.878a1.805,1.805,0,0,0-.53.048c-.915.1-1.542.386-1.686.819s.145,1.06.819,1.735a8.774,8.774,0,0,0,3.18,1.831,9.476,9.476,0,0,0,3.662.578c.915-.1,1.542-.386,1.687-.819s-.145-1.06-.819-1.735a8.774,8.774,0,0,0-3.18-1.831A8.617,8.617,0,0,0,271.217,149.539Z" transform="translate(-177.019 -93.708)" fill="#bf4b6f"/>
    <path id="Trazado_1173186" data-name="Trazado 1173186" d="M191.826,163.841c2.746-1.156,4.529-3.132,4-4.385s-3.18-1.349-5.927-.193-4.529,3.132-4,4.385S189.079,165,191.826,163.841Z" transform="translate(-116.661 -100.831)" fill="#ed7e97"/>
    <path id="Trazado_1173187" data-name="Trazado 1173187" d="M187.052,163.944h-.193c-1.3-.048-2.168-.482-2.506-1.253s0-1.735.867-2.7a9.856,9.856,0,0,1,3.373-2.265c2.988-1.253,5.83-1.108,6.457.434.626,1.494-1.2,3.662-4.24,4.915A9.6,9.6,0,0,1,187.052,163.944Zm5.252-6.216a10.073,10.073,0,0,0-6.5,2.795c-.626.675-.867,1.349-.675,1.783s.819.723,1.735.723a8.727,8.727,0,0,0,3.614-.771c2.7-1.156,4.144-2.939,3.758-3.807C194.039,158.017,193.365,157.728,192.3,157.728Z" transform="translate(-115.502 -99.681)" fill="#bf4b6f"/>
    <g id="Grupo_1222226" data-name="Grupo 1222226" transform="translate(28.438 50.164)">
      <path id="Trazado_1173188" data-name="Trazado 1173188" d="M160.762,137.864a.265.265,0,0,1-.241-.1.4.4,0,0,1-.1-.578c.048-.048,3.373-4.818,8.914-2.457a.443.443,0,0,1-.337.819,6.447,6.447,0,0,0-7.9,2.168A.551.551,0,0,1,160.762,137.864Z" transform="translate(-126.419 -133.113)" fill="#ed7e97"/>
      <path id="Trazado_1173189" data-name="Trazado 1173189" d="M164.271,341.522a4.989,4.989,0,0,1-4.915-3.566.427.427,0,0,1,.819-.241,4.045,4.045,0,0,0,4.288,2.939.436.436,0,0,1,.1.868c0-.048-.1,0-.289,0Z" transform="translate(-125.687 -282.275)" fill="#ed7e97"/>
      <path id="Trazado_1173190" data-name="Trazado 1173190" d="M284.253,360.968a5.068,5.068,0,0,1-1.927-.386.412.412,0,0,1,.289-.771,4.085,4.085,0,0,0,4.963-1.542.421.421,0,1,1,.723.433,4.978,4.978,0,0,1-4.047,2.265Z" transform="translate(-215.698 -297.432)" fill="#ed7e97"/>
      <path id="Trazado_1173191" data-name="Trazado 1173191" d="M113.41,283.632a.177.177,0,0,1-.145-.048,5.028,5.028,0,0,1-3.084-5.493.416.416,0,0,1,.819.144,4.153,4.153,0,0,0,2.506,4.578.39.39,0,0,1,.241.53A.318.318,0,0,1,113.41,283.632Z" transform="translate(-89.571 -238.503)" fill="#ed7e97"/>
      <path id="Trazado_1173192" data-name="Trazado 1173192" d="M338.14,298.368a.425.425,0,0,1-.434-.386.394.394,0,0,1,.386-.434,4.1,4.1,0,0,0,3.9-3.469.436.436,0,0,1,.867.1A5.108,5.108,0,0,1,338.14,298.368Z" transform="translate(-256.527 -250.203)" fill="#ed7e97"/>
      <path id="Trazado_1173193" data-name="Trazado 1173193" d="M92.357,187.132a.432.432,0,0,1-.434-.434,6.751,6.751,0,0,1,5.348-7.228,6.192,6.192,0,0,1,7.469-5.4.416.416,0,1,1-.144.819,5.384,5.384,0,0,0-6.5,4.963.409.409,0,0,1-.386.337c-.193.048-5.059.723-4.915,6.409,0,.337-.193.53-.434.53Z" transform="translate(-76.227 -162.384)" fill="#ed7e97"/>
      <path id="Trazado_1173194" data-name="Trazado 1173194" d="M352.589,193.266h-.145a.416.416,0,0,1-.289-.53,5.778,5.778,0,0,0-.434-4.144,6.176,6.176,0,0,0-3.951-2.746.467.467,0,0,1-.337-.386c0-.193-.289-5.108-5.927-5.445a.41.41,0,0,1,.048-.819c5.589.337,6.553,4.722,6.7,5.975a6.869,6.869,0,0,1,4.24,3.084,6.6,6.6,0,0,1,.482,4.818A.471.471,0,0,1,352.589,193.266Z" transform="translate(-259.027 -166.206)" fill="#ed7e97"/>
      <path id="Trazado_1173195" data-name="Trazado 1173195" d="M151.88,354.985a2.961,2.961,0,0,1-.675-.048,5.71,5.71,0,0,1-3.325-2.072c-5.589,1.253-7.565-4.24-7.565-4.288a.412.412,0,0,1,.771-.289c.048.193,1.831,5.011,6.842,3.662a.458.458,0,0,1,.482.193,4.7,4.7,0,0,0,2.939,1.927,5.106,5.106,0,0,0,4.047-1.494.41.41,0,1,1,.53.626,6.081,6.081,0,0,1-4.047,1.783Z" transform="translate(-111.706 -290.051)" fill="#ed7e97"/>
      <path id="Trazado_1173196" data-name="Trazado 1173196" d="M319.754,354.981a12.2,12.2,0,0,1-3.132-.434.427.427,0,1,1,.241-.819c.289.1,6.7,2.072,8.673-3.469a.412.412,0,1,1,.771.289C325.054,354.21,322.067,354.981,319.754,354.981Z" transform="translate(-240.84 -291.493)" fill="#ed7e97"/>
      <path id="Trazado_1173197" data-name="Trazado 1173197" d="M366.835,234.143h-.1a.416.416,0,0,1-.289-.53c.1-.289,1.879-6.794-3.71-8.577a.427.427,0,0,1,.241-.819c6.36,2.072,4.288,9.54,4.288,9.637A.463.463,0,0,1,366.835,234.143Z" transform="translate(-274.67 -199.228)" fill="#ed7e97"/>
      <path id="Trazado_1173198" data-name="Trazado 1173198" d="M52.621,287.681c-16.335,6.216-25.393-1.831-15.467-18.792,3.855-5.927,5.4-11.275,9.733-7.468,1.349,2.457.241,3.084-1.445,5.638-2.6,3.469-7.179,12.432-6.264,15.226,1.4,2.795,7.613.819,10.89-.1C53.344,280.935,55.657,285.946,52.621,287.681Z" transform="translate(-33.022 -225.591)" fill="#ed7e97"/>
      <path id="Trazado_1173199" data-name="Trazado 1173199" d="M100.608,324.231a1.728,1.728,0,0,1-.337.482l-.434.289c-.289.145-.578.241-.819.386a5.353,5.353,0,0,0-.771.578,5,5,0,0,0-.819,1.108,2.882,2.882,0,0,0-.289,1.2l-1.06.048-1.976.048a6.789,6.789,0,0,1,.337-1.976,7.1,7.1,0,0,1,4.24-4.288,1.529,1.529,0,0,1,1.927,2.12Z" transform="translate(-77.829 -270.959)" fill="#ed7e97"/>
      <path id="Trazado_1173200" data-name="Trazado 1173200" d="M106.962,333.082a1.488,1.488,0,0,1-.626,1.156,1.2,1.2,0,0,1-.337.193c-.145.048-.289.145-.434.193a7.7,7.7,0,0,0-.915.53,4.366,4.366,0,0,0-1.638,1.976l-1.879-.578-1.06-.337a5.794,5.794,0,0,1,.386-.867,7.416,7.416,0,0,1,.867-1.253c.1-.145.241-.241.337-.385a9.7,9.7,0,0,1,1.976-1.542c.289-.145.626-.337.964-.482.1-.048.145-.048.241-.1a1.551,1.551,0,0,1,1.976.867A1.486,1.486,0,0,1,106.962,333.082Z" transform="translate(-82.207 -277.93)" fill="#ed7e97"/>
      <path id="Trazado_1173201" data-name="Trazado 1173201" d="M106.737,344.667c-.1.1-.193.145-.289.241a1.6,1.6,0,0,1-.723.241,6.406,6.406,0,0,0-4.047,2.168,1.509,1.509,0,0,1-2.361-1.879c.048-.048.386-.434.964-.964a9.5,9.5,0,0,1,1.927-1.349,7.7,7.7,0,0,1,3.325-.964h.048a2.341,2.341,0,0,1,.578.048,1.562,1.562,0,0,1,1.06,1.349A1.928,1.928,0,0,1,106.737,344.667Z" transform="translate(-81.404 -285.756)" fill="#ed7e97"/>
      <path id="Trazado_1173202" data-name="Trazado 1173202" d="M233.276,151.546a.46.46,0,0,1-.289-.53c2.65-8-3.758-11.131-4.047-11.275a.506.506,0,0,1-.241-.434c.241-3.035-.241-5.3-1.542-6.649a4.3,4.3,0,0,0-2.713-1.33.435.435,0,0,1,.077-.866,4.9,4.9,0,0,1,3.213,1.569c1.4,1.494,1.976,3.855,1.783,6.987,1.3.723,6.794,4.385,4.24,12.143a.461.461,0,0,1-.482.385Z" transform="translate(-173.154 -130.46)" fill="#ed7e97"/>
    </g>
    <path id="Trazado_1173203" data-name="Trazado 1173203" d="M48.953,288.918c-.723.193-1.494.337-2.361.482-4.288.771-7.71.434-10.022-.915a7.1,7.1,0,0,1-3.469-5.059c-.626-3.662.675-8.529,4-14.455a72.975,72.975,0,0,1,4.867-7.517,3.013,3.013,0,0,1,4.24-.578,3.849,3.849,0,0,1,.626.626c.193.241-2.313-.964-4.963,3.421-2.6,4.385-8.625,15.034-6.216,20.237,2.409,5.156,13.057,3.758,13.3,3.758Z" transform="translate(-4.53 -175.507)" fill="#f490aa"/>
    <path id="Trazado_1173204" data-name="Trazado 1173204" d="M61.124,289.555c-11.564,4.722-11.95,1.108-9.733-5.975s8.673-14.118,8.673-14.118l.048.819a2.854,2.854,0,0,1-.626,1.59s-.578.771-1.445,2.024c-.819,1.253-1.927,2.939-2.988,4.818-2.457,4.481-3.662,8.288-3.277,10.408a1.18,1.18,0,0,0,.578.867C54.041,290.952,58.089,290.374,61.124,289.555Z" transform="translate(-17.279 -182.263)" fill="#e26988"/>
    <path id="Trazado_1173205" data-name="Trazado 1173205" d="M35.138,287.528a7.594,7.594,0,0,1-3.71-5.348c-.675-3.758.675-8.721,4.047-14.745a70.651,70.651,0,0,1,4.867-7.565,3.474,3.474,0,1,1,5.541,4.192,68.006,68.006,0,0,0-4.385,6.794c-2.409,4.385-3.614,8.095-3.228,10.119a.666.666,0,0,0,.337.578c1.59.915,5.975.337,9.251-.723a.427.427,0,0,1,.241.819c-2.506.771-7.758,1.927-9.974.675a1.461,1.461,0,0,1-.771-1.156c-.386-2.216.819-6.119,3.325-10.7a68.134,68.134,0,0,1,4.433-6.89,2.612,2.612,0,1,0-4.144-3.18,73.5,73.5,0,0,0-4.818,7.468c-3.277,5.879-4.578,10.649-3.951,14.166a6.612,6.612,0,0,0,3.277,4.722c2.265,1.3,6.262,1.482,9.733.867a31.6,31.6,0,0,0,5.3-1.349,2.89,2.89,0,0,0,1.108-.771.41.41,0,0,1,.626.53,2.794,2.794,0,0,1-.819.675c-.193.145-9.871,4.217-16.286.819Z" transform="translate(-3.291 -174.213)" fill="#bf4b6f"/>
    <path id="Trazado_1173206" data-name="Trazado 1173206" d="M101.586,323.234a7.928,7.928,0,0,0-6.216,3.421,7.1,7.1,0,0,1,4.24-4.288A1.55,1.55,0,0,1,101.586,323.234Z" transform="translate(-50.32 -221.001)" fill="#f490aa"/>
    <path id="Trazado_1173207" data-name="Trazado 1173207" d="M110.236,332.552c-.1,0-1.445-.867-5.156,1.012-.193.1-.386,0-.482,0-.145-.048-.048-.193.337-.386.048-.048.386-.289.915-.723.241-.193.482-.386.771-.578.1-.048.193-.145.289-.193.386-.289.867-.626,1.3-.915a1.729,1.729,0,0,1-.337.482c.1-.048.145-.048.241-.1a1.551,1.551,0,0,1,1.976.867A.867.867,0,0,1,110.236,332.552Z" transform="translate(-57.043 -227.236)" fill="#f490aa"/>
    <path id="Trazado_1173208" data-name="Trazado 1173208" d="M115.632,344.668c.048-1.253-1.59-1.59-2.939-1.638a10.254,10.254,0,0,0-1.59.048l2.506-.578,1.4-.337a1.562,1.562,0,0,1,1.06,1.349A1.642,1.642,0,0,1,115.632,344.668Z" transform="translate(-61.862 -235.593)" fill="#f490aa"/>
    <path id="Trazado_1173209" data-name="Trazado 1173209" d="M92.91,327.242h-.048a.469.469,0,0,1-.386-.482,7.337,7.337,0,0,1,4.818-5.975,2,2,0,0,1,1.494,0,1.909,1.909,0,0,1,1.06,1.06,2,2,0,0,1-.482,2.168.41.41,0,1,1-.53-.626,1.133,1.133,0,0,0,.289-1.2.979.979,0,0,0-.578-.578,1.193,1.193,0,0,0-.819,0,6.525,6.525,0,0,0-4.336,5.3A.436.436,0,0,1,92.91,327.242Z" transform="translate(-48.197 -219.806)" fill="#bf4b6f"/>
    <path id="Trazado_1173210" data-name="Trazado 1173210" d="M102.348,333.735a.368.368,0,0,1-.241-.1.4.4,0,0,1-.1-.578,9.27,9.27,0,0,1,4.047-3.035,1.8,1.8,0,0,1,1.494.048,1.828,1.828,0,0,1,1.012,1.06,1.713,1.713,0,0,1-.535,2.077c-.193.145-.525.284-.67.091a.4.4,0,0,1,.1-.578,1.053,1.053,0,0,0,.337-1.253,1.1,1.1,0,0,0-1.4-.626,7.533,7.533,0,0,0-3.662,2.746.548.548,0,0,1-.386.144Z" transform="translate(-55.13 -226.588)" fill="#bf4b6f"/>
    <path id="Trazado_1173211" data-name="Trazado 1173211" d="M102.734,346.6c-.1,0,1.553-.47,1.456-.518-.193-.145-.432-.368-.288-.513a7.723,7.723,0,0,1,4.576-2.378.813.813,0,0,0,.482-.145,1.135,1.135,0,0,0,.53-1.012,1.007,1.007,0,0,0-.386-.771,1.182,1.182,0,0,0-.771-.289,7.857,7.857,0,0,0-3.614,1.2.421.421,0,1,1-.433-.723,9.1,9.1,0,0,1,4-1.3,1.847,1.847,0,0,1,1.4.482,2.028,2.028,0,0,1,.675,1.349,1.916,1.916,0,0,1-.915,1.783,2.905,2.905,0,0,1-.915.289,7.142,7.142,0,0,0-4.086,2.127C104.344,346.23,102.83,346.6,102.734,346.6Z" transform="translate(-55.719 -234.112)" fill="#bf4b6f"/>
    <path id="Trazado_1173212" data-name="Trazado 1173212" d="M218.325,281.261c-6.119-1.59-7.468-7.131-6.6-9.878a2.247,2.247,0,0,1,.964-1.349c2.409-1.445,3.662,1.59,7.854,2.7,4.24,1.06,6.746-.964,8.191,1.445a2.253,2.253,0,0,1,.145,1.638c-.578,2.747-4.289,7.035-10.552,5.445Z" transform="translate(-135.499 -182.402)" fill="#22213f"/>
    <path id="Trazado_1173213" data-name="Trazado 1173213" d="M230.075,275.155c-2.072.964-5.541,1.253-9.2.289a14.8,14.8,0,0,1-7.95-4.674c.193-.626.386-.675.819-.915,2.409-1.445,3.662,1.59,7.854,2.7,4.24,1.06,6.746-.964,8.191,1.445a1.289,1.289,0,0,1,.289,1.156Z" transform="translate(-136.552 -182.27)" fill="#fff"/>
    <path id="Trazado_1173214" data-name="Trazado 1173214" d="M219.929,280.962a11.167,11.167,0,0,1-2.7-.337,9.246,9.246,0,0,1-6.071-4.481,7.753,7.753,0,0,1-.819-5.927,2.709,2.709,0,0,1,1.108-1.59c1.59-.964,2.795-.145,4.24.723a12.582,12.582,0,0,0,3.951,1.879,12.778,12.778,0,0,0,4.385.241c1.687-.1,3.132-.241,4.047,1.4a2.78,2.78,0,0,1,.193,1.927,8.1,8.1,0,0,1-3.662,4.867A8.569,8.569,0,0,1,219.929,280.962Zm-7.035-11.95a1.7,1.7,0,0,0-1.012.337,2.255,2.255,0,0,0-.771,1.108,6.846,6.846,0,0,0,.771,5.252,8.468,8.468,0,0,0,5.541,4.1,8.255,8.255,0,0,0,6.746-.867,7.174,7.174,0,0,0,3.277-4.337,1.989,1.989,0,0,0-.1-1.349c-.675-1.108-1.542-1.108-3.277-.964A13.528,13.528,0,0,1,219.4,272a12.878,12.878,0,0,1-4.24-2.024A5,5,0,0,0,212.894,269.012Z" transform="translate(-134.453 -181.332)" fill="#bf4b6f"/>
    <path id="Trazado_1173215" data-name="Trazado 1173215" d="M418.394,119.741a7.7,7.7,0,0,1-2.145,5.344,10.563,10.563,0,0,0-2.567,4.57l-.211.809h-5.52l-.211-.738a12.4,12.4,0,0,0-.984-2.461,11.876,11.876,0,0,0-1.582-2.18,6.108,6.108,0,0,1-.457-.527,7.682,7.682,0,0,1,5.7-12.481,7.735,7.735,0,0,1,7.137,4.149,7.852,7.852,0,0,1,.844,3.516Z" transform="translate(-276.009 -66.807)" fill="#ffd56c"/>
    <path id="Trazado_1173216" data-name="Trazado 1173216" d="M420.621,123.217a7.7,7.7,0,0,1-2.145,5.344,10.564,10.564,0,0,0-2.567,4.57l-.141.562-.07.246h-5.063a10.642,10.642,0,0,0-1.652-3.2c-.035-.035-.07-.105-.106-.141-.211-.246-.422-.527-.668-.773a7.314,7.314,0,0,1-1.3-1.793,7.46,7.46,0,0,1-.844-3.551,7.693,7.693,0,0,1,13.465-5.063c.07.106.176.176.246.281A7.858,7.858,0,0,1,420.621,123.217Z" transform="translate(-278.236 -70.283)" fill="#ffca3b"/>
    <path id="Trazado_1173217" data-name="Trazado 1173217" d="M428.365,130.4a7.7,7.7,0,0,1-2.145,5.344,10.563,10.563,0,0,0-2.567,4.57l-.141.562c-.352.07-.7.141-1.055.246H418.38a10.642,10.642,0,0,0-1.652-3.2c-.035-.035-.07-.105-.106-.141v-.035a8.309,8.309,0,0,0,7.629-2.18c2.953-3.024,3.059-8.016,3.023-8.965.07.105.176.176.246.281a7.855,7.855,0,0,1,.844,3.516Z" transform="translate(-285.98 -77.467)" fill="#eab021"/>
    <path id="Trazado_1173218" data-name="Trazado 1173218" d="M412.6,129.909h-5.52a.376.376,0,0,1-.317-.246l-.211-.738a10.5,10.5,0,0,0-2.5-4.5,8.034,8.034,0,1,1,11.567,0,10.373,10.373,0,0,0-2.5,4.465l-.211.809a.4.4,0,0,1-.316.211Zm-5.309-.633h5.063l.141-.562A11.145,11.145,0,0,1,415.132,124a7.388,7.388,0,0,0-5.59-12.516A7.416,7.416,0,0,0,404.479,124a11.26,11.26,0,0,1,2.672,4.781Z" transform="translate(-275.137 -65.936)" fill="#e29700"/>
    <path id="Trazado_1173219" data-name="Trazado 1173219" d="M420.461,155.166a.315.315,0,0,1-.317-.317v-5.7H420a2.149,2.149,0,0,1-2.074-.984,1.533,1.533,0,0,1,.141-1.547,1.281,1.281,0,0,1,1.23-.527c1.3.211,1.477,1.793,1.477,2.461h.879a.317.317,0,0,1,0,.633h-.879v5.7a.373.373,0,0,1-.316.281Zm-1.371-8.473a.639.639,0,0,0-.527.281.947.947,0,0,0-.07.914c.211.422.738.633,1.512.668h.141c0-.562-.141-1.723-.949-1.828A.129.129,0,0,0,419.09,146.693Z" transform="translate(-286.83 -91.756)" fill="#e29700"/>
    <path id="Trazado_1173220" data-name="Trazado 1173220" d="M432.551,155.161a.315.315,0,0,1-.317-.317v-5.66h-.914a.317.317,0,0,1,0-.633h.879c0-.633.176-2.285,1.477-2.461a1.216,1.216,0,0,1,1.23.527,1.462,1.462,0,0,1,.141,1.512c-.176.387-.668.984-2.074,1.055H432.8v5.7C432.868,155.02,432.727,155.161,432.551,155.161Zm1.336-8.473h-.105c-.809.141-.949,1.3-.949,1.863h.141c.773-.035,1.336-.281,1.512-.7a.874.874,0,0,0-.07-.879.565.565,0,0,0-.527-.281Z" transform="translate(-296.53 -91.75)" fill="#e29700"/>
    <path id="Trazado_1173221" data-name="Trazado 1173221" d="M424.915,186.093h-1.371a2.04,2.04,0,0,1-2.039-2.039V181.03a2.04,2.04,0,0,1,2.039-2.039h1.371a2.04,2.04,0,0,1,2.039,2.039v3.023a2,2,0,0,1-2.039,2.039Z" transform="translate(-289.562 -115.897)" fill="#4150d8"/>
    <path id="Trazado_1173222" data-name="Trazado 1173222" d="M424.044,185.537h-1.371a2.356,2.356,0,0,1-2.356-2.356v-3.024a2.356,2.356,0,0,1,2.356-2.356h1.371a2.356,2.356,0,0,1,2.356,2.356v3.024A2.355,2.355,0,0,1,424.044,185.537Zm-1.371-7.1a1.763,1.763,0,0,0-1.758,1.758v3.024a1.763,1.763,0,0,0,1.758,1.758h1.371a1.763,1.763,0,0,0,1.758-1.758v-3.024a1.763,1.763,0,0,0-1.758-1.758Z" transform="translate(-288.69 -115.024)" fill="#31409b"/>
    <path id="Trazado_1173223" data-name="Trazado 1173223" d="M423.655,181.6h-5.168a1.335,1.335,0,0,1-1.336-1.336v-2.18a1.335,1.335,0,0,1,1.336-1.336h5.168a1.335,1.335,0,0,1,1.336,1.336v2.18A1.335,1.335,0,0,1,423.655,181.6Z" transform="translate(-286.368 -114.251)" fill="#4150d8"/>
    <path id="Trazado_1173224" data-name="Trazado 1173224" d="M422.783,181.044h-5.168a1.65,1.65,0,0,1-1.652-1.652v-2.18a1.65,1.65,0,0,1,1.652-1.652h5.168a1.65,1.65,0,0,1,1.652,1.652v2.18A1.65,1.65,0,0,1,422.783,181.044Zm-5.2-4.852a1.058,1.058,0,0,0-1.055,1.055v2.18a1.058,1.058,0,0,0,1.055,1.055h5.168a1.058,1.058,0,0,0,1.055-1.055v-2.18a1.058,1.058,0,0,0-1.055-1.055Z" transform="translate(-285.496 -113.379)" fill="#31409b"/>
    <path id="Trazado_1173225" data-name="Trazado 1173225" d="M424.565,182.921h-7.875c-.176,0-.106-.141-.106-.317s-.07-.317.106-.317h7.875c.176,0,.149.141.149.317S424.74,182.921,424.565,182.921Z" transform="translate(-285.941 -118.315)" fill="#31409b"/>
    <path id="Trazado_1173226" data-name="Trazado 1173226" d="M424.565,187.671h-7.875c-.176,0-.106-.141-.106-.317s-.07-.316.106-.316h7.875c.176,0,.147.141.147.316S424.74,187.671,424.565,187.671Z" transform="translate(-285.941 -121.8)" fill="#31409b"/>
    <path id="Trazado_1173227" data-name="Trazado 1173227" d="M428.805,83.721a1.223,1.223,0,0,1-1.23-1.23V77.955a1.23,1.23,0,0,1,2.461,0v4.535A1.2,1.2,0,0,1,428.805,83.721Z" transform="translate(-294.014 -40.878)" fill="#ffca3b"/>
    <path id="Trazado_1173228" data-name="Trazado 1173228" d="M391.973,97.643a1.22,1.22,0,0,1-.879-.352l-3.2-3.2a1.243,1.243,0,1,1,1.758-1.758l3.2,3.2a1.231,1.231,0,0,1,0,1.758A1.387,1.387,0,0,1,391.973,97.643Z" transform="translate(-264.636 -52.057)" fill="#ffca3b"/>
    <path id="Trazado_1173229" data-name="Trazado 1173229" d="M456.863,97.643a1.231,1.231,0,0,1-.879-2.11l3.2-3.2a1.243,1.243,0,0,1,1.758,1.758l-3.2,3.2A1.386,1.386,0,0,1,456.863,97.643Z" transform="translate(-314.583 -52.057)" fill="#ffca3b"/>
    <path id="Trazado_1173230" data-name="Trazado 1173230" d="M427.934,83.166a1.561,1.561,0,0,1-1.547-1.547V77.084a1.547,1.547,0,1,1,3.094,0v4.535a1.516,1.516,0,0,1-1.547,1.547Zm0-7.031a.945.945,0,0,0-.949.949v4.535a.949.949,0,1,0,1.9,0V77.084A.945.945,0,0,0,427.934,76.135Z" transform="translate(-293.143 -40.006)" fill="#e29700"/>
    <path id="Trazado_1173231" data-name="Trazado 1173231" d="M391.151,97.16a1.544,1.544,0,0,1-1.09-.457l-3.2-3.2a1.607,1.607,0,0,1-.457-1.09,1.544,1.544,0,0,1,.457-1.09,1.592,1.592,0,0,1,2.215,0l3.2,3.2a1.529,1.529,0,0,1,0,2.18A1.693,1.693,0,0,1,391.151,97.16Zm-3.2-5.731a.945.945,0,0,0-.668,1.617l3.2,3.2a.978.978,0,0,0,1.336,0,.934.934,0,0,0,0-1.336l-3.2-3.2A1.106,1.106,0,0,0,387.952,91.43Z" transform="translate(-263.813 -51.258)" fill="#e29700"/>
    <path id="Trazado_1173232" data-name="Trazado 1173232" d="M456.04,97.161a1.544,1.544,0,0,1-1.09-.457,1.528,1.528,0,0,1,0-2.18l3.2-3.2a1.592,1.592,0,0,1,2.215,0,1.529,1.529,0,0,1,0,2.18l-3.2,3.2A1.693,1.693,0,0,1,456.04,97.161Zm3.2-5.731a.96.96,0,0,0-.668.281l-3.2,3.2a.934.934,0,0,0,0,1.336.978.978,0,0,0,1.336,0l3.2-3.2a.949.949,0,0,0-.668-1.617Z" transform="translate(-313.76 -51.259)" fill="#e29700"/>
    <path id="Trazado_1173233" data-name="Trazado 1173233" d="M407.817,340.477H407.8a.4.4,0,0,1-.392-.407.408.408,0,0,1,.406-.393c.089-.005,9.868.059,13.774-9.437a.4.4,0,0,1,.739.3C418.3,340.327,408.358,340.477,407.817,340.477Z" transform="translate(-279.217 -226.666)" fill="#acbfe5"/>
    <path id="Trazado_1173234" data-name="Trazado 1173234" d="M443.463,357.023a.4.4,0,0,1-.134-.776,10.889,10.889,0,0,0,5.58-5.249.4.4,0,1,1,.724.339A11.5,11.5,0,0,1,443.6,357,.393.393,0,0,1,443.463,357.023Z" transform="translate(-305.376 -241.906)" fill="#acbfe5"/>
  </g>
</svg>
