<svg xmlns="http://www.w3.org/2000/svg" xmlns:xlink="http://www.w3.org/1999/xlink" width="190" height="194" viewBox="0 0 190 194">
  <defs>
    <clipPath id="clip-path">
      <rect id="Rectángulo_420196" data-name="Rectángulo 420196" width="190" height="194" transform="translate(180 506)" fill="#fff" stroke="#707070" stroke-width="1"/>
    </clipPath>
  </defs>
  <g id="Enmascarar_grupo_1098950" data-name="Enmascarar grupo 1098950" transform="translate(-180 -506)" clip-path="url(#clip-path)">
    <g id="_x31_" transform="translate(173.619 517.008)">
      <path id="Trazado_1172738" data-name="Trazado 1172738" d="M70.311,0A70.311,70.311,0,1,1,0,70.311,70.311,70.311,0,0,1,70.311,0Z" transform="translate(30.893 20.992)" fill="#a9d373"/>
      <ellipse id="Elipse_14454" data-name="Elipse 14454" cx="44.416" cy="3.603" rx="44.416" ry="3.603" transform="translate(56.789 169.253)" fill="#a9d373"/>
      <path id="Trazado_1172650" data-name="Trazado 1172650" d="M194.92,351.562,195.51,357c-6.813,2.293-9.63-.262-9.63-.262l-.917-3.341c-.786-3.079-1.638-6.092-2.424-9.171a5.815,5.815,0,1,1,11.268-2.883,3.318,3.318,0,0,1,.131.852v.065Z" transform="translate(-105.512 -211.461)" fill="#e26988"/>
      <path id="Trazado_1172651" data-name="Trazado 1172651" d="M313.652,343.214a3.837,3.837,0,0,1-.131.852c-.786,3.079-1.572,6.158-2.424,9.171a10.933,10.933,0,0,1-10.547,2.751l.655-4.586.983-9.368a5.762,5.762,0,1,1,11.464,1.18Z" transform="translate(-184.61 -211.367)" fill="#e26988"/>
      <path id="Trazado_1172652" data-name="Trazado 1172652" d="M310.249,381.731c-.648-3.694-9.82-4.311-11.03-4.387,1.381-4.847,2.722-9.716,4.02-14.546,1.572-6.223,3.6-13.1,4.979-19.26.851-7.468-10.875-8.647-11.53-1.179-1.22,12-4.161,32.966-4.258,38.319v.07c.589,6.289,16.377,4.848,17.753,1.572a.926.926,0,0,0,.066-.589Z" transform="translate(-179.176 -211.692)" fill="#ed7e97"/>
      <path id="Trazado_1172653" data-name="Trazado 1172653" d="M318.516,429.244s-4.061-2.62-11.464-3.407c-.2,0-.393-.065-.589-.065a1.764,1.764,0,0,1-1.441-2.424l7.075-15.919-.589,2.293c-1.31,4.848-2.62,9.7-4,14.543,1.048.065,10.416.655,11.071,4.389A.93.93,0,0,1,318.516,429.244Z" transform="translate(-187.509 -258.616)" fill="#f490aa"/>
      <path id="Trazado_1172654" data-name="Trazado 1172654" d="M189.768,342.037c-.917-8.123-13.3-5.9-11.4,2.031,1.507,5.9,3.276,12.512,4.848,18.408,1.3,4.878,2.638,9.715,4.017,14.543h-.021c-1.048.065-10.416.721-11.071,4.389-.59,3.6,16.246,5.7,17.753-.393.015-.076.03-.153.045-.23C193.75,376.251,191.01,354.523,189.768,342.037Z" transform="translate(-101.342 -211.435)" fill="#ed7e97"/>
      <path id="Trazado_1172655" data-name="Trazado 1172655" d="M189.932,424.853a.943.943,0,0,1-.917,1.31h-.983a29.338,29.338,0,0,0-11.661,2.293c.655-3.669,10.023-4.324,11.071-4.389-1.376-4.848-2.686-9.7-4-14.543l-.589-2.293Z" transform="translate(-101.506 -258.483)" fill="#f490aa"/>
      <path id="Trazado_1172656" data-name="Trazado 1172656" d="M170.435,135.6a17.837,17.837,0,0,1-17.819,17.819h-.655A17.822,17.822,0,0,1,134.8,166.386a17.371,17.371,0,0,1-8.975-2.424,17.864,17.864,0,0,1-14.412,7.337,17.661,17.661,0,0,1-12.119-4.782,17.808,17.808,0,0,1-25.942-1.769,17.858,17.858,0,0,1-23.518-8.385,9.475,9.475,0,0,1-.589-1.441c-.458.065-.983.2-1.441.262-.655.065-1.376.131-2.1.131a17.82,17.82,0,0,1-16.05-10.088,18,18,0,0,1,.524-16.574,17.666,17.666,0,0,1-3.734-10.94,17.94,17.94,0,0,1,13.1-17.229,17.447,17.447,0,0,1-.655-4.913A17.837,17.837,0,0,1,56.71,77.751a18.2,18.2,0,0,1,7.075,1.441,17.843,17.843,0,0,1,31.9-7.927,18.435,18.435,0,0,1,15.788-8.844A17.821,17.821,0,0,1,129.23,78.668a17.811,17.811,0,0,1,23.452,16.9v.458a18,18,0,0,1,3.865,1.376,17.762,17.762,0,0,1,10.023,16.05,17.513,17.513,0,0,1-2.227,8.647A18.156,18.156,0,0,1,170.435,135.6Z" transform="translate(-1.171 -27.726)" fill="#fc9db8"/>
      <path id="Trazado_1172657" data-name="Trazado 1172657" d="M162.181,127.474a17.837,17.837,0,0,1-17.819,17.819h-.655a17.822,17.822,0,0,1-17.164,12.971,17.371,17.371,0,0,1-8.975-2.424,17.864,17.864,0,0,1-14.412,7.337,17.661,17.661,0,0,1-12.119-4.782A17.808,17.808,0,0,1,65.1,156.626a17.788,17.788,0,0,1-7.468,1.638,18.157,18.157,0,0,1-7.8-1.769,21.641,21.641,0,0,1-2.1-1.179,17.515,17.515,0,0,1-6.747-8.451,15.691,15.691,0,0,1-3.931.327,18.638,18.638,0,0,1-7.4-1.769,18,18,0,0,1,.524-16.574,17.667,17.667,0,0,1-3.734-10.94,17.94,17.94,0,0,1,13.1-17.229,17.447,17.447,0,0,1-.655-4.913A17.837,17.837,0,0,1,56.71,77.949a18.2,18.2,0,0,1,7.075,1.441,17.843,17.843,0,0,1,31.9-7.927h.393a17.822,17.822,0,0,1,33.148,7.4,17.811,17.811,0,0,1,23.452,16.9v.458a18,18,0,0,1,3.865,1.376,18.153,18.153,0,0,1,1.769,7.8,17.513,17.513,0,0,1-2.227,8.647A17.907,17.907,0,0,1,162.181,127.474Z" transform="translate(-1.171 -27.859)" fill="#ffa6bd"/>
      <path id="Trazado_1172658" data-name="Trazado 1172658" d="M152.021,95.636c-5.961-19.26-24.763-13.888-24.763-13.888a18.51,18.51,0,0,0-13.3-13.3c-11.2-3.013-18.277,6.747-18.277,6.747A19.609,19.609,0,0,0,79.96,69.891C70.133,70.939,66.2,83.648,66.2,83.648A24.09,24.09,0,0,0,48.45,85.679c-9.368,4.913-7.141,18.277-7.141,18.277-18.8,9.826-11.988,24.5-11.923,24.7a17.666,17.666,0,0,1-3.734-10.94,17.94,17.94,0,0,1,13.1-17.229,17.447,17.447,0,0,1-.655-4.913A17.837,17.837,0,0,1,55.917,77.752a18.2,18.2,0,0,1,7.075,1.441,17.843,17.843,0,0,1,31.9-7.927h.393a17.822,17.822,0,0,1,33.148,7.4,17.924,17.924,0,0,1,23.584,16.966Z" transform="translate(-0.64 -27.727)" fill="#ffb8cc"/>
      <path id="Trazado_1172659" data-name="Trazado 1172659" d="M110.24,170.707a18.228,18.228,0,0,1-12.123-4.582,18.379,18.379,0,0,1-26.1-1.842,18.434,18.434,0,0,1-23.875-8.837c-.066-.152-.125-.279-.185-.406-.092-.2-.191-.407-.279-.633l-.215.043c-.256.051-.511.1-.75.136-.674.067-1.43.137-2.178.137a18.282,18.282,0,0,1-16.571-10.415,18.572,18.572,0,0,1,.359-16.77,18.153,18.153,0,0,1-3.626-11A18.527,18.527,0,0,1,37.67,98.917,18.527,18.527,0,0,1,55.541,76a18.874,18.874,0,0,1,6.632,1.219,18.417,18.417,0,0,1,32.287-8.133,19.106,19.106,0,0,1,15.847-8.415,18.4,18.4,0,0,1,18.254,16.062A18.389,18.389,0,0,1,152.091,94.4V94.4a18.465,18.465,0,0,1,11.807,26.4,18.7,18.7,0,0,1,5.946,13.616,18.418,18.418,0,0,1-18.4,18.4h-.222a18.455,18.455,0,0,1-17.6,12.971,18.073,18.073,0,0,1-8.822-2.246,18.558,18.558,0,0,1-14.566,7.159Zm-12.119-5.94a.577.577,0,0,1,.4.157,17.076,17.076,0,0,0,11.723,4.625,17.394,17.394,0,0,0,13.946-7.1.58.58,0,0,1,.764-.153,16.848,16.848,0,0,0,8.677,2.342,17.289,17.289,0,0,0,16.606-12.549.578.578,0,0,1,.557-.422h.655a17.259,17.259,0,0,0,17.24-17.239,17.557,17.557,0,0,0-5.9-13.064.579.579,0,0,1-.119-.716,17.293,17.293,0,0,0-7.543-23.891,17.423,17.423,0,0,0-3.747-1.334.579.579,0,0,1-.445-.563V94.4a17.232,17.232,0,0,0-22.69-16.352.579.579,0,0,1-.76-.5,17.332,17.332,0,0,0-17.177-15.717,17.847,17.847,0,0,0-15.287,8.556.579.579,0,0,1-.962.059,17.264,17.264,0,0,0-30.87,7.67.579.579,0,0,1-.8.44,17.69,17.69,0,0,0-6.849-1.4A17.259,17.259,0,0,0,38.3,94.4a16.768,16.768,0,0,0,.632,4.751.579.579,0,0,1-.4.72,17.365,17.365,0,0,0-12.679,16.671,17,17,0,0,0,3.611,10.584.579.579,0,0,1,.051.636,17.425,17.425,0,0,0-.508,16.047,17.132,17.132,0,0,0,15.526,9.757c.7,0,1.389-.063,2.039-.128.194-.028.428-.076.662-.122.257-.052.515-.1.755-.137a.578.578,0,0,1,.643.433,5.206,5.206,0,0,0,.37.938c.065.14.13.278.19.416a17.28,17.28,0,0,0,22.746,8.087.579.579,0,0,1,.688.159,17.23,17.23,0,0,0,25.1,1.709.579.579,0,0,1,.391-.152Z" transform="translate(0 -26.555)" fill="#bf4b6f"/>
      <path id="Trazado_1172660" data-name="Trazado 1172660" d="M260.323,261.554a.931.931,0,0,1-.393-.131.539.539,0,0,1-.065-.786c3.145-3.865,0-9.957-.065-10.023a.58.58,0,0,1,.131-.721c4.979-3.8,7.73-7.992,8.32-12.447a14.325,14.325,0,0,0-2.489-9.564.541.541,0,0,1,.065-.786c6.747-7.01.262-15.395-.065-15.788a.558.558,0,1,1,.852-.721c.065.065,7.141,9.237.262,16.9a14.8,14.8,0,0,1,2.424,9.957c-.589,4.651-3.341,8.975-8.385,12.905.721,1.572,2.882,7.01-.262,10.875,0,.263-.131.328-.328.328Z" transform="translate(-157.288 -126.759)" fill="#ed7e97"/>
      <ellipse id="Elipse_14455" data-name="Elipse 14455" cx="13.953" cy="11.595" rx="13.953" ry="11.595" transform="translate(64.845 96.03) rotate(-68.23)" fill="#fff"/>
      <ellipse id="Elipse_14456" data-name="Elipse 14456" cx="8.714" cy="7.535" rx="8.714" ry="7.535" transform="translate(72.526 99.639) rotate(-82.072)" fill="#22213f"/>
      <path id="Trazado_1172661" data-name="Trazado 1172661" d="M183.5,241.619a2.367,2.367,0,0,1-3.145,1.114,2.322,2.322,0,0,1-1.507-2.948,2.522,2.522,0,0,1,4.651,1.834Z" transform="translate(-103.065 -145.541)" fill="#fff"/>
      <path id="Trazado_1172662" data-name="Trazado 1172662" d="M324.6,187.139c3.013,7.075.655,14.871-5.241,17.36s-13.1-1.179-16.115-8.254-.655-14.871,5.241-17.36S321.587,180.064,324.6,187.139Z" transform="translate(-185.536 -105.145)" fill="#fff"/>
      <ellipse id="Elipse_14457" data-name="Elipse 14457" cx="7.535" cy="8.714" rx="7.535" ry="8.714" transform="matrix(0.987, -0.16, 0.16, 0.987, 120.326, 83.953)" fill="#22213f"/>
      <path id="Trazado_1172663" data-name="Trazado 1172663" d="M325.224,237.012a2.522,2.522,0,1,0,3.145-1.114A2.377,2.377,0,0,0,325.224,237.012Z" transform="translate(-201.03 -143.686)" fill="#fff"/>
      <path id="Trazado_1172664" data-name="Trazado 1172664" d="M167.336,207.084a11.215,11.215,0,0,1-3.865-.721c-6.223-2.489-8.909-10.547-5.961-18.015,2.948-7.4,10.481-11.464,16.7-8.975a11.4,11.4,0,0,1,6.42,7.206,16.6,16.6,0,0,1-7.6,19A11.961,11.961,0,0,1,167.336,207.084Zm-8.713-18.277c-2.751,6.813-.327,14.215,5.306,16.508a9.921,9.921,0,0,0,8.647-.721,15.352,15.352,0,0,0,7.009-17.622,10.209,10.209,0,0,0-5.765-6.485c-5.633-2.293-12.446,1.441-15.2,8.32Z" transform="translate(-88.081 -105.503)" fill="#bf4b6f"/>
      <path id="Trazado_1172665" data-name="Trazado 1172665" d="M314.528,204.65c-5.11,0-10.35-3.6-12.774-9.368-3.145-7.337-.655-15.46,5.5-18.146a11.114,11.114,0,0,1,9.63.524,16.09,16.09,0,0,1,7.272,7.992c3.145,7.337.655,15.46-5.5,18.146A10.348,10.348,0,0,1,314.528,204.65Zm-3.144-27.187a10.154,10.154,0,0,0-3.669.721c-5.568,2.358-7.8,9.826-4.913,16.574s9.761,10.35,15.395,7.927c5.568-2.358,7.8-9.826,4.913-16.574a14.79,14.79,0,0,0-6.747-7.468A11.541,11.541,0,0,0,311.384,177.464Z" transform="translate(-184.504 -103.921)" fill="#bf4b6f"/>
      <path id="Trazado_1172666" data-name="Trazado 1172666" d="M288.913,132.046c3.8,1.31,7.4.983,7.992-.721.589-1.769-1.965-4.258-5.765-5.568s-7.4-.983-7.992.721S285.113,130.67,288.913,132.046Z" transform="translate(-172.908 -69.574)" fill="#ed7e97"/>
      <path id="Trazado_1172667" data-name="Trazado 1172667" d="M292.045,132.033a13.685,13.685,0,0,1-4.586-.852c-4.193-1.441-6.879-4.258-6.158-6.354s4.586-2.555,8.778-1.114,6.879,4.258,6.158,6.354C295.779,131.378,294.206,132.033,292.045,132.033Zm-4.193-1.9c3.734,1.31,6.813.852,7.272-.393s-1.7-3.538-5.437-4.848-6.813-.852-7.272.393C282.021,126.464,284.118,128.757,287.852,130.133Z" transform="translate(-171.65 -68.185)" fill="#bf4b6f"/>
      <path id="Trazado_1172668" data-name="Trazado 1172668" d="M213.879,134.15c3.734-1.572,6.158-4.258,5.437-5.961s-4.324-1.834-8.058-.262-6.158,4.258-5.437,5.961S210.145,135.723,213.879,134.15Z" transform="translate(-121.13 -70.827)" fill="#ed7e97"/>
      <path id="Trazado_1172669" data-name="Trazado 1172669" d="M207.874,134.507c-1.834,0-3.21-.589-3.734-1.7-.458-1.048,0-2.358,1.179-3.669a13.4,13.4,0,0,1,4.586-3.079c4.062-1.7,7.927-1.507,8.778.589.852,2.031-1.638,4.979-5.765,6.682A11.716,11.716,0,0,1,207.874,134.507Zm7.141-8.385a13.695,13.695,0,0,0-8.844,3.8c-.852.917-1.179,1.834-.917,2.424.524,1.179,3.6,1.507,7.272-.065s5.634-4,5.11-5.175C217.373,126.515,216.39,126.122,215.014,126.122Z" transform="translate(-119.972 -69.546)" fill="#bf4b6f"/>
      <g id="Grupo_1222070" data-name="Grupo 1222070" transform="translate(48.329 47.168)">
        <path id="Trazado_1172670" data-name="Trazado 1172670" d="M171.647,105.279a.361.361,0,0,1-.327-.131.544.544,0,0,1-.131-.786c.065-.065,4.586-6.551,12.119-3.341a.6.6,0,1,1-.459,1.114,8.766,8.766,0,0,0-10.744,2.948A1.381,1.381,0,0,1,171.647,105.279Z" transform="translate(-146.29 -100.129)" fill="#ed7e97"/>
        <path id="Trazado_1172671" data-name="Trazado 1172671" d="M176.683,328.2A6.782,6.782,0,0,1,170,323.351a.58.58,0,0,1,1.114-.328,5.5,5.5,0,0,0,5.83,4,.587.587,0,0,1,.655.524.638.638,0,0,1-.524.655Z" transform="translate(-145.561 -249.022)" fill="#ed7e97"/>
        <path id="Trazado_1172672" data-name="Trazado 1172672" d="M307.357,349.369a6.889,6.889,0,0,1-2.62-.524.56.56,0,0,1,.393-1.048,5.554,5.554,0,0,0,6.747-2.1.573.573,0,0,1,.983.59,6.911,6.911,0,0,1-5.5,3.079Z" transform="translate(-235.489 -264.298)" fill="#ed7e97"/>
        <path id="Trazado_1172673" data-name="Trazado 1172673" d="M120.552,265.471a.241.241,0,0,1-.2-.065,6.836,6.836,0,0,1-4.193-7.468.565.565,0,0,1,1.114.2,5.645,5.645,0,0,0,3.407,6.223.53.53,0,0,1,.327.721.433.433,0,0,1-.459.393Z" transform="translate(-109.476 -205.424)" fill="#ed7e97"/>
        <path id="Trazado_1172674" data-name="Trazado 1172674" d="M365.705,281.288a.577.577,0,0,1-.589-.524.535.535,0,0,1,.524-.589,5.567,5.567,0,0,0,5.306-4.717.593.593,0,1,1,1.179.131,6.836,6.836,0,0,1-6.42,5.7h0Z" transform="translate(-276.149 -217.114)" fill="#ed7e97"/>
        <path id="Trazado_1172675" data-name="Trazado 1172675" d="M96.74,161.71a.587.587,0,0,1-.589-.589c-.2-7.6,5.634-9.434,7.272-9.826a8.418,8.418,0,0,1,10.154-7.337.565.565,0,1,1-.2,1.114,8.333,8.333,0,0,0-5.568,1.048c-1.7,1.114-2.751,3.079-3.276,5.7a.556.556,0,0,1-.524.458c-.262.065-6.879.983-6.682,8.713C97.329,161.448,97.067,161.71,96.74,161.71Z" transform="translate(-96.145 -129.374)" fill="#ed7e97"/>
        <path id="Trazado_1172676" data-name="Trazado 1172676" d="M384.649,168.475h-.2a.565.565,0,0,1-.393-.721,7.857,7.857,0,0,0-.589-5.634,8.4,8.4,0,0,0-5.372-3.734.635.635,0,0,1-.458-.524c0-.262-.393-6.944-8.057-7.4a.5.5,0,0,1-.524-.589.53.53,0,0,1,.589-.524c7.6.458,8.909,6.42,9.106,8.123a9.34,9.34,0,0,1,5.765,4.192,8.967,8.967,0,0,1,.655,6.551.589.589,0,0,1-.525.262Z" transform="translate(-278.781 -133.06)" fill="#ed7e97"/>
        <path id="Trazado_1172677" data-name="Trazado 1172677" d="M164.875,343.7a4.031,4.031,0,0,1-.917-.065,7.765,7.765,0,0,1-4.52-2.817c-7.6,1.7-10.285-5.765-10.285-5.83a.56.56,0,0,1,1.048-.393c.065.262,2.489,6.813,9.3,4.979a.623.623,0,0,1,.655.262,6.393,6.393,0,0,0,4,2.62c1.7.262,3.6-.393,5.5-2.031a.558.558,0,0,1,.721.852,8.21,8.21,0,0,1-5.5,2.424Z" transform="translate(-131.592 -256.791)" fill="#ed7e97"/>
        <path id="Trazado_1172678" data-name="Trazado 1172678" d="M346.364,343.371a16.6,16.6,0,0,1-4.258-.589.58.58,0,1,1,.328-1.114c.393.131,9.106,2.817,11.792-4.717a.56.56,0,0,1,1.048.393C353.635,342.323,349.574,343.371,346.364,343.371Z" transform="translate(-260.476 -258.365)" fill="#ed7e97"/>
        <path id="Trazado_1172679" data-name="Trazado 1172679" d="M398.375,212.342h-.131a.565.565,0,0,1-.393-.721c.131-.393,2.555-9.237-5.044-11.661a.58.58,0,1,1,.328-1.114c8.647,2.817,5.83,12.971,5.83,13.1A.754.754,0,0,1,398.375,212.342Z" transform="translate(-294.406 -166.183)" fill="#ed7e97"/>
      </g>
      <path id="Trazado_1172680" data-name="Trazado 1172680" d="M193.9,470.213c-1.507,6.092-18.343,4-17.753.393C176.208,470.671,185.707,473.685,193.9,470.213Z" transform="translate(-101.343 -300.633)" fill="#e26988"/>
      <path id="Trazado_1172681" data-name="Trazado 1172681" d="M310.183,470.068c-1.376,3.276-17.164,4.717-17.753-1.638h.131S299.112,472.819,310.183,470.068Z" transform="translate(-179.176 -299.439)" fill="#e26988"/>
      <path id="Trazado_1172682" data-name="Trazado 1172682" d="M299.924,384.527a20.017,20.017,0,0,1-3-.215c-3.794-.581-6.009-2.244-6.238-4.681,0-.018,0-.036,0-.054v-.07c.059-3.246,1.127-11.971,2.259-21.207.744-6.077,1.514-12.361,2-17.17a5.762,5.762,0,0,1,3.387-4.97,7.149,7.149,0,0,1,6.965.7,5.782,5.782,0,0,1,2.329,5.57c0,.021-.006.041-.01.061-.856,3.832-1.975,7.978-3.057,11.988-.654,2.424-1.33,4.929-1.926,7.288-1.3,4.851-2.591,9.514-3.83,13.878,3.528.285,10.184,1.286,10.842,4.776a1.476,1.476,0,0,1-.08.909c0,.014-.01.027-.016.041C308.713,383.356,304.175,384.527,299.924,384.527Zm-8.086-4.978c.254,2.486,3.4,3.335,5.258,3.619,4.849.743,10.681-.666,11.375-2.225a.943.943,0,0,0,.055-.212.477.477,0,0,1-.018-.071c-.425-2.424-5.92-3.621-10.5-3.909a.579.579,0,0,1-.52-.736c1.3-4.554,2.649-9.445,4.018-14.537.6-2.359,1.273-4.87,1.928-7.3,1.076-3.987,2.188-8.109,3.038-11.908a4.662,4.662,0,0,0-1.863-4.473,5.957,5.957,0,0,0-5.8-.586,4.651,4.651,0,0,0-2.714,4.026c-.491,4.829-1.261,11.118-2.006,17.2-1.127,9.206-2.192,17.9-2.25,21.077v.03Zm17.174,1.6h0Z" transform="translate(-178.005 -210.521)" fill="#bf4b6f"/>
      <path id="Trazado_1172683" data-name="Trazado 1172683" d="M183.909,383.91c-3.513,0-7.07-.682-8.647-1.931a1.9,1.9,0,0,1-.861-1.842c.641-3.589,7.8-4.568,10.911-4.823-1.378-4.839-2.632-9.382-3.824-13.867l-.3-1.132c-1.47-5.511-3.136-11.758-4.547-17.282a5.976,5.976,0,0,1,1.781-6.185,7.026,7.026,0,0,1,7-1.237,5.948,5.948,0,0,1,3.756,5.183.067.067,0,0,1,0,.008c.434,4.358,1.173,9.737,1.888,14.94,1.342,9.765,2.73,19.863,2.239,24.161-.1.868-.657,2.085-2.751,2.955a18.355,18.355,0,0,1-6.639,1.053Zm-.886-47.577a5.916,5.916,0,0,0-3.842,1.387,4.865,4.865,0,0,0-1.419,5.035c1.408,5.51,3.073,11.754,4.542,17.262l.3,1.132c1.247,4.69,2.56,9.443,4.014,14.533a.579.579,0,0,1-.557.738c-3.68.23-10.058,1.314-10.522,3.912-.013.079-.057.347.439.739,2.154,1.7,10.1,2.387,14.124.717,1.264-.525,1.953-1.2,2.046-2.017.474-4.153-.9-14.177-2.235-23.872-.716-5.212-1.457-10.6-1.893-14.98a4.84,4.84,0,0,0-3.024-4.23A5.467,5.467,0,0,0,183.023,336.333Z" transform="translate(-100.172 -210.257)" fill="#bf4b6f"/>
      <path id="Trazado_1172684" data-name="Trazado 1172684" d="M201.226,325.04v.131C201.16,325.105,201.16,325.04,201.226,325.04Z" transform="translate(-118.106 -203.478)" fill="#db7712"/>
      <path id="Trazado_1172685" data-name="Trazado 1172685" d="M214.2,298.438l-1.179,41.4-29.676-10.023a1.826,1.826,0,0,1-1.245-1.834l1.048-37.406a1.887,1.887,0,0,1,2.424-1.769Z" transform="translate(-105.338 -179.169)" fill="#4150d8"/>
      <path id="Trazado_1172686" data-name="Trazado 1172686" d="M303.125,335.456l23.78-12.447a2.131,2.131,0,0,0,1.376-1.769l1.048-37.406a1.878,1.878,0,0,0-2.358-1.9L304.3,294.119Z" transform="translate(-186.333 -174.588)" fill="#4150d8"/>
      <path id="Trazado_1172687" data-name="Trazado 1172687" d="M288.134,313.465l-4.651,1.834-4.52-2.1a5.317,5.317,0,0,1,1.245-1.31,5.55,5.55,0,0,1,3.407-1.114,5.238,5.238,0,0,1,3.341,1.31A4.094,4.094,0,0,1,288.134,313.465Z" transform="translate(-170.163 -193.934)" fill="#e6ecff"/>
      <path id="Trazado_1172688" data-name="Trazado 1172688" d="M225.907,289.964l-3.21,2.227-.2-.066-27.71-9.3,1.179-1.31,1.245-1.31s19.98-4.913,28.431,9.3A3.761,3.761,0,0,0,225.907,289.964Z" transform="translate(-113.832 -172.923)" fill="#e6ecff"/>
      <path id="Trazado_1172689" data-name="Trazado 1172689" d="M321.1,279.869l-2.031-2.424s-12.381-3.276-21.487,11.006l3.079,2.424Z" transform="translate(-182.622 -171.41)" fill="#e6ecff"/>
      <path id="Trazado_1172690" data-name="Trazado 1172690" d="M228.032,289.467l-.589.721c-9.565-12.185-29.086-8.713-29.086-8.713l1.245-1.31S219.515,275.185,228.032,289.467Z" transform="translate(-116.219 -172.884)" fill="#f5f8ff"/>
      <path id="Trazado_1172691" data-name="Trazado 1172691" d="M223.942,295.193l-1.441,1.245-27.71-9.368,1.179-1.245Z" transform="translate(-113.832 -177.234)" fill="#c7d1ea"/>
      <path id="Trazado_1172692" data-name="Trazado 1172692" d="M288.134,315.468l-4.651,1.834-4.52-2.1a5.318,5.318,0,0,1,1.245-1.31c.852-.655,3.407,1.572,6.747.2A4.094,4.094,0,0,1,288.134,315.468Z" transform="translate(-170.163 -195.938)" fill="#c7d1ea"/>
      <path id="Trazado_1172693" data-name="Trazado 1172693" d="M222.98,294.958a.467.467,0,0,1-.393-.2c-8.058-13.43-28.235-7.992-28.431-7.927l-.786-.262a.469.469,0,0,1,.327-.589c.2-.065,21.225-5.765,29.676,8.32.131.2-.2.261-.393.393-.131-.066.065.262,0,.262Z" transform="translate(-112.871 -176.541)" fill="#8196c9"/>
      <path id="Trazado_1172694" data-name="Trazado 1172694" d="M229.2,300.637a.5.5,0,0,1-.327-.131c-5.765-6.682-15.042-8.284-22.117-7.5-.262,0-.811-.035-.877-.3a.5.5,0,0,1,.393-.524c7.272-.786,17.229.786,23.256,7.73a.443.443,0,0,1-.065.655C229.4,300.572,229.334,300.637,229.2,300.637Z" transform="translate(-121.255 -181.369)" fill="#8196c9"/>
      <path id="Trazado_1172695" data-name="Trazado 1172695" d="M282.7,314.829a.241.241,0,0,1-.2-.065l-4.52-2.1a.511.511,0,0,1-.262-.262.433.433,0,0,1,.065-.393,5.883,5.883,0,0,1,9.957.262.418.418,0,0,1,0,.393.511.511,0,0,1-.262.262l-4.651,1.834A.2.2,0,0,1,282.7,314.829Zm-3.865-2.751,3.865,1.769,3.93-1.572a5.115,5.115,0,0,0-3.865-1.965A5.052,5.052,0,0,0,278.833,312.077Z" transform="translate(-169.313 -193.005)" fill="#8196c9"/>
      <path id="Trazado_1172696" data-name="Trazado 1172696" d="M221.717,291.752c-.065,0,0-.361-.065-.361l-27.841-9.318c-.131-.065-.393.048-.459-.083a.315.315,0,0,1,.131-.393l2.424-2.62c.066-.065.131-.131.2-.131.2-.065,20.767-4.913,29.152,9.957a.439.439,0,1,1-.786.393c-7.73-13.692-26.335-9.957-28.038-9.565l-2.03,2.216,27.448,8.921a.4.4,0,0,1,.262.589.475.475,0,0,1-.393.393Z" transform="translate(-112.852 -172.025)" fill="#8196c9"/>
      <path id="Trazado_1172697" data-name="Trazado 1172697" d="M299.618,290.583a.407.407,0,0,1-.393-.262.388.388,0,0,1,.2-.589l19.98-10.678-1.638-1.965c-1.376-.262-12.512-2.162-20.9,10.875-.131.2-.341.063-.6-.068-.2-.131-.314-.194-.183-.456,9.237-14.412,21.88-11.268,22.011-11.2a.5.5,0,0,1,.262.131l2.1,2.489a.433.433,0,0,1,.065.393c0,.131-.222-.023-.353.042L299.81,290.06C299.744,289.672,299.684,290.583,299.618,290.583Z" transform="translate(-181.582 -170.594)" fill="#8196c9"/>
      <path id="Trazado_1172698" data-name="Trazado 1172698" d="M285.748,318.369l-1.179,41.4a12.108,12.108,0,0,1-6.289.524,15.7,15.7,0,0,1-2.882-.786l1.179-41.4a11.075,11.075,0,0,0,2.882.786,14.908,14.908,0,0,0,1.7.131A13.407,13.407,0,0,0,285.748,318.369Z" transform="translate(-167.778 -198.839)" fill="#4150d8"/>
      <path id="Trazado_1172699" data-name="Trazado 1172699" d="M279.46,318.894l-1.179,41.4a15.693,15.693,0,0,1-2.882-.786l1.179-41.4A15.748,15.748,0,0,0,279.46,318.894Z" transform="translate(-167.778 -198.839)" fill="#5065e2"/>
      <path id="Trazado_1172700" data-name="Trazado 1172700" d="M295.985,319.358l-1.179,41.4a12.965,12.965,0,0,0,2.752-.655l1.31-41.4A9.184,9.184,0,0,1,295.985,319.358Z" transform="translate(-180.766 -199.237)" fill="#3145bc"/>
      <path id="Trazado_1172701" data-name="Trazado 1172701" d="M279.225,359.885a11.334,11.334,0,0,1-2.09-.191,12.7,12.7,0,0,1-2.448-.655l-.446-.15a.578.578,0,0,1-.4-.566l1.179-41.4a.579.579,0,0,1,.807-.516,10.075,10.075,0,0,0,2.666.744l.154.017a13.838,13.838,0,0,0,5.883-.519.579.579,0,0,1,.754.568l-1.179,41.337a.579.579,0,0,1-.385.529,13.508,13.508,0,0,1-4.5.8Zm-4.21-1.956.045.015a11.724,11.724,0,0,0,2.259.609,11.522,11.522,0,0,0,5.645-.434l1.145-40.141a13.463,13.463,0,0,1-4.009.456,12.148,12.148,0,0,1-1.578-.115l-.165-.018a11.05,11.05,0,0,1-2.2-.525Z" transform="translate(-166.738 -197.669)" fill="#31409b"/>
      <path id="Trazado_1172702" data-name="Trazado 1172702" d="M223.631,355.164a1.774,1.774,0,0,1-.616-.091L212.389,351.2a1.8,1.8,0,0,1-.534-3.016l8.7-7.424-8.035-2.857a1.859,1.859,0,0,1-1.1-2.248c0-.014.009-.028.015-.042a1.855,1.855,0,0,1,2.241-1.077l10.9,3.873a1.918,1.918,0,0,1,1.163,1.314.448.448,0,0,1,.014.066,1.74,1.74,0,0,1-.574,1.637l-8.7,7.426,7.776,2.79a1.859,1.859,0,0,1,1.094,2.247.453.453,0,0,1-.022.059A1.874,1.874,0,0,1,223.631,355.164Zm-11.257-19.2a.856.856,0,0,0,.5,1.013l8.826,3.138a.5.5,0,0,1,.156.845l-9.368,7.992a.78.78,0,0,0-.224.732.738.738,0,0,0,.452.582l10.625,3.869a.794.794,0,0,0,.289.035.905.905,0,0,0,.778-.592.856.856,0,0,0-.5-1.006L215.34,349.5a.5.5,0,0,1-.154-.845l9.368-7.992a.765.765,0,0,0,.228-.7.953.953,0,0,0-.522-.616l-10.884-3.868A.851.851,0,0,0,212.373,335.965Z" transform="translate(-124.854 -209.785)" fill="#31409b"/>
      <path id="Trazado_1172703" data-name="Trazado 1172703" d="M323.73,354.058a1.327,1.327,0,0,1-.574-.1,1.728,1.728,0,0,1-1.017-.889,1.632,1.632,0,0,1-.049-1.33l5.886-17.66a1.78,1.78,0,0,1,2.225-1.184,1.822,1.822,0,0,1,1.038.838l6.752,13.175a1.688,1.688,0,0,1,.117,1.332,1.819,1.819,0,0,1-.82,1.027,1.537,1.537,0,0,1-.848.269,1.7,1.7,0,0,1-1.563-1l-1.138-2.221-7.224,3.15-1.13,3.388A1.7,1.7,0,0,1,323.73,354.058Zm5.933-20.255a.657.657,0,0,0-.32.08.755.755,0,0,0-.142.108l-.03.026a.724.724,0,0,0-.249.363l-5.9,17.7a.673.673,0,0,0,.012.558.73.73,0,0,0,.447.382.483.483,0,0,1,.079.031.561.561,0,0,0,.171.013.712.712,0,0,0,.7-.476c0-.012.007-.025.011-.037l1.205-3.614a.5.5,0,0,1,.272-.3l7.853-3.425a.5.5,0,0,1,.64.229l1.357,2.65c.005.01.01.02.015.031a.72.72,0,0,0,.658.42.566.566,0,0,0,.314-.113l.035-.021a.82.82,0,0,0,.374-.469.7.7,0,0,0-.043-.559l-.008-.015L330.363,334.2a.814.814,0,0,0-.461-.359.77.77,0,0,0-.239-.039Zm-2.487,12.6a.5.5,0,0,1-.471-.653l2.726-8.177a.5.5,0,0,1,.912-.069l2.927,5.712a.5.5,0,0,1-.243.681l-5.652,2.465a.5.5,0,0,1-.2.041ZM330,339.013l-2,6,4.147-1.808Z" transform="translate(-198.946 -208.678)" fill="#31409b"/>
      <path id="Trazado_1172704" data-name="Trazado 1172704" d="M300.693,292.768c-.131,0-.2,0-.262-.131a.5.5,0,0,1-.065-.655c.131-.131,10.217-12.666,22.4-9.588a1.521,1.521,0,0,1,.133.678c-.065.262-.065.2-.262.131-11.6-2.948-21.422,9.171-21.553,9.3C300.955,292.768,300.824,292.768,300.693,292.768Z" transform="translate(-184.425 -174.613)" fill="#8196c9"/>
      <path id="Trazado_1172705" data-name="Trazado 1172705" d="M305.787,300.139a.394.394,0,0,1-.262-.065.438.438,0,0,1-.065-.655c.065-.065,6.682-8.582,17.295-9.237a.438.438,0,0,1,.458.393c0,.262-.361.47-.557.47-10.219.655-16.409,8.767-16.475,8.9A.567.567,0,0,1,305.787,300.139Z" transform="translate(-187.817 -180.15)" fill="#8196c9"/>
      <path id="Trazado_1172706" data-name="Trazado 1172706" d="M211.852,339.249a.577.577,0,0,1-.185-.03L181.991,329.2a2.4,2.4,0,0,1-1.636-2.431l1.047-37.374a2.59,2.59,0,0,1,1.113-2.007,2.342,2.342,0,0,1,2.073-.294l28.629,9.63a.578.578,0,0,1,.394.565l-1.179,41.4a.579.579,0,0,1-.579.563Zm-28.01-51.124a1.2,1.2,0,0,0-.677.215,1.421,1.421,0,0,0-.608,1.1l-1.048,37.392a1.253,1.253,0,0,0,.849,1.269l28.937,9.774,1.145-40.191-28.222-9.493a1.2,1.2,0,0,0-.377-.062Z" transform="translate(-104.166 -178)" fill="#31409b"/>
      <path id="Trazado_1172707" data-name="Trazado 1172707" d="M301.954,334.862a.578.578,0,0,1-.579-.6l1.179-41.337a.578.578,0,0,1,.3-.493l22.666-12.185a.581.581,0,0,1,.127-.05,2.457,2.457,0,0,1,3.084,2.49l-1.048,37.392a2.638,2.638,0,0,1-1.7,2.273L302.222,334.8A.575.575,0,0,1,301.954,334.862ZM303.7,293.3l-1.142,40.015,22.9-11.989c.331-.161,1.065-.591,1.065-1.256l1.049-37.422a1.3,1.3,0,0,0-1.571-1.338Z" transform="translate(-185.162 -173.416)" fill="#31409b"/>
      <path id="Trazado_1172708" data-name="Trazado 1172708" d="M96.684,290.2c-.065,0-.589.2-1.507.458-18.736,5.765-42.974-3.669-36.1-27.907,2.555-8.647,2.817-14.936,8.975-13.3,5.5,3.865.393,6.354-.917,15.133-1.245,6.092-.917,10.678.917,13.037,4.127,7.01,19.456,7.337,26.007,4.717C99.108,280.568,101.794,288.56,96.684,290.2Z" transform="translate(-22.212 -152.717)" fill="#ed7e97"/>
      <path id="Trazado_1172709" data-name="Trazado 1172709" d="M413.784,289.2c-4.258,3.8-11.53,4.979-17.818,4-7.927-1.769-12.971-1.769-11.661-7.8,3.21-5.9,9.434.721,16.115-.131,18.212-.066,3.865-16.246-3.341-21.815a4.1,4.1,0,0,1-.786-5.765c4.979-5.175,10.416,3.669,15,8.451C417.649,274.195,420.99,282.384,413.784,289.2Z" transform="translate(-240.523 -157.35)" fill="#ed7e97"/>
      <path id="Trazado_1172710" data-name="Trazado 1172710" d="M179.195,335.369a1.793,1.793,0,0,1-1.376.589,7.258,7.258,0,0,0-1.245.131c-.458.131-.917.262-1.31.393a8.144,8.144,0,0,0-1.572,1.048,3.214,3.214,0,0,0-.917,1.441l-1.376-.458-2.555-.852a6.682,6.682,0,0,1,1.376-2.358,9.683,9.683,0,0,1,7.4-3.538,2.1,2.1,0,0,1,2.162,1.965,2.282,2.282,0,0,1-.589,1.638Z" transform="translate(-96.468 -207.977)" fill="#ed7e97"/>
      <path id="Trazado_1172711" data-name="Trazado 1172711" d="M184.411,346.737a1.829,1.829,0,0,1-1.31,1.179,1.627,1.627,0,0,1-.524.066,2.021,2.021,0,0,0-.655.066,8.13,8.13,0,0,0-1.441.262,6.292,6.292,0,0,0-3.013,1.769l-2.1-1.572-1.179-.917a7.314,7.314,0,0,1,.917-.983,10.474,10.474,0,0,1,1.7-1.245,2.046,2.046,0,0,1,.655-.327,10.7,10.7,0,0,1,3.276-1.048,9.815,9.815,0,0,1,1.441-.131h.327a2.055,2.055,0,0,1,2.1,2.031c-.065.262-.131.59-.2.852Z" transform="translate(-100.047 -216.069)" fill="#ed7e97"/>
      <path id="Trazado_1172712" data-name="Trazado 1172712" d="M180.445,359.217a1.214,1.214,0,0,1-.458.131,1.686,1.686,0,0,1-.983-.065c-3.079-.917-6.092.917-6.158.917a2.045,2.045,0,1,1-2.162-3.472,9.147,9.147,0,0,1,1.638-.786,13.61,13.61,0,0,1,3.079-.852,11.729,11.729,0,0,1,4.717.262h.066a2.034,2.034,0,0,1,1.376,2.555A2.223,2.223,0,0,1,180.445,359.217Z" transform="translate(-97.063 -223.505)" fill="#ed7e97"/>
      <path id="Trazado_1172713" data-name="Trazado 1172713" d="M182.568,333.8A10.88,10.88,0,0,0,173,335.311a9.683,9.683,0,0,1,7.4-3.538A2.158,2.158,0,0,1,182.568,333.8Z" transform="translate(-99.252 -207.984)" fill="#f490aa"/>
      <path id="Trazado_1172714" data-name="Trazado 1172714" d="M189.488,346.075c-.131,0-1.441-1.769-7.075-1.048a.525.525,0,0,1-.589-.262c-.131-.131,0-.262.655-.327.066,0,.655-.2,1.507-.458.393-.131.786-.262,1.31-.393.131-.065.327-.065.458-.131.655-.2,1.376-.393,2.1-.589a2.349,2.349,0,0,1-.655.458h.327a2.055,2.055,0,0,1,2.1,2.031A4.212,4.212,0,0,1,189.488,346.075Z" transform="translate(-105.124 -215.408)" fill="#f490aa"/>
      <path id="Trazado_1172715" data-name="Trazado 1172715" d="M191.912,359.468c.655-1.572-1.31-2.751-3.013-3.472a9.7,9.7,0,0,0-2.031-.655l3.472.393,1.965.2a2.059,2.059,0,0,1,.721,2.227A2.223,2.223,0,0,1,191.912,359.468Z" transform="translate(-108.531 -223.757)" fill="#f490aa"/>
      <path id="Trazado_1172716" data-name="Trazado 1172716" d="M168.077,336.739a.394.394,0,0,1-.262-.066.607.607,0,0,1-.262-.786,10.714,10.714,0,0,1,9.171-5.9,2.563,2.563,0,0,1,1.9.721,2.438,2.438,0,0,1,.852,1.834,2.563,2.563,0,0,1-1.638,2.555.578.578,0,0,1-.786-.327c-.131-.327-.307-.393.02-.524a2.205,2.205,0,0,0,1.225-1.7,1.546,1.546,0,0,0-.458-1.048,1.488,1.488,0,0,0-1.048-.393,9.663,9.663,0,0,0-8.231,5.392A1.056,1.056,0,0,1,168.077,336.739Z" transform="translate(-95.57 -206.792)" fill="#bf4b6f"/>
      <path id="Trazado_1172717" data-name="Trazado 1172717" d="M187.208,347.275c-.262,0-.627.172-.693-.09a.565.565,0,0,1,.393-.721,1.482,1.482,0,0,0,.59-2.489,1.488,1.488,0,0,0-1.048-.393,11.075,11.075,0,0,0-5.522,1.556.559.559,0,1,1-.579-.957,12.494,12.494,0,0,1,6.1-1.713,2.854,2.854,0,0,1,1.9.721,2.689,2.689,0,0,1,.852,1.834,2.616,2.616,0,0,1-1.834,2.555C187.171,347.578,187.274,347.275,187.208,347.275Z" transform="translate(-103.986 -215.142)" fill="#bf4b6f"/>
      <path id="Trazado_1172718" data-name="Trazado 1172718" d="M177.446,359.546a.808.808,0,0,1-.524-.262c-.131-.262-.483-.244-.221-.375a8.754,8.754,0,0,1,7.034-1.394,1.345,1.345,0,0,0,.721,0,1.507,1.507,0,0,0,1.114-1.048,1.321,1.321,0,0,0-.131-1.114,1.7,1.7,0,0,0-.917-.721,10.588,10.588,0,0,0-5.175-.131.565.565,0,1,1-.2-1.114,11.9,11.9,0,0,1,5.7.131,2.583,2.583,0,0,1,1.769,3.276,2.643,2.643,0,0,1-2.031,1.834,2.675,2.675,0,0,1-1.245-.065,7.443,7.443,0,0,0-5.593.983C177.748,359.677,177.511,359.546,177.446,359.546Z" transform="translate(-101.663 -222.262)" fill="#bf4b6f"/>
      <path id="Trazado_1172719" data-name="Trazado 1172719" d="M368.057,324.675a1.793,1.793,0,0,0,1.376.589,7.258,7.258,0,0,1,1.245.131c.458.131.917.262,1.31.393a8.144,8.144,0,0,1,1.572,1.048,3.214,3.214,0,0,1,.917,1.441l1.376-.458,2.555-.852a6.682,6.682,0,0,0-1.376-2.358,9.682,9.682,0,0,0-7.4-3.538,2.1,2.1,0,0,0-2.162,1.965A1.844,1.844,0,0,0,368.057,324.675Z" transform="translate(-229.385 -200.82)" fill="#ed7e97"/>
      <path id="Trazado_1172720" data-name="Trazado 1172720" d="M363.925,335.844a1.829,1.829,0,0,0,1.31,1.179,1.628,1.628,0,0,0,.524.065,2.022,2.022,0,0,1,.655.065,8.13,8.13,0,0,1,1.441.262,6.292,6.292,0,0,1,3.013,1.769l2.1-1.572,1.179-.917a7.313,7.313,0,0,0-.917-.983,10.473,10.473,0,0,0-1.7-1.245,2.046,2.046,0,0,0-.655-.327,10.7,10.7,0,0,0-3.276-1.048,9.81,9.81,0,0,0-1.441-.131h-.327a2.055,2.055,0,0,0-2.1,2.031A1.817,1.817,0,0,0,363.925,335.844Z" transform="translate(-226.891 -208.779)" fill="#ed7e97"/>
      <path id="Trazado_1172721" data-name="Trazado 1172721" d="M364.856,348.521a1.214,1.214,0,0,0,.458.131,1.685,1.685,0,0,0,.983-.065c3.079-.917,6.092.917,6.158.917a2.045,2.045,0,0,0,2.162-3.472,9.149,9.149,0,0,0-1.638-.786,13.61,13.61,0,0,0-3.079-.852,11.73,11.73,0,0,0-4.717.262c-1.7.458,0,0-.065,0a2.034,2.034,0,0,0-1.376,2.555,2.024,2.024,0,0,0,1.114,1.31Z" transform="translate(-226.84 -216.347)" fill="#ed7e97"/>
      <path id="Trazado_1172722" data-name="Trazado 1172722" d="M367.294,323.109a10.88,10.88,0,0,1,9.565,1.507,9.682,9.682,0,0,0-7.4-3.538A2.155,2.155,0,0,0,367.294,323.109Z" transform="translate(-229.277 -200.827)" fill="#f490aa"/>
      <path id="Trazado_1172723" data-name="Trazado 1172723" d="M364.006,335.182c.131,0,1.441-1.769,7.075-1.048a.525.525,0,0,0,.589-.262c.131-.131,0-.262-.655-.327-.065,0-.655-.2-1.507-.458-.393-.131-.786-.262-1.31-.393-.131-.066-.328-.066-.458-.131-.655-.2-1.376-.393-2.1-.589a2.347,2.347,0,0,0,.655.458h-.327a2.055,2.055,0,0,0-2.1,2.031A1.008,1.008,0,0,0,364.006,335.182Z" transform="translate(-226.972 -208.118)" fill="#f490aa"/>
      <path id="Trazado_1172724" data-name="Trazado 1172724" d="M364.857,348.773c-.655-1.572,1.31-2.751,3.013-3.472a9.7,9.7,0,0,1,2.031-.655l-3.472.393-1.965.2a2.059,2.059,0,0,0-.721,2.227A2.023,2.023,0,0,0,364.857,348.773Z" transform="translate(-226.84 -216.599)" fill="#f490aa"/>
      <path id="Trazado_1172725" data-name="Trazado 1172725" d="M376.7,325.91c-.2,0-.485.007-.616-.19a8.633,8.633,0,0,0-7.834-4.92,1.5,1.5,0,0,0-.655,2.882.578.578,0,0,1,.327.786c-.131.327-.689.185-1.017.054a2.054,2.054,0,0,1-1.407-2.281,2.686,2.686,0,0,1,2.751-2.555c5.765.262,8.189,3.865,8.909,5.437a.63.63,0,0,1-.262.786C376.832,325.845,376.766,325.91,376.7,325.91Z" transform="translate(-228.071 -199.894)" fill="#bf4b6f"/>
      <path id="Trazado_1172726" data-name="Trazado 1172726" d="M363.978,336.669h-.2a2.674,2.674,0,0,1-1.834-2.555,2.436,2.436,0,0,1,.852-1.834,2.564,2.564,0,0,1,1.9-.721,11.946,11.946,0,0,1,6.616,2.031.564.564,0,0,1-.655.917,11.22,11.22,0,0,0-5.961-1.834,1.488,1.488,0,0,0-1.048.393,1.546,1.546,0,0,0-.458,1.048,1.473,1.473,0,0,0,1.048,1.441.565.565,0,0,1,.393.721A.8.8,0,0,1,363.978,336.669Z" transform="translate(-225.699 -207.836)" fill="#bf4b6f"/>
      <path id="Trazado_1172727" data-name="Trazado 1172727" d="M371.025,348.931a.591.591,0,0,1-.328-.065,8.04,8.04,0,0,0-5.7-.852,2.676,2.676,0,0,1-1.245.065,2.663,2.663,0,0,1-1.834-3.865,2.717,2.717,0,0,1,1.572-1.245,11.16,11.16,0,0,1,5.7-.131.565.565,0,1,1-.2,1.114,10.589,10.589,0,0,0-5.175.131,1.694,1.694,0,0,0-.917.721,1.321,1.321,0,0,0-.131,1.114,1.507,1.507,0,0,0,1.114,1.048,1.346,1.346,0,0,0,.721,0c3.341-.983,6.551.983,6.616.983a.625.625,0,0,1,.2.786c0,.131-.2.2-.393.2Z" transform="translate(-225.475 -215.185)" fill="#bf4b6f"/>
      <path id="Trazado_1172728" data-name="Trazado 1172728" d="M414.918,286.441c-7.141,1.441-13.757-3.6-13.757-3.6a30.932,30.932,0,0,0,10.744,2.1c2.948,0,5.9-.589,7.992-2.358a2.864,2.864,0,0,0,1.114-2.424c-.131-5.175-7.992-13.692-12.381-17.033a4.12,4.12,0,0,1,3.734-7.206c-6.944,4.455,6.027,12.578,9.761,19.587C425.793,282.445,422.059,285.065,414.918,286.441Z" transform="translate(-251.942 -157.083)" fill="#e26988"/>
      <path id="Trazado_1172729" data-name="Trazado 1172729" d="M95.664,290.785a46.043,46.043,0,0,1-11.2,1.572h-.655c-9.368,0-16.9-3.276-21.815-9.434-3.538-4.455-4.389-11.2-2.489-20.046a60.909,60.909,0,0,1,3.538-11.137,4.107,4.107,0,0,1,2.751-2.358,52.142,52.142,0,0,0-5.11,22.011c0,12.316,11.858,23.06,34.982,19.391Z" transform="translate(-22.634 -152.846)" fill="#f490aa"/>
      <path id="Trazado_1172730" data-name="Trazado 1172730" d="M418.972,289.333c-3.407,2.882-7.927,4.324-13.3,4.324a34.828,34.828,0,0,1-4.455-.327,42.182,42.182,0,0,1-9.368-2.424c22.4,5.306,30.921-5.9,28.366-14.347-2.489-8.385-13.888-20.111-14.084-20.242a3.259,3.259,0,0,1,1.245.655,57.481,57.481,0,0,1,9.237,9.237c4.127,5.241,6.289,9.957,6.42,14.15A11.276,11.276,0,0,1,418.972,289.333Z" transform="translate(-245.712 -157.486)" fill="#f490aa"/>
      <path id="Trazado_1172731" data-name="Trazado 1172731" d="M403.149,292.7a37.761,37.761,0,0,1-4.586-.327,48.509,48.509,0,0,1-10.023-2.686.578.578,0,0,1-.327-.786c.131-.262-.313-.7-.05-.569a48.72,48.72,0,0,0,10.466,2.862,34.688,34.688,0,0,0,4.389.327c5.306,0,9.63-1.441,12.971-4.193a10.539,10.539,0,0,0,3.8-8.516c-.131-4.061-2.227-8.713-6.289-13.822a53.332,53.332,0,0,0-9.171-9.106,3.557,3.557,0,0,0-4.258,5.7c4.192,3.145,12.447,11.792,12.578,17.491a3.135,3.135,0,0,1-1.31,2.882c-5.372,4.586-15.788,1.769-19.325.327-.131-.065-1.019-.328-.851-.852a.524.524,0,0,1,.721-.393c.2.065.458.131.655.2,3.341,1.376,13.168,4,18.146-.2a2.141,2.141,0,0,0,.852-1.965c-.131-4.979-7.992-13.43-12.119-16.574a4.723,4.723,0,1,1,5.7-7.534,61.041,61.041,0,0,1,9.368,9.3c4.192,5.306,6.42,10.219,6.551,14.478a11.617,11.617,0,0,1-4.192,9.434c-3.473,2.947-8.255,4.52-13.693,4.52Z" transform="translate(-243.187 -155.94)" fill="#bf4b6f"/>
      <path id="Trazado_1172732" data-name="Trazado 1172732" d="M105.42,282.305s-5.961,4.848-19.391,1.834S75.22,266.714,77.906,258.59s-.655-9.63-.655-9.63a4.762,4.762,0,0,1,2.686.2,4.1,4.1,0,0,1,2.1,5.437,61.778,61.778,0,0,0-3.013,9.7c-1.245,6.092-.917,10.678.917,13.037,3.407,4.324,8.713,6.42,15.788,6.289a34.6,34.6,0,0,0,9.7-1.31Z" transform="translate(-34.158 -152.49)" fill="#e26988"/>
      <path id="Trazado_1172733" data-name="Trazado 1172733" d="M82.759,291.6c-9.565,0-17.229-3.341-22.208-9.63-3.669-4.586-4.52-11.53-2.62-20.5A68.843,68.843,0,0,1,61.468,250.2a4.654,4.654,0,0,1,2.62-2.489,4.591,4.591,0,0,1,3.6.065A4.736,4.736,0,0,1,70.116,254a60.17,60.17,0,0,0-3.013,9.564c-1.245,5.9-.983,10.35.786,12.578,3.276,4.127,8.451,6.158,15.329,6.092a37.328,37.328,0,0,0,10.023-1.572c.262-.066.458-.131.721-.2a.54.54,0,0,1,.655.458c.065.327-.217.62-.982.786a41.146,41.146,0,0,1-10.35,1.638c-7.272.131-12.774-2.1-16.312-6.551-1.965-2.489-2.358-7.272-1.048-13.561A59.661,59.661,0,0,1,69,253.413a3.633,3.633,0,0,0,.065-2.751,3.536,3.536,0,0,0-6.551-.131A62,62,0,0,0,59.045,261.6c-1.834,8.647-1.048,15.264,2.424,19.587,4.913,6.158,12.512,9.368,21.946,9.237a47.477,47.477,0,0,0,12.512-1.965,3.642,3.642,0,0,0,1.114-.589.558.558,0,1,1,.721.852,4.446,4.446,0,0,1-1.441.786,45.8,45.8,0,0,1-12.84,2.031A2.962,2.962,0,0,1,82.759,291.6Z" transform="translate(-21.585 -151.504)" fill="#bf4b6f"/>
      <path id="Trazado_1172734" data-name="Trazado 1172734" d="M202.183,157.883A19.365,19.365,0,0,0,183,174.917a12.975,12.975,0,0,0-10.5.03,19.355,19.355,0,1,0,.11,3.1,10.455,10.455,0,0,1,10.267,0,19.324,19.324,0,1,0,19.3-20.16Zm-48.87,35.9a16.508,16.508,0,1,1,16.508-16.508A16.523,16.523,0,0,1,153.313,193.782Zm48.87,0a16.508,16.508,0,1,1,16.508-16.508A16.523,16.523,0,0,1,202.183,193.782Z" transform="translate(-73.141 -91.612)" fill="#ea2a21"/>
      <path id="Trazado_1172735" data-name="Trazado 1172735" d="M201.179,196.025a19.771,19.771,0,0,1-19.786-18.681,9.925,9.925,0,0,0-9.305,0,19.785,19.785,0,1,1-.183-4.1,13.314,13.314,0,0,1,9.684-.031,19.819,19.819,0,1,1,19.589,22.815Zm-24.407-20.839a10.991,10.991,0,0,1,5.342,1.417.5.5,0,0,1,.257.414,18.839,18.839,0,1,0,.117-3.046.5.5,0,0,1-.691.4,12.421,12.421,0,0,0-10.1.031.5.5,0,0,1-.69-.4,18.858,18.858,0,1,0,.107,3.014.5.5,0,0,1,.253-.409A11.28,11.28,0,0,1,176.771,175.186Zm24.407,18.088a17,17,0,1,1,17-17A17.024,17.024,0,0,1,201.179,193.274Zm0-33.017a16.012,16.012,0,1,0,16.012,16.012A16.03,16.03,0,0,0,201.179,160.257Zm-48.87,33.017a17,17,0,1,1,17-17.008A17.024,17.024,0,0,1,152.309,193.274Zm0-33.017a16.012,16.012,0,1,0,16.012,16.012A16.03,16.03,0,0,0,152.309,160.257Z" transform="translate(-72.137 -90.607)" fill="#c60a0a"/>
      <path id="Trazado_1172736" data-name="Trazado 1172736" d="M253.8,261.744c-9.232,0-10.2-6.614-10.213-6.684a.5.5,0,0,1,.984-.13c.036.264,1,6.465,10.678,5.768a.5.5,0,1,1,.071.99Q254.528,261.744,253.8,261.744Z" transform="translate(-146.488 -156.27)" fill="#bf4b6f"/>
      <path id="Trazado_1172737" data-name="Trazado 1172737" d="M252.415,125.489a.579.579,0,0,1-.561-.722c3.043-11.894-5.318-15.661-5.4-15.7a.579.579,0,0,1-.345-.6c.5-4.311-.152-7.432-1.936-9.276a6.045,6.045,0,0,0-4.444-1.751.579.579,0,0,1-.1-1.153,7.117,7.117,0,0,1,5.362,2.085c1.989,2.044,2.766,5.35,2.312,9.83,1.738.961,8.569,5.542,5.676,16.848a.577.577,0,0,1-.56.436Z" transform="translate(-143.485 -50.384)" fill="#ed7e97"/>
    </g>
  </g>
</svg>
