<svg xmlns="http://www.w3.org/2000/svg" width="36.729" height="36.198" viewBox="0 0 36.729 36.198">
  <g id="educacion_1_" data-name="educacion (1)" transform="translate(0.001 -0.923)">
    <path id="Trazado_1172742" data-name="Trazado 1172742" d="M35.58,33.784V28.407a1.717,1.717,0,0,0-.574-3.337H32.031a1.7,1.7,0,0,0,.106-.574,1.719,1.719,0,0,0-1.148-1.616V21.627h1.825l-1-6.021a2,2,0,0,0-.822-3.354v-2.5l-1.494-.569,4.761-1.9L18.364.923,2.472,7.28l6.71,2.684v7.072h-2.3A4.586,4.586,0,0,0,4.211,25.35,6.025,6.025,0,0,0,6.025,37.121H35.006a1.717,1.717,0,0,0,.574-3.337Zm-1.148-4.123H24.1v1.148h10.33v2.869H5.924a2.582,2.582,0,1,1,0-5.165H34.432Zm-4.591-6.887H6.886a1.148,1.148,0,0,1,0-2.3h6.872a17.283,17.283,0,0,0,4.605.574,17.282,17.282,0,0,0,4.605-.574h5.239l-.191,1.148h1.825Zm-2.612-4.591H28.59L28.4,19.331H25.744a6.971,6.971,0,0,0,1.485-1.148Zm4.229,2.3H29.371l.723-4.337a1.607,1.607,0,0,0,.643,0Zm-.183-6.313a.861.861,0,1,1-.861-.861.861.861,0,0,1,.861.861Zm-1.435-3.621v1.707a2,2,0,0,0-.822,3.354l-.238,1.43H27.546V9.964l.376-.15ZM18.364,2.159l12.8,5.121-3.254,1.3L18.568,5.022l-.409,1.073,8.179,3.116L18.364,12.4,5.562,7.28Zm0,11.478L26.4,10.423v6.969c-.514.533-2.78,2.513-8.034,2.513s-7.525-1.984-8.034-2.512v-6.97ZM3.443,21.627a3.447,3.447,0,0,1,3.443-3.443H9.5a6.971,6.971,0,0,0,1.485,1.148h-4.1a2.3,2.3,0,0,0,0,4.591H30.415a.574.574,0,0,1,0,1.148H6.886a3.447,3.447,0,0,1-3.443-3.443ZM35.006,35.974H6.025a4.878,4.878,0,0,1,0-9.756H35.006a.574.574,0,1,1,0,1.148H5.924a3.73,3.73,0,1,0,0,7.46H35.006a.574.574,0,1,1,0,1.148Z" transform="translate(0 0)"/>
    <rect id="Rectángulo_420197" data-name="Rectángulo 420197" width="16.069" height="1.148" transform="translate(5.738 31.383)"/>
  </g>
</svg>
